<svg width="77" height="77" viewBox="0 0 77 77" fill="none" xmlns="http://www.w3.org/2000/svg">
<g opacity="0.6">
<path d="M60.9583 32.6288C60.9599 33.1081 60.8541 33.5817 60.6487 34.0148C60.4433 34.4478 60.1434 34.8293 59.7712 35.1313L40.5212 50.6276C39.9471 51.0995 39.227 51.3574 38.4839 51.3574C37.7408 51.3574 37.0207 51.0995 36.4466 50.6276L17.1966 34.5859C16.5414 34.0413 16.1294 33.2588 16.0512 32.4104C15.973 31.562 16.235 30.7173 16.7795 30.0621C17.3241 29.4069 18.1067 28.9949 18.955 28.9167C19.8034 28.8385 20.6481 29.1005 21.3033 29.6451L38.5 43.9863L55.6966 30.1263C56.1676 29.734 56.741 29.4848 57.3491 29.4082C57.9573 29.3315 58.5746 29.4307 59.1282 29.694C59.6817 29.9573 60.1482 30.3736 60.4726 30.8937C60.7969 31.4138 60.9654 32.0159 60.9583 32.6288Z" fill="#164453"/>
</g>
</svg>
