<svg width="471" height="426" viewBox="0 0 471 426" fill="none" xmlns="http://www.w3.org/2000/svg">
<path d="M40.5948 34.4589L40.5961 34.458C87.9233 0.385331 149.926 -4.30329 202.253 21.2961C232.481 36.0871 267.288 51.946 290.191 58.5908C313.062 65.2314 332.898 79.4079 353.747 96.7009C359.129 101.165 364.588 105.846 370.177 110.639C386.022 124.228 402.912 138.713 422.06 151.682C434.42 160.054 443.273 168.906 449.666 179.206C456.068 189.521 460.165 201.552 462.652 216.508C467.294 244.419 466.224 281.559 464.679 335.213C464.552 339.628 464.421 344.156 464.291 348.799C463.868 363.835 462.655 375.409 460.635 384.291C458.613 393.18 455.849 399.071 452.535 403.021C446.191 410.585 436.516 412.52 419.997 411.659C413.54 411.322 406.268 410.57 398.15 409.73C365.305 406.332 318.625 401.503 256.204 417.006C219.151 426.208 191.482 418.865 169.269 401.631C146.744 384.154 129.427 356.192 114.134 323.389C103.982 301.613 94.9114 278.156 85.8043 254.605C81.1717 242.625 76.5296 230.621 71.731 218.801C57.6226 184.049 42.216 151.064 22.0185 126.972C5.27119 106.995 2.43836 89.8345 6.87797 75.1449C11.4465 60.0286 24.0447 46.366 40.5948 34.4589Z" stroke="#F0E967" stroke-width="10"/>
</svg>
