<svg width="77" height="78" viewBox="0 0 77 78" fill="none" xmlns="http://www.w3.org/2000/svg">
<path d="M75.8548 16.0456C73.1758 17.2481 70.2979 18.0606 67.2725 18.4279C70.3942 16.5357 72.7297 13.5576 73.8431 10.0494C70.9102 11.8141 67.7003 13.0563 64.3529 13.7219C62.1019 11.2872 59.1203 9.67343 55.8711 9.13116C52.6219 8.58889 49.2869 9.14844 46.3838 10.7229C43.4807 12.2974 41.172 14.7988 39.816 17.8387C38.4601 20.8785 38.1329 24.2868 38.8851 27.5344C32.9423 27.2321 27.1286 25.6674 21.8214 22.9418C16.5141 20.2162 11.832 16.3906 8.07872 11.7134C6.79539 13.9559 6.05747 16.5559 6.05747 19.3249C6.05604 21.8176 6.66203 24.2722 7.82167 26.4708C8.98131 28.6693 10.6587 30.544 12.7051 31.9284C10.3319 31.8519 8.01094 31.2023 5.93556 30.0336V30.2286C5.93532 33.7248 7.12916 37.1134 9.31452 39.8194C11.4999 42.5254 14.5421 44.3821 17.9251 45.0746C15.7235 45.6782 13.4153 45.7671 11.1748 45.3346C12.1292 48.3429 13.9885 50.9735 16.4922 52.8581C18.9958 54.7428 22.0187 55.7872 25.1374 55.8451C19.8431 60.0552 13.3047 62.3389 6.57401 62.3289C5.38174 62.3292 4.19047 62.2587 3.00635 62.1176C9.83842 66.5674 17.7914 68.929 25.9138 68.9199C53.4093 68.9199 68.4403 45.8514 68.4403 25.8444C68.4403 25.1944 68.4243 24.5379 68.3954 23.8879C71.3191 21.746 73.8428 19.0938 75.8484 16.0554L75.8548 16.0456Z" fill="#F0E967"/>
</svg>
