<svg width="83" height="83" viewBox="0 0 83 83" fill="none" xmlns="http://www.w3.org/2000/svg">
<path d="M41.5 0C42.8758 0 44.1953 0.546539 45.1681 1.51938C46.141 2.49223 46.6875 3.81169 46.6875 5.1875V36.3125H77.8125C79.1883 36.3125 80.5078 36.859 81.4806 37.8319C82.4535 38.8047 83 40.1242 83 41.5C83 42.8758 82.4535 44.1953 81.4806 45.1681C80.5078 46.141 79.1883 46.6875 77.8125 46.6875H46.6875V77.8125C46.6875 79.1883 46.141 80.5078 45.1681 81.4806C44.1953 82.4535 42.8758 83 41.5 83C40.1242 83 38.8047 82.4535 37.8319 81.4806C36.859 80.5078 36.3125 79.1883 36.3125 77.8125V46.6875H5.1875C3.81169 46.6875 2.49223 46.141 1.51938 45.1681C0.546539 44.1953 0 42.8758 0 41.5C0 40.1242 0.546539 38.8047 1.51938 37.8319C2.49223 36.859 3.81169 36.3125 5.1875 36.3125H36.3125V5.1875C36.3125 3.81169 36.859 2.49223 37.8319 1.51938C38.8047 0.546539 40.1242 0 41.5 0V0Z" fill="#F0F0EE"/>
</svg>
