<svg width="73" height="73" viewBox="0 0 73 73" fill="none" xmlns="http://www.w3.org/2000/svg">
<path fill-rule="evenodd" clip-rule="evenodd" d="M3.04175 8.63258C3.04175 7.14987 3.63076 5.72788 4.67919 4.67944C5.72763 3.63101 7.14962 3.042 8.63233 3.042H64.3618C65.0965 3.0408 65.8244 3.18454 66.5035 3.46499C67.1827 3.74545 67.7999 4.1571 68.3197 4.6764C68.8396 5.19569 69.2519 5.81242 69.5331 6.49128C69.8143 7.17014 69.9588 7.89779 69.9584 8.63258V64.362C69.9592 65.0969 69.8151 65.8248 69.5343 66.504C69.2535 67.1832 68.8416 67.8003 68.3221 68.3202C67.8025 68.84 67.1856 69.2523 66.5066 69.5334C65.8275 69.8146 65.0997 69.9591 64.3648 69.9587H8.63233C7.89791 69.9587 7.17069 69.814 6.49221 69.5328C5.81373 69.2517 5.19729 68.8396 4.67812 68.3202C4.15894 67.8007 3.74721 67.184 3.46643 66.5054C3.18566 65.8268 3.04135 65.0995 3.04175 64.365V8.63258ZM29.5286 28.5555H38.5897V33.1058C39.8976 30.49 43.2435 28.1358 48.2713 28.1358C57.9104 28.1358 60.1947 33.3461 60.1947 42.9061V60.6147H50.44V45.0839C50.44 39.6393 49.1321 36.5673 45.8106 36.5673C41.2025 36.5673 39.2863 39.8796 39.2863 45.0839V60.6147H29.5286V28.5555ZM12.7994 60.198H22.5571V28.1358H12.7994V60.1949V60.198ZM23.9532 17.6785C23.9716 18.514 23.8229 19.3447 23.5159 20.1219C23.2089 20.8991 22.7498 21.6072 22.1654 22.2046C21.581 22.802 20.8833 23.2766 20.113 23.6006C19.3427 23.9247 18.5154 24.0916 17.6798 24.0916C16.8441 24.0916 16.0169 23.9247 15.2466 23.6006C14.4763 23.2766 13.7785 22.802 13.1941 22.2046C12.6098 21.6072 12.1506 20.8991 11.8436 20.1219C11.5366 19.3447 11.3879 18.514 11.4063 17.6785C11.4424 16.0386 12.1193 14.478 13.2918 13.331C14.4644 12.184 16.0395 11.5417 17.6798 11.5417C19.3201 11.5417 20.8952 12.184 22.0677 13.331C23.2403 14.478 23.9171 16.0386 23.9532 17.6785Z" fill="#F0E967"/>
</svg>
