<svg width="80" height="64" viewBox="0 0 80 64" fill="none" xmlns="http://www.w3.org/2000/svg">
<path d="M39.875 40C47.125 40 52.875 34.25 52.875 27C52.875 19.875 47 14 39.875 14C32.75 14 27 19.875 27 27C26.875 34.25 32.75 40 39.875 40ZM46.125 44H33.75C23.875 44 16 51.5 16 60.75C16 62.625 17.5 64 19.5 64H60.375C62.375 64 64 62.625 64 60.75C64 51.5 56 44 46.125 44ZM64 20C69.5 20 74 15.625 74 10C74 4.5 69.5 0 64 0C58.375 0 54 4.5 54 10C54 15.625 58.375 20 64 20ZM22.875 27C22.875 26.375 23 25.75 23.125 25.125C21.75 24.375 20.25 24 18.625 24H11C4.875 24 0 29.25 0 35.75C0 37 0.875 38 2.125 38H27.125C24.5 35.125 22.875 31.25 22.875 27ZM16 20C21.5 20 26 15.625 26 10C26 4.5 21.5 0 16 0C10.375 0 6 4.5 6 10C6 15.625 10.375 20 16 20ZM68.875 24H61.25C59.625 24 58.125 24.5 56.75 25.125C56.75 25.75 56.875 26.375 56.875 27C56.875 31.25 55.375 35.125 52.75 38H77.75C79 38 80 37 80 35.75C80 29.25 75 24 68.875 24Z" fill="#F0F0EE"/>
</svg>
