<svg width="196" height="157" viewBox="0 0 196 157" fill="none" xmlns="http://www.w3.org/2000/svg">
<path d="M149.449 58.8762H102.899V76.0481C102.899 88.2217 93.0073 98.1262 80.8492 98.1262C68.6911 98.1262 58.7992 88.2217 58.7992 76.0481V38.7606L38.9235 50.7195C33.0129 54.2459 29.3992 60.6547 29.3992 67.5235V82.0276L4.89917 96.1944C0.213547 98.8928 -1.40958 104.903 1.31605 109.595L25.816 152.095C28.5111 156.787 34.5136 158.381 39.1992 155.683L70.8654 137.376H112.699C123.51 137.376 132.299 128.576 132.299 117.751H137.199C142.62 117.751 146.999 113.366 146.999 107.939V88.3137H149.449C153.522 88.3137 156.799 85.0326 156.799 80.9543V66.2356C156.799 62.1572 153.522 58.8762 149.449 58.8762ZM194.682 47.4078L170.182 4.90743C167.487 0.215828 161.485 -1.3787 156.799 1.31973L125.133 19.6262H93.8342C90.1592 19.6262 86.5761 20.6688 83.4523 22.6006L73.1929 29.0094C70.3142 30.7879 68.5992 33.9463 68.5992 37.3194V76.0481C68.5992 82.8248 74.0811 88.3137 80.8492 88.3137C87.6173 88.3137 93.0992 82.8248 93.0992 76.0481V49.0637H149.449C158.912 49.0637 166.599 56.7604 166.599 66.2356V74.9748L191.099 60.808C195.785 58.0789 197.377 52.0994 194.682 47.4078Z" fill="#F0F0EE"/>
</svg>
