<svg width="73" height="64" viewBox="0 0 73 64" fill="none" xmlns="http://www.w3.org/2000/svg">
<path d="M71 42.125C69.375 39.875 66.25 39.375 64 41L49 52.125H33.875C32.875 52.125 32 51.125 32 50.125C32 49 33 48.125 33.875 48.125H43.75C45.625 48.125 47.5 46.75 47.875 44.75C48.25 42.25 46.375 40.125 43.875 40.125H23.875C20.625 40.125 17.125 41.25 14.5 43.375L8.75 48.125L1.875 48C0.875 48 0 49 0 50V62C0 63.125 0.875 64 1.875 64H45.125C47.875 64 50.625 63.125 52.75 61.5L69.75 49.125C72.125 47.5 72.625 44.375 71 42.125ZM20 22H28V30C28 31.125 28.875 32 30 32H38C39 32 40 31.125 40 30V22H48C49 22 50 21.125 50 20V12C50 11 49 10 48 10H40V2C40 1 39 0 38 0H30C28.875 0 28 1 28 2V10H20C18.875 10 18 11 18 12V20C18 21.125 18.875 22 20 22Z" fill="#F0F0EE"/>
</svg>
