<svg width="74" height="74" viewBox="0 0 74 74" fill="none" xmlns="http://www.w3.org/2000/svg">
<path d="M68.5 4.5H19C16.4688 4.5 14.5 6.60938 14.5 9V56.25C14.5 57.5156 13.375 58.5 12.25 58.5C10.9844 58.5 10 57.5156 10 56.25V13.5H5.5C2.96875 13.5 1 15.6094 1 18V58.5C1 63.5625 4.9375 67.5 10 67.5H64C68.9219 67.5 73 63.5625 73 58.5V9C73 6.60938 70.8906 4.5 68.5 4.5ZM39.25 58.5H25.75C24.4844 58.5 23.5 57.5156 23.5 56.25C23.5 55.125 24.4844 54 25.75 54H39.25C40.375 54 41.5 55.125 41.5 56.25C41.5 57.5156 40.375 58.5 39.25 58.5ZM39.25 45H25.75C24.4844 45 23.5 44.0156 23.5 42.75C23.5 41.625 24.4844 40.5 25.75 40.5H39.25C40.375 40.5 41.5 41.625 41.5 42.75C41.5 44.0156 40.375 45 39.25 45ZM61.75 58.5H48.25C46.9844 58.5 46 57.5156 46 56.25C46 55.125 46.9844 54 48.25 54H61.75C62.875 54 64 55.125 64 56.25C64 57.5156 62.875 58.5 61.75 58.5ZM61.75 45H48.25C46.9844 45 46 44.0156 46 42.75C46 41.625 46.9844 40.5 48.25 40.5H61.75C62.875 40.5 64 41.625 64 42.75C64 44.0156 62.875 45 61.75 45ZM64 29.25C64 30.5156 62.875 31.5 61.75 31.5H25.75C24.4844 31.5 23.5 30.5156 23.5 29.25V15.75C23.5 14.625 24.4844 13.5 25.75 13.5H61.75C62.875 13.5 64 14.625 64 15.75V29.25Z" fill="#F0F0EE"/>
<path d="M51.3125 22.25C51.3125 22.8828 50.7852 23.4102 50.1875 23.4102H45.125V28.4727C45.125 29.0703 44.5977 29.5625 44 29.5625C43.3672 29.5625 42.875 29.0703 42.875 28.4727V23.4102H37.8125C37.1797 23.4102 36.6875 22.8828 36.6875 22.25C36.6875 21.6523 37.1797 21.1602 37.8125 21.1602H42.875V16.0977C42.875 15.4648 43.3672 14.9375 44 14.9375C44.5977 14.9375 45.125 15.4648 45.125 16.0977V21.1602H50.1875C50.7852 21.125 51.3125 21.6523 51.3125 22.25Z" fill="#F0F0EE"/>
</svg>
