<svg width="98" height="98" viewBox="0 0 98 98" fill="none" xmlns="http://www.w3.org/2000/svg">
<path d="M85.5334 33.9115C85.4922 30.8189 84.9133 27.757 83.8225 24.8629C82.8766 22.4217 81.4318 20.2046 79.5806 18.3534C77.7293 16.5021 75.5123 15.0574 73.0711 14.1115C70.2141 13.039 67.1959 12.4591 64.1449 12.3965C60.2167 12.2209 58.9713 12.1719 48.9998 12.1719C39.0283 12.1719 37.7502 12.1719 33.8506 12.3965C30.801 12.4596 27.7842 13.0395 24.9285 14.1115C22.487 15.0567 20.2696 16.5012 18.4182 18.3525C16.5669 20.2039 15.1224 22.4213 14.1771 24.8629C13.1025 27.7177 12.5239 30.7352 12.4662 33.785C12.2906 37.7172 12.2375 38.9626 12.2375 48.9341C12.2375 58.9056 12.2375 60.1796 12.4662 64.0833C12.5275 67.1376 13.1032 70.1511 14.1771 73.0136C15.124 75.4544 16.5695 77.6709 18.4215 79.5215C20.2735 81.372 22.4911 82.8159 24.9326 83.7609C27.7805 84.8764 30.7978 85.4979 33.8547 85.5984C37.787 85.774 39.0324 85.827 49.0039 85.827C58.9754 85.827 60.2535 85.827 64.1531 85.5984C67.2039 85.5383 70.2224 84.9598 73.0792 83.8875C75.5198 82.9405 77.7363 81.4954 79.5874 79.6442C81.4385 77.7931 82.8836 75.5766 83.8306 73.136C84.9046 70.2777 85.4803 67.2642 85.5415 64.2058C85.7171 60.2776 85.7702 59.0322 85.7702 49.0566C85.762 39.0851 85.7621 37.8193 85.5334 33.9115ZM48.9753 67.791C38.5465 67.791 30.098 59.3425 30.098 48.9137C30.098 38.4849 38.5465 30.0365 48.9753 30.0365C53.9819 30.0365 58.7834 32.0253 62.3235 35.5655C65.8637 39.1057 67.8526 43.9072 67.8526 48.9137C67.8526 53.9203 65.8637 58.7218 62.3235 62.2619C58.7834 65.8021 53.9819 67.791 48.9753 67.791ZM68.6039 33.74C68.0257 33.7406 67.453 33.6271 66.9187 33.4061C66.3844 33.185 65.899 32.8608 65.4901 32.452C65.0813 32.0431 64.757 31.5577 64.536 31.0234C64.315 30.4891 64.2015 29.9164 64.202 29.3382C64.202 28.7604 64.3159 28.1883 64.537 27.6545C64.7581 27.1207 65.0822 26.6356 65.4907 26.2271C65.8993 25.8185 66.3843 25.4944 66.9181 25.2733C67.4519 25.0522 68.0241 24.9384 68.6018 24.9384C69.1796 24.9384 69.7518 25.0522 70.2856 25.2733C70.8194 25.4944 71.3044 25.8185 71.713 26.2271C72.1215 26.6356 72.4456 27.1207 72.6667 27.6545C72.8878 28.1883 73.0016 28.7604 73.0016 29.3382C73.0016 31.7719 71.0335 33.74 68.6039 33.74Z" fill="#F0E967"/>
<path d="M48.9754 61.1769C55.7476 61.1769 61.2376 55.6869 61.2376 48.9146C61.2376 42.1423 55.7476 36.6523 48.9754 36.6523C42.2031 36.6523 36.7131 42.1423 36.7131 48.9146C36.7131 55.6869 42.2031 61.1769 48.9754 61.1769Z" fill="#F0E967"/>
</svg>
