<svg width="82" height="66" viewBox="0 0 82 66" fill="none" xmlns="http://www.w3.org/2000/svg">
<path d="M62 25H43V31.375C43 36.125 39.5 40.375 34.875 40.875C29.5 41.5 25 37.25 25 32V16.875L21.875 18.75C16.375 22 13 28 13 34.5L3 40.25C1 41.375 0.375 43.875 1.5 45.75L11.5 63.125C12.625 65 15 65.625 17 64.5L29.875 57.125H47C51.375 57.125 55 53.5 55 49.125C58.25 49.125 61 46.375 61 43.125V37H62C63.625 37 65 35.75 65 34V28C65 26.375 63.625 25 62 25ZM80.375 20.375L70.375 3C69.25 1.125 66.875 0.5 65 1.625L52 9H44.25C39.5 9 34.875 10.375 30.75 12.875C29.625 13.625 29 14.875 29 16.25V32C29 34.875 31.125 37 34 37C36.75 37 39 34.875 39 32V21H62C65.75 21 69 24.125 69 28V31.5L79 25.75C80.875 24.75 81.5 22.25 80.375 20.375Z" fill="#F0F0EE"/>
</svg>
