<svg width="81" height="81" viewBox="0 0 81 81" fill="none" xmlns="http://www.w3.org/2000/svg">
<g clip-path="url(#clip0_412_365)">
<path d="M7.73318 23.7235C7.37062 23.688 7.00536 23.7549 6.67897 23.9167C6.35258 24.0785 6.07815 24.3287 5.8869 24.6388C5.69565 24.9488 5.59525 25.3063 5.59714 25.6706C5.59902 26.0349 5.70311 26.3914 5.89756 26.6994L17.7562 42.3724C17.9773 42.6644 18.2763 42.8882 18.6188 43.0179C18.9613 43.1477 19.3335 43.1781 19.6926 43.1058L41.7021 38.6398C42.7501 38.4589 43.2852 39.8546 42.385 40.4208L23.0318 51.8145C22.7164 52.0008 22.46 52.2722 22.292 52.5977C22.124 52.9232 22.0513 53.2895 22.0821 53.6545L23.7419 73.238C23.8033 73.5971 23.9642 73.9318 24.2063 74.2039C24.4485 74.4761 24.7622 74.6748 25.1117 74.7775C25.4612 74.8803 25.8325 74.8828 26.1834 74.7849C26.5343 74.687 26.8507 74.4926 27.0966 74.2238L65.2888 32.4809C65.5323 32.2142 65.6969 31.885 65.764 31.5301C65.8311 31.1753 65.7982 30.8088 65.6689 30.4716C65.5396 30.1343 65.319 29.8398 65.0319 29.6208C64.7447 29.4017 64.4023 29.267 64.0429 29.2315L7.73318 23.7235Z" fill="#164453"/>
</g>
<defs>
<clipPath id="clip0_412_365">
<rect width="62.2834" height="62.2834" fill="white" transform="translate(0 22.2988) rotate(-20.9784)"/>
</clipPath>
</defs>
</svg>
