<svg width="96" height="94" viewBox="0 0 96 94" fill="none" xmlns="http://www.w3.org/2000/svg">
<path d="M86.3998 34.6529V68.1498C86.3998 71.2661 85.1356 74.2548 82.8851 76.4583C80.6347 78.6619 77.5824 79.8998 74.3998 79.8998H21.5999C18.4173 79.8998 15.365 78.6619 13.1146 76.4583C10.8641 74.2548 9.59985 71.2661 9.59985 68.1498V34.6529L46.7806 56.0755C47.15 56.2888 47.571 56.4013 47.9998 56.4013C48.4287 56.4013 48.8497 56.2888 49.219 56.0755L86.3998 34.6529ZM74.3998 18.7998C77.3525 18.7994 80.2018 19.8649 82.4024 21.7925C84.6031 23.7201 86.0007 26.3745 86.3278 29.2479L47.9998 51.3238L9.67185 29.2479C9.99901 26.3745 11.3966 23.7201 13.5973 21.7925C15.7979 19.8649 18.6472 18.7994 21.5999 18.7998H74.3998Z" fill="#F0E967"/>
</svg>
