<svg width="140" height="140" viewBox="0 0 140 140" fill="none" xmlns="http://www.w3.org/2000/svg">
<g clip-path="url(#clip0_446_2695)">
<path d="M70.1411 57.3975C71.2932 57.3975 72.398 57.8551 73.2126 58.6697C74.0272 59.4843 74.4849 60.5892 74.4849 61.7412V68.4827C74.4839 78.8604 72.866 89.1745 69.6894 99.054L58.1263 135.02C57.753 136.09 56.9767 136.971 55.9631 137.476C54.9495 137.981 53.7787 138.07 52.7001 137.725C51.6216 137.379 50.7206 136.626 50.1893 135.626C49.658 134.626 49.5383 133.458 49.8558 132.371L61.4102 96.3957C64.3105 87.3752 65.7878 77.958 65.7887 68.4827V61.7412C65.7887 60.5892 66.2463 59.4843 67.061 58.6697C67.8756 57.8551 68.9804 57.3975 70.1324 57.3975H70.1411Z" fill="#164453"/>
<path d="M52.7651 61.7412C52.7651 59.4595 53.2146 57.2001 54.0877 55.0921C54.9609 52.9841 56.2407 51.0686 57.8542 49.4552C59.4676 47.8418 61.383 46.562 63.491 45.6888C65.5991 44.8156 67.8584 44.3662 70.1402 44.3662C72.4219 44.3662 74.6812 44.8156 76.7893 45.6888C78.8973 46.562 80.8127 47.8418 82.4261 49.4552C84.0396 51.0686 85.3194 52.9841 86.1926 55.0921C87.0657 57.2001 87.5152 59.4595 87.5152 61.7412C87.5152 62.8932 87.0575 63.9981 86.2429 64.8127C85.4283 65.6273 84.3234 66.085 83.1714 66.085C82.0194 66.085 80.9145 65.6273 80.0999 64.8127C79.2853 63.9981 78.8277 62.8932 78.8277 61.7412C78.8277 59.4371 77.9124 57.2274 76.2831 55.5982C74.6539 53.969 72.4442 53.0537 70.1402 53.0537C67.8361 53.0537 65.6264 53.969 63.9972 55.5982C62.3679 57.2274 61.4527 59.4371 61.4527 61.7412V64.6255C61.4527 68.1786 61.2615 71.7145 60.8793 75.2329C60.7289 76.3546 60.1468 77.3734 59.2566 78.0723C58.3665 78.7712 57.2388 79.0952 56.1134 78.9752C54.9881 78.8552 53.954 78.3007 53.2313 77.4298C52.5086 76.5588 52.1543 75.4402 52.2439 74.312C52.5914 71.0976 52.7651 67.8659 52.7651 64.6255V61.7412ZM83.2496 70.4287C83.8201 70.4433 84.3821 70.5703 84.9035 70.8022C85.4249 71.0341 85.8955 71.3665 86.2884 71.7804C86.6814 72.1943 86.9889 72.6815 87.1934 73.2143C87.3979 73.7471 87.4954 74.3149 87.4804 74.8854C87.2229 84.7534 85.5044 94.5288 82.3808 103.893L71.3825 136.905C71.0173 137.999 70.2327 138.902 69.2014 139.417C68.1701 139.932 66.9766 140.016 65.8833 139.651C64.79 139.286 63.8866 138.501 63.3717 137.47C62.8569 136.438 62.7728 135.245 63.138 134.152L74.1451 101.139C76.9937 92.5905 78.56 83.6671 78.7929 74.6595C78.8075 74.089 78.9345 73.527 79.1664 73.0056C79.3983 72.4842 79.7307 72.0136 80.1446 71.6207C80.5585 71.2278 81.0457 70.9203 81.5785 70.7157C82.1113 70.5112 82.6791 70.4137 83.2496 70.4287ZM54.0943 88.8028C54.6399 88.9712 55.1469 89.2456 55.5864 89.6102C56.0258 89.9748 56.3891 90.4224 56.6553 90.9276C56.9216 91.4327 57.0857 91.9853 57.1382 92.5539C57.1907 93.1225 57.1305 93.6958 56.9612 94.2411L45.6414 130.711C45.4809 131.266 45.2115 131.783 44.8489 132.232C44.4863 132.682 44.0378 133.054 43.5296 133.328C43.0213 133.602 42.4636 133.772 41.8889 133.828C41.3143 133.883 40.7342 133.824 40.1828 133.653C39.6313 133.482 39.1194 133.203 38.6771 132.832C38.2348 132.461 37.8708 132.005 37.6066 131.492C37.3424 130.979 37.1831 130.418 37.1382 129.842C37.0932 129.267 37.1635 128.688 37.3448 128.14L48.6646 91.661C49.0068 90.5627 49.7706 89.645 50.7885 89.1091C51.8064 88.5733 52.9953 88.4631 54.0943 88.8028Z" fill="#164453"/>
<path d="M41.4626 51.6029C43.8618 44.8494 48.569 39.16 54.7537 35.5384C60.9384 31.9168 68.2034 30.5957 75.2672 31.8079C82.331 33.0202 88.7398 36.688 93.3632 42.1645C97.9865 47.6409 100.527 54.5742 100.538 61.7412C100.538 62.8933 100.08 63.9981 99.2654 64.8127C98.4507 65.6273 97.3459 66.085 96.1938 66.085C95.0418 66.085 93.937 65.6273 93.1224 64.8127C92.3077 63.9981 91.8501 62.8933 91.8501 61.7412C91.8493 56.6182 90.0376 51.6604 86.7351 47.7439C83.4326 43.8274 78.8519 41.2044 73.8026 40.3385C68.7533 39.4725 63.5605 40.4193 59.1417 43.0115C54.7229 45.6037 51.3627 49.6746 49.6549 54.5045C49.2701 55.5909 48.4696 56.4799 47.4293 56.976C46.389 57.4721 45.1943 57.5347 44.1079 57.1499C43.0216 56.7651 42.1325 55.9645 41.6365 54.9243C41.1404 53.884 41.0778 52.6893 41.4626 51.6029ZM44.0688 66.111C45.215 66.2231 46.2697 66.7857 47.0012 67.6752C47.7326 68.5647 48.0809 69.7082 47.9695 70.8544C47.3831 76.8342 46.2193 82.7431 44.4945 88.4987L33.8784 123.874C33.5478 124.978 32.7923 125.905 31.7781 126.452C30.7639 126.998 29.5741 127.12 28.4704 126.789C27.3668 126.458 26.4397 125.703 25.8931 124.689C25.3465 123.674 25.2251 122.485 25.5558 121.381L36.1719 86.0054C37.737 80.7855 38.7931 75.4264 39.3255 70.003C39.4375 68.8569 40.0001 67.8021 40.8896 67.0707C41.7791 66.3392 42.9226 65.9909 44.0688 66.1023V66.111ZM96.1938 71.7318C97.3459 71.7318 98.4507 72.1895 99.2654 73.0041C100.08 73.8187 100.538 74.9235 100.538 76.0756C100.538 87.1956 98.6872 98.2461 95.0471 108.758L85.5777 136.08C85.1653 137.12 84.3674 137.961 83.3503 138.428C82.3332 138.894 81.1753 138.95 80.118 138.584C79.0607 138.217 78.1855 137.457 77.6748 136.462C77.1641 135.466 77.0573 134.312 77.3767 133.239L86.8374 105.917C90.156 96.3175 91.8588 86.2313 91.8588 76.0756C91.8588 74.9235 92.3164 73.8187 93.131 73.0041C93.9457 72.1895 95.0505 71.7318 96.2025 71.7318H96.1938Z" fill="#164453"/>
<path d="M34.0177 37.6073C38.844 30.3716 45.733 24.753 53.7912 21.4798C61.8494 18.2066 70.7051 17.43 79.2101 19.2506C79.7685 19.3692 80.2981 19.5967 80.7687 19.92C81.2392 20.2434 81.6414 20.6562 81.9524 21.135C82.2634 21.6138 82.477 22.1491 82.5811 22.7105C82.6852 23.2718 82.6777 23.8482 82.5591 24.4066C82.4404 24.9651 82.213 25.4947 81.8896 25.9652C81.5663 26.4358 81.1535 26.838 80.6747 27.149C80.1959 27.46 79.6605 27.6736 79.0992 27.7777C78.5379 27.8818 77.9615 27.8743 77.4031 27.7557C70.5976 26.2952 63.5104 26.9142 57.0612 29.5323C50.612 32.1504 45.0987 36.6467 41.237 42.4375C40.5873 43.373 39.5961 44.0158 38.4771 44.2276C37.358 44.4393 36.2005 44.2031 35.2539 43.5698C34.3073 42.9364 33.6473 41.9566 33.4161 40.8414C33.1849 39.7262 33.4009 38.5648 34.0177 37.6073ZM92.3977 29.3107C93.1501 28.4389 94.218 27.9016 95.3665 27.8169C96.515 27.7321 97.6501 28.107 98.5224 28.859C103.25 32.9337 107.041 37.9812 109.638 43.6562C112.235 49.3313 113.576 55.5002 113.569 61.7411V74.7724C113.569 75.9244 113.111 77.0293 112.297 77.8439C111.482 78.6585 110.377 79.1161 109.225 79.1161C108.073 79.1161 106.968 78.6585 106.154 77.8439C105.339 77.0293 104.882 75.9244 104.882 74.7724V61.7411C104.888 56.7479 103.815 51.8123 101.737 47.272C99.6586 42.7318 96.624 38.6942 92.8407 35.4354C91.9702 34.6817 91.4345 33.6132 91.3514 32.4648C91.2683 31.3163 91.6447 30.1818 92.3977 29.3107ZM32.0891 51.681C32.6539 51.7639 33.197 51.9574 33.687 52.2503C34.1771 52.5433 34.6046 52.9299 34.9451 53.3882C35.2856 53.8465 35.5324 54.3675 35.6714 54.9212C35.8104 55.475 35.8389 56.0507 35.7552 56.6155C35.5032 58.2835 35.3729 60.0036 35.3729 61.7411C35.3729 67.9093 34.5042 74.0513 32.7841 79.9849L22.8803 114.066C22.7319 114.626 22.4731 115.15 22.119 115.608C21.765 116.067 21.3229 116.449 20.8188 116.734C20.3146 117.019 19.7586 117.2 19.1834 117.267C18.6082 117.334 18.0255 117.285 17.4694 117.124C16.9133 116.962 16.3952 116.691 15.9454 116.326C15.4957 115.962 15.1234 115.511 14.8505 115C14.5776 114.489 14.4096 113.929 14.3563 113.352C14.303 112.776 14.3656 112.194 14.5403 111.642L24.4441 77.5611C25.9337 72.4199 26.6883 67.0938 26.6854 61.7411C26.6854 59.5693 26.8505 57.4321 27.1546 55.3471C27.2375 54.7822 27.4309 54.2392 27.7238 53.7492C28.0168 53.2591 28.4035 52.8316 28.8618 52.4911C29.3201 52.1506 29.841 51.9038 30.3948 51.7648C30.9485 51.6258 31.5243 51.5973 32.0891 51.681ZM109.251 83.4773C110.399 83.5746 111.46 84.1233 112.203 85.003C112.946 85.8826 113.309 87.0212 113.213 88.1685C112.483 96.856 110.624 105.422 107.653 113.658L101.189 131.623C100.786 132.689 99.9808 133.554 98.946 134.032C97.9113 134.509 96.7304 134.561 95.6579 134.175C94.5855 133.79 93.7073 132.999 93.2128 131.972C92.7183 130.946 92.6471 129.766 93.0145 128.687L99.4867 110.704C102.186 103.204 103.892 95.382 104.56 87.4388C104.657 86.2916 105.206 85.2299 106.086 84.4871C106.966 83.7442 108.104 83.3811 109.251 83.4773Z" fill="#164453"/>
<path d="M41.906 12.8305C50.4909 7.87404 60.2293 5.26482 70.1422 5.26514C80.0552 5.26545 89.7934 7.8753 98.3779 12.8323C106.962 17.7894 114.091 24.9189 119.047 33.5042C124.002 42.0896 126.61 51.8282 126.609 61.7411C126.609 62.8932 126.152 63.998 125.337 64.8126C124.522 65.6273 123.417 66.0849 122.265 66.0849C121.113 66.0849 120.009 65.6273 119.194 64.8126C118.379 63.998 117.922 62.8932 117.922 61.7411C117.924 53.3524 115.719 45.1108 111.526 37.8449C107.334 30.5789 101.302 24.5448 94.038 20.3492C86.7739 16.1536 78.5332 13.9444 70.1444 13.9437C61.7557 13.943 53.5146 16.1508 46.2498 20.3452C45.2571 20.8645 44.1021 20.9802 43.0261 20.668C41.9501 20.3559 41.0363 19.64 40.4757 18.6701C39.915 17.7001 39.7508 16.551 40.0173 15.4628C40.2839 14.3747 40.9606 13.4316 41.906 12.8305ZM34.1742 23.7507C34.5997 24.1306 34.9463 24.5906 35.194 25.1044C35.4418 25.6183 35.586 26.1759 35.6182 26.7454C35.6505 27.315 35.5703 27.8853 35.3821 28.4238C35.194 28.9623 34.9016 29.4585 34.5217 29.8841C26.6716 38.6362 22.3391 49.9843 22.3592 61.7411C22.3592 62.8932 21.9015 63.998 21.0869 64.8126C20.2723 65.6273 19.1674 66.0849 18.0154 66.0849C16.8634 66.0849 15.7585 65.6273 14.9439 64.8126C14.1293 63.998 13.6717 62.8932 13.6717 61.7411C13.6717 47.2851 19.11 34.0801 28.0495 24.0982C28.4294 23.6726 28.8894 23.3261 29.4032 23.0783C29.917 22.8305 30.4746 22.6864 31.0442 22.6541C31.6137 22.6219 32.184 22.7021 32.7226 22.8902C33.2611 23.0784 33.7573 23.3708 34.1828 23.7507H34.1742ZM16.7557 70.6024C17.8634 70.9143 18.8021 71.653 19.3657 72.6563C19.9293 73.6597 20.0716 74.8457 19.7616 75.9539L12.994 99.9922C12.8589 100.562 12.6101 101.098 12.2626 101.569C11.915 102.04 11.4758 102.436 10.9714 102.733C10.4671 103.03 9.90787 103.222 9.32745 103.297C8.74702 103.373 8.15733 103.33 7.59379 103.172C7.03026 103.014 6.5045 102.743 6.04809 102.377C5.59169 102.01 5.21405 101.555 4.93785 101.039C4.66166 100.523 4.4926 99.9567 4.44085 99.3737C4.38909 98.7907 4.45569 98.2032 4.63666 97.6466L11.3955 73.6083C11.5499 73.0588 11.8111 72.5452 12.164 72.0967C12.517 71.6482 12.9549 71.2737 13.4527 70.9946C13.9505 70.7154 14.4985 70.5371 15.0652 70.4698C15.6319 70.4025 16.2064 70.4476 16.7557 70.6024ZM122.309 74.7811C122.879 74.7924 123.442 74.916 123.965 75.1447C124.487 75.3735 124.96 75.7031 125.355 76.1145C125.75 76.526 126.061 77.0113 126.269 77.5427C126.476 78.0741 126.577 78.6412 126.566 79.2117C126.305 92.2343 125.167 105.491 120.25 118.592L119.642 120.217C119.216 121.266 118.398 122.107 117.361 122.562C116.325 123.017 115.151 123.049 114.091 122.651C113.031 122.254 112.168 121.458 111.686 120.434C111.204 119.41 111.141 118.238 111.51 117.167L112.118 115.543C116.514 103.815 117.626 91.7391 117.878 79.038C117.89 78.4675 118.013 77.9048 118.242 77.3821C118.471 76.8595 118.8 76.387 119.212 75.9916C119.623 75.5963 120.108 75.286 120.64 75.0783C121.171 74.8705 121.738 74.7696 122.309 74.7811Z" fill="#164453"/>
</g>
<defs>
<clipPath id="clip0_446_2695">
<rect width="139" height="139" fill="white" transform="translate(0.119141 0.928711)"/>
</clipPath>
</defs>
</svg>
