<svg width="119" height="115" viewBox="0 0 119 115" fill="none" xmlns="http://www.w3.org/2000/svg">
<path d="M59.9999 18.0176C58.0882 18.0176 56.1953 18.3941 54.4292 19.1257C52.6631 19.8572 51.0583 20.9295 49.7066 22.2812C48.3549 23.6329 47.2826 25.2377 46.5511 27.0038C45.8195 28.7699 45.443 30.6628 45.443 32.5745C45.443 34.4861 45.8195 36.379 46.5511 38.1451C47.2826 39.9113 48.3549 41.516 49.7066 42.8677C51.0583 44.2195 52.6631 45.2917 54.4292 46.0233C56.1953 46.7548 58.0882 47.1313 59.9999 47.1313C63.8606 47.1313 67.5632 45.5977 70.2931 42.8677C73.0231 40.1378 74.5568 36.4352 74.5568 32.5745C74.5568 28.7137 73.0231 25.0111 70.2931 22.2812C67.5632 19.5512 63.8606 18.0176 59.9999 18.0176Z" fill="#164453"/>
<path d="M92.7859 25.2891C89.8874 25.2891 87.1077 26.4405 85.0582 28.49C83.0087 30.5395 81.8573 33.3192 81.8573 36.2177C81.8573 39.1161 83.0087 41.8958 85.0582 43.9453C87.1077 45.9948 89.8874 47.1462 92.7859 47.1462C95.6843 47.1462 98.4641 45.9948 100.514 43.9453C102.563 41.8958 103.714 39.1161 103.714 36.2177C103.714 33.3192 102.563 30.5395 100.514 28.49C98.4641 26.4405 95.6843 25.2891 92.7859 25.2891Z" fill="#164453"/>
<path d="M27.2143 25.2891C24.3159 25.2891 21.5361 26.4405 19.4866 28.49C17.4371 30.5395 16.2857 33.3192 16.2857 36.2177C16.2857 39.1161 17.4371 41.8958 19.4866 43.9453C21.5361 45.9948 24.3159 47.1462 27.2143 47.1462C30.1127 47.1462 32.8925 45.9948 34.942 43.9453C36.9915 41.8958 38.1429 39.1161 38.1429 36.2177C38.1429 33.3192 36.9915 30.5395 34.942 28.49C32.8925 26.4405 30.1127 25.2891 27.2143 25.2891Z" fill="#164453"/>
<path d="M38.1429 61.6664C38.1563 59.7429 38.9299 57.9028 40.2948 56.5475C41.6597 55.1922 43.5051 54.4316 45.4286 54.4316H74.5715C76.5038 54.4316 78.357 55.1992 79.7233 56.5656C81.0896 57.9319 81.8573 59.7851 81.8573 61.7174V83.5746C81.8568 85.8675 81.4979 88.1463 80.7935 90.3284C79.1803 95.2733 75.857 99.481 71.4206 102.196C66.9841 104.911 61.725 105.956 56.5876 105.142C51.4503 104.329 46.7712 101.71 43.3907 97.7575C40.0101 93.8046 38.1495 88.7759 38.1429 83.5746V61.7174V61.6664Z" fill="#164453"/>
<path d="M30.8572 61.7174C30.8572 59.0581 31.5639 56.5736 32.8098 54.4316H16.2857C14.3534 54.4316 12.5003 55.1992 11.1339 56.5656C9.7676 57.9319 9 59.7851 9 61.7174V79.9317C8.99901 82.9138 9.73022 85.8505 11.1294 88.4839C12.5286 91.1174 14.553 93.367 17.0248 95.0353C19.4966 96.7035 22.3402 97.7393 25.3059 98.0518C28.2715 98.3643 31.2686 97.9438 34.0338 96.8273C31.9368 92.7223 30.8479 88.1768 30.8572 83.5673V61.7174Z" fill="#164453"/>
<path d="M89.1428 61.7174V83.5745C89.1428 88.3467 87.9989 92.8493 85.9662 96.8273C88.7314 97.9438 91.7284 98.3643 94.6941 98.0518C97.6598 97.7393 100.503 96.7035 102.975 95.0353C105.447 93.367 107.471 91.1174 108.871 88.4839C110.27 85.8505 111.001 82.9138 111 79.9317V61.7174C111 59.7851 110.232 57.9319 108.866 56.5656C107.5 55.1992 105.647 54.4316 103.714 54.4316H87.1902C88.4288 56.5736 89.1428 59.0581 89.1428 61.7174Z" fill="#164453"/>
</svg>
