<svg width="115" height="74" viewBox="0 0 115 74" fill="none" xmlns="http://www.w3.org/2000/svg">
<path d="M79 4.5C59.0312 4.5 43 17.5781 43 33.75C43 40.6406 46.0938 47.1094 51.0156 52.0312C49.3281 59.2031 43.4219 65.5312 43.4219 65.5312C43 65.8125 43 66.375 43.1406 66.7969C43.2812 67.2188 43.7031 67.5 44.125 67.5C53.5469 67.5 60.2969 63 63.9531 60.1875C68.5938 61.875 73.6562 63 79 63C98.9688 63 114.859 49.7812 114.859 33.75C114.859 17.7188 98.8281 4.5 79 4.5ZM60.8594 38.25C58.3281 38.25 56.3594 36.1406 56.3594 33.75C56.3594 31.5 58.3281 29.25 60.8594 29.25C63.25 29.25 65.3594 31.3594 65.3594 33.75C65.3594 36.2812 63.3906 38.25 60.8594 38.25ZM79 38.25C76.4688 38.25 74.5 36.1406 74.5 33.75C74.5 31.5 76.6094 29.25 79 29.25C81.25 29.25 83.3594 31.3594 83.3594 33.75C83.3594 36.2812 81.3906 38.25 79 38.25ZM96.8594 38.25C94.3281 38.25 92.3594 36.1406 92.3594 33.75C92.3594 31.5 94.3281 29.25 96.8594 29.25C99.25 29.25 101.359 31.3594 101.359 33.75C101.359 36.2812 99.3906 38.25 96.8594 38.25Z" fill="#F0F0EE"/>
<path d="M40.5 50C40.5 51.6875 39.0938 53.0938 37.5 53.0938H24V66.5938C24 68.1875 22.5938 69.5 21 69.5C19.3125 69.5 18 68.1875 18 66.5938V53.0938H4.5C2.8125 53.0938 1.5 51.6875 1.5 50C1.5 48.4062 2.8125 47.0938 4.5 47.0938H18V33.5938C18 31.9062 19.3125 30.5 21 30.5C22.5938 30.5 24 31.9062 24 33.5938V47.0938H37.5C39.0938 47 40.5 48.4062 40.5 50Z" fill="#F0F0EE"/>
</svg>
