<svg width="152" height="152" viewBox="0 0 152 152" fill="none" xmlns="http://www.w3.org/2000/svg">
<g clip-path="url(#clip0_453_2727)">
<path d="M14.4653 140.334C14.4716 146.351 18.7656 151.43 24.7253 151.683C33.0219 152.032 41.3376 151.823 49.6469 151.823C55.6889 151.823 60.9583 146.344 60.7936 139.447C60.6099 131.714 60.9076 123.962 60.9773 116.223L61.2623 84.6323C61.2813 82.7006 61.5536 82.3396 63.3839 81.8456C67.5379 80.6827 71.9108 80.5372 76.1329 81.4213C83.9229 83.0806 89.6166 89.0846 90.4526 97.0013C90.8706 100.928 90.8959 104.912 90.9466 108.87C91.1049 119.257 91.1873 129.643 91.2886 140.036C91.3519 146.921 96.3299 151.924 103.214 151.956C110.631 151.994 118.047 152.006 125.463 152C132.468 151.987 137.465 147.073 137.484 140.074C137.528 118.725 137.528 97.375 137.547 76.0253C137.547 75.696 137.547 75.3603 137.516 75.0373C137.326 72.789 136.445 70.87 134.457 69.73C133.085 68.9082 131.603 68.2875 130.055 67.887C124.069 66.442 117.858 66.1774 111.771 67.108C107.065 67.8236 102.423 68.9636 97.7549 69.9073C91.6116 71.1486 85.4303 71.6806 79.1729 71.0346C71.1423 70.2176 64.1629 66.8166 57.6269 62.2946C54.531 60.1305 51.3757 58.0524 48.1649 56.0626C44.2383 53.656 39.8429 52.8643 35.3083 52.6173C30.4316 52.345 25.5803 52.2183 20.7859 53.3203C17.0493 54.1816 15.0923 56.354 14.6679 60.1413C14.5794 60.9384 14.535 61.7397 14.5349 62.5416L14.4653 140.334ZM61.0026 23.3763C61.0155 20.3198 60.4262 17.2907 59.2684 14.4619C58.1107 11.6331 56.4071 9.06004 54.2549 6.88964C52.1027 4.71924 49.5442 2.994 46.7252 1.81241C43.9063 0.630819 40.8823 0.0160282 37.8258 0.00313672C34.7692 -0.00975471 31.7401 0.579506 28.9113 1.73727C26.0825 2.89504 23.5095 4.59864 21.3391 6.75081C19.1687 8.90298 17.4434 11.4616 16.2619 14.2805C15.0803 17.0994 14.4655 20.1235 14.4526 23.18C14.4274 29.3529 16.8554 35.283 21.2025 39.6657C25.5496 44.0484 31.4597 46.5248 37.6326 46.55C43.8055 46.5752 49.7356 44.1471 54.1183 39.8001C58.501 35.453 60.9774 29.5429 61.0026 23.37V23.3763ZM113.791 11.913C107.626 11.8843 101.701 14.3043 97.3193 18.6412C92.9373 22.9781 90.4561 28.8771 90.4209 35.0423C90.4 38.1086 90.9857 41.1487 92.1443 43.9877C93.3029 46.8267 95.0115 49.4086 97.1718 51.5847C99.332 53.7609 101.901 55.4883 104.732 56.6677C107.562 57.8471 110.598 58.455 113.664 58.4566C119.83 58.46 125.746 56.0186 130.115 51.6676C134.484 47.3165 136.949 41.4108 136.971 35.245C136.984 29.0785 134.552 23.1585 130.206 18.7833C125.861 14.4082 119.957 11.9351 113.791 11.9066V11.913Z" fill="#164453"/>
</g>
<defs>
<clipPath id="clip0_453_2727">
<rect width="152" height="152" fill="white"/>
</clipPath>
</defs>
</svg>
