<svg width="488" height="264" viewBox="0 0 488 264" fill="none" xmlns="http://www.w3.org/2000/svg">
<g clip-path="url(#clip0_1162_4400)">
<path d="M343.513 146.616C344.899 146.326 346.116 145.502 346.901 144.322C347.686 143.142 347.976 141.701 347.709 140.308C347.649 140.001 347.562 139.699 347.45 139.407L361.846 126.982L352.434 124.316L340.206 136.524C338.921 137.137 337.93 138.232 337.445 139.571C336.96 140.911 337.022 142.388 337.616 143.682C338.121 144.769 338.979 145.651 340.051 146.184C341.122 146.717 342.343 146.869 343.513 146.616L343.513 146.616Z" fill="#FFB6B6"/>
<path d="M418.645 257.104L412.194 257.103L409.125 232.195L418.645 232.196L418.645 257.104Z" fill="#FFB6B6"/>
<path d="M420.289 263.366L399.491 263.365V263.101C399.491 260.952 400.344 258.891 401.862 257.371C403.381 255.851 405.44 254.997 407.586 254.997H407.587L411.386 252.111L418.474 254.997L420.29 254.997L420.289 263.366Z" fill="#2F2E41"/>
<path d="M388.678 257.104L382.228 257.103L379.159 232.195L388.679 232.196L388.678 257.104Z" fill="#FFB6B6"/>
<path d="M390.323 263.366L369.525 263.365V263.101C369.525 260.952 370.378 258.891 371.896 257.371C373.414 255.851 375.473 254.997 377.62 254.997H377.621L381.42 252.111L388.508 254.997L390.323 254.997L390.323 263.366Z" fill="#2F2E41"/>
<path d="M385.886 120.93L427.841 121.98C435.809 126.313 435.93 135.691 433.32 146.825C433.32 146.825 434.201 153.443 432.438 155.208C430.675 156.973 429.794 156.973 430.675 160.061C431.557 163.15 426.9 168.194 427.466 168.76C428.031 169.326 429.353 172.415 429.353 172.415L424.946 197.563C424.946 197.563 421.862 241.241 420.98 242.124C420.099 243.006 419.218 242.124 420.099 244.33C420.98 246.536 421.862 245.653 420.98 246.536C420.2 247.379 419.464 248.262 418.777 249.183H408.122C408.122 249.183 407.319 244.771 407.319 244.33C407.319 243.889 406.438 241.241 406.438 240.8C406.438 240.359 407.217 239.579 407.217 239.579C407.486 238.682 407.668 237.761 407.76 236.829C407.76 235.947 410.404 201.975 410.404 201.975L405.116 157.855L392.336 201.092C392.336 201.092 392.336 239.035 391.454 239.918C390.573 240.8 390.573 240.359 391.014 242.124C391.454 243.889 393.217 243.447 391.895 244.771C390.573 246.095 390.132 243.889 390.573 246.095L391.014 248.301L377.793 248.49C377.793 248.49 376.03 244.771 376.912 243.447C377.793 242.124 377.74 242.485 376.665 240.319C375.59 238.153 375.149 237.712 375.59 237.271C376.03 236.829 376.03 234.483 376.03 234.483L378.234 192.269C378.234 192.269 378.675 147.708 378.675 146.384C378.708 145.703 378.582 145.023 378.308 144.399V142.603L379.997 136.236L385.886 120.93Z" fill="#2F2E41"/>
<path d="M343.028 132.286L350.119 138.01L388.773 108.013L386.486 55.8027C384.312 57.5439 382.505 59.6993 381.168 62.1443C379.831 64.5893 378.992 67.2754 378.699 70.0471L372.076 99.5399L343.028 132.286Z" fill="#E6E6E6"/>
<path d="M379.624 134.118C393.307 135.869 405.913 130.565 417.821 126.561C423.197 124.754 428.612 126.641 433.603 123.584C431.445 102.303 433.54 78.3321 438.124 52.7868C438.386 51.3406 438.113 49.8486 437.357 48.5891C436.6 47.3295 435.412 46.3885 434.014 45.9416L419.242 41.6987L414.694 36.6758L402.948 39.661L398.837 47.1015L384.707 56.6596C383.883 57.2172 383.236 58.0013 382.846 58.9178C382.456 59.8343 382.339 60.8441 382.508 61.8258C386.753 85.8503 385.769 110.509 379.624 134.118Z" fill="#E6E6E6"/>
<path d="M423.292 140.704C424.547 140.046 425.493 138.921 425.926 137.571C426.36 136.222 426.246 134.756 425.61 133.489C425.469 133.209 425.303 132.943 425.115 132.693L435.579 116.807L425.797 116.813L417.36 131.898C416.292 132.839 415.636 134.163 415.535 135.584C415.434 137.005 415.895 138.409 416.82 139.492C417.601 140.399 418.668 141.013 419.844 141.234C421.02 141.454 422.236 141.267 423.292 140.704L423.292 140.704Z" fill="#FFB6B6"/>
<path d="M420.337 125.873L426.741 134.117L449.156 100.684L447.218 66.7188C446.971 62.3928 445.635 58.1996 443.334 54.5293C441.034 50.859 437.844 47.8309 434.06 45.7266L434.518 97.9364L420.337 125.873Z" fill="#E6E6E6"/>
<path d="M404.244 34.7314C412.16 34.7314 418.578 28.3062 418.578 20.3803C418.578 12.4545 412.16 6.0293 404.244 6.0293C396.327 6.0293 389.909 12.4545 389.909 20.3803C389.909 28.3062 396.327 34.7314 404.244 34.7314Z" fill="#FFB6B6"/>
<path d="M395.111 11.9587C395.665 11.963 396.217 12.0355 396.754 12.1746C397.813 12.4294 398.888 12.6099 399.972 12.7148C403.29 13.0273 406.408 14.4442 408.828 16.739C411.248 19.0339 412.829 22.0744 413.321 25.3749C414.154 24.6478 416.049 23.3104 417.602 24.5534C417.626 24.5731 417.64 24.5833 417.695 24.5573C418.726 24.0674 420.558 18.0361 420.613 12.7257C420.642 9.90719 420.199 6.30801 417.922 5.16824L417.802 5.10819L417.771 4.97767C417.619 4.34365 415.919 3.26138 412.965 2.41903C407.597 0.888242 399.595 -2.09376 395.089 2.29477C394.748 3.77425 393.639 6.94034 392.518 7.29921C391.277 7.69643 390.206 8.03924 390.037 9.56326C389.896 11.7321 389.906 13.9081 390.067 16.0754C390.488 14.7492 391.313 13.5884 392.427 12.7565C393.219 12.2226 394.156 11.9442 395.111 11.9587Z" fill="#2F2E41"/>
<path d="M488 263.455C488 263.527 487.986 263.598 487.959 263.664C487.932 263.73 487.892 263.79 487.841 263.841C487.79 263.892 487.73 263.932 487.664 263.959C487.598 263.986 487.527 264 487.456 264H92.5444C92.4 264 92.2615 263.943 92.1594 263.841C92.0574 263.738 92 263.6 92 263.455C92 263.311 92.0574 263.172 92.1594 263.07C92.2615 262.968 92.4 262.91 92.5444 262.91H487.456C487.527 262.91 487.598 262.924 487.664 262.951C487.73 262.979 487.79 263.019 487.841 263.069C487.892 263.12 487.932 263.18 487.959 263.246C487.986 263.313 488 263.384 488 263.455Z" fill="#CCCCCC"/>
<path d="M255.436 46.3126L201.628 58.4323C200.187 58.7587 198.933 59.6444 198.143 60.8949C197.353 62.1454 197.09 63.6587 197.413 65.1028L212.168 130.761L275.388 116.521C275.908 116.406 276.383 116.143 276.758 115.765L262.099 50.5329C261.773 49.0896 260.888 47.8347 259.639 47.0435C258.39 46.2523 256.878 45.9895 255.436 46.3126Z" fill="#E6E6E6"/>
<path d="M235.891 55.3527L206.403 61.9946C205.09 62.2917 203.948 63.0978 203.229 64.2364C202.509 65.3749 202.269 66.7528 202.563 68.0678L216.435 129.799L272.584 117.152L262.482 72.1958C261.18 66.4356 257.65 61.4273 252.665 58.2697C247.68 55.1121 241.647 54.0631 235.891 55.3527Z" fill="white"/>
<path d="M261.786 113.824L224.769 122.162C224.61 122.197 224.46 122.264 224.327 122.357C224.194 122.451 224.081 122.57 223.994 122.707C223.906 122.845 223.847 122.998 223.819 123.158C223.792 123.319 223.796 123.483 223.831 123.642C223.867 123.801 223.934 123.951 224.027 124.084C224.121 124.217 224.24 124.33 224.378 124.417C224.515 124.504 224.668 124.563 224.829 124.59C224.989 124.618 225.153 124.614 225.312 124.578L262.329 116.24C262.488 116.204 262.638 116.138 262.771 116.044C262.905 115.951 263.018 115.832 263.105 115.694C263.192 115.557 263.252 115.404 263.279 115.243C263.307 115.083 263.303 114.918 263.267 114.759C263.232 114.6 263.165 114.45 263.071 114.317C262.977 114.184 262.858 114.071 262.721 113.984C262.583 113.897 262.43 113.838 262.269 113.811C262.109 113.783 261.945 113.788 261.786 113.824Z" fill="#E4E4E4"/>
<path d="M260.713 109.048L223.695 117.386C223.375 117.458 223.096 117.654 222.921 117.932C222.745 118.21 222.687 118.546 222.759 118.867C222.831 119.188 223.028 119.466 223.305 119.642C223.583 119.818 223.918 119.876 224.239 119.804L261.256 111.466C261.415 111.43 261.565 111.364 261.698 111.27C261.83 111.176 261.944 111.057 262.031 110.92C262.117 110.782 262.176 110.629 262.204 110.468C262.232 110.308 262.228 110.144 262.192 109.985C262.156 109.826 262.09 109.676 261.996 109.543C261.903 109.41 261.784 109.297 261.646 109.21C261.509 109.123 261.356 109.063 261.196 109.036C261.035 109.008 260.871 109.012 260.713 109.048H260.713Z" fill="#E4E4E4"/>
<path d="M238.668 108.996L222.622 112.61C222.302 112.682 222.024 112.879 221.848 113.156C221.673 113.434 221.615 113.769 221.687 114.09C221.759 114.41 221.955 114.689 222.232 114.864C222.509 115.04 222.845 115.098 223.165 115.026L239.211 111.412C239.37 111.376 239.52 111.31 239.654 111.216C239.787 111.123 239.9 111.004 239.987 110.866C240.074 110.729 240.134 110.575 240.162 110.415C240.189 110.254 240.185 110.09 240.15 109.931C240.114 109.772 240.047 109.622 239.953 109.489C239.86 109.356 239.741 109.243 239.603 109.156C239.465 109.069 239.312 109.01 239.152 108.983C238.991 108.955 238.827 108.96 238.668 108.996Z" fill="#E4E4E4"/>
<path d="M257.391 94.2685L220.374 102.606C220.215 102.642 220.065 102.709 219.932 102.802C219.8 102.896 219.686 103.015 219.6 103.153C219.424 103.431 219.366 103.767 219.438 104.088C219.51 104.408 219.706 104.687 219.984 104.863C220.261 105.039 220.597 105.097 220.917 105.025L257.935 96.6868C258.093 96.6511 258.243 96.5844 258.376 96.4906C258.509 96.3969 258.622 96.2778 258.709 96.1403C258.796 96.0027 258.855 95.8494 258.883 95.689C258.911 95.5287 258.907 95.3644 258.871 95.2056C258.835 95.0468 258.769 94.8966 258.675 94.7636C258.581 94.6306 258.462 94.5173 258.325 94.4303C258.188 94.3433 258.034 94.2842 257.874 94.2564C257.714 94.2287 257.55 94.2328 257.391 94.2685Z" fill="#E4E4E4"/>
<path d="M256.319 89.4933L219.301 97.8312C219.142 97.8666 218.992 97.933 218.859 98.0266C218.726 98.1202 218.613 98.2392 218.526 98.3767C218.439 98.5142 218.38 98.6675 218.352 98.8279C218.324 98.9882 218.328 99.1526 218.364 99.3114C218.399 99.4702 218.466 99.6204 218.56 99.7534C218.653 99.8864 218.772 99.9996 218.91 100.087C219.047 100.173 219.201 100.232 219.361 100.26C219.521 100.287 219.685 100.283 219.844 100.247L256.861 91.9092C257.02 91.8736 257.17 91.8071 257.303 91.7135C257.436 91.6198 257.549 91.5009 257.636 91.3634C257.723 91.226 257.782 91.0728 257.81 90.9125C257.837 90.7522 257.833 90.588 257.798 90.4292C257.762 90.2705 257.695 90.1204 257.602 89.9874C257.508 89.8545 257.389 89.7413 257.252 89.6544C257.114 89.5675 256.961 89.5085 256.801 89.4809C256.641 89.4533 256.477 89.4575 256.319 89.4933Z" fill="#E4E4E4"/>
<path d="M234.274 89.4404L218.227 93.0547C218.069 93.0904 217.919 93.1571 217.786 93.2508C217.653 93.3446 217.54 93.4637 217.453 93.6012C217.366 93.7388 217.307 93.8921 217.279 94.0525C217.252 94.2128 217.256 94.3771 217.291 94.5359C217.327 94.6947 217.394 94.8449 217.487 94.9779C217.581 95.1109 217.7 95.2242 217.837 95.3112C217.975 95.3982 218.128 95.4573 218.288 95.485C218.448 95.5128 218.612 95.5087 218.771 95.473L234.817 91.8587C234.976 91.8229 235.126 91.7563 235.259 91.6625C235.392 91.5687 235.505 91.4497 235.592 91.3121C235.679 91.1746 235.738 91.0213 235.765 90.8609C235.793 90.7005 235.789 90.5363 235.753 90.3775C235.718 90.2187 235.651 90.0685 235.557 89.9355C235.464 89.8024 235.345 89.6892 235.207 89.6022C235.07 89.5151 234.917 89.4561 234.757 89.4283C234.597 89.4006 234.432 89.4047 234.274 89.4404Z" fill="#E4E4E4"/>
<path d="M252.997 74.7138L215.979 83.0517C215.659 83.1238 215.381 83.3204 215.205 83.5982C215.029 83.8759 214.971 84.2122 215.043 84.5328C215.115 84.8535 215.312 85.1324 215.589 85.3082C215.867 85.4839 216.203 85.5421 216.523 85.4699L253.54 77.1321C253.699 77.0964 253.849 77.0297 253.982 76.9359C254.115 76.8422 254.228 76.7231 254.315 76.5856C254.402 76.448 254.461 76.2947 254.488 76.1343C254.516 75.974 254.512 75.8097 254.476 75.6509C254.441 75.4921 254.374 75.3419 254.28 75.2089C254.187 75.0759 254.068 74.9626 253.93 74.8756C253.793 74.7886 253.64 74.7295 253.48 74.7017C253.32 74.674 253.155 74.6781 252.997 74.7138Z" fill="#E6E6E6"/>
<path d="M251.924 69.9384L214.907 78.2763C214.748 78.312 214.598 78.3787 214.465 78.4724C214.332 78.5662 214.219 78.6852 214.132 78.8228C213.957 79.1006 213.899 79.4368 213.971 79.7574C214.043 80.0781 214.239 80.357 214.516 80.5328C214.794 80.7085 215.13 80.7667 215.45 80.6945L252.468 72.3567C252.626 72.321 252.776 72.2543 252.909 72.1606C253.042 72.0668 253.155 71.9477 253.242 71.8102C253.329 71.6727 253.388 71.5193 253.416 71.3589C253.443 71.1986 253.439 71.0343 253.404 70.8755C253.368 70.7167 253.301 70.5666 253.208 70.4335C253.114 70.3005 252.995 70.1872 252.858 70.1002C252.72 70.0132 252.567 69.9541 252.407 69.9264C252.247 69.8986 252.083 69.9027 251.924 69.9384Z" fill="#E6E6E6"/>
<path d="M229.879 69.8837L213.833 73.4981C213.513 73.5702 213.234 73.7668 213.058 74.0446C212.883 74.3223 212.825 74.6586 212.897 74.9792C212.969 75.2999 213.165 75.5788 213.443 75.7545C213.72 75.9303 214.056 75.9885 214.376 75.9163L230.423 72.302C230.581 72.2663 230.731 72.1996 230.864 72.1059C230.997 72.0121 231.11 71.893 231.197 71.7555C231.284 71.618 231.343 71.4646 231.371 71.3043C231.399 71.1439 231.395 70.9796 231.359 70.8208C231.323 70.662 231.257 70.5119 231.163 70.3788C231.069 70.2458 230.95 70.1325 230.813 70.0455C230.676 69.9585 230.522 69.8994 230.362 69.8717C230.202 69.8439 230.038 69.848 229.879 69.8837Z" fill="#E6E6E6"/>
<path d="M148.09 122.492C147.739 122.493 147.403 122.632 147.155 122.881C146.907 123.129 146.767 123.466 146.767 123.817V260.775C146.767 261.126 146.906 261.462 147.155 261.711C147.403 261.959 147.739 262.099 148.09 262.099H319.608C319.959 262.099 320.295 261.959 320.543 261.711C320.791 261.462 320.931 261.126 320.931 260.775V145.801C320.931 145.45 320.791 145.113 320.543 144.865C320.295 144.617 319.959 144.477 319.608 144.477H221.168C220.168 144.477 219.205 144.105 218.466 143.431L196.335 123.3C195.764 122.78 195.02 122.492 194.248 122.492H148.09Z" fill="#3F3D56"/>
<path d="M352.781 86.6719L260.942 47.1431C258.48 46.0866 255.699 46.0511 253.211 47.0444C250.722 48.0377 248.729 49.9787 247.668 52.4416L199.545 164.507L307.45 210.951C308.335 211.335 309.312 211.456 310.263 211.3L358.074 99.9619C359.129 97.4966 359.164 94.7129 358.172 92.2214C357.18 89.7299 355.241 87.7342 352.781 86.6719Z" fill="#E6E6E6"/>
<path d="M314.492 79.1182L264.162 57.4553C261.92 56.4929 259.388 56.46 257.122 57.364C254.855 58.2679 253.04 60.0348 252.073 62.2771L206.828 167.64L302.664 208.889L335.613 132.158C339.825 122.319 339.967 111.209 336.007 101.266C332.047 91.3223 324.31 83.3574 314.492 79.1182Z" fill="white"/>
<path d="M290.355 192.505L227.174 165.311C226.903 165.194 226.612 165.131 226.318 165.127C226.023 165.123 225.73 165.177 225.457 165.286C225.183 165.395 224.933 165.557 224.722 165.763C224.511 165.968 224.342 166.214 224.226 166.485C224.109 166.756 224.047 167.047 224.044 167.342C224.04 167.637 224.094 167.93 224.204 168.204C224.313 168.478 224.475 168.727 224.681 168.939C224.887 169.15 225.132 169.318 225.403 169.434L288.584 196.628C288.855 196.745 289.146 196.808 289.441 196.812C289.735 196.816 290.028 196.762 290.302 196.653C290.575 196.544 290.825 196.382 291.036 196.177C291.247 195.971 291.416 195.726 291.532 195.455C291.649 195.184 291.711 194.892 291.714 194.597C291.718 194.302 291.664 194.009 291.555 193.735C291.445 193.462 291.283 193.212 291.077 193.001C290.871 192.79 290.626 192.621 290.355 192.505Z" fill="#E4E4E4"/>
<path d="M293.857 184.351L230.675 157.157C230.128 156.922 229.511 156.914 228.958 157.135C228.406 157.355 227.963 157.787 227.728 158.334C227.493 158.881 227.485 159.499 227.705 160.053C227.925 160.606 228.356 161.049 228.903 161.284L292.084 188.479C292.355 188.595 292.646 188.657 292.94 188.661C293.235 188.665 293.528 188.611 293.801 188.502C294.075 188.392 294.325 188.23 294.536 188.024C294.747 187.819 294.915 187.573 295.032 187.302C295.148 187.031 295.21 186.74 295.214 186.445C295.218 186.15 295.164 185.857 295.055 185.583C294.945 185.309 294.784 185.059 294.578 184.848C294.372 184.636 294.127 184.468 293.857 184.351H293.857Z" fill="#E4E4E4"/>
<path d="M261.563 160.796L234.174 149.007C233.904 148.891 233.613 148.829 233.319 148.824C233.024 148.82 232.732 148.874 232.458 148.983C232.185 149.092 231.935 149.254 231.724 149.46C231.513 149.666 231.344 149.911 231.228 150.182C231.112 150.453 231.05 150.744 231.046 151.039C231.042 151.334 231.096 151.626 231.206 151.9C231.315 152.174 231.477 152.424 231.682 152.635C231.888 152.846 232.133 153.015 232.404 153.131L259.792 164.919C260.063 165.036 260.353 165.098 260.648 165.102C260.942 165.106 261.235 165.052 261.508 164.943C261.782 164.834 262.031 164.672 262.243 164.466C262.454 164.261 262.622 164.015 262.738 163.744C262.855 163.474 262.917 163.182 262.92 162.888C262.924 162.593 262.87 162.3 262.761 162.026C262.652 161.752 262.49 161.503 262.284 161.292C262.078 161.08 261.833 160.912 261.563 160.796Z" fill="#E4E4E4"/>
<path d="M304.688 159.128L241.506 131.934C240.96 131.699 240.342 131.691 239.79 131.912C239.238 132.133 238.796 132.564 238.561 133.111C238.326 133.658 238.318 134.276 238.537 134.829C238.757 135.382 239.188 135.825 239.734 136.061L302.915 163.255C303.186 163.372 303.477 163.435 303.772 163.439C304.067 163.443 304.36 163.389 304.634 163.28C304.908 163.171 305.158 163.009 305.369 162.803C305.58 162.597 305.749 162.351 305.866 162.08C305.982 161.809 306.044 161.517 306.048 161.222C306.052 160.927 305.997 160.634 305.888 160.36C305.779 160.085 305.616 159.835 305.41 159.624C305.204 159.413 304.959 159.244 304.688 159.128Z" fill="#E4E4E4"/>
<path d="M308.188 150.978L245.006 123.783C244.736 123.667 244.445 123.604 244.15 123.6C243.855 123.596 243.563 123.649 243.289 123.758C243.015 123.868 242.766 124.03 242.554 124.235C242.343 124.441 242.175 124.686 242.058 124.957C241.942 125.228 241.88 125.52 241.876 125.815C241.872 126.11 241.927 126.403 242.036 126.676C242.145 126.95 242.308 127.2 242.513 127.411C242.719 127.622 242.965 127.791 243.236 127.907L306.417 155.101C306.688 155.218 306.978 155.28 307.273 155.285C307.568 155.289 307.86 155.235 308.134 155.126C308.408 155.017 308.658 154.855 308.869 154.649C309.08 154.444 309.249 154.198 309.365 153.927C309.481 153.656 309.543 153.365 309.547 153.07C309.551 152.775 309.496 152.482 309.387 152.208C309.278 151.934 309.116 151.685 308.91 151.473C308.704 151.262 308.459 151.094 308.188 150.978Z" fill="#E4E4E4"/>
<path d="M275.896 127.418L248.508 115.63C247.961 115.395 247.343 115.386 246.791 115.607C246.238 115.828 245.796 116.259 245.561 116.806C245.326 117.354 245.318 117.972 245.538 118.525C245.758 119.078 246.189 119.522 246.735 119.757L274.123 131.545C274.394 131.662 274.685 131.724 274.98 131.728C275.274 131.732 275.567 131.678 275.841 131.569C276.115 131.46 276.364 131.297 276.576 131.092C276.787 130.886 276.955 130.64 277.072 130.369C277.188 130.098 277.25 129.807 277.254 129.512C277.258 129.217 277.204 128.924 277.094 128.65C276.985 128.376 276.823 128.126 276.617 127.914C276.412 127.703 276.167 127.534 275.896 127.418Z" fill="#E4E4E4"/>
<path d="M319.021 125.751L255.839 98.5564C255.293 98.3221 254.676 98.3145 254.124 98.5353C253.572 98.7561 253.13 99.1873 252.895 99.7341C252.66 100.281 252.652 100.899 252.871 101.452C253.091 102.005 253.521 102.448 254.067 102.684L317.249 129.878C317.519 129.995 317.81 130.057 318.105 130.061C318.4 130.065 318.692 130.011 318.966 129.902C319.24 129.792 319.49 129.63 319.701 129.424C319.912 129.219 320.081 128.973 320.197 128.702C320.313 128.431 320.375 128.14 320.379 127.845C320.383 127.549 320.329 127.257 320.22 126.982C320.11 126.708 319.948 126.459 319.743 126.247C319.537 126.036 319.292 125.867 319.021 125.751Z" fill="#206379"/>
<path d="M322.521 117.601L259.339 90.4063C258.793 90.1717 258.175 90.164 257.623 90.3848C257.071 90.6056 256.629 91.0368 256.394 91.5838C256.159 92.1307 256.151 92.7486 256.37 93.3018C256.59 93.8549 257.021 94.298 257.567 94.5338L320.748 121.728C321.019 121.846 321.31 121.908 321.606 121.913C321.901 121.918 322.194 121.864 322.468 121.755C322.743 121.646 322.993 121.484 323.205 121.278C323.416 121.072 323.585 120.826 323.702 120.554C323.818 120.283 323.88 119.991 323.884 119.695C323.888 119.4 323.833 119.106 323.724 118.832C323.614 118.558 323.451 118.308 323.245 118.096C323.038 117.885 322.792 117.717 322.521 117.601Z" fill="#F0E967"/>
<path d="M290.229 94.0409L262.841 82.2526C262.294 82.0176 261.676 82.0095 261.124 82.2302C260.571 82.4509 260.129 82.8823 259.894 83.4295C259.659 83.9767 259.651 84.5949 259.871 85.1482C260.091 85.7015 260.522 86.1446 261.068 86.3801L288.456 98.1684C288.727 98.285 289.018 98.3472 289.313 98.3512C289.608 98.3552 289.9 98.3011 290.174 98.1918C290.448 98.0826 290.697 97.9204 290.909 97.7146C291.12 97.5088 291.288 97.2633 291.405 96.9922C291.521 96.7211 291.583 96.4297 291.587 96.1347C291.591 95.8396 291.537 95.5467 291.427 95.2726C291.318 94.9986 291.156 94.7487 290.951 94.5374C290.745 94.326 290.5 94.1573 290.229 94.0409V94.0409Z" fill="#206379"/>
<path d="M222.042 127.375L168.235 139.495C166.793 139.821 165.54 140.707 164.75 141.957C163.959 143.208 163.697 144.721 164.019 146.165L178.774 211.824L241.995 197.584C242.514 197.468 242.99 197.206 243.364 196.827L228.705 131.595C228.379 130.152 227.494 128.897 226.245 128.106C224.996 127.315 223.485 127.052 222.042 127.375Z" fill="#E6E6E6"/>
<path d="M202.497 136.415L173.009 143.057C171.696 143.354 170.554 144.16 169.835 145.299C169.115 146.437 168.875 147.815 169.169 149.13L183.041 210.862L239.19 198.215L229.088 153.258C227.786 147.498 224.256 142.49 219.271 139.332C214.286 136.175 208.253 135.126 202.497 136.415Z" fill="white"/>
<path d="M228.392 194.886L191.375 203.224C191.216 203.26 191.066 203.326 190.933 203.42C190.8 203.513 190.687 203.632 190.599 203.77C190.512 203.907 190.453 204.061 190.425 204.221C190.398 204.381 190.402 204.546 190.437 204.704C190.473 204.863 190.54 205.013 190.633 205.146C190.727 205.279 190.846 205.393 190.984 205.48C191.121 205.566 191.274 205.625 191.435 205.653C191.595 205.68 191.759 205.676 191.918 205.64L228.935 197.302C229.094 197.267 229.244 197.201 229.377 197.107C229.511 197.013 229.624 196.894 229.711 196.757C229.798 196.619 229.857 196.466 229.885 196.306C229.913 196.145 229.909 195.981 229.873 195.822C229.838 195.663 229.771 195.513 229.677 195.38C229.583 195.247 229.464 195.133 229.327 195.046C229.189 194.959 229.036 194.901 228.875 194.873C228.715 194.846 228.551 194.85 228.392 194.886Z" fill="#E4E4E4"/>
<path d="M227.319 190.11L190.301 198.448C189.981 198.52 189.702 198.717 189.527 198.995C189.351 199.272 189.293 199.609 189.365 199.929C189.437 200.25 189.634 200.529 189.911 200.705C190.188 200.88 190.524 200.939 190.845 200.866L227.862 192.529C228.182 192.456 228.461 192.26 228.636 191.982C228.812 191.704 228.87 191.368 228.798 191.047C228.726 190.727 228.53 190.448 228.252 190.272C227.975 190.096 227.639 190.038 227.319 190.11Z" fill="#E4E4E4"/>
<path d="M205.275 190.058L189.228 193.673C189.07 193.708 188.92 193.775 188.787 193.869C188.655 193.962 188.542 194.081 188.455 194.219C188.368 194.356 188.309 194.509 188.281 194.669C188.254 194.83 188.258 194.994 188.293 195.152C188.329 195.311 188.395 195.461 188.489 195.594C188.583 195.727 188.701 195.84 188.839 195.927C188.976 196.014 189.129 196.073 189.289 196.1C189.449 196.128 189.613 196.124 189.771 196.088L205.818 192.474C205.977 192.439 206.127 192.372 206.26 192.279C206.393 192.185 206.507 192.066 206.594 191.929C206.681 191.791 206.74 191.638 206.768 191.477C206.796 191.317 206.792 191.153 206.756 190.994C206.72 190.835 206.654 190.685 206.56 190.551C206.466 190.418 206.347 190.305 206.209 190.218C206.072 190.131 205.918 190.072 205.758 190.045C205.598 190.018 205.433 190.022 205.275 190.058Z" fill="#E4E4E4"/>
<path d="M223.998 175.331L186.98 183.669C186.822 183.705 186.672 183.771 186.539 183.865C186.406 183.959 186.293 184.078 186.206 184.215C186.03 184.493 185.972 184.829 186.044 185.15C186.116 185.471 186.313 185.75 186.59 185.925C186.868 186.101 187.203 186.159 187.524 186.087L224.541 177.749C224.862 177.677 225.14 177.481 225.316 177.203C225.491 176.925 225.549 176.589 225.477 176.268C225.405 175.947 225.209 175.669 224.931 175.493C224.654 175.317 224.318 175.259 223.998 175.331Z" fill="#E4E4E4"/>
<path d="M222.925 170.556L185.907 178.894C185.749 178.929 185.599 178.996 185.466 179.089C185.333 179.183 185.219 179.302 185.132 179.439C185.045 179.577 184.986 179.73 184.958 179.89C184.93 180.051 184.934 180.215 184.97 180.374C185.006 180.533 185.072 180.683 185.166 180.816C185.26 180.949 185.379 181.062 185.516 181.149C185.654 181.236 185.807 181.295 185.967 181.322C186.128 181.35 186.292 181.346 186.45 181.31L223.468 172.972C223.626 172.936 223.776 172.87 223.909 172.776C224.042 172.682 224.155 172.563 224.242 172.426C224.329 172.288 224.388 172.135 224.416 171.975C224.444 171.815 224.44 171.65 224.404 171.492C224.368 171.333 224.302 171.183 224.208 171.05C224.114 170.917 223.996 170.804 223.858 170.717C223.721 170.63 223.568 170.571 223.408 170.543C223.247 170.516 223.083 170.52 222.925 170.556Z" fill="#E4E4E4"/>
<path d="M200.88 170.503L184.834 174.117C184.514 174.189 184.235 174.386 184.059 174.664C183.884 174.941 183.826 175.278 183.898 175.598C183.97 175.919 184.166 176.198 184.444 176.374C184.721 176.549 185.057 176.608 185.377 176.535L201.424 172.921C201.744 172.849 202.023 172.652 202.198 172.375C202.374 172.097 202.432 171.761 202.36 171.44C202.288 171.119 202.091 170.84 201.814 170.665C201.536 170.489 201.201 170.431 200.88 170.503Z" fill="#E4E4E4"/>
<path d="M219.603 155.776L182.586 164.114C182.427 164.15 182.277 164.217 182.144 164.31C182.011 164.404 181.898 164.523 181.811 164.661C181.636 164.938 181.578 165.275 181.65 165.595C181.722 165.916 181.918 166.195 182.196 166.371C182.473 166.546 182.809 166.605 183.129 166.532L220.147 158.195C220.305 158.159 220.455 158.092 220.588 157.998C220.721 157.905 220.834 157.786 220.921 157.648C221.008 157.511 221.067 157.357 221.095 157.197C221.123 157.036 221.118 156.872 221.083 156.713C221.047 156.555 220.98 156.404 220.887 156.271C220.793 156.138 220.674 156.025 220.537 155.938C220.4 155.851 220.246 155.792 220.086 155.764C219.926 155.736 219.762 155.741 219.603 155.776H219.603Z" fill="#E6E6E6"/>
<path d="M218.53 151.001L181.513 159.339C181.354 159.374 181.204 159.441 181.071 159.535C180.938 159.629 180.825 159.748 180.738 159.885C180.563 160.163 180.505 160.499 180.577 160.82C180.649 161.141 180.845 161.42 181.122 161.595C181.4 161.771 181.736 161.829 182.056 161.757L219.073 153.419C219.394 153.347 219.672 153.15 219.848 152.873C220.023 152.595 220.082 152.259 220.009 151.938C219.937 151.617 219.741 151.338 219.464 151.163C219.186 150.987 218.85 150.929 218.53 151.001H218.53Z" fill="#E6E6E6"/>
<path d="M196.486 150.946L180.439 154.561C180.119 154.633 179.84 154.829 179.665 155.107C179.489 155.385 179.431 155.721 179.503 156.042C179.575 156.362 179.772 156.641 180.049 156.817C180.327 156.993 180.662 157.051 180.983 156.979L197.029 153.365C197.188 153.329 197.338 153.262 197.471 153.168C197.604 153.075 197.717 152.956 197.804 152.818C197.891 152.68 197.95 152.527 197.977 152.367C198.005 152.206 198.001 152.042 197.965 151.883C197.93 151.725 197.863 151.574 197.769 151.441C197.676 151.308 197.557 151.195 197.419 151.108C197.282 151.021 197.129 150.962 196.969 150.934C196.808 150.906 196.644 150.911 196.486 150.946Z" fill="#E6E6E6"/>
<path d="M146.953 158.465C146.779 158.465 146.607 158.499 146.447 158.566C146.286 158.632 146.14 158.73 146.017 158.853C145.895 158.976 145.797 159.121 145.731 159.282C145.664 159.443 145.63 159.615 145.63 159.789C145.63 159.839 145.671 261.839 145.671 261.839C145.707 262.163 145.861 262.462 146.104 262.679C146.346 262.896 146.66 263.016 146.985 263.016H331.233C331.559 263.016 331.873 262.896 332.115 262.679C332.358 262.462 332.512 262.163 332.548 261.839L344.016 159.938C344.037 159.752 344.019 159.565 343.962 159.387C343.906 159.21 343.813 159.046 343.688 158.907C343.565 158.767 343.413 158.655 343.243 158.579C343.073 158.503 342.888 158.464 342.702 158.465L146.953 158.465Z" fill="#3F3D56"/>
<path d="M159.955 164.112C158.086 164.118 156.294 164.859 154.966 166.177C153.638 167.494 152.882 169.282 152.86 171.153L153.09 250.204C153.082 251.142 153.26 252.072 153.613 252.941C153.965 253.81 154.487 254.601 155.146 255.267C155.806 255.933 156.591 256.462 157.456 256.823C158.321 257.183 159.248 257.369 160.185 257.369H277.144C290.559 257.378 303.505 252.435 313.507 243.486C323.51 234.537 329.865 222.211 331.358 208.864L335.506 172.011C335.618 171.017 335.519 170.011 335.216 169.058C334.912 168.106 334.412 167.228 333.746 166.482C333.081 165.737 332.265 165.14 331.354 164.732C330.442 164.323 329.455 164.112 328.456 164.112H159.955ZM339.188 164.112L339.167 163.654H339.188V164.112Z" fill="#206379"/>
<path d="M211.044 223.338H165.735C165.267 223.338 164.818 223.151 164.487 222.82C164.156 222.489 163.97 222.039 163.97 221.57C163.97 221.102 164.156 220.652 164.487 220.321C164.818 219.989 165.267 219.803 165.735 219.803H211.044C213.321 219.771 213.343 223.37 211.044 223.338Z" fill="#F0E967"/>
<path d="M272.08 232.582H165.735C165.267 232.582 164.818 232.396 164.487 232.064C164.156 231.733 163.97 231.283 163.97 230.814C163.97 230.346 164.156 229.896 164.487 229.565C164.818 229.233 165.267 229.047 165.735 229.047H272.08C274.356 229.015 274.379 232.614 272.08 232.582Z" fill="#F0E967"/>
</g>
<path d="M64.2165 74.8989C74.5272 74.8989 82.8857 66.5404 82.8857 56.2297C82.8857 45.919 74.5272 37.5605 64.2165 37.5605C53.9058 37.5605 45.5474 45.919 45.5474 56.2297C45.5474 66.5404 53.9058 74.8989 64.2165 74.8989Z" fill="#2F2E41"/>
<path d="M65.7844 74.9361C74.2258 74.9361 81.0689 68.093 81.0689 59.6516C81.0689 51.2103 74.2258 44.3672 65.7844 44.3672C57.3431 44.3672 50.5 51.2103 50.5 59.6516C50.5 68.093 57.3431 74.9361 65.7844 74.9361Z" fill="#A0616A"/>
<path d="M123.994 106.143C123.751 106.388 123.528 106.651 123.327 106.93L92.4842 105.84L88.9564 99.2246L78.2764 103.243L83.383 115.565C83.7955 116.56 84.5197 117.395 85.4469 117.943C86.3741 118.492 87.4542 118.725 88.5251 118.608L123.427 114.775C124.238 115.826 125.35 116.604 126.614 117.008C127.878 117.411 129.236 117.419 130.505 117.032C131.774 116.645 132.896 115.881 133.72 114.841C134.544 113.801 135.033 112.535 135.12 111.211C135.207 109.886 134.888 108.567 134.207 107.428C133.526 106.289 132.514 105.385 131.306 104.835C130.098 104.285 128.752 104.116 127.446 104.35C126.139 104.585 124.935 105.211 123.994 106.147V106.143Z" fill="#A0616A"/>
<path d="M74.1675 109.191C73.7745 109.015 73.424 108.756 73.1402 108.432C72.8563 108.108 72.6458 107.726 72.5228 107.313L68.2289 92.8951C67.7623 91.9058 67.4953 90.8343 67.4431 89.7417C67.3909 88.6492 67.5545 87.557 67.9245 86.5277C68.2946 85.4985 68.8639 84.5522 69.5998 83.743C70.3358 82.9338 71.224 82.2776 72.2137 81.8119C73.2034 81.3462 74.2751 81.08 75.3677 81.0287C76.4603 80.9774 77.5523 81.1419 78.5813 81.5128C79.6103 81.8837 80.5561 82.4538 81.3647 83.1904C82.1732 83.927 82.8287 84.8157 83.2936 85.8058L91.6151 98.3982C91.8526 98.7576 92.0097 99.1639 92.076 99.5896C92.1422 100.015 92.116 100.45 91.999 100.865C91.882 101.279 91.677 101.664 91.398 101.992C91.1191 102.32 90.7726 102.584 90.3823 102.767L76.6661 109.17C76.2758 109.352 75.8508 109.448 75.4201 109.452C74.9893 109.455 74.5629 109.365 74.17 109.188L74.1675 109.191Z" fill="#CCCCCC"/>
<path d="M104.545 255.574L111.246 251.926L100.365 224.344L90.4756 229.727L104.545 255.574Z" fill="#A0616A"/>
<path d="M101.646 254.318L114.841 247.134C115.946 246.533 117.158 246.155 118.408 246.022C119.658 245.89 120.923 246.004 122.129 246.36C123.335 246.716 124.459 247.306 125.437 248.096C126.415 248.886 127.228 249.861 127.829 250.966L127.829 250.966L127.978 251.239L106.371 263.001L101.646 254.318Z" fill="#2F2E41"/>
<path d="M30.8102 255.605H38.439L42.0689 226.178H30.8052L30.8102 255.605Z" fill="#A0616A"/>
<path d="M28.8638 253.113H43.8893C46.4287 253.113 48.8641 254.122 50.6597 255.918C52.4553 257.713 53.4641 260.149 53.4641 262.688V263H28.8644L28.8638 253.113Z" fill="#2F2E41"/>
<path d="M78.2182 124.997L80.7074 154.868L108.474 238.167C108.683 238.793 108.634 239.477 108.339 240.067C108.044 240.658 107.526 241.107 106.9 241.316C106.83 241.339 106.76 241.359 106.689 241.376L98.1792 243.402C97.6341 243.532 97.0611 243.474 96.5529 243.238C96.0447 243.002 95.631 242.601 95.3789 242.101L59.8807 171.683C59.765 171.453 59.5811 171.265 59.3543 171.144C59.1275 171.024 58.8688 170.976 58.6139 171.008C58.359 171.04 58.1202 171.151 57.9304 171.324C57.7406 171.497 57.6091 171.725 57.5539 171.976L41.9341 243.144C41.8123 243.698 41.5049 244.194 41.0627 244.55C40.6206 244.905 40.0702 245.099 39.5027 245.099H31.5833C31.2569 245.1 30.9337 245.036 30.632 244.912C30.3303 244.787 30.056 244.605 29.8248 244.374C29.5937 244.144 29.4101 243.871 29.2847 243.569C29.1592 243.268 29.0944 242.945 29.0938 242.619C29.0938 242.605 29.0938 242.59 29.094 242.576C29.8196 193.227 27.4263 137 46.4788 128.106L49.5903 120.016L78.2182 124.997Z" fill="#2F2E41"/>
<path d="M48.6961 122.134L45.4888 102.732C44.9577 99.5507 45.2362 96.2864 46.2986 93.2405C47.3611 90.1947 49.1732 87.4654 51.568 85.3042C53.9088 83.1637 56.7508 81.647 59.832 80.8938C62.9131 80.1407 66.1343 80.1754 69.1986 80.9947C69.3803 81.0433 69.5626 81.0937 69.745 81.1447C73.5147 82.2248 76.8621 84.4358 79.3351 87.4791C81.8082 90.5224 83.2877 94.2513 83.5738 98.1623C84.1862 106.588 83.636 118.813 77.5511 129.197L77.4329 129.398L48.6961 122.134Z" fill="#CCCCCC"/>
<path d="M80.9892 51.5263C77.4966 53.9339 73.3508 55.2151 69.1088 55.1979C70.622 56.2471 72.3447 56.9558 74.1582 57.2752C68.5183 58.4851 62.6893 58.5179 57.0361 57.3716C55.7794 57.1702 54.5669 56.7538 53.4516 56.1407C52.8959 55.8303 52.4117 55.4064 52.0305 54.8966C51.6494 54.3868 51.3798 53.8025 51.2393 53.1816C50.8659 51.0353 52.5356 49.0856 54.2737 47.772C56.9343 45.7908 60.002 44.4258 63.2549 43.7758C66.5078 43.1257 69.8645 43.2068 73.0822 44.0132C75.1831 44.5565 77.2878 45.4738 78.6525 47.1615C80.0172 48.8492 80.4217 51.4504 79.1211 53.1879L80.9892 51.5263Z" fill="#2F2E41"/>
<path d="M63.9712 37.4691C65.7429 30.3126 59.3929 22.367 52.0229 22.5157C44.5472 22.6669 39.0454 29.4233 35.2636 35.8729C31.4819 42.3224 27.7244 49.6364 20.7832 52.4138C18.4858 53.3327 15.9962 53.6672 13.5377 53.3872C11.0792 53.1072 8.72862 52.2215 6.69665 50.8095C4.66468 49.3975 3.01487 47.5034 1.89511 45.2968C0.77536 43.0903 0.220667 40.6404 0.280764 38.1667C-0.652694 46.0034 0.639842 54.4829 5.69483 60.5448C10.7498 66.6067 20.1528 69.338 26.9154 65.2644C30.7737 62.9376 33.2437 58.8938 35.278 54.8719C37.3123 50.8499 39.1226 46.6083 42.2048 43.3194C45.2871 40.0305 50.0534 37.8481 54.3435 39.2315C56.0461 39.781 57.5739 40.8495 59.3332 41.1768C61.0924 41.5041 63.3072 40.6665 63.5474 38.8936L63.9712 37.4691Z" fill="#2F2E41"/>
<path d="M27.1304 167.185C26.496 166.441 26.0324 165.568 25.7721 164.626C25.5119 163.684 25.4613 162.696 25.6241 161.732C25.7868 160.768 26.1589 159.852 26.7141 159.048C27.2693 158.243 27.994 157.571 28.8374 157.077L42.0956 97.6465L55.5455 103.167L38.2846 159.847C39.0246 161.319 39.1979 163.012 38.7718 164.604C38.3457 166.195 37.3498 167.575 35.9733 168.48C34.5967 169.386 32.9355 169.754 31.3053 169.515C29.675 169.276 28.1893 168.447 27.1304 167.185V167.185Z" fill="#A0616A"/>
<path d="M36.8445 106.173C36.6325 105.797 36.5041 105.381 36.468 104.951C36.4319 104.521 36.489 104.089 36.6354 103.684L41.734 89.5292C42.1631 87.3634 43.435 85.4568 45.2699 84.2288C47.1048 83.0007 49.3524 82.5519 51.5182 82.981C53.684 83.4102 55.5906 84.6821 56.8186 86.5169C58.0467 88.3518 58.4955 90.5994 58.0664 92.7652V92.7652L57.2916 107.839C57.2695 108.269 57.1549 108.689 56.9557 109.071C56.7564 109.453 56.4772 109.788 56.1371 110.052C55.7969 110.316 55.4037 110.504 54.9844 110.603C54.5651 110.701 54.1294 110.708 53.7071 110.624L38.8652 107.636C38.4428 107.552 38.0436 107.377 37.695 107.124C37.3464 106.87 37.0565 106.545 36.8452 106.17L36.8445 106.173Z" fill="#CCCCCC"/>
<defs>
<clipPath id="clip0_1162_4400">
<rect width="396" height="264" fill="white" transform="translate(92)"/>
</clipPath>
</defs>
</svg>
