<svg width="781" height="749" viewBox="0 0 781 749" fill="none" xmlns="http://www.w3.org/2000/svg">
<path d="M404 228.5C451.667 278.833 518.4 408.1 404 522.5" stroke="#CFCFC9" stroke-width="2"/>
<path d="M463.428 15.0938C519.652 -14.96 591.011 0.795625 628.844 54.0851L627.556 54.9979C590.19 2.36622 519.704 -13.1911 464.172 16.4851C459.454 19.0069 454.9 21.8232 450.536 24.9173C393.43 65.381 379.923 144.714 420.426 201.764L419.138 202.677C378.131 144.918 391.806 64.5971 449.623 23.6307C454.041 20.4988 458.652 17.6476 463.428 15.0938V15.0938Z" fill="#CFCFC9"/>
<path d="M761.279 143.555L576.353 129.182C573.483 128.956 570.819 127.601 568.947 125.415C567.075 123.229 566.147 120.391 566.367 117.523L574.384 27.7616C574.611 24.8937 575.967 22.2328 578.155 20.3625C580.343 18.4922 583.184 17.5653 586.055 17.7852L770.981 32.1576C773.851 32.384 776.515 33.7387 778.387 35.9245C780.259 38.1104 781.187 40.9488 780.967 43.8171L772.95 133.578C772.723 136.446 771.367 139.107 769.179 140.977C766.991 142.848 764.15 143.774 761.279 143.555Z" fill="#E6E6E6"/>
<path d="M717.597 123.276C716.194 123.276 714.785 123.221 713.371 123.112L593.86 113.823C591.47 113.638 589.141 112.984 587.004 111.899C584.868 110.813 582.966 109.319 581.408 107.499C579.849 105.68 578.665 103.572 577.922 101.295C577.18 99.0183 576.893 96.6178 577.079 94.2306L579.804 59.2334C580.185 54.414 582.464 49.9422 586.14 46.7991C589.817 43.6561 594.592 42.0985 599.417 42.468L753.959 54.479C758.783 54.8596 763.259 57.1361 766.405 60.8092C769.551 64.4823 771.11 69.2521 770.74 74.0722C769.698 87.4468 763.65 99.9381 753.801 109.057C743.952 118.176 731.026 123.253 717.597 123.276V123.276Z" fill="white"/>
<path d="M750.261 82.3007L598.763 70.5262C598.447 70.5017 598.14 70.4153 597.857 70.272C597.575 70.1287 597.324 69.9312 597.118 69.6909C596.912 69.4506 596.756 69.1721 596.658 68.8714C596.56 68.5707 596.522 68.2537 596.546 67.9384C596.571 67.623 596.657 67.3156 596.801 67.0337C596.944 66.7518 597.142 66.5008 597.383 66.2952C597.623 66.0896 597.902 65.9333 598.203 65.8353C598.504 65.7373 598.821 65.6995 599.137 65.7241L750.635 77.4985C750.951 77.523 751.259 77.6094 751.541 77.7527C751.823 77.8961 752.074 78.0935 752.28 78.3338C752.486 78.5741 752.642 78.8526 752.74 79.1533C752.838 79.454 752.876 79.7711 752.852 80.0864C752.827 80.4017 752.741 80.7091 752.597 80.991C752.454 81.2729 752.256 81.5239 752.016 81.7295C751.775 81.9351 751.496 82.0914 751.195 82.1894C750.894 82.2874 750.577 82.3252 750.261 82.3007Z" fill="#E6E6E6"/>
<path d="M687.355 86.9575L598.024 80.0147C597.387 79.9647 596.796 79.6641 596.38 79.1788C595.965 78.6935 595.759 78.0633 595.809 77.4267C595.859 76.7902 596.159 76.1993 596.645 75.784C597.13 75.3688 597.761 75.1631 598.398 75.2122L687.729 82.1551C688.045 82.1794 688.353 82.2657 688.635 82.409C688.918 82.5522 689.169 82.7497 689.375 82.99C689.581 83.2304 689.737 83.5089 689.836 83.8097C689.934 84.1105 689.972 84.4277 689.947 84.7432C689.923 85.0586 689.836 85.3662 689.693 85.6482C689.549 85.9302 689.351 86.1812 689.11 86.3869C688.87 86.5925 688.591 86.7487 688.29 86.8467C687.988 86.9446 687.671 86.9822 687.355 86.9575V86.9575Z" fill="#E6E6E6"/>
<path d="M707.034 98.0318L597.285 89.5022C596.97 89.4778 596.662 89.3916 596.379 89.2483C596.097 89.105 595.846 88.9076 595.64 88.6672C595.434 88.4269 595.277 88.1483 595.179 87.8475C595.081 87.5467 595.043 87.2295 595.067 86.9141C595.092 86.5986 595.178 86.2911 595.322 86.009C595.466 85.727 595.663 85.476 595.904 85.2704C596.145 85.0648 596.424 84.9085 596.725 84.8106C597.026 84.7127 597.344 84.675 597.659 84.6998L707.408 93.2294C708.045 93.2793 708.636 93.5799 709.052 94.0652C709.467 94.5505 709.672 95.1807 709.623 95.8173C709.573 96.4539 709.273 97.0448 708.787 97.46C708.302 97.8753 707.671 98.081 707.034 98.0318V98.0318Z" fill="#E6E6E6"/>
<path d="M748.905 265.404L563.979 251.032C561.108 250.805 558.445 249.451 556.573 247.265C554.7 245.079 553.773 242.241 553.993 239.372L562.01 149.611C562.236 146.743 563.592 144.082 565.78 142.212C567.968 140.342 570.809 139.415 573.68 139.635L758.606 154.007C761.477 154.234 764.14 155.588 766.013 157.774C767.885 159.96 768.812 162.798 768.592 165.667L760.576 255.428C760.349 258.296 758.993 260.957 756.805 262.827C754.617 264.697 751.776 265.624 748.905 265.404V265.404Z" fill="#E6E6E6"/>
<path d="M705.176 245.124C703.792 245.124 702.399 245.07 700.997 244.961L581.486 235.673C579.096 235.487 576.767 234.833 574.63 233.748C572.493 232.663 570.591 231.168 569.033 229.349C567.475 227.53 566.291 225.421 565.548 223.145C564.805 220.868 564.518 218.468 564.704 216.08L567.43 181.084C567.616 178.696 568.27 176.369 569.357 174.234C570.443 172.099 571.939 170.2 573.761 168.643C575.582 167.086 577.692 165.903 579.971 165.161C582.25 164.419 584.653 164.132 587.043 164.318L741.585 176.329C743.974 176.515 746.304 177.169 748.44 178.254C750.577 179.339 752.479 180.834 754.037 182.654C755.595 184.473 756.78 186.581 757.522 188.858C758.265 191.134 758.552 193.535 758.366 195.922C757.308 209.299 751.248 221.788 741.392 230.904C731.537 240.021 718.607 245.097 705.176 245.124V245.124Z" fill="white"/>
<path d="M737.887 204.15L586.388 192.376C586.073 192.351 585.765 192.265 585.483 192.122C585.201 191.978 584.949 191.781 584.744 191.541C584.538 191.3 584.381 191.022 584.283 190.721C584.185 190.42 584.147 190.103 584.172 189.788C584.196 189.473 584.283 189.165 584.426 188.883C584.57 188.601 584.767 188.35 585.008 188.145C585.249 187.939 585.527 187.783 585.828 187.685C586.129 187.587 586.447 187.549 586.762 187.574L738.261 199.348C738.576 199.373 738.884 199.459 739.166 199.602C739.448 199.746 739.7 199.943 739.905 200.183C740.111 200.424 740.268 200.702 740.366 201.003C740.464 201.304 740.502 201.621 740.477 201.936C740.453 202.251 740.366 202.559 740.223 202.841C740.079 203.123 739.881 203.374 739.641 203.579C739.4 203.785 739.122 203.941 738.821 204.039C738.52 204.137 738.202 204.175 737.887 204.15V204.15Z" fill="#E6E6E6"/>
<path d="M674.981 208.807L585.65 201.864C585.334 201.84 585.026 201.753 584.744 201.61C584.461 201.467 584.21 201.269 584.004 201.029C583.798 200.789 583.641 200.51 583.543 200.209C583.445 199.909 583.407 199.591 583.432 199.276C583.456 198.96 583.543 198.653 583.686 198.371C583.83 198.089 584.028 197.838 584.268 197.632C584.509 197.427 584.788 197.27 585.089 197.172C585.39 197.075 585.708 197.037 586.024 197.062L675.355 204.004C675.992 204.054 676.583 204.355 676.998 204.84C677.414 205.325 677.619 205.956 677.57 206.592C677.52 207.229 677.22 207.82 676.734 208.235C676.249 208.65 675.618 208.856 674.981 208.807V208.807Z" fill="#E6E6E6"/>
<path d="M694.659 219.881L584.911 211.352C584.273 211.302 583.682 211.002 583.266 210.516C582.85 210.031 582.645 209.401 582.694 208.764C582.744 208.127 583.045 207.536 583.531 207.12C584.016 206.705 584.647 206.5 585.285 206.549L695.033 215.079C695.671 215.128 696.262 215.429 696.678 215.914C697.094 216.4 697.299 217.03 697.25 217.667C697.2 218.304 696.899 218.895 696.414 219.31C695.928 219.725 695.297 219.931 694.659 219.881V219.881Z" fill="#E6E6E6"/>
<path d="M278.506 218.506C276.159 213.192 274.882 207.468 274.749 201.66C274.616 195.853 275.63 190.077 277.731 184.66C279.833 179.244 282.982 174.295 286.998 170.095C291.015 165.894 295.82 162.525 301.139 160.18C306.459 157.835 312.189 156.56 318.002 156.427C323.815 156.294 329.597 157.307 335.018 159.406C340.44 161.506 345.394 164.652 349.598 168.664C353.803 172.676 357.175 177.477 359.522 182.791L358.077 183.428C355.814 178.304 352.562 173.674 348.507 169.805C344.453 165.936 339.676 162.902 334.448 160.877C329.22 158.853 323.644 157.876 318.038 158.004C312.432 158.133 306.907 159.362 301.777 161.624C296.647 163.885 292.013 167.134 288.14 171.184C284.267 175.235 281.231 180.008 279.204 185.231C277.177 190.454 276.2 196.024 276.328 201.624C276.456 207.224 277.688 212.744 279.951 217.869L278.506 218.506Z" fill="#CFCFC9"/>
<path d="M737.451 465.187C755.529 456.629 768.995 439.41 766.894 420.487C750.676 433.608 728.595 440.934 705.799 440.759C696.921 440.691 686.977 439.788 680.526 444.765C676.511 447.862 674.7 452.78 674.471 457.681C674.243 462.582 675.432 467.542 676.614 472.438L676.255 473.598C697.481 474.948 719.373 473.746 737.451 465.187Z" fill="#CFCFC9"/>
<path d="M766.449 420.44C759.457 434.07 747.334 445.43 732.269 452.08C728.968 453.618 725.453 454.65 721.844 455.14C718.168 455.524 714.453 455.039 711 453.724C707.725 452.55 704.498 451.021 701.025 450.556C699.325 450.319 697.595 450.427 695.937 450.874C694.28 451.32 692.729 452.096 691.379 453.155C688.17 455.648 686.256 459.097 684.522 462.539C682.596 466.359 680.667 470.36 676.896 472.964C676.439 473.28 677.075 473.936 677.532 473.621C684.092 469.091 685.039 460.898 690.252 455.411C691.478 454.026 693.002 452.936 694.71 452.223C696.418 451.51 698.265 451.192 700.113 451.293C703.657 451.554 706.986 453.128 710.292 454.341C713.654 455.668 717.261 456.259 720.87 456.075C724.509 455.755 728.072 454.85 731.422 453.395C738.707 450.366 745.45 446.174 751.388 440.984C757.949 435.316 763.364 428.447 767.344 420.748C767.586 420.277 766.689 419.973 766.449 420.44H766.449Z" fill="white"/>
<path d="M737.316 450.159C739.219 452.402 741.774 453.997 744.627 454.721C747.479 455.445 750.487 455.263 753.231 454.201C753.757 453.979 753.328 453.209 752.801 453.431C750.248 454.424 747.447 454.594 744.792 453.915C742.138 453.235 739.763 451.742 738.002 449.645C737.632 449.195 736.948 449.712 737.316 450.159V450.159Z" fill="white"/>
<path d="M712.59 454.508C712.94 451.846 713.851 449.288 715.262 447.002C716.673 444.717 718.552 442.756 720.777 441.249C721.232 440.932 720.596 440.275 720.141 440.592C717.83 442.165 715.879 444.21 714.416 446.591C712.953 448.972 712.012 451.636 711.655 454.408C711.59 454.936 712.526 455.033 712.59 454.508L712.59 454.508Z" fill="white"/>
<path d="M756.876 434.737C756.006 434.069 755.322 433.191 754.888 432.185C754.454 431.18 754.284 430.08 754.394 428.99C754.467 428.463 753.531 428.366 753.459 428.889C753.343 430.093 753.532 431.308 754.009 432.42C754.486 433.531 755.236 434.505 756.189 435.251C756.275 435.336 756.387 435.389 756.507 435.402C756.627 435.415 756.748 435.387 756.85 435.322C756.894 435.288 756.931 435.245 756.956 435.195C756.982 435.146 756.997 435.091 756.999 435.036C757.002 434.98 756.992 434.924 756.97 434.873C756.949 434.821 756.917 434.775 756.876 434.737V434.737Z" fill="white"/>
<path d="M707.248 380.479C707.192 380.805 707.137 381.132 707.074 381.462C706.3 385.845 705.118 390.145 703.544 394.308C703.428 394.632 703.305 394.958 703.178 395.278C699.196 405.357 693.14 414.489 685.402 422.083C682.25 425.185 678.85 428.026 675.236 430.577C670.199 434.139 664.384 437.618 661.196 442.416C660.858 442.911 660.556 443.429 660.291 443.966L674.654 472.998C674.722 473.053 674.784 473.109 674.852 473.164L675.368 474.342C675.568 474.221 675.772 474.093 675.971 473.972C676.088 473.903 676.201 473.827 676.317 473.757C676.393 473.709 676.47 473.66 676.542 473.621C676.568 473.605 676.593 473.588 676.611 473.575C676.684 473.535 676.746 473.491 676.811 473.454C677.953 472.736 679.09 472.009 680.223 471.273C680.23 471.271 680.23 471.271 680.234 471.262C688.85 465.634 696.952 459.274 703.61 451.937C703.81 451.716 704.017 451.493 704.211 451.259C707.17 447.962 709.82 444.4 712.128 440.619C713.372 438.563 714.495 436.437 715.493 434.251C718.053 428.604 719.57 422.542 719.971 416.355C720.782 403.964 717.102 391.15 707.955 381.231C707.721 380.977 707.489 380.73 707.248 380.479Z" fill="#CFCFC9"/>
<path d="M706.881 380.676C710.882 396.003 709.503 412.168 702.729 425.922C701.32 428.977 699.38 431.757 696.998 434.133C694.446 436.469 691.309 438.072 687.919 438.773C684.672 439.54 681.22 439.982 678.305 441.458C676.875 442.174 675.635 443.217 674.685 444.503C673.736 445.789 673.105 447.281 672.844 448.858C672.131 452.7 673.035 456.657 674.068 460.51C675.216 464.788 676.482 469.221 675.423 473.461C675.295 473.975 676.216 474.189 676.344 473.676C678.186 466.299 673.344 458.841 673.529 451.379C673.615 447.897 674.885 444.504 678.121 442.574C680.952 440.887 684.511 440.429 687.808 439.677C691.139 439.031 694.262 437.58 696.902 435.451C699.418 433.208 701.483 430.508 702.987 427.493C706.433 420.852 708.648 413.642 709.525 406.213C710.577 397.593 709.978 388.851 707.76 380.455C707.621 379.925 706.744 380.15 706.881 380.676H706.881Z" fill="white"/>
<path d="M705.206 421.575C711.115 423.424 717.383 421.212 719.861 416.431C720.105 415.96 719.261 415.538 719.017 416.009C716.696 420.488 710.895 422.497 705.372 420.769C704.79 420.587 704.628 421.394 705.206 421.575V421.575Z" fill="white"/>
<path d="M689.641 438.581C688.128 436.301 687.095 433.737 686.604 431.046C686.113 428.355 686.175 425.592 686.785 422.925C686.911 422.411 685.99 422.197 685.864 422.71C685.235 425.487 685.177 428.363 685.694 431.163C686.211 433.964 687.293 436.629 688.872 438.999C689.182 439.482 689.948 439.061 689.641 438.581Z" fill="white"/>
<path d="M709.4 397.958C708.24 397.827 707.123 397.442 706.129 396.831C705.135 396.219 704.288 395.396 703.648 394.42C703.346 393.935 702.579 394.356 702.88 394.839C703.591 395.914 704.528 396.822 705.625 397.5C706.722 398.178 707.954 398.609 709.235 398.764C709.489 398.795 709.726 398.706 709.778 398.469C709.792 398.352 709.761 398.234 709.691 398.139C709.62 398.044 709.517 397.979 709.4 397.958V397.958Z" fill="white"/>
<path d="M737.739 259.051L726.751 200.613L705.18 172.249L689.194 182.69C691.453 194.93 708.54 217.779 708.54 217.779L723.685 262.973C723.624 263.208 723.568 263.445 723.527 263.689C723.287 265.119 723.42 266.586 723.914 267.95C724.407 269.313 725.244 270.526 726.344 271.472C727.444 272.418 728.77 273.064 730.193 273.349C731.616 273.633 733.088 273.546 734.467 273.096C735.847 272.645 737.087 271.847 738.067 270.779C739.048 269.71 739.736 268.406 740.065 266.994C740.394 265.582 740.352 264.109 739.945 262.718C739.537 261.326 738.778 260.063 737.739 259.051V259.051Z" fill="#FFB8B8"/>
<path d="M689.624 188.865L707.722 174.19L707.756 174.112C711.141 166.449 703.626 153.31 696.725 143.637C694.447 140.449 691.042 138.244 687.199 137.468C683.356 136.693 679.362 137.403 676.023 139.457C673.571 140.989 671.596 143.175 670.322 145.769C669.048 148.363 668.526 151.262 668.815 154.137L670.337 168.776L689.624 188.865Z" fill="#3F3D56"/>
<path d="M625.661 479.685L613.619 479.684L607.891 433.282L625.663 433.283L625.661 479.685Z" fill="#FFB8B8"/>
<path d="M628.733 475.757L625.343 475.757L612.111 470.381L605.018 475.756H605.017C601.009 475.756 597.165 477.347 594.331 480.179C591.497 483.01 589.905 486.85 589.904 490.854V491.345L628.732 491.346L628.733 475.757Z" fill="#2F2E41"/>
<path d="M679.093 479.685L667.05 479.684L661.322 433.282L679.095 433.283L679.093 479.685Z" fill="#FFB8B8"/>
<path d="M682.165 475.757L678.775 475.757L665.542 470.381L658.45 475.756H658.449C654.441 475.756 650.597 477.347 647.763 480.179C644.929 483.01 643.336 486.85 643.336 490.854V491.345L682.164 491.346L682.165 475.757Z" fill="#2F2E41"/>
<path d="M697.454 279.816C697.454 279.816 698.86 296.673 695.345 312.827C691.83 328.981 691.83 374.477 691.83 374.477L684.096 463.133L660.895 461.026L654.568 312.827L632.07 362.695L634.18 369.718L631.37 371.474C631.37 371.474 633.477 385.17 632.07 385.17C630.664 385.17 627.149 387.278 627.149 387.278L629.961 459.621L606.058 458.919L597.621 357.076L606.761 298.78L607.464 287.542L610.627 287.672L612.238 282.977L615.197 274.899L697.454 279.816Z" fill="#2F2E41"/>
<path d="M698.669 283.357L698.794 283.181C705.486 273.821 695.422 251.33 693.904 248.069L700.297 245.996L698.858 233.77L698.175 228.319L703.062 223.437L703.076 223.315L705.888 198.733L709.977 182.405C711.517 176.233 711.386 169.762 709.596 163.657C707.807 157.552 704.423 152.033 699.793 147.666L690.341 138.763L678.855 121.784H660.332L653.981 133.769C647.823 135.191 642.36 138.725 638.543 143.757C634.726 148.789 632.797 155 633.092 161.306L634.531 192.739L628.896 231.875L628.893 238.958L622.551 245.999L623.936 252.916L619.11 254.982L616.979 264.916C616.097 266.079 610.276 273.833 610.276 275.953C610.276 276.271 610.511 276.579 611.016 276.92C614.983 279.604 636.909 285.075 646.613 281.195C656.95 277.066 698.042 283.261 698.456 283.324L698.669 283.357Z" fill="#F0E967"/>
<path d="M537.591 491.062C537.591 491.31 537.689 491.548 537.864 491.724C538.039 491.9 538.277 491.999 538.525 492H759.803C760.052 492 760.291 491.901 760.467 491.725C760.643 491.549 760.742 491.31 760.742 491.062C760.742 490.813 760.643 490.574 760.467 490.398C760.291 490.222 760.052 490.123 759.803 490.123H538.531C538.282 490.122 538.044 490.22 537.868 490.395C537.691 490.57 537.592 490.808 537.591 491.056V491.062Z" fill="#CCCCCC"/>
<path d="M667.201 116.303C680.749 116.303 691.732 105.331 691.732 91.796C691.732 78.2609 680.749 67.2886 667.201 67.2886C653.653 67.2886 642.669 78.2609 642.669 91.796C642.669 105.331 653.653 116.303 667.201 116.303Z" fill="#FFB8B8"/>
<path d="M664.851 116.7C668.65 116.661 672.439 116.298 676.176 115.615C679.876 114.764 688.039 108.457 690.264 104.732C691.917 101.964 692.909 97.6825 693.45 94.5785C694.181 90.4705 694.04 86.2549 693.037 82.2048C692.033 78.1546 690.189 74.3602 687.625 71.0672C686.636 69.6876 685.293 68.6007 683.736 67.9213C683.599 67.8716 683.457 67.828 683.314 67.7913C681.059 67.2601 679.013 66.0675 677.441 64.3666C677.136 64.0222 676.806 63.7003 676.454 63.4032C674.69 61.9923 672.617 61.0184 670.404 60.5612C666.829 59.7035 661.715 60.7783 655.205 63.7585C651.934 65.2559 648.304 64.8381 645.506 64.3069C645.349 64.2808 645.188 64.2962 645.039 64.3516C644.89 64.4069 644.758 64.5003 644.656 64.6224C643.501 65.7633 641.956 66.425 640.333 66.4747C639.339 66.544 638.331 67.9466 637.116 69.7732C636.841 70.1878 636.519 70.6717 636.286 70.967L636.239 70.4125L635.693 71.0465C634.833 72.0431 634.241 73.2407 633.969 74.5278C633.698 75.8149 633.758 77.1496 634.142 78.4076C634.526 79.6656 635.223 80.806 636.167 81.7226C637.111 82.6393 638.272 83.3023 639.542 83.65C640.549 83.8901 641.578 84.0268 642.613 84.0581C643.241 84.0982 643.89 84.1397 644.514 84.2313C646.516 84.5874 648.392 85.4562 649.958 86.7528C651.524 88.0494 652.727 89.7295 653.449 91.6291C653.619 92.0681 653.888 92.4621 654.235 92.7806C654.582 93.0992 654.998 93.3338 655.45 93.4664C655.903 93.599 656.379 93.6259 656.844 93.5452C657.308 93.4645 657.748 93.2783 658.129 93.0009C658.762 92.4813 659.512 92.1224 660.314 91.955C661.117 91.7875 661.948 91.8165 662.737 92.0393C663.423 92.3975 663.964 92.9803 664.271 93.6902C664.642 94.4803 665.24 95.1421 665.989 95.5912C668.543 96.8244 668.866 102.571 668.084 107.389C667.331 112.033 665.693 115.421 664.1 115.627C662.874 115.786 662.735 115.877 662.652 116.096L662.577 116.293L662.72 116.471C663.406 116.7 664.132 116.778 664.851 116.7V116.7Z" fill="#2F2E41"/>
<path d="M395.252 243.022C422.192 243.022 444.031 221.205 444.031 194.291C444.031 167.378 422.192 145.56 395.252 145.56C368.312 145.56 346.473 167.378 346.473 194.291C346.473 221.205 368.312 243.022 395.252 243.022Z" fill="#F0E967"/>
<path d="M659.2 187.039L643.11 176.759C632.864 183.839 619.017 208.781 619.017 208.781L583.972 241.126C582.513 241.376 581.144 242.006 580.006 242.953C578.867 243.899 577.998 245.129 577.486 246.517C576.974 247.906 576.837 249.405 577.089 250.863C577.342 252.321 577.974 253.688 578.923 254.824C579.871 255.961 581.103 256.827 582.494 257.337C583.884 257.847 585.385 257.982 586.844 257.728C588.304 257.474 589.67 256.841 590.807 255.892C591.943 254.942 592.809 253.711 593.318 252.321L642.159 218.33L659.2 187.039Z" fill="#FFB8B8"/>
<path d="M657.666 191.211L668.383 165.516L664.507 151.316C663.735 148.532 662.2 146.018 660.074 144.059C657.948 142.1 655.316 140.774 652.475 140.232V140.232C648.619 139.522 644.637 140.301 641.335 142.412C638.032 144.523 635.655 147.808 634.684 151.603C631.749 163.114 629.495 178.079 635.423 184.002L635.483 184.062L657.666 191.211Z" fill="#F0E967"/>
<path d="M33.5967 477.132C12.6197 466.376 -2.59955 445.589 0.582347 423.376C19.198 439.437 44.9365 448.892 71.7965 449.536C82.2581 449.787 94.0055 449.095 101.42 455.199C106.033 458.997 107.983 464.857 108.069 470.639C108.155 476.421 106.569 482.22 104.993 487.943L105.373 489.323C80.3175 490.121 54.5736 487.889 33.5967 477.132Z" fill="#CFCFC9"/>
<path d="M1.10867 423.337C8.83597 439.655 22.692 453.489 40.1911 461.885C44.0223 463.82 48.1242 465.167 52.3579 465.878C56.6739 466.468 61.068 466.035 65.1856 464.615C69.0866 463.354 72.9459 461.674 77.054 461.256C79.0657 461.04 81.1003 461.232 83.0362 461.819C84.972 462.407 86.7693 463.379 88.3205 464.676C92.0073 467.733 94.133 471.868 96.0475 475.987C98.1733 480.56 100.297 485.345 104.642 488.553C105.168 488.942 104.394 489.691 103.868 489.303C96.3091 483.721 95.5001 474.035 89.5641 467.377C86.7942 464.27 82.8863 461.957 78.1011 462.158C73.9166 462.333 69.9355 464.063 65.9955 465.369C61.986 466.806 57.7149 467.367 53.4698 467.016C49.195 466.504 45.0311 465.304 41.139 463.465C32.6712 459.625 24.8844 454.436 18.083 448.1C10.5664 441.178 4.44305 432.884 0.0424751 423.666C-0.22445 423.102 0.843497 422.777 1.10869 423.337H1.10867Z" fill="white"/>
<path d="M34.3176 459.434C29.719 464.674 21.6255 466.446 15.4175 463.601C14.806 463.321 15.3409 462.43 15.9533 462.71C18.9239 463.976 22.2171 464.28 25.3695 463.579C28.522 462.878 31.3753 461.208 33.528 458.803C33.9804 458.287 34.7674 458.922 34.3176 459.434V459.434Z" fill="white"/>
<path d="M63.2833 465.48C62.9703 462.33 61.9932 459.283 60.4164 456.538C58.8396 453.793 56.6988 451.413 54.1348 449.554C53.6101 449.164 54.384 448.414 54.9081 448.804C57.572 450.744 59.7942 453.225 61.4283 456.085C63.0624 458.945 64.0712 462.118 64.3884 465.396C64.4449 466.02 63.3395 466.101 63.2833 465.48V465.48Z" fill="white"/>
<path d="M11.8526 440.536C12.9017 439.782 13.7406 438.773 14.2898 437.604C14.839 436.436 15.0802 435.146 14.9907 433.858C14.9252 433.235 16.0307 433.156 16.0957 433.775C16.1883 435.197 15.9204 436.621 15.3168 437.913C14.7132 439.205 13.7933 440.324 12.6422 441.167C12.5377 441.264 12.4037 441.322 12.2618 441.333C12.1199 441.344 11.9786 441.306 11.8608 441.226C11.8099 441.185 11.7688 441.132 11.7403 441.073C11.7118 441.014 11.6966 440.949 11.6958 440.883C11.6951 440.817 11.7087 440.752 11.7358 440.692C11.7629 440.632 11.8028 440.579 11.8527 440.536H11.8526Z" fill="white"/>
<path d="M72.343 378.469C72.3965 378.856 72.4499 379.244 72.5115 379.634C73.259 384.826 74.4905 389.937 76.19 394.899C76.3144 395.285 76.447 395.674 76.5839 396.055C80.8985 408.077 87.6912 419.061 96.5226 428.295C100.12 432.068 104.019 435.542 108.181 438.681C113.982 443.065 120.702 447.381 124.278 453.152C124.658 453.747 124.995 454.369 125.287 455.012L107.282 488.677C107.199 488.738 107.124 488.802 107.041 488.864L106.389 490.233C106.159 490.083 105.923 489.924 105.693 489.774C105.559 489.688 105.428 489.595 105.294 489.508C105.206 489.449 105.118 489.388 105.034 489.339C105.004 489.319 104.975 489.299 104.954 489.283C104.87 489.233 104.799 489.179 104.723 489.133C103.405 488.245 102.092 487.346 100.785 486.436C100.777 486.433 100.777 486.433 100.772 486.423C90.8337 479.472 81.5261 471.677 73.9581 462.785C73.7305 462.518 73.4943 462.247 73.2749 461.965C69.9123 457.97 66.9235 453.675 64.346 449.135C62.9579 446.667 61.714 444.12 60.6204 441.508C57.8152 434.76 56.2547 427.561 56.0142 420.259C55.5217 405.631 60.3353 390.673 71.4824 379.329C71.7677 379.039 72.0493 378.756 72.343 378.469Z" fill="#CFCFC9"/>
<path d="M72.7686 378.716C67.4827 396.622 68.5023 415.716 75.9679 432.172C77.5134 435.823 79.6957 439.17 82.4132 442.058C85.332 444.906 88.9675 446.912 92.9345 447.863C96.7306 448.889 100.781 449.538 104.159 451.385C105.818 452.282 107.24 453.557 108.31 455.107C109.38 456.658 110.068 458.439 110.317 460.306C111.013 464.859 109.8 469.487 108.439 473.987C106.927 478.984 105.269 484.159 106.358 489.193C106.49 489.803 105.397 490.021 105.265 489.412C103.371 480.653 109.354 472.048 109.415 463.25C109.444 459.145 108.075 455.101 104.334 452.707C101.063 450.614 96.8877 449.941 93.0315 448.933C89.1312 448.047 85.5073 446.221 82.476 443.614C79.5964 440.879 77.2649 437.621 75.6062 434.013C71.7941 426.061 69.4541 417.485 68.6992 408.7C67.7822 398.506 68.8148 388.231 71.7419 378.422C71.9245 377.804 72.9501 378.101 72.7686 378.716L72.7686 378.716Z" fill="white"/>
<path d="M73.2127 426.959C66.183 428.917 58.8814 426.076 56.1416 420.352C55.8717 419.788 56.8813 419.322 57.1515 419.887C59.7183 425.25 66.4766 427.833 73.0478 426.003C73.7394 425.81 73.9003 426.767 73.2127 426.959Z" fill="white"/>
<path d="M90.9132 447.573C92.7805 444.944 94.0934 441.962 94.7722 438.81C95.4511 435.658 95.4816 432.401 94.8621 429.236C94.7327 428.626 95.8256 428.408 95.9549 429.018C96.5924 432.313 96.5531 435.703 95.8393 438.982C95.1254 442.261 93.7521 445.362 91.8024 448.095C91.4199 448.652 90.5327 448.127 90.9132 447.573H90.9132Z" fill="white"/>
<path d="M69.1546 398.981C70.5262 398.87 71.8564 398.458 73.0504 397.775C74.2445 397.092 75.273 396.154 76.0628 395.028C76.4375 394.467 77.3244 394.992 76.9521 395.549C76.0743 396.79 74.937 397.825 73.6191 398.582C72.3011 399.34 70.834 399.802 69.3194 399.937C69.0187 399.964 68.7425 399.849 68.6906 399.568C68.6783 399.43 68.7195 399.292 68.8058 399.183C68.8921 399.074 69.0168 399.002 69.1546 398.981V398.981Z" fill="white"/>
<path d="M135.803 209.745L137.384 224.387L136.454 243.586L179.022 238.534L183.022 209.745L177.925 209.795L135.803 209.745Z" fill="#FFB6B6"/>
<path d="M113.724 475.571H123.031L127.46 439.709H113.724V475.571Z" fill="#FFB6B6"/>
<path d="M110.687 469.203L125.555 468.316V474.681L139.691 484.434C140.39 484.916 140.915 485.608 141.192 486.409C141.469 487.21 141.482 488.079 141.229 488.888C140.977 489.697 140.472 490.405 139.789 490.907C139.105 491.41 138.279 491.681 137.43 491.68H119.729L116.678 485.385L115.486 491.68H108.812L110.687 469.203Z" fill="#2F2E41"/>
<path d="M166.001 475.571H175.308L179.737 439.709H166.001V475.571Z" fill="#FFB6B6"/>
<path d="M162.964 469.203L177.833 468.316V474.681L191.969 484.434C192.667 484.916 193.193 485.608 193.47 486.409C193.746 487.21 193.759 488.079 193.507 488.888C193.254 489.697 192.749 490.405 192.066 490.907C191.383 491.41 190.556 491.681 189.708 491.68H172.006L168.955 485.385L167.764 491.68H161.089L162.964 469.203Z" fill="#2F2E41"/>
<path d="M109.709 444.645H109.81L111.6 386.334C110.441 384.102 109.853 381.619 109.888 379.105C109.923 376.591 110.58 374.125 111.8 371.926L112.056 371.462L111.392 368.385C110.538 364.432 110.93 360.312 112.513 356.59L114.183 302.197C108.217 263.574 136.646 238.385 136.646 238.385H179.234L188.377 269.768C194.421 328.599 193.325 385.927 183.733 441.469L183.995 441.602C184.936 441.926 185.34 443.229 184.897 444.512C184.454 445.795 183.331 446.572 182.39 446.247L159.898 445.465C158.957 445.141 158.553 443.838 158.996 442.555C159.439 441.272 160.562 440.495 161.504 440.82L163.033 441.593L159.771 385.325L160.133 375.047L159.388 363.387L155.94 310.942L142.891 375.435L129.562 445.294C129.93 445.627 130.188 446.063 130.302 446.545C130.416 447.027 130.382 447.533 130.203 447.995C130.024 448.457 129.708 448.854 129.299 449.133C128.889 449.412 128.404 449.561 127.909 449.56H109.709C109.385 449.56 109.065 449.497 108.766 449.374C108.467 449.251 108.195 449.07 107.967 448.841C107.738 448.613 107.556 448.342 107.432 448.044C107.308 447.745 107.245 447.426 107.245 447.102C107.245 446.779 107.308 446.459 107.432 446.161C107.556 445.863 107.738 445.592 107.967 445.363C108.195 445.135 108.467 444.954 108.766 444.831C109.065 444.708 109.385 444.645 109.709 444.645V444.645Z" fill="#2F2E41"/>
<path d="M143.236 134.821C155.852 134.821 166.079 124.604 166.079 112.001C166.079 99.3972 155.852 89.1802 143.236 89.1802C130.621 89.1802 120.394 99.3972 120.394 112.001C120.394 124.604 130.621 134.821 143.236 134.821Z" fill="#FFB6B6"/>
<path d="M43.1407 217.43C46.3511 209.984 50.7597 203.114 56.1916 197.09C51.5919 204.414 48.9631 212.8 48.5599 221.437C50.2252 222.476 51.9676 223.386 53.772 224.16C59.1944 226.432 64.9758 227.73 70.85 227.993C74.016 217.455 79.4807 207.749 86.8508 199.574C81.5393 208.036 78.8683 217.885 79.1777 227.869C85.7296 227.303 92.185 225.921 98.3936 223.755C107.716 220.551 116.764 215.766 123.211 208.324C130.188 200.269 133.627 189.64 134.737 179.044C135.848 168.456 134.804 157.769 133.751 147.173C133.254 142.123 137.463 136.312 136.966 131.262H136.635C134.422 128.232 132.168 125.128 131.083 121.535C130.006 117.951 130.287 113.721 132.765 110.898C134.153 109.423 135.905 108.338 137.845 107.752C138.027 107.52 138.226 107.297 138.433 107.073C142.185 103.092 146.601 99.7921 151.484 97.3214C147.962 99.9787 145.609 102.984 144.515 106.088C147.564 105.418 150.614 104.75 153.663 104.085C154.682 103.005 155.755 101.977 156.878 101.005C158.511 99.5896 159.049 99.482 160.996 98.1493C159.424 99.5309 158.206 101.268 157.442 103.216C161.361 102.23 165.28 100.749 167.319 97.3794C170.7 91.8081 166.681 84.2915 161.071 80.9637C156.99 78.6607 152.288 77.6974 147.63 78.2099C142.971 78.7224 138.591 80.6848 135.11 83.8197C126.998 77.851 115.447 77.9504 106.423 82.4124C100.466 85.4898 95.3339 89.9495 91.458 95.4174C93.7063 95.1292 95.9695 94.9716 98.2361 94.9456C95.0455 95.4121 92.0072 96.6137 89.3615 98.4555C88.1911 100.271 87.1179 102.147 86.1464 104.076C85.5084 105.343 84.9063 106.626 84.34 107.926C80.8681 115.823 78.6059 124.234 76.2609 132.545C73.5264 142.231 70.5931 151.982 65.4722 160.65C57.6205 173.829 45.2346 183.702 30.6283 188.423C29.4103 199.375 34.7632 210.087 43.1407 217.43Z" fill="#2F2E41"/>
<path d="M166.24 150.082L161.806 148.419L156.216 139.388L136.302 141.014L131.462 150.697L119.802 159.593L124.901 186.422L132.823 219.011L185.855 212.389L185.799 187.856C185.799 187.856 195.382 168.474 179.902 161.211L166.24 150.082Z" fill="#F0E967"/>
<path d="M247.983 235.179C246.954 235.592 245.846 235.775 244.739 235.713C243.631 235.652 242.55 235.35 241.573 234.826C240.595 234.303 239.744 233.571 239.079 232.684C238.415 231.796 237.954 230.774 237.728 229.689L178.597 193.944L189.405 181.486L244.13 220.54C245.98 220.281 247.86 220.709 249.415 221.743C250.97 222.777 252.091 224.345 252.566 226.15C253.041 227.954 252.836 229.87 251.992 231.534C251.147 233.198 249.721 234.495 247.983 235.179V235.179Z" fill="#FFB6B6"/>
<path d="M158.894 176.994C158.894 176.994 156.068 179.835 163.159 184.505C168.835 188.245 194.155 206.722 203.13 209.645C203.018 210.962 203.347 212.279 204.067 213.389C204.786 214.498 205.855 215.337 207.104 215.773L215.23 197.932C213.471 193.853 210.657 194.797 209.177 195.722L199.362 188.348L175.261 164.305L160.9 174.905L158.894 176.994Z" fill="#F0E967"/>
<path d="M135.255 84.4404C132.509 88.488 130.736 93.1139 130.072 97.9581C129.408 102.802 129.872 107.734 131.428 112.37" fill="#FD6584"/>
<path d="M19.3657 491.062C19.3654 491.185 19.3894 491.307 19.4365 491.421C19.4836 491.535 19.5528 491.639 19.6401 491.726C19.7274 491.813 19.8311 491.882 19.9453 491.929C20.0594 491.976 20.1817 492 20.3052 492H241.577C241.826 492 242.065 491.901 242.241 491.725C242.417 491.549 242.516 491.31 242.516 491.062C242.516 490.813 242.417 490.574 242.241 490.398C242.065 490.222 241.826 490.123 241.577 490.123H20.3052C20.1817 490.123 20.0594 490.147 19.9453 490.194C19.8311 490.241 19.7274 490.31 19.6401 490.397C19.5528 490.484 19.4836 490.588 19.4365 490.702C19.3894 490.816 19.3654 490.938 19.3657 491.062V491.062Z" fill="#CCCCCC"/>
<path d="M103.671 277.747C103.119 277.941 102.667 278.346 102.414 278.872C102.161 279.398 102.127 280.004 102.32 280.555L133.148 369.32C133.342 369.871 133.747 370.322 134.274 370.575C134.801 370.828 135.407 370.862 135.958 370.669L315.335 307.795C315.886 307.601 316.338 307.197 316.591 306.67C316.845 306.144 316.878 305.538 316.685 304.987L285.858 216.222C285.663 215.671 285.258 215.22 284.731 214.967C284.204 214.714 283.598 214.68 283.046 214.873L103.671 277.747Z" fill="#E6E6E6"/>
<path d="M149.073 357.859C145.543 357.858 142.1 356.765 139.216 354.73C136.333 352.695 134.152 349.818 132.971 346.494L116.042 298.641C114.534 294.379 114.782 289.693 116.733 285.614C118.683 281.535 122.175 278.398 126.442 276.891L217.1 244.88C234.071 238.909 252.719 239.907 268.955 247.655C285.19 255.403 297.685 269.268 303.7 286.209C305.208 290.471 304.959 295.157 303.009 299.236C301.059 303.314 297.566 306.452 293.3 307.959L293.169 307.587L293.3 307.959L154.742 356.884C152.921 357.528 151.004 357.858 149.073 357.859V357.859Z" fill="white"/>
<path d="M269.297 263.53L188.12 291.983C186.976 292.384 185.559 291.313 184.954 289.591C184.349 287.868 184.786 286.147 185.93 285.746L267.106 257.293C268.25 256.892 269.667 257.963 270.272 259.685C270.877 261.407 270.441 263.13 269.297 263.53Z" fill="#E6E6E6"/>
<path d="M275.575 281.408L194.399 309.862C193.255 310.263 191.838 309.191 191.233 307.469C190.628 305.747 191.065 304.026 192.208 303.625L273.385 275.171C274.529 274.77 275.946 275.841 276.551 277.564C277.156 279.286 276.719 281.007 275.575 281.408Z" fill="#E6E6E6"/>
<path d="M177.136 301.71C178.008 304.164 178.431 306.754 178.386 309.358C178.369 310.549 178.251 311.737 178.034 312.908C177.342 316.693 175.662 320.228 173.164 323.157C170.665 326.085 167.438 328.302 163.806 329.584C160.175 330.866 156.27 331.168 152.484 330.458C148.699 329.749 145.169 328.053 142.25 325.544C141.955 325.292 141.668 325.032 141.389 324.763C139.005 322.481 137.169 319.689 136.02 316.597C134.87 313.505 134.436 310.192 134.751 306.909C135.066 303.625 136.12 300.455 137.837 297.637C139.553 294.819 141.885 292.425 144.659 290.636C147.433 288.847 150.577 287.709 153.854 287.307C157.131 286.905 160.457 287.25 163.582 288.316C166.707 289.381 169.55 291.14 171.897 293.459C174.245 295.779 176.036 298.6 177.136 301.71V301.71Z" fill="#E4E4E4"/>
<path d="M145.654 273.719C144.62 273.317 143.687 272.694 142.92 271.893C142.153 271.092 141.572 270.133 141.216 269.083C140.86 268.034 140.74 266.919 140.862 265.817C140.984 264.716 141.347 263.654 141.924 262.708L123.218 196.24L139.63 194.526L152.857 260.401C154.384 261.476 155.464 263.072 155.891 264.889C156.319 266.705 156.064 268.615 155.177 270.256C154.289 271.898 152.829 273.157 151.074 273.795C149.319 274.433 147.39 274.406 145.654 273.719V273.719Z" fill="#FFB6B6"/>
<path d="M120.451 159.752C120.451 159.752 116.445 159.896 118.425 168.147C120.01 174.753 125.832 216.191 130.384 224.453C129.401 225.337 128.74 226.524 128.506 227.825C128.272 229.126 128.478 230.468 129.092 231.639L147.23 224.165C148.737 219.987 147.57 216.193 145.857 215.857L143.738 203.772L140.615 163.231L123.345 159.597L120.451 159.752Z" fill="#F0E967"/>
<path d="M283.848 334.639L258.763 335.677C258.227 335.701 257.693 335.602 257.2 335.39C256.708 335.178 256.27 334.857 255.919 334.451C255.573 334.056 255.321 333.588 255.182 333.081C255.043 332.575 255.02 332.044 255.116 331.528C257.041 321.041 256.48 310.249 253.478 300.018C253.246 299.236 253.293 298.397 253.611 297.646C253.929 296.894 254.498 296.276 255.221 295.896C265.496 290.563 275.124 290.293 283.835 295.091C284.291 295.339 284.688 295.683 284.998 296.1C285.308 296.517 285.523 296.996 285.628 297.505C287.896 308.669 288.439 320.114 287.24 331.443C287.157 332.295 286.768 333.089 286.144 333.677C285.521 334.264 284.705 334.606 283.848 334.639Z" fill="#F0E967"/>
<path d="M282.787 318.237L263.606 319.03C263.369 319.04 263.133 319.004 262.911 318.922C262.689 318.841 262.485 318.717 262.311 318.557C262.137 318.397 261.996 318.204 261.896 317.99C261.797 317.775 261.74 317.544 261.731 317.307C261.721 317.071 261.758 316.835 261.839 316.613C261.921 316.392 262.045 316.188 262.205 316.014C262.366 315.84 262.559 315.699 262.773 315.6C262.988 315.501 263.22 315.445 263.457 315.435L282.638 314.642C282.874 314.632 283.11 314.669 283.332 314.75C283.554 314.831 283.758 314.956 283.932 315.116C284.106 315.276 284.246 315.468 284.346 315.683C284.445 315.897 284.502 316.129 284.511 316.365C284.521 316.601 284.484 316.836 284.403 317.058C284.321 317.28 284.197 317.484 284.037 317.658C283.877 317.831 283.684 317.972 283.469 318.071C283.255 318.171 283.023 318.227 282.787 318.237V318.237Z" fill="white"/>
<path d="M282.525 311.933L263.345 312.727C262.867 312.746 262.402 312.576 262.05 312.253C261.699 311.93 261.491 311.48 261.471 311.004C261.451 310.527 261.622 310.062 261.945 309.711C262.269 309.36 262.718 309.151 263.196 309.132L282.376 308.338C282.853 308.318 283.319 308.489 283.67 308.812C284.022 309.135 284.23 309.584 284.25 310.061C284.27 310.538 284.099 311.003 283.776 311.354C283.452 311.705 283.002 311.913 282.525 311.933V311.933Z" fill="white"/>
<path d="M742.636 138.598L717.742 135.336C717.21 135.267 716.7 135.079 716.252 134.786C715.803 134.493 715.426 134.102 715.15 133.642C714.877 133.194 714.708 132.689 714.658 132.167C714.608 131.644 714.677 131.117 714.859 130.625C718.551 120.621 719.845 109.892 718.637 99.2992C718.543 98.4887 718.733 97.6706 719.175 96.9842C719.617 96.2979 720.283 95.7859 721.06 95.5355C732.097 92.0358 741.629 93.4138 749.39 99.6298C749.798 99.9519 750.13 100.359 750.364 100.823C750.598 101.286 750.728 101.795 750.744 102.314C751.068 113.701 749.645 125.071 746.525 136.028C746.297 136.854 745.778 137.569 745.063 138.041C744.348 138.514 743.485 138.712 742.636 138.598V138.598Z" fill="#F0E967"/>
<path d="M744.397 122.256L725.363 119.762C725.129 119.731 724.902 119.654 724.698 119.536C724.493 119.418 724.313 119.261 724.169 119.074C724.025 118.886 723.919 118.672 723.858 118.444C723.797 118.216 723.781 117.978 723.812 117.744C723.842 117.51 723.919 117.284 724.037 117.079C724.155 116.874 724.313 116.695 724.5 116.551C724.688 116.407 724.902 116.302 725.13 116.24C725.359 116.179 725.597 116.163 725.831 116.194L744.866 118.688C745.339 118.75 745.769 118.998 746.059 119.376C746.35 119.754 746.479 120.233 746.417 120.706C746.355 121.179 746.107 121.608 745.728 121.899C745.35 122.189 744.871 122.318 744.397 122.256V122.256Z" fill="white"/>
<path d="M745.219 116L726.184 113.506C725.949 113.475 725.723 113.399 725.518 113.281C725.312 113.163 725.132 113.006 724.988 112.819C724.844 112.631 724.738 112.417 724.676 112.189C724.615 111.96 724.599 111.722 724.63 111.487C724.66 111.253 724.737 111.027 724.856 110.822C724.974 110.617 725.132 110.438 725.319 110.294C725.507 110.15 725.722 110.044 725.951 109.983C726.179 109.922 726.418 109.907 726.653 109.938L745.687 112.432C745.922 112.462 746.148 112.539 746.354 112.657C746.559 112.774 746.739 112.932 746.883 113.119C747.028 113.307 747.134 113.521 747.195 113.749C747.257 113.978 747.272 114.216 747.242 114.45C747.211 114.685 747.134 114.911 747.016 115.116C746.897 115.321 746.74 115.5 746.552 115.644C746.364 115.788 746.149 115.894 745.921 115.955C745.692 116.016 745.453 116.031 745.219 116Z" fill="white"/>
<path d="M411.041 186.799H402.751V178.518C402.751 176.531 401.961 174.625 400.555 173.22C399.148 171.815 397.241 171.026 395.252 171.026C393.263 171.026 391.355 171.815 389.949 173.22C388.542 174.625 387.752 176.531 387.752 178.518V186.799H379.463C377.474 186.799 375.566 187.589 374.16 188.994C372.754 190.399 371.963 192.305 371.963 194.292C371.963 196.279 372.754 198.184 374.16 199.59C375.566 200.995 377.474 201.784 379.463 201.784H387.752V210.065C387.752 212.052 388.542 213.958 389.949 215.363C391.355 216.768 393.263 217.557 395.252 217.557C397.241 217.557 399.148 216.768 400.555 215.363C401.961 213.958 402.751 212.052 402.751 210.065V201.784H411.041C413.03 201.784 414.937 200.995 416.344 199.59C417.75 198.184 418.54 196.279 418.54 194.292C418.54 192.305 417.75 190.399 416.344 188.994C414.937 187.589 413.03 186.799 411.041 186.799V186.799Z" fill="white"/>
<path d="M679.477 33.5458C683.842 33.5458 687.381 30.0108 687.381 25.6501C687.381 21.2894 683.842 17.7544 679.477 17.7544C675.112 17.7544 671.574 21.2894 671.574 25.6501C671.574 30.0108 675.112 33.5458 679.477 33.5458Z" fill="#3F3D56"/>
<path d="M193.972 256.739C198.337 256.739 201.876 253.204 201.876 248.843C201.876 244.483 198.337 240.948 193.972 240.948C189.607 240.948 186.069 244.483 186.069 248.843C186.069 253.204 189.607 256.739 193.972 256.739Z" fill="#3F3D56"/>
<path d="M561.256 722H531.744C531.078 721.998 530.42 722.142 529.816 722.422C529.211 722.701 528.675 723.109 528.245 723.617C527.157 723.417 526.036 723.478 524.976 723.795C523.915 724.112 522.945 724.676 522.145 725.441C521.345 726.205 520.737 727.149 520.372 728.194C520.007 729.239 519.895 730.355 520.046 731.452C520.196 732.548 520.604 733.593 521.237 734.501C521.869 735.41 522.708 736.155 523.685 736.676C524.661 737.197 525.747 737.479 526.854 737.499C527.961 737.519 529.056 737.276 530.051 736.79L532.498 744.745C532.788 745.687 533.373 746.512 534.166 747.098C534.96 747.684 535.92 748 536.906 748H556.094C557.08 748 558.041 747.684 558.834 747.098C559.627 746.512 560.211 745.687 560.501 744.745L565.664 727.968C565.876 727.278 565.924 726.548 565.802 725.837C565.681 725.125 565.394 724.452 564.966 723.872C564.537 723.291 563.978 722.82 563.334 722.495C562.69 722.169 561.978 722 561.256 722V722ZM527 735.5C525.674 735.5 524.402 734.973 523.464 734.036C522.527 733.098 522 731.826 522 730.5C522 729.174 522.527 727.902 523.464 726.964C524.402 726.027 525.674 725.5 527 725.5C527.091 725.5 527.176 725.522 527.267 725.527C527.068 726.332 527.092 727.176 527.336 727.968L529.448 734.832C528.704 735.265 527.86 735.495 527 735.5V735.5Z" fill="#CFCFC9"/>
<path d="M326 571.681V550.5C326 537.77 331.057 525.561 340.059 516.559C349.061 507.557 361.27 502.5 374 502.5C386.73 502.5 398.939 507.557 407.941 516.559C416.943 525.561 422 537.77 422 550.5V571.681C421.997 574.549 420.856 577.299 418.828 579.328C416.799 581.356 414.049 582.497 411.181 582.5H346.3L341 571.237V582.5H336.819C333.951 582.497 331.201 581.356 329.172 579.328C327.144 577.299 326.003 574.549 326 571.681V571.681Z" fill="#2F2E41"/>
<path d="M409.007 639.476L411.075 661.879L412.014 672.058L413.513 688.265L413.703 690.355L414.922 703.518L414.952 703.662C415.721 706.125 417.264 708.273 419.352 709.789C421.439 711.305 423.96 712.107 426.54 712.076L482.22 711.115L497.935 710.842C498.238 711.296 498.534 711.705 498.829 712.069C500.209 713.745 501.927 715.112 503.87 716.081C505.812 717.051 507.937 717.601 510.106 717.696C512.286 717.796 514.463 717.43 516.49 716.621C518.516 715.813 520.348 714.581 521.86 713.008C522.163 712.697 522.458 712.372 522.731 712.031C524.79 709.498 525.995 706.379 526.175 703.12C526.354 699.861 525.499 696.628 523.731 693.885C522.554 692.048 520.997 690.484 519.166 689.298C517.334 688.112 515.271 687.331 513.113 687.008C510.968 686.679 508.778 686.805 506.685 687.378C504.592 687.951 502.643 688.957 500.965 690.333C500.432 690.772 499.934 691.25 499.473 691.764L482.22 689.25L438.771 682.926L436.916 657.857C436.908 657.744 436.9 657.63 436.893 657.509L435.393 637.28C435.143 633.914 433.617 630.77 431.127 628.491C428.637 626.213 425.371 624.97 421.995 625.018C420.885 625.03 419.78 625.185 418.709 625.48C417.509 625.806 416.361 626.3 415.301 626.95C413.182 628.237 411.469 630.095 410.356 632.31C409.243 634.525 408.775 637.008 409.007 639.476V639.476Z" fill="#9E616A"/>
<path d="M375.942 583.662C393.324 583.662 407.414 569.571 407.414 552.19C407.414 534.809 393.324 520.718 375.942 520.718C358.561 520.718 344.471 534.809 344.471 552.19C344.471 569.571 358.561 583.662 375.942 583.662Z" fill="#9E616A"/>
<path d="M417.904 604.643L423.626 602.736C423.626 602.736 435.071 607.504 435.071 616.087C435.071 624.671 436.978 659.003 436.978 659.003L411.229 661.865L417.904 604.643Z" fill="#EDE445"/>
<path d="M296.168 747.46H318.859L326.622 682.411L329.432 658.918L329.818 655.676L331.893 638.287C332.005 636.104 331.518 633.932 330.484 632.005C329.451 630.078 327.911 628.47 326.03 627.356C324.15 626.241 322 625.661 319.814 625.679C317.628 625.697 315.488 626.312 313.626 627.457C313.157 627.746 312.709 628.067 312.285 628.419C310.983 629.49 309.922 630.824 309.173 632.335C308.423 633.845 308.003 635.497 307.938 637.182L305.893 656.305L296.168 747.46Z" fill="#9E616A"/>
<path d="M330.201 659.003L304.451 656.142C304.451 656.142 306.359 621.809 306.359 613.226C306.359 604.643 317.803 599.875 317.803 599.875L323.525 601.782L330.201 659.003Z" fill="#EDE445"/>
<path d="M321.85 747.46H429.493C426.082 734.425 421.428 721.746 415.596 709.6C414.649 707.669 414.088 706.639 414.088 706.639C414.088 706.639 368.314 705.738 339.701 717.181C337.876 717.969 336.239 719.136 334.899 720.604C329.946 725.724 325.614 735.335 321.85 747.46Z" fill="#2F2E41"/>
<path d="M344.47 594.152C344.47 594.152 343.562 593.665 397.874 595.643L420.605 601.903L423.626 602.735C423.626 602.735 420.765 659.957 413.136 670.447C405.506 680.938 407.414 686.66 409.321 687.614C411.229 688.567 415.997 686.66 413.136 691.428C410.275 696.197 406.46 693.336 410.275 696.197C414.09 699.058 415.997 709.549 415.997 709.549L332.072 720.993C332.072 720.993 329.211 683.799 321.582 664.725C313.952 645.651 312.045 638.022 312.045 638.022L317.767 599.874L344.47 594.152Z" fill="#EDE445"/>
<path d="M342 534.5C342 526.278 345.266 518.393 351.08 512.58C356.893 506.766 364.778 503.5 373 503.5C381.222 503.5 389.107 506.766 394.92 512.58C400.734 518.393 404 526.278 404 534.5V548.5H342V534.5Z" fill="#2F2E41"/>
<path d="M478.5 739.592V742.356C478.5 743.975 477.856 745.527 476.712 746.672C475.567 747.817 474.015 748.46 472.396 748.46H269.372C267.753 748.46 266.201 747.817 265.056 746.672C263.911 745.527 263.268 743.975 263.268 742.356V739.592C263.268 737.973 263.911 736.42 265.056 735.276C266.201 734.131 267.753 733.488 269.372 733.487H272.977C272.849 733.041 272.783 732.58 272.78 732.116V628.495C272.781 627.138 273.32 625.836 274.28 624.876C275.24 623.916 276.542 623.376 277.9 623.375H463.868C465.226 623.376 466.527 623.916 467.487 624.876C468.447 625.836 468.987 627.138 468.988 628.495V732.116C468.988 732.58 468.922 733.042 468.791 733.487H472.396C474.015 733.488 475.567 734.131 476.712 735.276C477.856 736.42 478.5 737.973 478.5 739.592Z" fill="#164453"/>
<path d="M144.262 303.828L144.217 303.939C143.313 306.115 144.206 308.645 146.279 309.806C146.704 310.044 147.127 310.266 147.526 310.456C149.593 311.437 167.152 322.962 166.863 316.564C166.573 310.166 165.405 299.173 164.087 298.474C162.77 297.775 159.906 296.819 158.304 297.978C157.675 298.433 156.905 299.328 156.203 300.249C154.927 301.92 152.665 302.481 150.725 301.617L150.331 301.441C147.974 300.393 145.246 301.466 144.262 303.828Z" fill="#164453"/>
<path d="M371.347 654.209C364.131 650.74 355.574 651.373 349.039 655.996C344.52 659.192 341.735 663.607 346.433 669.113C356.946 681.438 357.86 712.476 378.43 707.456C399.001 702.435 406.314 713.846 406.771 697.87C407.229 681.894 407.686 675.96 400.829 671.395C393.972 666.83 389.401 660.897 383.002 659.071C380.002 658.215 375.395 656.156 371.347 654.209Z" fill="#CFCFC9"/>
<path d="M353.798 658.845L353.616 658.958C350.014 661.168 348.65 665.783 350.441 669.65C350.808 670.442 351.188 671.211 351.569 671.907C353.539 675.505 366.927 710.717 373.237 701.118C379.546 691.519 389.41 674.319 388.231 671.918C387.052 669.517 383.898 665.115 380.351 665.114C378.959 665.113 376.899 665.605 374.91 666.203C371.298 667.289 367.423 665.726 365.514 662.43L365.126 661.759C362.805 657.757 357.712 656.447 353.798 658.845Z" fill="#F0F0EE"/>
</svg>
