<svg width="308" height="220" viewBox="0 0 308 220" fill="none" xmlns="http://www.w3.org/2000/svg">
<g clip-path="url(#clip0_886_3492)">
<path d="M248.672 139.985C248.947 140.01 249.222 139.951 249.462 139.814C249.702 139.678 249.894 139.471 250.012 139.222C250.13 138.973 250.169 138.694 250.123 138.422C250.077 138.15 249.948 137.899 249.754 137.703C249.727 137.567 249.707 137.469 249.679 137.333C249.693 137.304 249.706 137.276 249.72 137.247C250.028 136.606 250.518 136.069 251.13 135.705C251.742 135.342 252.448 135.167 253.159 135.202C253.871 135.238 254.555 135.483 255.128 135.906C255.7 136.33 256.134 136.912 256.376 137.581C257.343 140.252 258.607 142.941 258.819 145.727C258.913 146.958 258.791 148.196 258.461 149.386C261.278 143.932 262.888 137.936 263.183 131.806C263.255 130.268 263.241 128.726 263.141 127.189C263.058 125.929 262.919 124.676 262.726 123.429C261.667 116.661 259.017 110.241 254.993 104.695C252.977 103.471 251.385 101.66 250.431 99.5042C250.086 98.7292 249.854 97.9084 249.744 97.0672C249.976 97.1086 250.212 97.1388 250.445 97.1649C250.517 97.1721 250.593 97.1795 250.666 97.1867L250.693 97.1892C250.949 97.2126 251.206 97.1616 251.434 97.0424C251.662 96.9232 251.85 96.7408 251.976 96.5172C252.102 96.2936 252.161 96.0383 252.145 95.782C252.13 95.5258 252.04 95.2795 251.888 95.0729C251.793 94.9443 251.698 94.8158 251.603 94.6874C251.459 94.4892 251.311 94.2947 251.166 94.0965C251.15 94.0776 251.134 94.0576 251.119 94.0369C250.954 93.8109 250.788 93.5887 250.622 93.3627C250.966 92.8796 251.418 92.4826 251.941 92.2024C253.752 91.2527 256.152 92.0804 257.351 93.7331C258.555 95.386 258.691 97.6327 258.155 99.6029C257.64 101.277 256.843 102.851 255.799 104.257C255.889 104.384 255.983 104.507 256.073 104.634C257.716 106.961 259.128 109.443 260.286 112.045C260.108 109.182 260.613 106.318 261.76 103.688C262.911 101.241 264.95 99.2302 266.759 97.1526C268.933 94.6572 273.089 95.9836 273.298 99.2849C273.3 99.3168 273.302 99.3488 273.304 99.3807C273.043 99.5119 272.787 99.6522 272.537 99.8015C272.222 99.9912 271.972 100.271 271.819 100.606C271.666 100.94 271.618 101.312 271.681 101.674C271.744 102.036 271.914 102.371 272.171 102.634C272.427 102.897 272.757 103.077 273.117 103.15L273.154 103.157C273.021 104.067 272.819 104.965 272.55 105.844C271.774 108.297 270.499 110.564 268.805 112.502C267.111 114.439 265.035 116.007 262.706 117.105C262.553 117.175 262.405 117.244 262.252 117.31C263.366 121.003 263.994 124.824 264.122 128.679C264.19 130.953 264.073 133.228 263.774 135.483L263.789 135.403C264.396 132.909 265.847 130.7 267.895 129.149C270.936 126.882 275.115 126.189 278.365 124.404C278.711 124.204 279.107 124.108 279.506 124.125C279.905 124.143 280.291 124.274 280.618 124.503C280.945 124.733 281.199 125.051 281.351 125.42C281.503 125.789 281.546 126.194 281.475 126.587C281.469 126.615 281.464 126.642 281.458 126.67C280.978 126.84 280.509 127.04 280.054 127.268C279.794 127.399 279.538 127.539 279.288 127.688C278.973 127.878 278.722 128.158 278.57 128.492C278.417 128.827 278.369 129.199 278.432 129.561C278.494 129.923 278.665 130.257 278.921 130.521C279.178 130.784 279.508 130.964 279.868 131.037L279.905 131.044C279.932 131.049 279.954 131.054 279.981 131.059C279.087 132.942 277.875 134.656 276.398 136.128C274.576 137.907 272.409 139.296 270.03 140.21C267.652 141.123 265.111 141.542 262.565 141.439L262.561 141.439C261.73 144.407 260.593 147.28 259.168 150.013L248.496 149.516C248.463 149.396 248.434 149.272 248.405 149.152C249.39 149.26 250.385 149.247 251.367 149.114C250.62 148.106 249.874 147.091 249.127 146.084C249.11 146.065 249.095 146.045 249.08 146.024C248.702 145.509 248.319 144.997 247.941 144.482L247.94 144.481C247.99 142.957 248.236 141.446 248.671 139.985L248.672 139.985Z" fill="#F2F2F2"/>
<path d="M33.6405 47.7937C33.3679 47.836 33.0889 47.7936 32.8412 47.6723C32.5935 47.5509 32.3892 47.3564 32.2559 47.1151C32.1226 46.8738 32.0667 46.5975 32.0959 46.3234C32.1251 46.0494 32.2379 45.7909 32.419 45.583C32.4381 45.4455 32.4519 45.3467 32.471 45.2091C32.4558 45.1813 32.4404 45.1534 32.4251 45.1257C32.0782 44.5044 31.5552 43.9994 30.922 43.6741C30.2887 43.3488 29.5733 43.2177 28.8657 43.2972C28.1581 43.3768 27.4898 43.6635 26.9447 44.1212C26.3996 44.579 26.0022 45.1875 25.8021 45.8702C25.0024 48.5953 23.9071 51.357 23.8675 54.1507C23.8506 55.3855 24.0482 56.6139 24.4515 57.7813C21.3024 52.5114 19.3244 46.6266 18.6516 40.5261C18.4844 38.995 18.4029 37.4558 18.4077 35.9157C18.4127 34.653 18.4733 33.3933 18.5894 32.1365C19.2272 25.3164 21.4752 18.7447 25.149 12.961C27.0854 11.6153 28.5623 9.70894 29.3807 7.49884C29.6778 6.70407 29.8582 5.87051 29.9163 5.0241C29.6874 5.07976 29.4534 5.12442 29.2229 5.16485C29.1509 5.17649 29.0752 5.18858 29.0033 5.20025L28.9761 5.20444C28.7222 5.24361 28.4623 5.20862 28.2278 5.10366C27.9932 4.99871 27.7941 4.82828 27.6543 4.61288C27.5145 4.39749 27.44 4.1463 27.4397 3.88959C27.4395 3.63287 27.5135 3.38156 27.653 3.16591C27.7398 3.03174 27.8267 2.89764 27.9137 2.76359C28.0453 2.55688 28.181 2.35357 28.3126 2.14689C28.3282 2.12692 28.3427 2.10606 28.3559 2.08444C28.5074 1.84863 28.6593 1.61665 28.8109 1.38085C28.4372 0.919954 27.9621 0.551507 27.4225 0.304226C25.5558 -0.531885 23.2121 0.442345 22.117 2.16594C21.0182 3.88992 21.0207 6.14078 21.6779 8.07414C22.2958 9.71291 23.1883 11.2347 24.3173 12.5742C24.2353 12.7063 24.1492 12.8349 24.0673 12.967C22.5709 15.3909 21.3158 17.9554 20.3202 20.6238C20.3207 17.7555 19.6395 14.9281 18.3328 12.3741C17.032 10.0029 14.8731 8.12146 12.9386 6.15956C10.615 3.80302 6.5485 5.38353 6.54448 8.6913C6.54444 8.72333 6.54448 8.75534 6.54461 8.78732C6.81273 8.90225 7.07646 9.02649 7.33581 9.16006C7.66184 9.3299 7.92891 9.59417 8.10203 9.91824C8.27515 10.2423 8.34624 10.6111 8.30599 10.9762C8.26574 11.3413 8.11603 11.6858 7.87647 11.9644C7.6369 12.2431 7.31866 12.443 6.96345 12.5379L6.92707 12.5476C7.11609 13.4473 7.3733 14.3314 7.69649 15.1922C8.62275 17.5927 10.0354 19.7761 11.8459 21.6056C13.6565 23.435 15.8258 24.8711 18.2179 25.8238C18.3747 25.8837 18.5276 25.9441 18.684 26.0002C17.8005 29.7546 17.4095 33.6077 17.5207 37.4628C17.5936 39.7364 17.8504 42.0004 18.2886 44.2326L18.2685 44.154C17.5084 41.7014 15.9243 39.5861 13.7838 38.1651C10.6085 36.0898 6.39434 35.6564 3.0403 34.0753C2.68276 33.8973 2.2817 33.8251 1.88444 33.8673C1.48718 33.9095 1.11028 34.0643 0.798196 34.3134C0.486111 34.5626 0.251857 34.8957 0.123065 35.2735C-0.0057268 35.6513 -0.0236873 36.058 0.0713043 36.4456C0.0785653 36.4732 0.0859023 36.5007 0.0933098 36.5282C0.582855 36.668 1.0632 36.8381 1.53157 37.0376C1.79969 37.1525 2.06342 37.2768 2.32276 37.4103C2.6488 37.5802 2.91587 37.8444 3.08899 38.1685C3.26211 38.4926 3.3332 38.8613 3.29295 39.2265C3.2527 39.5916 3.10299 39.936 2.86342 40.2147C2.62386 40.4934 2.30562 40.6933 1.9504 40.7882L1.914 40.7979C1.88777 40.8046 1.86534 40.8109 1.83915 40.8176C2.84814 42.6411 4.16381 44.2775 5.72851 45.6551C7.65732 47.319 9.90598 48.5717 12.3366 49.3365C14.7673 50.1013 17.3287 50.3621 19.8638 50.1028L19.8676 50.1024C20.8803 53.0131 22.1931 55.8107 23.7848 58.4502L34.4058 57.2961C34.4311 57.1741 34.452 57.0486 34.4735 56.927C33.4971 57.0956 32.5037 57.1441 31.5156 57.0715C32.1984 56.0199 32.8804 54.9606 33.5632 53.9091C33.5789 53.8891 33.5933 53.8683 33.6065 53.8466C33.9524 53.3088 34.3025 52.7744 34.6484 52.2366L34.6485 52.236C34.5049 50.7182 34.1662 49.2252 33.6408 47.7939L33.6405 47.7937Z" fill="#F2F2F2"/>
<path d="M180.379 43.8616C180.904 44.0061 181.392 44.264 181.807 44.6171C182.222 44.9702 182.555 45.41 182.782 45.9054C183.008 46.4008 183.123 46.9398 183.119 47.4845C183.114 48.0292 182.99 48.5663 182.756 49.0579L188.455 55.3882L185.449 59.7865L177.526 50.734C176.725 50.2854 176.117 49.5589 175.817 48.6923C175.517 47.8257 175.545 46.8791 175.897 46.032C176.248 45.1849 176.899 44.4961 177.725 44.0961C178.551 43.696 179.495 43.6126 180.379 43.8616V43.8616Z" fill="#A0616A"/>
<path d="M233.736 59.4057C233.223 58.5702 232.549 57.8443 231.754 57.2696C230.958 56.6949 230.057 56.2826 229.102 56.0565C228.147 55.8304 227.157 55.7949 226.188 55.952C225.219 56.1091 224.291 56.4558 223.456 56.972L204.712 68.5696L184.493 51.3995L179.462 56.0786L201.799 85.0302L230.83 69.911C230.152 70.2639 234.555 60.7368 233.736 59.4057Z" fill="#CCCCCC"/>
<path d="M196.603 97.9681C196.605 107.216 194.783 116.374 191.241 124.919C187.699 133.463 182.507 141.227 175.961 147.767C169.415 154.306 161.643 159.493 153.09 163.031C144.537 166.57 135.37 168.39 126.112 168.388C87.1819 168.388 55.6216 136.859 55.6216 97.9681C55.6149 90.4031 56.8288 82.8865 59.2167 75.7075C63.9047 61.6869 72.8861 49.4934 84.8906 40.8511C96.8952 32.2088 111.316 27.5551 126.112 27.548C138.874 27.5436 151.397 31.0012 162.345 37.5518C173.293 44.1024 182.255 53.5 188.274 64.7415C189.766 67.5151 191.068 70.3868 192.17 73.3367C192.323 73.7475 192.472 74.1582 192.617 74.5729V74.5769C193.263 76.3999 193.832 78.2569 194.324 80.1479C195.842 85.9664 196.608 91.9552 196.603 97.9681V97.9681Z" fill="#164453"/>
<path d="M118.4 50.4565C115.232 48.7452 111.715 47.7791 108.117 47.6321C104.519 47.485 100.934 48.1608 97.6369 49.6079C94.7338 50.87 91.677 53.1342 90.7085 57.2229C94.6254 54.9136 99.6957 58.5623 100.704 64.4155L100.468 64.4803C99.936 68.5344 101.124 72.9483 103.425 75.4622C103.727 72.851 105.446 71.0738 107.136 69.9637C108.827 68.8536 110.697 68.0471 111.987 66.139C113.517 63.8768 113.905 60.5706 114.513 57.5546C115.12 54.5386 116.273 51.2969 118.4 50.4565Z" fill="white"/>
<path d="M96.4751 84.956C95.3903 86.5834 93.9413 87.6046 92.6412 88.8761C91.345 90.1515 90.1113 91.8728 89.8529 94.0832C89.6884 95.4994 89.9429 96.9391 89.9077 98.371C89.8725 99.8029 89.3947 101.415 88.4196 101.771C86.8805 102.326 85.7056 99.4704 84.1235 99.2708C82.8664 99.1143 81.7347 101.09 82.0989 102.804C82.4631 104.517 84.1745 105.276 85.1574 104.157C86.0464 105.648 85.4198 108.351 84.0844 108.809C83.9434 109.748 83.8024 110.683 83.6653 111.622C80.2896 109.263 76.8786 106.864 74.0081 103.41C70.8156 99.6005 68.8354 94.9249 68.3219 89.9832C67.9498 86.0123 68.502 81.4702 66.6771 78.4148C65.2163 75.9697 62.71 75.4297 60.4543 75.5824C60.0431 75.6097 59.628 75.6567 59.2168 75.7075C60.5471 71.7161 62.2366 67.8533 64.2647 64.1665C64.7236 63.9696 65.1501 63.7045 65.5296 63.3801C67.6287 61.6001 68.5607 57.9969 70.2643 55.5048C70.3739 55.3443 70.4875 55.1879 70.605 55.0353C72.3477 52.7623 74.6817 51.5925 76.9374 50.5049C81.9305 48.0833 87.0685 45.6303 92.3396 45.9668L90.8398 46.1115C89.0893 51.0096 87.3374 55.9077 85.5843 60.8058C85.318 61.557 85.0491 62.3094 84.7776 63.0632C83.7829 65.8487 82.7568 68.8142 82.9095 71.9322C82.9996 73.7787 83.6418 75.7505 84.8637 76.3843C86.0033 76.9711 87.2486 76.2513 88.349 75.5393C88.8151 75.2419 89.2772 74.9446 89.7432 74.6433C91.4154 73.5675 93.2678 72.4642 95.0339 73.1841C96.6513 73.8414 97.8457 76.0361 98.0729 78.403C98.2811 80.7038 97.7192 83.0086 96.4751 84.956V84.956Z" fill="white"/>
<path d="M106.42 118.397C101.537 115.393 96.6527 112.389 91.7688 109.385L91.8517 109.171C88.8152 110.327 87.5545 115.719 88.0563 120.129C88.5582 124.538 90.2598 128.48 91.1194 132.777C92.2785 138.657 91.841 144.739 89.8524 150.393C96.2743 143.195 101.958 135.371 106.817 127.04C107.496 125.99 108.013 124.844 108.352 123.64C108.662 122.36 108.614 120.821 107.993 119.794C107.593 119.205 107.053 118.725 106.42 118.397V118.397Z" fill="white"/>
<path d="M87.1455 63.7446C86.6269 64.9095 86.4274 66.4627 86.898 67.6679C87.3786 68.8988 88.3947 69.4551 89.3301 69.9183L92.0287 71.2545C92.9264 71.6991 93.8941 72.1481 94.8093 71.7823C95.9131 71.3412 96.6785 69.6124 96.4805 68.0075C96.2698 66.2996 95.1922 65.1248 94.1955 64.1244C92.8008 62.7244 91.4061 61.3244 90.0114 59.9244L89.2254 60.8862C88.3752 61.7146 87.672 62.6811 87.1455 63.7446V63.7446Z" fill="white"/>
<path d="M182.137 82.0023C183.351 82.2879 184.565 82.5734 185.779 82.859C185.568 86.9552 183.535 90.7461 180.809 92.1193C179.674 92.6905 178.409 92.9017 177.469 93.9698C176.619 94.94 176.188 96.4501 175.793 97.8937C175.1 100.413 174.407 102.933 173.713 105.452C172.969 108.167 172.014 111.184 170.079 112.162C168.419 113.003 166.519 111.974 165.243 110.249C163.966 108.523 163.187 106.203 162.431 103.942C162.478 106.407 161.331 108.825 159.705 109.681C158.076 110.538 156.095 109.763 155.006 107.85C154.223 106.477 153.898 104.666 153.13 103.273C152.363 101.88 150.753 101.082 149.915 102.389C149.363 103.257 149.433 104.588 149.159 105.691C148.732 107.404 147.44 108.48 146.159 108.574C144.883 108.668 143.637 107.933 142.568 106.935C140.363 104.869 138.738 101.591 138.108 97.9485C137.83 96.3249 137.751 94.5566 138.233 93.0347C138.715 91.5129 139.878 90.3392 141.033 90.6287C141.793 89.0247 140.293 86.8965 138.942 87.0842C137.587 87.272 136.526 88.7234 135.413 89.8385C134.305 90.9534 132.754 91.7632 131.638 90.6561C131.646 91.685 130.808 92.3657 130.083 92.2797C129.363 92.1975 128.721 91.6185 128.059 91.2077C125.502 89.6154 122.255 90.6718 120.438 93.6841C121.574 88.8565 123.238 83.3168 126.727 82.1822C128.153 81.7167 129.708 82.1 131.055 81.2941C133.44 79.8662 133.921 74.4712 131.861 72.2452C132.124 74.3499 132.073 76.8068 130.961 78.2465C129.849 79.6862 127.514 78.7472 127.655 76.619C127.334 78.0861 125.737 78.3091 125 77.1823C124.26 76.0557 124.323 74.213 124.848 72.8672C125.372 71.5214 126.265 70.5551 127.131 69.6279C128.991 67.6365 130.878 65.6217 133.032 64.3698C135.19 63.1179 137.681 62.6954 139.843 63.9395C140.982 64.5967 141.985 65.6922 143.148 66.2712C144.311 66.8541 145.787 66.7798 146.559 65.4183C147.424 63.9003 147.017 61.6469 147.338 59.7495C147.914 56.3967 151.27 54.8279 153.13 57.0422C151.74 56.6862 150.303 58.3293 150.13 60.3207C149.954 62.312 150.961 64.3229 152.308 64.9254C154.571 65.9269 156.788 63.4074 158.499 61.0757C160.285 58.6345 162.073 56.1946 163.864 53.756C164.15 53.3408 164.471 52.9507 164.824 52.5901C165.385 52.0439 166.132 51.7312 166.916 51.7152C167.699 51.6992 168.459 51.9812 169.041 52.5041C170.851 53.9789 171.701 57.0031 173.185 59.0844C175.339 62.1086 178.562 62.8441 181.561 63.4309C183.798 63.8651 186.035 64.302 188.274 64.7415C189.766 67.515 191.068 70.3867 192.17 73.3367C188.379 74.9446 184.882 77.9531 182.137 82.0023Z" fill="white"/>
<path d="M189.366 129.074C187.688 132.478 185.737 135.739 183.531 138.827C182.121 138.225 180.606 139.301 179.286 140.31C177.908 141.366 176.251 142.395 174.837 141.433C173.392 140.447 172.926 137.689 173.384 135.502C173.843 133.319 174.986 131.582 176.094 129.931C177.269 128.178 178.526 126.359 180.159 125.678C181.796 124.998 183.899 125.96 184.377 128.284L185.536 128.245C184.886 127.353 185.227 125.506 186.1 125.181C187.107 124.802 187.98 126.183 188.575 127.404C188.841 127.955 189.112 128.511 189.366 129.074Z" fill="white"/>
<path d="M144.97 112.549C142.479 112.706 140.505 109.642 139.194 106.627C137.882 103.613 136.686 100.165 134.437 98.631C133.153 97.7542 131.688 97.6339 130.295 97.2091C128.902 96.7843 127.443 95.9052 126.777 94.1149L125.197 93.4771C123.109 94.6496 120.994 95.8435 119.196 97.7515C117.178 99.8922 115.922 102.636 115.62 105.561C115.318 108.721 116.433 112.245 118.516 113.432C120.162 114.371 122.079 113.779 123.746 114.638C125.829 115.711 127.066 118.828 127.534 121.906C128.002 124.983 127.884 128.181 128.219 131.294C128.554 134.406 129.477 137.645 131.387 139.24C133.778 141.236 137.286 139.577 138.359 135.944C138.885 134.162 138.867 132.151 139.26 130.301C139.953 127.043 141.823 124.626 143.306 121.953C144.789 119.281 145.957 115.651 144.97 112.549Z" fill="white"/>
<path d="M120.35 80.5349C120.582 80.7486 120.799 80.9785 120.999 81.223C121.205 81.5789 121.311 81.9844 121.304 82.3958C121.297 82.8072 121.177 83.2089 120.959 83.5575C121.259 83.5405 121.552 83.4614 121.82 83.3253C122.088 83.1893 122.325 82.9992 122.516 82.767C122.971 82.2496 123.371 81.6867 123.709 81.0872C123.964 80.6732 124.234 80.1135 124.061 79.6218C123.944 79.2862 123.665 79.1431 123.47 78.8907C123.161 78.4907 123.084 77.8553 122.924 77.3063C122.579 76.1205 121.75 75.2485 120.851 75.1238L120.976 75.1477C120.601 75.2762 120.338 75.872 120.421 76.4081C120.497 76.8963 120.811 77.3016 120.78 77.7995C120.735 78.5155 120.019 78.8515 119.974 79.5676C119.967 79.9268 120.102 80.2743 120.35 80.5349V80.5349Z" fill="white"/>
<path d="M116.081 68.3678C116.085 68.3668 116.088 68.3666 116.092 68.3656C116.169 68.2958 116.24 68.2202 116.305 68.1394L116.081 68.3678Z" fill="#E6E6E6"/>
<path d="M116.828 71.7286C117.379 71.3747 117.687 70.396 117.505 69.5768C117.324 68.7627 116.683 68.2153 116.092 68.3657C115.921 68.5393 115.708 68.6665 115.474 68.7354C115.24 68.8043 114.992 68.8125 114.753 68.7594C114.388 68.6654 113.987 68.4235 113.67 68.6984C113.489 68.9038 113.362 69.1512 113.301 69.4182C113.184 69.7778 113.067 70.1374 112.949 70.497C112.894 70.6258 112.879 70.7686 112.908 70.9059C112.93 70.9609 112.967 71.0092 113.013 71.0462C113.06 71.0832 113.115 71.1076 113.174 71.117C113.877 71.3242 114.581 71.5315 115.285 71.7387C115.797 71.8897 116.351 72.0352 116.828 71.7286Z" fill="white"/>
<path d="M169.948 118.127C169.622 117.595 169.297 117.063 168.972 116.531C168.652 115.915 168.216 115.367 167.686 114.918C167.57 114.821 167.435 114.748 167.29 114.703C167.144 114.658 166.992 114.643 166.841 114.658C166.69 114.673 166.543 114.719 166.41 114.791C166.276 114.864 166.159 114.962 166.064 115.081L166.104 115.385C166.845 116.314 167.629 117.346 167.817 118.725C167.892 119.269 167.866 119.831 167.931 120.377C167.996 120.923 168.181 121.49 168.533 121.725C169.046 122.067 169.647 121.563 170.011 120.948C170.337 120.443 170.483 119.843 170.426 119.245C170.345 118.843 170.182 118.463 169.948 118.127V118.127Z" fill="white"/>
<path d="M184.423 97.8102C184.517 97.194 184.611 96.5777 184.705 95.9615C184.858 95.2846 184.877 94.5845 184.761 93.9003C184.735 93.7509 184.679 93.6082 184.597 93.4807C184.515 93.3531 184.408 93.2433 184.282 93.1577C184.157 93.072 184.016 93.0123 183.867 92.982C183.718 92.9516 183.565 92.9513 183.416 92.9811L183.25 93.239C183.218 94.4269 183.153 95.7212 182.408 96.8972C182.114 97.3609 181.732 97.7748 181.43 98.2343C181.127 98.6939 180.904 99.246 181.022 99.6531C181.193 100.244 181.978 100.245 182.654 100.009C183.229 99.8326 183.727 99.4676 184.069 98.9733C184.266 98.6139 184.386 98.218 184.423 97.8102V97.8102Z" fill="#E6E6E6"/>
<path d="M175.05 118.819C175.209 118.363 174.979 117.839 174.931 117.334C174.908 116.682 175.081 116.038 175.428 115.486C175.772 114.964 176.033 114.393 176.201 113.791C176.272 113.517 176.259 113.228 176.164 112.961C176.057 112.719 175.796 112.609 175.646 112.8L175.966 113.006C175.534 112.929 175.09 112.951 174.667 113.069C174.426 113.161 174.211 113.31 174.039 113.503C173.868 113.696 173.746 113.928 173.683 114.178C173.63 114.568 173.544 114.953 173.425 115.328C173.234 115.72 172.864 115.851 172.632 116.195C172.473 116.5 172.394 116.84 172.399 117.183C172.405 117.527 172.496 117.864 172.665 118.163C172.956 118.653 173.42 119.018 173.966 119.185C174.356 119.325 174.871 119.333 175.05 118.819Z" fill="white"/>
<path d="M184.136 121.558C184.278 121.926 184.467 122.273 184.699 122.591C185.134 123.028 185.726 122.759 186.253 122.653C186.732 122.577 187.223 122.633 187.673 122.813C188.123 122.993 188.515 123.292 188.809 123.677C188.605 122.657 188.158 121.702 187.507 120.89C186.856 120.079 186.019 119.435 185.068 119.014C183.824 118.507 182.513 118.458 181.22 118.412L180.996 118.47C181.566 120.126 183.354 120.089 184.136 121.558Z" fill="white"/>
<path d="M145.652 124.945L145.656 124.952C145.677 124.911 145.699 124.869 145.721 124.827L145.652 124.945Z" fill="#E6E6E6"/>
<path d="M144.274 127.611C143.973 128.156 143.715 128.723 143.5 129.308C143.217 130.255 143.029 131.227 142.94 132.212C142.87 132.771 142.848 133.486 143.199 133.759C143.3 133.825 143.422 133.853 143.542 133.837C143.661 133.821 143.771 133.762 143.85 133.67C144.045 133.464 144.205 133.227 144.323 132.969C145.012 131.782 145.548 130.512 145.916 129.19C146.252 127.798 146.249 126.158 145.655 124.952C145.195 125.838 144.734 126.725 144.274 127.611Z" fill="white"/>
<path d="M130.976 56.5975C131.195 56.8113 131.472 56.9565 131.772 57.0151C132.073 57.0736 132.384 57.0431 132.667 56.9273C133.254 56.671 133.792 56.3158 134.258 55.8772C134.645 55.5918 134.972 55.2348 135.223 54.8258C135.361 54.5814 135.45 54.3121 135.484 54.0334C135.518 53.7546 135.496 53.472 135.42 53.2016C135.203 52.5648 134.65 52.3514 134.162 52.2069C133.381 51.9755 132.6 51.7441 131.819 51.5128L132.384 51.0041C131.802 50.6924 131.159 51.2708 130.796 51.9869C130.563 52.4545 130.401 52.9539 130.314 53.469C130.12 54.593 130.31 55.9314 130.976 56.5975Z" fill="#E6E6E6"/>
<path d="M144.764 51.9732C144.984 52.2156 145.289 52.3653 145.615 52.3918C145.942 52.4184 146.266 52.3198 146.523 52.1161C146.743 51.9505 146.927 51.7403 147.061 51.4991C147.195 51.258 147.276 50.9914 147.3 50.7166C147.356 50.1029 147.052 49.4208 146.618 49.3678L146.717 48.7932C145.882 48.6424 144.853 48.6122 144.405 49.6261C144.254 50.0145 144.208 50.4356 144.271 50.8475C144.334 51.2594 144.504 51.6476 144.764 51.9732Z" fill="#E6E6E6"/>
<path d="M142.923 21.4168C138.023 20.8647 133.105 22.2795 129.25 25.35C125.395 28.4206 122.918 32.8953 122.366 37.7897C121.215 47.982 126.59 70.1147 136.389 79.2767C141.004 61.723 157.173 51.3112 159.312 41.9531C161.598 31.9538 153.125 22.5665 142.923 21.4168Z" fill="#F0E967"/>
<path d="M139.534 44.0752C142.883 44.0752 145.597 41.3634 145.597 38.0183C145.597 34.6732 142.883 31.9615 139.534 31.9615C136.186 31.9615 133.471 34.6732 133.471 38.0183C133.471 41.3634 136.186 44.0752 139.534 44.0752Z" fill="white"/>
<path d="M133.159 88.0098C135.352 88.0098 137.13 86.2336 137.13 84.0427C137.13 81.8517 135.352 80.0756 133.159 80.0756C130.966 80.0756 129.188 81.8517 129.188 84.0427C129.188 86.2336 130.966 88.0098 133.159 88.0098Z" fill="#F0E967"/>
<path opacity="0.2" d="M144.551 33.6789C145.233 34.0886 145.828 34.6285 146.302 35.2679C146.775 35.9073 147.118 36.6336 147.311 37.4054C147.503 38.1771 147.542 38.9792 147.424 39.7658C147.306 40.5525 147.035 41.3083 146.625 41.99C146.215 42.6718 145.674 43.2662 145.034 43.7393C144.394 44.2124 143.667 44.5549 142.894 44.7473C141.334 45.1359 139.683 44.8894 138.305 44.062C139.71 44.3743 141.181 44.1768 142.454 43.5048C143.727 42.8329 144.719 41.7303 145.252 40.3945C145.785 39.0587 145.826 37.5769 145.365 36.2142C144.905 34.8515 143.974 33.697 142.74 32.9572C143.378 33.0986 143.99 33.3423 144.551 33.6789V33.6789Z" fill="#231F20"/>
<path opacity="0.2" d="M159.336 41.9727C157.196 51.3307 141.027 61.7425 136.413 79.2962C135.491 78.4263 134.635 77.4895 133.852 76.4934C139.037 59.9934 154.2 49.9675 156.267 40.926C158.117 32.8336 152.92 25.1429 145.463 21.8942C154.49 24.161 161.431 32.8092 159.336 41.9727Z" fill="#231F20"/>
<path d="M86.1067 45.0497C82.4275 44.6351 78.734 45.6976 75.8389 48.0034C72.9438 50.3093 71.0842 53.6696 70.6691 57.3452C69.8049 64.9992 73.8413 81.6201 81.2005 88.5005C84.6656 75.3183 96.808 67.4993 98.4146 60.4718C100.131 52.9626 93.7685 45.9131 86.1067 45.0497Z" fill="#F0E967"/>
<path d="M83.5618 62.0653C86.0764 62.0653 88.1149 60.0289 88.1149 57.5169C88.1149 55.0048 86.0764 52.9684 83.5618 52.9684C81.0473 52.9684 79.0088 55.0048 79.0088 57.5169C79.0088 60.0289 81.0473 62.0653 83.5618 62.0653Z" fill="white"/>
<path d="M78.7746 95.0587C80.4216 95.0587 81.7568 93.7249 81.7568 92.0796C81.7568 90.4342 80.4216 89.1004 78.7746 89.1004C77.1276 89.1004 75.7925 90.4342 75.7925 92.0796C75.7925 93.7249 77.1276 95.0587 78.7746 95.0587Z" fill="#F0E967"/>
<path opacity="0.2" d="M87.3293 54.2581C87.8418 54.5657 88.2886 54.9712 88.6442 55.4514C88.9998 55.9315 89.2573 56.477 89.402 57.0565C89.5466 57.6361 89.5755 58.2384 89.4871 58.8292C89.3988 59.4199 89.1948 59.9875 88.8868 60.4995C88.5788 61.0114 88.173 61.4578 87.6923 61.8131C87.2117 62.1684 86.6657 62.4256 86.0856 62.5701C85.5054 62.7146 84.9025 62.7435 84.3111 62.6552C83.7198 62.5669 83.1517 62.3631 82.6392 62.0555C83.6945 62.29 84.7989 62.1416 85.7547 61.637C86.7105 61.1324 87.4554 60.3044 87.856 59.3013C88.2566 58.2981 88.2867 57.1853 87.9411 56.162C87.5954 55.1387 86.8964 54.2717 85.9693 53.7161C86.4489 53.8223 86.9082 54.0053 87.3293 54.2581Z" fill="#231F20"/>
<path opacity="0.2" d="M98.4322 60.4865C96.8255 67.5141 84.6832 75.333 81.2181 88.5152C80.5259 87.8619 79.8831 87.1584 79.2949 86.4104C83.1887 74.0195 94.5753 66.4903 96.1276 59.7004C97.5169 53.6234 93.6142 47.8479 88.0142 45.4082C94.793 47.1105 100.005 53.605 98.4322 60.4865Z" fill="#231F20"/>
<path d="M228.653 209.821H223.654L221.275 190.558L228.654 190.558L228.653 209.821Z" fill="#A0616A"/>
<path d="M231.342 219.303H227.795L227.162 215.957L225.54 219.303H216.132C215.681 219.303 215.242 219.159 214.879 218.892C214.515 218.625 214.247 218.249 214.113 217.819C213.979 217.389 213.986 216.927 214.133 216.501C214.28 216.076 214.559 215.708 214.93 215.452L222.443 210.268V206.886L230.346 207.357L231.342 219.303Z" fill="#1B1B18"/>
<path d="M209.29 209.821H204.291L201.913 190.558L209.291 190.558L209.29 209.821Z" fill="#A0616A"/>
<path d="M211.98 219.303H208.432L207.799 215.957L206.178 219.303H196.769C196.318 219.303 195.879 219.159 195.516 218.892C195.153 218.625 194.884 218.249 194.75 217.819C194.616 217.389 194.623 216.927 194.77 216.501C194.917 216.076 195.196 215.708 195.568 215.452L203.081 210.268V206.886L210.983 207.357L211.98 219.303Z" fill="#1B1B18"/>
<path d="M190.298 158.962C191.255 160.396 201.662 199.804 201.662 199.804L210.89 200.855L209.795 190.94L208.12 173.393L205.528 161.681C205.528 161.681 214.683 140.866 215.262 139.208L215.673 138.018L218.534 163.951C218.874 164.877 219.022 165.862 218.969 166.847C218.883 168.467 220.509 192.837 220.509 192.837L221.291 201.577L229.198 202.674L232.405 187.552C235.084 182.64 233.548 165.184 232.453 163.559C231.358 161.934 231.793 150.619 231.793 150.619C233.192 150.127 241.533 121.713 237.361 121.881C237.629 120.366 237.839 119.014 237.839 119.014L230.597 113.179L212.473 108.473L207.901 106.279C207.901 106.279 199.734 121.365 199.816 122.115C199.928 123.065 199.71 124.025 199.199 124.834L190.953 152.401C190.953 152.401 189.332 157.514 190.298 158.962Z" fill="#1B1B18"/>
<path d="M235.832 60.3167L232.948 54.2012L223.135 54.5779L219.934 60.9402C219.934 60.9402 210.786 71.8553 210.49 75.4044C210.118 79.8683 213.213 101.746 210.118 100.328C210.118 100.328 202.822 108.883 207.139 108.883C211.456 108.883 230.986 121.131 232.267 122.508C233.549 123.885 239.269 124.778 238.79 121.903C238.31 119.027 235.832 103.477 235.832 103.477L242.541 79.025C244.472 73.7459 245.073 67.8243 240.708 64.2782L235.832 60.3167Z" fill="#CCCCCC"/>
<path d="M199.482 42.3171C198.169 41.7966 196.767 41.5395 195.355 41.5604C193.943 41.5813 192.548 41.8799 191.252 42.439C189.955 42.9982 188.782 43.807 187.798 44.8193C186.814 45.8315 186.04 47.0275 185.519 48.3387C183.328 53.8534 182.964 67.0229 187.042 73.6233C192.285 64.5248 202.893 61.1652 205.509 56.266C208.305 51.0311 205.002 44.5062 199.482 42.3171Z" fill="#F0E967"/>
<path d="M195.068 54.5738C197.005 54.5738 198.575 53.0051 198.575 51.0701C198.575 49.1351 197.005 47.5664 195.068 47.5664C193.131 47.5664 191.561 49.1351 191.561 51.0701C191.561 53.0051 193.131 54.5738 195.068 54.5738Z" fill="white"/>
<path d="M184.515 78.0886C185.784 78.0886 186.812 77.0612 186.812 75.7938C186.812 74.5264 185.784 73.499 184.515 73.499C183.246 73.499 182.218 74.5264 182.218 75.7938C182.218 77.0612 183.246 78.0886 184.515 78.0886Z" fill="#F0E967"/>
<path opacity="0.2" d="M198.527 49.4087C199.169 50.0797 199.519 50.9782 199.499 51.9066C199.479 52.835 199.09 53.7174 198.419 54.3599C197.748 55.0025 196.849 55.3526 195.92 55.3333C194.99 55.3141 194.107 54.9271 193.463 54.2573C194.2 54.6447 195.051 54.7575 195.863 54.5755C196.676 54.3934 197.397 53.9284 197.898 53.2637C198.399 52.5989 198.646 51.7779 198.596 50.9474C198.547 50.117 198.202 49.3314 197.626 48.7312C197.961 48.907 198.265 49.1358 198.527 49.4087Z" fill="#231F20"/>
<path opacity="0.2" d="M205.52 56.2806C202.903 61.1797 192.296 64.5393 187.052 73.6379C186.67 73.0125 186.335 72.3598 186.049 71.685C191.451 63.2612 201.438 59.9643 203.966 55.2309C206.228 50.9944 204.496 45.9133 200.827 42.9689C205.521 45.6033 208.081 51.4833 205.52 56.2806Z" fill="#231F20"/>
<path d="M183.479 75.0036C184.013 74.8936 184.565 74.902 185.096 75.028C185.626 75.1541 186.122 75.3948 186.55 75.7332C186.977 76.0716 187.325 76.4995 187.568 76.9867C187.812 77.4739 187.946 78.0086 187.961 78.5531L195.917 81.6042L195.241 86.8869L184.065 82.4204C183.148 82.3842 182.275 82.0132 181.614 81.3776C180.952 80.742 180.547 79.8859 180.474 78.9717C180.402 78.0575 180.668 77.1486 181.222 76.4172C181.776 75.6859 182.579 75.1829 183.479 75.0036L183.479 75.0036Z" fill="#A0616A"/>
<path d="M239.075 64.1175C238.237 63.6066 237.307 63.2659 236.337 63.115C235.367 62.9641 234.377 63.006 233.424 63.2382C232.47 63.4704 231.572 63.8884 230.78 64.4682C229.989 65.048 229.319 65.7782 228.811 66.617L217.39 85.4578L191.568 79.3431L189.216 85.7951L222.283 101.443L239.031 74.7949C241.539 71.2747 242.766 66.3688 239.075 64.1175Z" fill="#CCCCCC"/>
<path d="M239.502 41.0275C239.502 42.8434 239.057 44.6317 238.204 46.2355C237.352 47.8392 236.118 49.2093 234.611 50.2255C233.105 51.2418 231.372 51.873 229.564 52.0639C227.756 52.2548 225.93 51.9994 224.244 51.3203C222.558 50.6411 221.065 49.559 219.895 48.1688C218.726 46.7785 217.916 45.1228 217.537 43.3469C217.157 41.571 217.22 39.7292 217.719 37.9831C218.219 36.2371 219.14 34.6403 220.401 33.3329L220.455 33.2797C220.544 33.1865 220.632 33.0933 220.726 33.0045C220.726 33.0045 220.727 33.0044 220.727 33.0042C220.728 33.004 220.728 33.0036 220.729 33.0032C220.729 33.0028 220.73 33.0023 220.73 33.0018C220.73 33.0012 220.73 33.0006 220.73 33.0001C220.846 32.8936 220.961 32.7871 221.081 32.685C222.686 31.2796 224.662 30.366 226.773 30.0535C228.884 29.7411 231.04 30.0431 232.984 30.9233C234.927 31.8036 236.576 33.2248 237.732 35.0168C238.888 36.8088 239.502 38.8956 239.502 41.0275V41.0275Z" fill="#1B1B18"/>
<path d="M225.661 52.8969C230.804 52.8969 234.973 48.732 234.973 43.5943C234.973 38.4566 230.804 34.2917 225.661 34.2917C220.518 34.2917 216.349 38.4566 216.349 43.5943C216.349 48.732 220.518 52.8969 225.661 52.8969Z" fill="#9E616A"/>
<path d="M235.55 46.2472L234.007 45.9749C233.145 45.8184 232.351 45.4026 231.732 44.7833C231.113 44.1639 230.697 43.3704 230.542 42.509L229.036 45.0295L228.971 45.0513C225.384 46.241 221.652 45.8852 217.564 43.965C216.395 43.4111 215.261 42.7866 214.169 42.0948L214.088 42.0445L214.081 41.9499C213.873 38.9237 214.553 36.3955 215.996 34.8311C216.55 34.2425 217.222 33.7775 217.969 33.4667C218.715 33.1558 219.519 33.006 220.328 33.0271C220.385 33.0121 220.438 32.983 220.482 32.9423C220.502 32.9271 220.523 32.912 220.544 32.8976V32.882L220.651 32.8317C220.881 32.7238 221.115 32.6204 221.349 32.526C223.191 31.8134 225.198 31.6347 227.138 32.0103C229.077 32.3859 230.872 33.3006 232.314 34.6493C235.183 37.3849 236.498 41.9757 235.588 46.0734L235.55 46.2472Z" fill="#1B1B18"/>
<path d="M255.19 54.173C252.021 52.5391 256.097 46.6089 255.278 43.1416C254.459 39.6744 248.562 38.5592 248.186 35.0166C247.81 31.474 246.927 27.8202 244.586 25.132C243.091 23.4143 240.888 22.1462 238.619 22.3613C237.852 22.4341 237.109 22.6713 236.442 23.0568C235.774 23.4422 235.198 23.9668 234.751 24.5949C234.305 25.223 234 25.9398 233.856 26.6965C233.712 27.4531 233.733 28.2319 233.917 28.9798C233.271 28.0655 231.6 28.2637 231.186 29.3036C230.818 30.2281 231.631 31.3479 232.587 31.4297C233.838 32.9734 235.271 34.6118 237.232 34.9232C237.544 34.9948 237.869 34.9947 238.181 34.9227C238.493 34.8507 238.785 34.7087 239.034 34.5076C239.495 34.0651 239.531 33.1805 238.984 32.8499C241.448 33.8275 242.892 36.4885 243.258 39.1114C243.623 41.7343 243.117 44.3881 242.784 47.0153C242.451 49.6425 242.307 52.4061 243.338 54.8458C244.557 57.7282 247.362 59.7942 250.423 60.4567C253.484 61.1192 256.744 60.4717 259.514 59.0129C262.285 57.5539 264.596 55.3267 266.483 52.8297C263.232 55.1361 258.734 56.0002 255.19 54.173Z" fill="#1B1B18"/>
<path d="M235.153 45.9886C235.153 45.9886 232.395 35.7025 220.57 33.3284C220.557 33.324 220.513 33.3063 220.455 33.2797C220.419 33.2575 220.375 33.2353 220.331 33.2131C220.464 33.1376 220.593 33.0711 220.726 33.0045C220.726 33.0045 220.727 33.0044 220.728 33.0042C220.728 33.004 220.729 33.0036 220.729 33.0032C220.729 33.0028 220.73 33.0023 220.73 33.0018C220.73 33.0012 220.73 33.0006 220.73 33.0001C220.846 32.8936 220.961 32.7871 221.081 32.685L221.419 32.6983C221.419 32.6983 233.283 30.8213 235.153 45.9886Z" fill="#206379"/>
<path opacity="0.2" d="M228.977 78.994L222.299 86.7235L211.264 83.4682L223.294 89.0064L228.977 78.994Z" fill="black"/>
<path d="M269.062 219.886L166.384 220C166.267 220 166.154 219.953 166.071 219.87C165.988 219.787 165.942 219.674 165.942 219.557C165.942 219.44 165.988 219.327 166.071 219.244C166.154 219.161 166.267 219.115 166.384 219.114L269.062 219C269.18 219 269.293 219.047 269.376 219.13C269.459 219.213 269.506 219.325 269.506 219.443C269.506 219.56 269.459 219.673 269.376 219.756C269.293 219.839 269.18 219.886 269.062 219.886V219.886Z" fill="#CACACA"/>
<path d="M273.569 151.053C268.762 151.053 263.492 150.872 257.76 150.509C228.115 148.628 189.716 142.09 149.636 132.098C109.556 122.107 72.5831 109.856 45.5292 97.6024C32.3504 91.6332 22.2357 85.9829 15.4665 80.8081C8.29963 75.3299 5.16476 70.5547 6.14856 66.6158C8.06548 58.9421 25.0388 57.2633 38.9401 57.2062L38.9449 58.3222C19.8546 58.4005 8.59237 61.4419 7.23257 66.8861C5.5004 73.82 19.6272 84.645 45.9904 96.586C72.9849 108.812 109.89 121.04 149.906 131.016C189.923 140.991 228.251 147.518 257.831 149.395C286.718 151.228 304.281 148.302 306.013 141.368C307.451 135.611 297.97 127.13 279.318 117.487L279.832 116.496C293.385 123.503 309.116 133.553 307.097 141.639C306.113 145.577 301.1 148.321 292.197 149.794C287.122 150.633 280.888 151.053 273.569 151.053Z" fill="#F0E967"/>
</g>
<defs>
<clipPath id="clip0_886_3492">
<rect width="307.273" height="220" fill="white"/>
</clipPath>
</defs>
</svg>
