<svg width="292" height="200" viewBox="0 0 292 200" fill="none" xmlns="http://www.w3.org/2000/svg">
<path d="M287.638 6.56022e-09H4.07348C2.99341 0.000981962 1.95786 0.429857 1.19414 1.19246C0.430423 1.95506 0.000948738 2.98908 0 4.06754V195.932C0.000947503 197.011 0.430423 198.045 1.19414 198.808C1.95786 199.57 2.99341 199.999 4.07348 200H287.638C288.227 200 288.809 199.872 289.344 199.626C289.878 199.38 290.353 199.02 290.735 198.573C290.768 198.538 290.797 198.5 290.824 198.461C291.067 198.164 291.264 197.832 291.408 197.476C291.613 196.987 291.718 196.462 291.716 195.932V4.06757C291.715 2.98834 291.285 1.95372 290.52 1.19102C289.755 0.428327 288.719 -6.12112e-05 287.638 6.56022e-09V6.56022e-09ZM290.553 195.932C290.554 196.5 290.386 197.055 290.072 197.528C289.793 197.944 289.414 198.284 288.969 198.517C288.558 198.729 288.101 198.839 287.638 198.839H4.07348C3.30189 198.838 2.56216 198.531 2.01655 197.986C1.47095 197.442 1.16403 196.703 1.16309 195.932V4.06757C1.16402 3.29712 1.47095 2.55849 2.01655 2.01369C2.56216 1.4689 3.30188 1.16242 4.07348 1.16148H287.638C288.41 1.16139 289.151 1.46739 289.698 2.01227C290.244 2.55715 290.552 3.29637 290.553 4.06757V195.932Z" fill="#3F3D56"/>
<path d="M291.132 16.3037H0.580566V17.4665H291.132V16.3037Z" fill="#3F3D56"/>
<path d="M10.479 12.2092C12.4084 12.2092 13.9726 10.6474 13.9726 8.72082C13.9726 6.79423 12.4084 5.23242 10.479 5.23242C8.54949 5.23242 6.98535 6.79423 6.98535 8.72082C6.98535 10.6474 8.54949 12.2092 10.479 12.2092Z" fill="#3F3D56"/>
<path d="M20.5229 12.2092C22.4524 12.2092 24.0165 10.6474 24.0165 8.72082C24.0165 6.79423 22.4524 5.23242 20.5229 5.23242C18.5934 5.23242 17.0293 6.79423 17.0293 8.72082C17.0293 10.6474 18.5934 12.2092 20.5229 12.2092Z" fill="#3F3D56"/>
<path d="M30.5673 12.2092C32.4968 12.2092 34.0609 10.6474 34.0609 8.72082C34.0609 6.79423 32.4968 5.23242 30.5673 5.23242C28.6379 5.23242 27.0737 6.79423 27.0737 8.72082C27.0737 10.6474 28.6379 12.2092 30.5673 12.2092Z" fill="#3F3D56"/>
<path d="M129.391 115.155C125.897 112.884 124.16 107.606 125.016 102.78C125.872 97.9527 129.096 93.7952 132.961 92.0022C134.841 91.1561 136.902 90.7896 138.959 90.9356C141.016 91.0816 143.005 91.7356 144.746 92.8388C148.291 95.0028 153.303 96.1881 154.986 100.518C156.28 103.845 154.639 110.602 152.898 113.833C151.394 116.627 148.535 117.904 145.848 118.459C142.877 119.065 139.809 119.025 136.854 118.345C133.899 117.664 131.124 116.357 128.718 114.513L129.391 115.155Z" fill="#363630"/>
<path d="M127.569 140.792L124.776 145.601L124.407 146.236L123.869 147.169H115.633L116.189 146.236L117.628 143.815L120.982 138.161L124.78 139.677L127.569 140.792Z" fill="#FFB8B8"/>
<path d="M115.017 147.169L113.513 146.236L113.326 146.119L122.767 128.939C123.173 128.196 123.723 127.54 124.384 127.01C125.046 126.48 125.806 126.086 126.621 125.851C127.65 125.545 128.74 125.505 129.788 125.735C130.4 125.864 130.989 126.084 131.535 126.388C131.76 126.511 131.977 126.648 132.185 126.798C132.983 127.357 133.639 128.095 134.1 128.953C134.649 129.958 134.92 131.09 134.885 132.233C134.851 133.377 134.512 134.491 133.904 135.46L130.265 141.268L127.154 146.236L126.57 147.169H115.017V147.169Z" fill="#363630"/>
<path d="M139.273 121.253C145.61 121.253 150.747 116.124 150.747 109.797C150.747 103.469 145.61 98.3398 139.273 98.3398C132.937 98.3398 127.8 103.469 127.8 109.797C127.8 116.124 132.937 121.253 139.273 121.253Z" fill="#FFB8B8"/>
<path d="M150.792 147.169H125L125.117 146.838C125.052 146.637 124.991 146.437 124.935 146.236C124.874 146.026 124.823 145.812 124.776 145.602C124.357 143.649 124.359 141.63 124.781 139.678C126.206 132.69 131.891 127.013 131.891 127.013C131.989 126.939 132.087 126.869 132.185 126.799C133.031 126.18 133.949 125.667 134.918 125.269C139.141 123.519 143.57 124.224 146.545 125.129C147.582 125.442 148.595 125.827 149.577 126.281C149.923 126.444 150.11 126.547 150.11 126.547L150.404 135.507L150.759 146.236L150.792 147.169Z" fill="#164453"/>
<path d="M162.724 146.237L160.752 136.226L158.762 126.132C158.679 125.715 158.472 125.333 158.167 125.035C157.863 124.738 157.476 124.54 157.056 124.466L152.889 123.748L149.011 123.081C148.637 123.014 148.252 123.05 147.897 123.185C147.542 123.321 147.231 123.551 146.998 123.851C146.706 124.213 146.547 124.664 146.544 125.129C146.545 125.416 146.603 125.7 146.717 125.964C148.74 130.675 148.778 138.134 148.264 146.237C148.241 146.545 148.222 146.857 148.198 147.17H162.911L162.724 146.237Z" fill="#363630"/>
<path d="M134.918 125.268C134.832 124.928 134.663 124.616 134.426 124.357C134.189 124.099 133.891 123.904 133.56 123.789C133.229 123.675 132.874 123.644 132.528 123.7C132.182 123.756 131.855 123.897 131.577 124.111L129.788 125.734L122.463 132.396C122.235 132.6 122.056 132.854 121.94 133.137C121.113 135.11 119.501 139.006 117.628 143.815C117.324 144.599 117.011 145.406 116.689 146.236C116.577 146.544 116.456 146.856 116.334 147.169H128.405C128.504 146.856 128.602 146.544 128.7 146.236C129.237 144.543 129.76 142.882 130.265 141.268C131.741 136.58 133.072 132.321 134.1 128.953C134.385 128.02 134.645 127.159 134.88 126.369C134.99 126.011 135.003 125.632 134.918 125.268V125.268Z" fill="#363630"/>
<path d="M165.433 147.168H166.213L166.106 146.907L165.821 146.235L161.425 135.819L160.752 136.225L155.351 139.486L158.122 146.235L158.505 147.168H162.91H165.433Z" fill="#FFB8B8"/>
<path d="M160.976 127.559C160.382 126.005 159.208 124.74 157.701 124.03C156.194 123.32 154.47 123.219 152.89 123.748C152.688 123.815 152.49 123.893 152.297 123.982C151.19 124.475 150.247 125.272 149.578 126.281C149.305 126.684 149.081 127.118 148.91 127.573C148.607 128.364 148.463 129.207 148.488 130.053C148.513 130.899 148.705 131.732 149.055 132.504L150.405 135.508L155.235 146.236L155.655 147.169H165.433L166.106 146.908L167.853 146.236L168.096 146.143L160.976 127.559Z" fill="#363630"/>
<path d="M148.286 96.6382C148.686 96.7579 149.114 96.7427 149.505 96.5948C149.895 96.4468 150.226 96.1746 150.445 95.8201C150.653 95.4588 150.776 95.0547 150.803 94.6388C150.831 94.2229 150.762 93.8063 150.603 93.4209C150.278 92.6515 149.764 91.9757 149.11 91.455C148.368 90.7839 147.464 90.3165 146.486 90.0983C145.998 89.9934 145.492 89.9946 145.004 90.1017C144.517 90.2088 144.057 90.4193 143.658 90.719C143.266 91.0287 142.975 91.4481 142.823 91.9237C142.671 92.3992 142.665 92.9091 142.805 93.3883C143.102 94.2486 143.907 94.825 144.711 95.2543C146.305 96.1042 148.064 96.6033 149.868 96.718L148.286 96.6382Z" fill="#363630"/>
<path d="M150.518 109.454C148.674 109.708 148.91 108.77 148.172 107.064C147.433 105.357 146.444 103.331 144.59 103.158C143.07 103.016 141.818 104.229 140.587 105.13C138.393 106.735 135.437 107.521 132.893 106.558C130.35 105.595 128.583 102.568 129.548 100.029C129.848 99.328 130.29 98.6959 130.845 98.172C131.4 97.6481 132.056 97.2436 132.774 96.9835C134.215 96.4722 135.744 96.26 137.27 96.36C140.662 96.4683 143.989 97.3188 147.017 98.8513C149.106 99.9113 151.14 101.428 151.933 103.63C152.725 105.832 153.247 108.926 150.98 109.522L150.518 109.454Z" fill="#363630"/>
<path d="M147.342 90.5815C146.43 88.9968 147.183 86.8223 148.675 85.7635C150.167 84.7046 152.168 84.6007 153.949 85.0254C155.709 85.4682 157.322 86.3655 158.626 87.6273C159.93 88.889 160.878 90.4709 161.377 92.2142C162.132 94.9855 161.683 97.9621 162.323 100.762C162.664 102.255 163.307 103.662 164.214 104.897C165.12 106.132 166.27 107.169 167.592 107.944C168.915 108.718 170.382 109.214 171.904 109.401C173.426 109.588 174.97 109.462 176.442 109.031C178.358 108.469 180.305 107.103 180.494 105.117C180.692 107.397 180.172 109.682 179.005 111.652C177.838 113.621 176.084 115.177 173.987 116.102C171.518 117.13 168.764 117.197 166.09 117.129C164.347 117.084 162.564 116.979 160.957 116.306C159.844 115.8 158.844 115.076 158.015 114.179C157.186 113.282 156.545 112.228 156.129 111.08C155.311 108.773 155.09 106.296 155.487 103.88C155.75 102.001 156.273 100.159 156.42 98.2677C156.566 96.376 156.288 94.3561 155.12 92.8595C153.952 91.3629 151.721 90.5985 150.061 91.5208C149.393 91.8915 148.855 92.497 148.13 92.7361C147.405 92.9753 146.377 92.555 146.443 91.7953L147.342 90.5815Z" fill="#363630"/>
<path d="M225.64 147.17L225.728 146.237L228.363 118.864C229.227 118.189 230.155 117.6 231.134 117.106C236.557 114.377 241.789 115.683 244.62 116.812C245.371 117.105 246.096 117.459 246.788 117.871L248.33 146.237L248.381 147.17H225.64Z" fill="#164453"/>
<path d="M237.979 111.58C244.316 111.58 249.453 106.45 249.453 100.123C249.453 93.7954 244.316 88.666 237.979 88.666C231.642 88.666 226.505 93.7954 226.505 100.123C226.505 106.45 231.642 111.58 237.979 111.58Z" fill="#FFB8B8"/>
<path d="M247.288 107.109C248.141 106.211 248.707 105.08 248.915 103.861C249.122 102.641 248.962 101.387 248.454 100.259C247.946 99.1303 247.113 98.1783 246.061 97.5238C245.01 96.8693 243.787 96.5419 242.549 96.5832C240.962 96.6362 239.467 97.2845 237.953 97.7603C235.658 98.5398 233.21 98.76 230.812 98.4024C228.401 98.0285 226.224 96.7454 224.732 94.8173C223.312 92.8691 222.869 90.167 223.872 87.9756C225.03 85.4458 227.735 84.0518 230.279 82.9192C231.305 82.4063 232.401 82.0468 233.531 81.8522C234.098 81.7582 234.677 81.7821 235.234 81.9222C235.791 82.0624 236.313 82.3158 236.767 82.6666C237.482 83.2806 237.901 84.2035 238.679 84.7356C239.555 85.3346 240.692 85.3189 241.749 85.4245C244.128 85.6623 246.378 86.6177 248.2 88.1636C250.022 89.7095 251.33 91.7727 251.949 94.0788C252.568 96.3848 252.469 98.8244 251.666 101.073C250.862 103.322 249.392 105.273 247.451 106.667L247.288 107.109Z" fill="#363630"/>
<path d="M232.843 121.845L231.133 117.106L231.027 116.811C230.976 116.67 230.894 116.544 230.787 116.44C230.68 116.336 230.551 116.258 230.41 116.211C230.268 116.165 230.118 116.151 229.97 116.171C229.822 116.191 229.681 116.244 229.557 116.327L227.616 117.619C227.616 117.619 215.166 117.619 214.166 125.078C214.152 125.194 214.134 125.325 214.12 125.465C214.119 125.471 214.117 125.478 214.115 125.484C213.989 125.973 211.639 135.041 209.621 146.236C209.565 146.544 209.509 146.857 209.453 147.169H236.506V147.169C237.386 135.923 236.894 125.467 232.843 121.845Z" fill="#363630"/>
<path d="M265.115 146.236C263.639 134.752 261.527 125.465 261.527 125.465C261.509 125.325 261.49 125.194 261.476 125.078C260.481 117.619 248.031 117.619 248.031 117.619L246.091 116.328C245.967 116.245 245.826 116.192 245.678 116.172C245.53 116.152 245.379 116.166 245.238 116.213C245.096 116.259 244.967 116.337 244.86 116.441C244.753 116.545 244.671 116.672 244.621 116.812L242.804 121.845C238.753 125.467 238.261 135.923 239.141 147.169L239.141 147.169H265.232C265.194 146.856 265.152 146.544 265.115 146.236Z" fill="#363630"/>
<path d="M45.98 120.085L43.2052 146.236L43.1071 147.169H35.6001C35.6888 146.866 35.7776 146.553 35.8711 146.236C38.0013 138.94 40.9023 128.291 40.5891 125.469C40.0987 121.065 43.5323 119.596 43.5323 119.596L43.7472 119.638L45.98 120.085Z" fill="#164453"/>
<path d="M58.0871 112.014C64.424 112.014 69.561 106.885 69.561 100.557C69.561 94.2299 64.424 89.1006 58.0871 89.1006C51.7503 89.1006 46.6133 94.2299 46.6133 100.557C46.6133 106.885 51.7503 112.014 58.0871 112.014Z" fill="#A0616A"/>
<path d="M72.9401 141.619C72.3615 142.684 71.8875 143.803 71.5247 144.959C71.3892 145.369 71.2585 145.798 71.1369 146.237C71.0482 146.54 70.9688 146.853 70.8894 147.17H40.6265C40.6687 146.862 40.7058 146.549 40.748 146.237C42.2944 134.039 43.5462 121.659 43.7472 119.639C43.7659 119.448 43.7752 119.35 43.7752 119.35C61.9104 109.806 75.1452 122.289 75.1452 122.289C75.1452 122.289 75.1638 122.377 75.1919 122.55C75.4816 124.295 76.9577 134.482 72.9401 141.619Z" fill="#164453"/>
<path d="M71.5249 144.957L69.5068 140.638L69.9973 123.51L75.1922 122.549L75.3745 122.517C78.0597 124.075 80.1375 126.495 81.27 129.383C82.2791 131.902 84.1991 139.477 85.8203 146.235C85.8951 146.548 85.9697 146.86 86.0445 147.168H72.5573L72.1228 146.235L71.5249 144.957Z" fill="#164453"/>
<path d="M89.9821 70.2031H23.6363C22.2132 70.2048 20.8489 70.77 19.8427 71.7748C18.8364 72.7796 18.2703 74.1418 18.2686 75.5628V141.81C18.2703 143.231 18.8364 144.593 19.8427 145.598C20.8489 146.602 22.2132 147.168 23.6363 147.169H89.9821C91.4054 147.168 92.7701 146.603 93.7765 145.598C94.7829 144.593 95.3487 143.231 95.3496 141.81V75.5628C95.3487 74.1416 94.7829 72.7789 93.7765 71.774C92.7701 70.769 91.4054 70.2041 89.9821 70.2031ZM94.4153 141.81C94.4143 142.983 93.9469 144.109 93.1158 144.939C92.2846 145.769 91.1575 146.235 89.9821 146.236H23.6363C22.4611 146.235 21.3344 145.768 20.5034 144.938C19.6723 144.108 19.2047 142.983 19.2029 141.81V75.5628C19.2047 74.3893 19.6723 73.2643 20.5034 72.4346C21.3344 71.6048 22.4611 71.1378 23.6363 71.136H89.9821C91.1575 71.1371 92.2846 71.6038 93.1158 72.4337C93.9469 73.2637 94.4143 74.3891 94.4153 75.5628V141.81ZM43.2054 146.236L43.1073 147.169H70.8893C70.9686 146.852 71.048 146.54 71.1367 146.236H43.2054Z" fill="#3F3D56"/>
<path d="M179.026 70.2031H112.681C111.258 70.2048 109.893 70.77 108.887 71.7748C107.881 72.7796 107.315 74.1418 107.313 75.5628V141.81C107.315 143.231 107.881 144.593 108.887 145.598C109.893 146.602 111.258 147.168 112.681 147.169H179.026C180.449 147.168 181.814 146.603 182.82 145.598C183.826 144.593 184.392 143.231 184.393 141.81V75.5628C184.392 74.1416 183.826 72.7789 182.82 71.774C181.814 70.769 180.449 70.2041 179.026 70.2031V70.2031ZM183.459 141.81C183.458 142.983 182.991 144.109 182.159 144.939C181.328 145.769 180.201 146.235 179.026 146.236H112.681C111.505 146.235 110.379 145.768 109.548 144.938C108.717 144.108 108.249 142.983 108.247 141.81V75.5628C108.249 74.3893 108.717 73.2643 109.548 72.4346C110.379 71.6048 111.505 71.1378 112.681 71.136H179.026C180.201 71.1371 181.328 71.6038 182.159 72.4337C182.991 73.2637 183.458 74.3891 183.459 75.5628V141.81ZM124.934 146.236C124.99 146.437 125.051 146.637 125.116 146.838L125 147.169H148.198C148.222 146.857 148.24 146.544 148.264 146.236H124.934Z" fill="#3F3D56"/>
<path d="M268.076 70.2031H201.731C200.307 70.204 198.942 70.769 197.936 71.7739C196.93 72.7788 196.364 74.1416 196.363 75.5628V141.81C196.364 143.231 196.93 144.594 197.936 145.598C198.942 146.603 200.307 147.168 201.731 147.169H268.076C269.499 147.168 270.864 146.602 271.87 145.598C272.876 144.593 273.442 143.231 273.444 141.81V75.5628C273.442 74.1419 272.876 72.7796 271.87 71.7749C270.864 70.7701 269.499 70.2049 268.076 70.2031ZM272.509 141.81C272.508 142.983 272.04 144.108 271.209 144.938C270.378 145.768 269.251 146.235 268.076 146.236H201.731C200.555 146.235 199.428 145.769 198.597 144.939C197.766 144.109 197.298 142.983 197.297 141.81V75.5628C197.298 74.389 197.766 73.2636 198.597 72.4337C199.428 71.6037 200.555 71.137 201.731 71.136H268.076C269.251 71.1378 270.378 71.6048 271.209 72.4346C272.04 73.2644 272.508 74.3893 272.509 75.5628V141.81ZM236.576 146.236C236.552 146.544 236.529 146.857 236.506 147.169H256.635C256.673 146.861 256.715 146.549 256.752 146.236H236.576Z" fill="#3F3D56"/>
<path d="M222.937 174.224H68.7753C67.7842 174.224 66.8336 173.831 66.1327 173.131C65.4318 172.431 65.0381 171.482 65.0381 170.492C65.0381 169.503 65.4318 168.554 66.1327 167.854C66.8336 167.154 67.7842 166.761 68.7753 166.761H222.937C223.928 166.761 224.879 167.154 225.58 167.854C226.281 168.554 226.674 169.503 226.674 170.492C226.674 171.482 226.281 172.431 225.58 173.131C224.879 173.831 223.928 174.224 222.937 174.224Z" fill="#CCCCCC"/>
<path d="M179.725 50.6118H111.987C110.996 50.6118 110.045 50.2187 109.345 49.5188C108.644 48.819 108.25 47.8698 108.25 46.8801C108.25 45.8904 108.644 44.9413 109.345 44.2414C110.045 43.5416 110.996 43.1484 111.987 43.1484H179.725C180.716 43.1484 181.667 43.5416 182.368 44.2414C183.069 44.9413 183.462 45.8904 183.462 46.8801C183.462 47.8698 183.069 48.819 182.368 49.5188C181.667 50.2187 180.716 50.6118 179.725 50.6118Z" fill="#164453"/>
<path d="M63.5757 110.54C63.9642 110.922 64.478 111.152 65.0225 111.187C65.5671 111.222 66.106 111.059 66.5402 110.729C69.2444 108.728 71.6184 106.236 73.0233 103.197C74.6332 99.7152 74.8128 95.4423 72.8718 92.1328C71.231 89.335 68.3336 87.5297 65.446 86.0473C64.3247 85.4154 63.117 84.9506 61.8611 84.6677C60.5917 84.388 59.2633 84.602 58.1464 85.2661C57.6 85.6082 57.1696 86.1068 56.9112 86.6968C56.6528 87.2868 56.5785 87.9409 56.698 88.5737C55.3109 86.9935 53.5343 85.8027 51.5444 85.1193C50.2913 84.6298 48.9191 84.5305 47.6084 84.8344C45.7759 85.3534 44.4382 86.9791 43.7065 88.7351C43.1147 90.0708 42.9104 91.5455 43.1167 92.9915C43.2253 93.711 43.4839 94.3997 43.8758 95.0132C44.2678 95.6267 44.7843 96.1511 45.392 96.5527C46.9071 97.4887 48.8399 97.4212 50.5799 97.0388C52.3198 96.6564 54.004 95.9914 55.7777 95.8232C57.5513 95.655 59.5263 96.0965 60.6057 97.5118C61.3658 98.5085 61.561 99.8107 61.7316 101.052L62.6191 107.507C62.6917 108.441 62.9306 109.355 63.3245 110.205C63.3927 110.327 63.4772 110.44 63.5757 110.54Z" fill="#363630"/>
</svg>
