<svg width="876" height="650" viewBox="0 0 876 650" fill="none" xmlns="http://www.w3.org/2000/svg">
<g clip-path="url(#clip0_1248_3621)">
<path d="M806.146 158.006C706.83 19.7992 497.031 -36.2634 290.7 24.1174C181.619 56.0388 76.4448 119.998 24.3231 243.844C-68.8502 465.233 126.779 535.939 254.699 558.474C316.554 569.37 374.811 587.674 428.047 612.595C523.823 657.43 693.354 697.158 821.191 510.4C913.848 375.038 872.3 250.065 806.146 158.006Z" fill="#F2F2F2"/>
<path d="M284.965 120.55C284.722 118.638 284.231 116.765 283.503 114.978C283.411 114.641 283.248 114.326 283.027 114.054C282.805 113.782 282.529 113.559 282.216 113.399C281.797 113.291 281.359 113.286 280.938 113.385L274.378 114.384C273.829 114.409 273.303 114.613 272.881 114.964C272.026 115.858 272.868 117.299 272.842 118.533C272.812 119.921 271.574 121.048 270.23 121.42C268.859 121.696 267.445 121.679 266.081 121.369L256.908 119.95C259.61 119.091 262.014 117.493 263.848 115.339C265.055 113.915 265.697 111.257 263.952 110.583C263.434 110.441 262.894 110.398 262.359 110.455C258.203 110.488 254.933 107.033 251.042 105.577C248.551 104.706 245.848 104.642 243.319 105.392C240.789 106.143 238.563 107.671 236.958 109.757L241.845 109.992C242.305 109.967 242.761 110.088 243.147 110.338C244.218 111.214 242.886 112.896 243.037 114.268C243.233 116.051 245.61 116.431 247.402 116.611C249.193 116.792 251.466 118.241 250.605 119.815C241.599 122.903 232.435 113.778 222.978 114.902C220.584 115.186 218.324 116.122 215.987 116.711C201.711 120.307 186.953 110.712 172.369 112.744C169.127 113.294 165.941 114.131 162.848 115.244C160.863 115.893 158.793 116.594 157.35 118.099C155.908 119.604 155.359 122.177 156.726 123.751C152.96 124.06 149.169 123.701 145.529 122.691C146.514 123.236 147.332 124.035 147.9 125.003C148.467 125.972 148.762 127.074 148.754 128.195C142.875 129.15 137.151 130.888 131.736 133.362C132.747 135.035 133.927 136.6 135.258 138.034L127.815 142.795C130.33 143.426 131.63 146.84 130.167 148.972C132.775 147.817 134.391 144.829 137.179 144.224C139.006 143.827 140.865 144.571 142.598 145.27C144.331 145.969 146.235 146.646 148.029 146.122C149.823 145.597 151.147 143.281 150.007 141.806C157.674 139.578 165.599 138.346 173.584 138.138C174.2 138.061 174.825 138.179 175.369 138.476C176.409 139.194 176.135 140.744 176.079 142.003C176.023 143.261 177.008 144.915 178.138 144.348C176.809 145.495 177.945 147.655 179.22 148.861C180.495 150.068 182.032 151.733 181.251 153.302C181.047 153.712 180.702 154.04 180.506 154.453C179.927 155.673 180.846 157.095 181.93 157.905C183.013 158.716 184.34 159.282 185.093 160.404C185.846 161.526 185.504 163.49 184.158 163.646L180.332 158.81C179.025 160.159 178.129 161.85 177.748 163.686C181.805 166.988 182.415 173.708 179.019 177.681C177.283 179.711 174.815 180.945 172.661 182.528C170.507 184.112 168.513 186.367 168.519 189.033C168.528 193.639 168.15 197.918 169.884 202.188C173.08 210.062 176.771 217.728 180.934 225.141C182.027 227.087 183.439 229.221 185.654 229.556C182.855 222.772 180.336 215.883 178.096 208.889C179.555 208.895 181.241 209.01 182.096 210.187C182.804 211.161 182.652 212.486 182.872 213.669C183.152 214.815 183.619 215.907 184.254 216.903L197.619 240.605C198.726 242.57 199.997 244.679 202.115 245.475C203.468 245.984 205.035 245.888 206.281 246.62C207.257 247.194 207.915 248.214 208.911 248.754C211.726 250.283 215.641 247.351 218.272 249.176C219.024 249.698 219.503 250.528 220.196 251.125C222.626 253.221 226.612 251.819 229.417 253.382C231.225 254.389 232.162 256.404 233.126 258.229C235.542 262.802 239.45 267.282 244.626 267.646C246.252 267.761 247.913 267.454 249.503 267.814C251.092 268.174 252.657 269.555 252.401 271.158C251.964 273.906 253.328 276.915 252.961 279.673C252.294 284.698 245.136 286.906 244.521 291.937C244.387 293.038 244.598 294.175 244.334 295.254C244.011 296.575 243.014 297.651 242.66 298.964C241.989 301.454 243.78 303.931 245.748 305.606C247.716 307.28 250.063 308.724 251.139 311.069C252.276 313.546 251.717 316.436 252.087 319.135C252.894 325.027 258.006 329.396 263.267 332.212C264.87 333.071 266.591 333.902 267.628 335.39C268.983 337.333 268.848 339.895 269.3 342.217C270.407 347.903 275.215 352.588 275.352 358.379C275.449 362.495 273.151 366.228 271.778 370.112C270.491 373.832 270.026 377.786 270.413 381.702C270.8 385.618 272.031 389.405 274.022 392.804C275.049 394.531 276.277 396.158 277.004 398.03C278.3 401.369 277.879 405.166 279.074 408.542C280.654 413.007 284.996 416.694 284.581 421.41C286.552 425.485 290.905 427.488 295.281 428.701L303.126 430.875C304.628 431.291 306.197 431.711 307.727 431.409C309.256 431.108 310.716 429.843 310.676 428.292C306.829 427.428 302.859 426.509 299.688 424.175C296.517 421.842 294.345 417.686 295.548 413.947C296.106 412.213 297.293 410.211 296.165 408.778C295.519 407.958 294.337 407.744 293.608 406.995C292.472 405.828 292.862 403.867 293.679 402.46C294.497 401.052 295.678 399.794 296.007 398.202C296.174 397.311 296.063 396.391 295.689 395.565C295.315 394.739 294.696 394.046 293.916 393.58C295.37 393.033 296.693 392.188 297.798 391.099C298.82 389.939 299.291 388.149 298.488 386.829C300.873 387.13 303.689 387.278 305.255 385.461C306.505 384.01 306.419 381.842 305.925 379.994C305.431 378.147 304.596 376.353 304.57 374.442C310.072 374.701 315.587 374.515 321.059 373.885C320.267 371.232 318.469 368.99 316.046 367.634C318.524 367.217 320.782 364.263 321.565 361.885C322.348 359.507 322.148 356.916 321.664 354.461C321.478 353.829 321.453 353.16 321.59 352.516C321.869 351.63 322.743 351.09 323.551 350.628L335.852 343.594C336.586 343.228 337.251 342.739 337.819 342.148C339.108 340.641 338.917 338.366 338.257 336.498C337.597 334.631 336.54 332.875 336.286 330.912C335.526 325.041 341.838 320.828 343.969 315.301C344.805 313.132 344.975 310.774 345.137 308.457C345.311 305.967 345.324 303.076 343.404 301.472C341.564 299.934 338.689 300.277 336.763 298.847C334.998 297.536 334.389 294.989 332.46 293.93C330.709 292.968 328.513 293.58 326.565 293.127C323.135 292.331 320.977 288.395 317.474 288.031C315.498 287.825 313.261 288.787 311.641 287.641C310.214 286.631 310.157 284.602 309.885 282.88C309.409 280.203 308.12 277.736 306.193 275.811C304.266 273.886 301.792 272.595 299.105 272.113C297.068 271.787 294.85 271.911 293.116 270.796C291.361 269.667 290.556 267.553 289.177 265.99C286.955 263.47 283.455 262.575 280.177 261.807L266.841 258.686C264.473 258.132 261.422 257.838 260.151 259.903C259.775 260.689 259.509 261.523 259.36 262.381C258.884 263.933 257.926 265.295 256.624 266.27C255.322 267.246 253.742 267.786 252.112 267.812C250.995 265.914 249.184 264.519 247.058 263.918C245.706 263.543 244.258 263.501 242.969 262.949C242.266 262.608 241.641 262.128 241.132 261.537C240.622 260.947 240.239 260.26 240.006 259.517C239.773 258.774 239.694 257.992 239.775 257.218C239.856 256.444 240.094 255.695 240.476 255.016C241.245 253.653 241.542 252.076 241.321 250.528C241.1 248.98 240.374 247.548 239.254 246.452C236.986 244.425 233.706 243.935 230.665 244.138C229.868 242.408 231.2 240.455 232.635 239.198C234.07 237.941 235.813 236.704 236.125 234.827C236.617 231.873 232.832 229.63 229.958 230.51C227.084 231.391 225.249 234.171 224.037 236.91C223.341 238.482 222.749 240.137 221.652 241.463C220.555 242.788 218.787 243.737 217.116 243.312C214.749 242.71 213.835 239.911 213.312 237.535C212.609 234.348 211.902 231.117 212.049 227.858C212.197 224.598 213.3 221.251 215.714 219.045C219.648 215.449 225.683 215.801 230.992 216.375C229.738 214.968 230.048 212.597 231.39 211.272C232.098 210.646 232.949 210.2 233.87 209.975C234.79 209.75 235.752 209.752 236.671 209.98C238.271 210.312 239.712 211.17 240.763 212.416C242.271 214.247 242.7 216.72 243.841 218.799C244.981 220.878 247.545 222.651 249.644 221.535C251.457 220.572 251.745 218.069 251.293 216.073C250.842 214.078 249.884 212.137 250.047 210.097C250.359 206.206 254.411 203.864 257.986 202.261C261.561 200.658 265.655 198.503 266.221 194.64C266.241 193.884 266.384 193.136 266.646 192.426C267.042 191.798 267.593 191.282 268.246 190.927C278.681 184.061 289.288 177.112 301.214 173.36C301.835 173.165 301.908 173.382 302.54 173.229C303.425 172.72 302.838 171.311 301.99 170.744C301.142 170.176 300.007 169.741 299.792 168.746C299.634 168.015 300.067 167.297 300.179 166.557C300.455 164.74 298.272 163.061 296.576 163.788C295.618 162.525 297.513 161.057 299.046 160.637C303.648 159.376 308.373 158.607 313.139 158.345C313.689 158.258 314.253 158.353 314.743 158.616C315.544 159.169 315.441 160.435 314.874 161.223C314.307 162.011 313.424 162.506 312.717 163.173C311.945 163.922 311.394 164.868 311.124 165.908C310.855 166.947 310.878 168.041 311.19 169.068C313.678 170.328 316.383 171.626 319.139 171.182C321.895 170.738 324.341 167.655 323.046 165.193C321.839 162.9 318.216 162.383 317.593 159.87C316.863 156.928 321.047 154.311 320.104 151.429C319.692 150.167 318.428 149.424 317.459 148.513C316.314 147.395 315.535 145.959 315.224 144.393C314.914 142.827 315.086 141.204 315.719 139.738C314.14 140.014 312.517 139.91 310.987 139.433C309.457 138.956 308.064 138.121 306.925 136.998C304.821 134.884 303.143 131.55 300.156 131.644C297.415 131.731 295.054 134.915 292.491 133.944C291.86 133.705 291.195 133.218 290.584 133.503C290.384 133.633 290.216 133.806 290.093 134.009C289.969 134.213 289.894 134.442 289.873 134.679C289.222 137.779 290.342 141.312 288.645 143.991C286.798 146.907 282.526 147.311 280.287 149.94C279.071 151.367 278.6 153.29 277.483 154.795C276.366 156.3 273.995 157.256 272.654 155.945C273.313 154.596 273.493 153.065 273.164 151.601C272.836 150.137 272.019 148.828 270.846 147.887C269.601 147.078 268.259 146.428 266.852 145.952C265.279 145.29 263.783 144.46 262.39 143.477C261.692 143.057 261.125 142.453 260.752 141.732C260.457 140.828 260.497 139.849 260.864 138.972C261.544 137.031 262.743 135.312 264.332 134.001C265.922 132.689 267.841 131.835 269.882 131.53C271.668 131.288 273.745 131.373 274.927 130.019C275.552 129.302 275.88 128.219 276.787 127.928C277.367 127.812 277.97 127.886 278.505 128.138L285.168 130.474C285.911 130.808 286.729 130.942 287.541 130.864C287.944 130.81 288.311 130.607 288.569 130.294C288.827 129.982 288.957 129.584 288.933 129.181C288.72 128.079 287.017 127.55 287.172 126.439C287.259 126.079 287.454 125.753 287.73 125.506C290.135 122.957 293.075 120.97 296.342 119.686C299.608 118.402 303.119 117.852 306.624 118.077C307.465 119.452 306.135 121.081 305.028 122.255C303.921 123.429 303.032 125.526 304.37 126.43C304.919 126.709 305.529 126.846 306.144 126.828C307.785 127.049 309.379 127.53 310.866 128.254C313.169 129.251 315.427 130.343 317.641 131.529C317.446 130.075 317.259 128.544 317.812 127.185C318.366 125.826 319.938 124.76 321.312 125.289C322.636 125.799 323.315 127.544 324.725 127.704C326.607 127.917 327.349 125.15 326.563 123.435C325.777 121.72 324.221 120.284 324.091 118.403C324.004 117.134 324.489 115.56 323.471 114.792C323.109 114.561 322.697 114.418 322.27 114.373L296.851 109.715C295.342 109.439 293.161 109.651 293.094 111.177C293.057 112.03 293.821 112.873 293.483 113.656C293.121 114.492 291.934 114.416 291.069 114.712C289.728 115.171 289.054 116.757 289.183 118.163C289.419 119.561 289.963 120.89 290.775 122.053C289.122 121.365 286.619 121.238 284.965 120.55Z" fill="#164453"/>
<path d="M263.092 98.7402C261.482 98.2033 259.747 98.1783 258.123 98.6686C256.498 99.1588 255.063 100.141 254.011 101.481C253.59 102.039 253.237 102.808 253.589 103.412C254.094 104.277 255.379 103.935 256.327 103.626C257.72 103.124 259.236 103.088 260.652 103.522C261.542 103.83 262.338 104.374 263.232 104.67C263.667 104.854 264.143 104.914 264.61 104.845C265.077 104.777 265.516 104.581 265.881 104.28C266.494 103.65 266.533 102.669 266.534 101.786C266.576 101.491 266.553 101.189 266.465 100.904C266.378 100.619 266.228 100.357 266.027 100.138C265.669 99.929 265.267 99.8091 264.854 99.7882C263.929 99.6157 263.093 99.1234 262.49 98.3961" fill="#164453"/>
<path d="M272.957 96.1379C272.627 96.1182 272.297 96.1919 272.001 96.3518C271.704 96.5118 271.45 96.7526 271.263 97.0512C271.075 97.3498 270.962 97.696 270.932 98.0567C270.902 98.4174 270.958 98.7803 271.094 99.1106C272.108 99.4135 273.167 99.4891 274.209 99.333C274.728 99.2447 275.212 98.99 275.6 98.601C275.987 98.212 276.261 97.7061 276.386 97.1471C275.16 97.3914 273.895 97.1268 272.837 96.4049" fill="#164453"/>
<path d="M303.449 92.2768C300.515 92.8963 297.665 93.8579 294.958 95.1415C296.234 95.6286 297.319 96.51 298.052 97.6557C298.786 98.8015 299.129 100.151 299.032 101.505C298.918 102.025 298.931 102.565 299.071 103.079C299.383 103.83 300.287 104.111 301.081 104.304C302.508 104.735 303.999 104.924 305.489 104.863C306.235 104.824 306.959 104.601 307.596 104.215C308.233 103.828 308.763 103.29 309.138 102.648C309.354 102.04 309.608 101.445 309.897 100.867C311.801 97.9864 317.458 101.469 319.502 98.6853C320.223 97.7046 320.157 96.2285 321.096 95.4514C321.581 95.1128 322.144 94.8995 322.733 94.8306C326.845 94.0193 330.998 93.4319 335.174 93.0709C337.152 92.8999 339.731 92.1942 339.748 90.2217C332.295 88.7679 324.567 89.8004 317.766 93.1587C315.316 94.3776 312.075 96.9418 309.715 95.3257C308.831 94.7206 308.875 93.0913 307.658 92.4109C306.415 91.7153 304.769 91.9982 303.449 92.2768Z" fill="#164453"/>
<path d="M327.902 97.2726L331.481 97.9489C330.822 97.9202 330.165 98.03 329.553 98.271C328.941 98.512 328.388 98.8786 327.931 99.3464C327.474 99.8142 327.124 100.372 326.904 100.984C326.684 101.595 326.599 102.246 326.655 102.892C330.006 103.993 333.66 102.922 337.19 103.068C340.72 103.214 344.827 105.695 344.224 109.119C344.042 110.154 343.434 111.189 343.75 112.193C343.972 112.896 344.602 113.395 344.958 114.043C345.7 115.394 345.107 117.101 344.171 118.329C343.234 119.556 341.975 120.535 341.152 121.84C339.107 125.084 340.269 129.277 341.487 132.902C341.84 134.271 342.49 135.549 343.394 136.646C345.199 138.534 348.14 138.698 350.774 138.736C352.692 138.764 354.888 138.67 356.1 137.209C357.683 135.302 356.576 132.325 357.618 130.086C358.565 128.053 360.976 127.181 363.161 126.562C367.164 125.429 371.243 124.465 375.027 122.753C379.726 120.627 384.117 117.314 389.282 117.04C390.73 116.963 392.215 117.132 393.611 116.741C395.007 116.351 396.332 115.164 396.227 113.74C396.136 112.524 395.09 111.631 394.273 110.714C393.455 109.797 392.813 108.387 393.565 107.417L407.102 104.93C406.142 102.358 405.395 98.97 407.6 97.2957C408.395 96.6916 409.46 96.4501 410.138 95.7198C411.292 94.475 410.712 92.3308 409.379 91.2722C408.046 90.2136 406.244 89.9678 404.537 89.8284C398.602 89.3435 392.632 89.6639 386.685 89.9845C375.059 90.6113 363.434 91.2382 351.809 91.865C349.468 91.9912 346.766 91.7984 344.62 92.5837C342.803 93.2486 341.511 94.4691 339.433 94.8979C335.596 95.6895 331.374 95.1538 327.902 97.2726Z" fill="#164453"/>
<path d="M391.483 124.865C391.113 124.809 390.734 124.891 390.425 125.092C390.221 125.304 390.1 125.577 390.081 125.864C389.846 127.13 390.126 128.433 390.864 129.512C391.239 130.042 391.758 130.466 392.366 130.742C392.974 131.018 393.649 131.134 394.32 131.08C395.957 130.883 397.163 129.561 398.668 128.917C400.987 127.924 410.836 126.377 404.023 122.894C401.675 121.694 400.158 122.754 398.307 123.544C396.202 124.563 393.843 125.02 391.483 124.865V124.865Z" fill="#164453"/>
<path d="M450.006 95.0356C449.202 95.339 448.529 95.8798 448.093 96.5736C447.892 96.9259 447.846 97.336 447.963 97.7192C448.08 98.1023 448.352 98.4292 448.723 98.6321C449.023 98.7327 449.342 98.7793 449.661 98.7695L452.93 98.8598C454.318 98.8981 456.053 99.1713 456.426 100.408C456.703 101.325 456.083 102.505 456.831 103.161C457.153 103.391 457.539 103.53 457.943 103.562C459.02 103.817 460.145 103.851 461.237 103.66C463.616 103.071 462.366 101.73 463.115 100.535C464.261 98.7085 464.063 99.8145 466.082 98.7674C467.574 97.9941 469.501 96.5914 468.256 94.6205C466.091 91.1932 453.2 93.5633 450.006 95.0356Z" fill="#164453"/>
<path d="M513.473 93.2342L511.624 93.4985C507.454 94.0946 503.26 94.6962 499.244 96.0376C500.982 96.7739 502.806 97.2533 504.666 97.4627C505.689 97.5164 506.706 97.6712 507.703 97.9251C509.477 98.4908 511.264 99.9516 512.978 99.2033C514.041 98.7393 514.388 97.5541 515.268 96.926C515.876 96.4922 518.181 95.7902 518.439 95.3525C520.523 91.8134 515.075 93.0053 513.473 93.2342Z" fill="#164453"/>
<path d="M520.963 101.12C518.463 102.496 516.143 104.168 514.056 106.098C513.176 106.912 512.278 107.924 512.358 109.109C512.464 110.684 514.169 111.598 515.646 112.213L521.63 114.706C522.355 113.699 521.691 112.31 520.941 111.32C520.191 110.331 519.299 109.186 519.631 107.996C520.009 106.637 521.692 106.174 523.104 105.94C525.404 105.558 531.608 105.589 530.863 101.941C529.984 97.6432 523.272 99.8505 520.963 101.12Z" fill="#164453"/>
<path d="M520.402 344.866C519.841 346.5 519.788 348.424 520.758 349.85C521.846 351.451 524.024 352.047 525.908 351.641C527.784 351.139 529.456 350.057 530.689 348.547C531.817 347.283 532.744 345.851 533.44 344.302C534.41 341.889 535.094 339.369 535.478 336.795L537.307 327.133C537.715 324.974 537.699 318.353 533.756 320.51C532.679 321.1 530.184 325.752 529.055 327.071C527.021 329.449 526.751 331.756 525.68 334.637C524.338 338.245 521.642 341.252 520.402 344.866Z" fill="#164453"/>
<path d="M727.932 393.88C726.599 393.401 725.306 392.835 724.062 392.186C722.815 395.339 722.152 398.662 722.101 402.017L731.218 397.273C732.59 396.559 734.145 395.567 734.115 394.118C734.128 393.939 734.087 393.76 733.999 393.6C733.91 393.441 733.776 393.306 733.611 393.21C733.408 393.136 733.188 393.112 732.972 393.141C731.62 393.245 730.387 393.857 729.112 394.282C727.836 394.708 726.345 394.933 725.175 394.301" fill="#164453"/>
<path d="M774.989 396.458C773.996 396.729 773.026 397.079 772.088 397.504C770.012 398.567 768.6 400.584 766.732 401.983C764.944 403.322 762.793 404.057 760.68 404.771C760.059 405.324 760.344 406.436 761.019 406.921C761.744 407.336 762.576 407.524 763.408 407.462C765.602 407.51 767.915 407.531 769.837 406.466C770.92 405.759 771.934 404.95 772.864 404.05C775.112 402.164 777.811 400.919 780.483 399.717C781.455 399.348 782.354 398.807 783.138 398.12C784.817 396.457 784.935 393.891 782.514 393.325C780.558 392.867 776.852 395.852 774.989 396.458Z" fill="#164453"/>
<path d="M795.358 382.95C795.463 381.835 795.317 380.71 794.931 379.66C794.546 378.61 793.93 377.663 793.132 376.891C793.108 379.122 793.042 381.5 791.807 383.346C790.927 384.661 789.548 385.549 788.584 386.801C787.62 388.054 787.192 390.039 788.323 391.138C789.045 391.697 789.925 392.006 790.834 392.017C793.084 392.287 795.689 392.437 797.268 390.784C798.129 389.882 798.548 388.546 799.599 387.882C799.99 387.715 800.34 387.461 800.622 387.138C801.056 386.437 800.366 385.513 799.59 385.26C798.814 385.008 797.959 385.127 797.179 384.887C796.399 384.647 795.684 383.755 796.084 383.034" fill="#164453"/>
<path d="M758.548 301.545C757.365 301.836 756.14 301.909 754.932 301.761C752.925 301.387 751.362 299.856 749.742 298.6C745.89 295.631 741.207 293.975 736.366 293.869C731.963 293.785 727.518 294.993 723.193 294.15C723.476 295.741 724.821 296.934 726.256 297.644C727.691 298.353 729.274 298.71 730.716 299.405C733.025 300.528 734.856 302.457 735.874 304.837C736.339 305.934 736.631 307.128 737.334 308.086C738.772 310.044 741.497 310.474 743.902 310.314C747.038 310.105 750.313 309.192 753.23 310.375C755.461 311.28 757.059 313.257 758.922 314.794C760.785 316.331 763.41 317.472 765.549 316.363C763.327 315.635 761.393 314.207 760.029 312.287C758.665 310.367 757.943 308.056 757.969 305.692C760.067 305.887 766.111 305.811 765.786 302.202C765.51 299.143 760.35 301.215 758.548 301.545Z" fill="#164453"/>
<path d="M730.758 326.249C731.135 324.167 733.192 322.329 732.551 320.314C732.108 318.921 730.507 318.233 729.057 318.198C727.607 318.164 726.182 318.6 724.732 318.641C723.788 318.59 722.842 318.604 721.9 318.681C719.022 319.159 717.248 322.202 714.536 323.285C712.887 323.943 711.034 323.817 709.319 324.272C705.425 325.305 702.961 329.017 700.239 332.01C695.842 336.824 690.112 340.195 683.794 341.686C681.58 342.203 679.2 342.534 677.44 343.985C675.11 345.906 674.536 349.199 674.018 352.19C672.586 360.45 670.397 368.557 667.479 376.409L676.724 377.6C678.482 377.826 680.304 378.048 681.997 377.522C683.228 377.054 684.394 376.427 685.466 375.658C689.583 373.079 694.192 371.401 698.993 370.732C701.414 370.397 703.952 370.335 706.224 371.243C708.496 372.151 710.446 374.21 710.636 376.668C711.619 376.36 712.666 376.327 713.666 376.572C714.665 376.817 715.58 377.332 716.313 378.061C717.761 379.55 718.709 381.459 719.023 383.52C719.267 384.796 719.51 386.325 720.684 386.861C721.641 387.297 722.74 386.827 723.787 386.742C727.342 386.455 730.292 390.637 733.785 389.917C737.532 389.145 738.452 383.483 742.108 382.349C744.207 381.698 747.152 382.49 748.157 380.519C749.044 378.783 747.276 376.778 747.458 374.834C747.682 372.439 750.482 371.423 752.64 370.401C760.08 366.879 763.611 356.776 760.005 349.324C757.869 344.909 753.666 341.434 752.89 336.584C752.293 332.852 753.751 328.501 751.393 325.564C750.193 324.069 748.162 323.245 747.448 321.462C746.999 320.339 747.179 319.066 746.938 317.881C746.696 316.695 745.671 315.455 744.51 315.762C741.142 316.654 740.067 327.152 738.264 329.703C735.523 333.58 729.895 331.026 730.758 326.249Z" fill="#164453"/>
<path d="M668.982 306.288C667.833 305.97 666.578 305.656 665.477 306.111C664.376 306.567 663.732 308.165 664.616 308.958C671.531 308.692 678.487 308.428 685.343 309.356C693.241 310.426 701.058 313.076 708.992 312.296C704.46 310.974 699.853 309.917 695.196 309.131L687.429 307.664C685.346 307.232 683.241 306.911 681.123 306.7C676.692 306.338 673.339 307.496 668.982 306.288Z" fill="#164453"/>
<path d="M675.371 281.377C674.782 281.329 674.052 281.288 673.747 281.778C673.456 282.246 673.789 282.864 673.633 283.388C673.418 284.105 672.447 284.288 671.682 284.19C670.916 284.093 670.089 283.859 669.411 284.216C669.067 284.442 668.808 284.771 668.674 285.152C668.54 285.533 668.537 285.945 668.666 286.328C668.943 287.087 669.392 287.778 669.979 288.35C670.982 289.57 672.124 290.678 673.385 291.65C675.825 293.39 679.131 294.229 680.668 296.755C680.885 297.244 681.218 297.678 681.641 298.02C682.378 298.471 683.341 298.128 684.135 297.777L686.919 296.548C687.421 296.373 687.869 296.079 688.221 295.693C688.857 294.859 688.467 293.673 687.933 292.775C687.399 291.876 686.715 290.947 686.83 289.917C687.034 288.08 689.478 287.378 690.483 285.807C691.496 284.223 690.837 282.182 690.953 280.324C691.09 278.15 692.504 275.323 690.229 273.699C688.296 272.319 686.449 273.595 685.061 275.118C682.135 278.331 680.751 281.811 675.371 281.377Z" fill="#164453"/>
<path d="M692.009 248.956C692.927 250.745 694.842 251.812 695.843 253.553C696.928 255.441 696.805 257.88 697.982 259.71C699.19 261.587 701.621 262.583 702.298 264.718C703.038 267.049 701.36 269.883 702.697 271.919C702.947 272.252 703.262 272.529 703.622 272.732C703.982 272.934 704.379 273.059 704.789 273.097C705.199 273.135 705.612 273.087 706.002 272.954C706.393 272.821 706.752 272.608 707.057 272.327C707.621 271.702 707.922 270.878 707.898 270.03C707.873 269.183 707.524 268.378 706.925 267.789C706.133 267.054 704.995 266.737 704.334 265.879C703.99 265.384 703.76 264.816 703.663 264.217C703.303 262.491 703.361 260.702 703.831 259.004C704.008 258.573 704.053 258.097 703.96 257.64C703.663 256.76 702.491 256.697 701.669 256.289C699.801 255.362 699.846 252.681 700.173 250.593C699.955 251.983 695.087 249.619 694.578 248.831C693.565 247.267 694.116 244.25 693.916 242.521C691.73 243.593 690.886 246.77 692.009 248.956Z" fill="#164453"/>
<path d="M642.481 275.891C641.568 274.848 640.192 273.758 638.968 274.386C638.034 274.866 637.777 276.184 638.143 277.183C638.589 278.153 639.276 278.988 640.135 279.605C642.686 281.751 645.433 283.687 647.659 286.182C651.641 290.646 653.751 296.669 658.083 300.781C658.953 301.735 660.106 302.371 661.365 302.593C662.627 302.713 664.044 301.889 664.189 300.605C664.308 299.547 663.585 298.6 662.879 297.816C661.196 295.95 659.354 294.232 657.766 292.281C657.032 291.532 656.571 290.55 656.459 289.497C656.451 288.447 657.39 287.348 658.387 287.608C657.174 287.292 656.274 285.23 654.493 284.843C653.005 284.519 652.645 285.459 650.874 284.684C647.496 283.206 644.846 278.592 642.481 275.891Z" fill="#164453"/>
<path d="M721.472 177.059C720.5 176.774 719.545 176.438 718.61 176.051C716.095 175.306 712.767 177.13 713.102 179.699C713.325 181.406 714.936 182.557 715.825 184.037C717.144 186.233 716.793 189.018 716.099 191.477C715.929 192.239 715.606 192.958 715.148 193.594C714.508 194.265 713.742 194.808 712.894 195.193C709.497 197.072 706.502 199.582 704.073 202.585C703.809 202.862 703.625 203.204 703.54 203.576C703.42 204.443 704.304 205.075 704.804 205.798C705.914 207.405 705.112 209.568 705.222 211.51C705.205 211.784 705.259 212.058 705.38 212.306C705.501 212.554 705.684 212.768 705.911 212.926C706.581 213.262 707.373 212.692 707.736 212.044C708.94 209.893 708.033 206.441 710.291 205.404C710.718 205.208 711.236 205.125 711.521 204.755C711.973 204.168 711.536 203.299 711.766 202.597C712.109 201.543 713.57 201.496 714.691 201.543C716.623 201.622 718.553 201.369 720.396 200.794C721.119 200.624 721.776 200.249 722.284 199.715C722.959 198.884 722.9 197.703 722.765 196.646C722.089 191.38 720.398 186.29 717.782 181.651C719.766 181.901 721.924 182.117 723.635 181.097C724.593 180.527 725.743 178.819 725.267 177.657C724.516 175.82 723.158 177.366 721.472 177.059Z" fill="#164453"/>
<path d="M469.629 206.126C469.864 207.39 470.095 208.721 469.682 209.938C469.269 211.156 467.969 212.173 466.742 211.8C465.789 211.51 465.239 210.55 464.563 209.818C460.801 205.746 452.315 208.104 449.991 203.066C449.042 201.01 449.687 198.547 449.04 196.377C448.632 195.123 447.82 194.04 446.732 193.298C445.643 192.557 444.34 192.199 443.027 192.281C441.829 192.454 440.663 192.803 439.566 193.317C432.219 196.267 424.506 198.201 416.639 199.066C415.144 199.158 413.665 199.427 412.234 199.87C409.004 201.044 406.797 204.047 405.226 207.111C403.655 210.175 402.496 213.492 400.39 216.215C398.177 219.076 395.075 221.079 392.182 223.246C391.068 223.966 390.14 224.942 389.475 226.092C388.848 227.383 388.883 228.884 388.932 230.319L389.523 247.751C389.599 249.993 389.694 252.315 390.695 254.321C391.945 256.827 394.414 258.468 396.127 260.681C397.874 262.956 398.785 265.766 398.704 268.636C398.667 269.79 398.553 271.155 399.449 271.88C399.995 272.234 400.633 272.418 401.282 272.408L424.799 274.338C428.936 274.678 433.52 275.236 436.221 278.396C437.496 279.887 438.52 282.032 440.472 282.192C441.309 282.261 442.124 281.916 442.962 281.85C445.075 281.682 446.932 283.29 448.103 285.061C449.876 287.761 450.681 290.985 450.386 294.205C450.194 296.225 449.569 298.19 449.434 300.215C448.922 307.922 455.437 314.617 455.563 322.34C455.638 326.882 453.487 331.126 451.39 335.154C454.774 340.294 452.003 347.139 453.351 353.148C454.629 358.849 459.37 363.312 460.551 369.034C461.092 371.654 461.123 374.878 463.427 376.227C464.438 376.721 465.558 376.946 466.681 376.88C473.453 376.961 480.147 375.433 486.217 372.421C489.066 371.003 492.018 368.887 492.515 365.738C492.917 363.198 491.632 360.357 492.939 358.145C494.48 355.538 498.427 355.744 500.694 353.74C504.372 350.488 501.504 344.285 502.994 339.601C504.333 335.391 508.944 333.154 511.229 329.375C512.129 327.749 512.774 325.996 513.143 324.174C514.19 319.821 514.842 315.381 515.09 310.91C515.151 308.193 515.351 305.482 515.689 302.786C518.153 287.436 533.287 277.158 538.201 262.412C538.67 261.004 538.89 259.128 537.641 258.331C536.9 257.977 536.059 257.889 535.261 258.082L524.421 259.452C523.074 259.622 521.647 259.781 520.41 259.221C519.174 258.66 518.287 257.091 518.943 255.9C520.785 252.556 516.997 248.33 515.315 244.903C510.783 235.676 505.387 226.901 499.199 218.697C498.802 218.275 498.554 217.735 498.492 217.159L501.569 217.262C500.53 213.525 498.816 209.436 495.196 208.069C493.155 207.299 490.896 207.565 488.719 207.685C482.484 208.026 475.8 207.082 469.629 206.126Z" fill="#164453"/>
<path d="M488.55 122.514C490.184 124.25 492.016 126.09 494.38 126.392C498.557 126.927 501.56 122.607 503.472 118.856C503.542 119.812 503.983 120.703 504.701 121.339C505.419 121.976 506.356 122.307 507.314 122.263C508.345 122.089 509.329 121.704 510.204 121.133C518.479 116.61 527.748 114.214 537.177 114.159C537.087 113.445 537.264 112.722 537.675 112.131C538.086 111.539 538.701 111.121 539.402 110.956C541.319 110.576 543.046 112.234 543.971 113.956C544.896 115.678 545.473 117.674 546.942 118.963C548.412 120.252 551.256 120.196 551.837 118.329C552.394 116.537 550.527 115.009 548.976 113.953C547.426 112.896 545.791 110.941 546.835 109.382C554.758 107.628 562.731 105.867 570.838 105.518C572.218 105.566 573.594 105.329 574.878 104.822C576.115 104.215 577.098 102.838 576.765 101.501C574.996 101.917 573.143 101.797 571.442 101.155C569.742 100.514 568.271 99.3804 567.217 97.8996C578.467 96.9712 590.432 96.1798 600.401 101.474C601.598 104.042 595.5 106.179 597.132 108.496C597.652 109.235 598.695 109.322 599.598 109.338C606.526 109.467 613.494 109.593 620.344 108.547C622.847 108.165 625.376 107.625 627.889 107.935C632.075 108.451 635.655 111.245 639.774 112.155C641.45 112.526 643.329 112.539 644.742 111.564C646.155 110.589 646.762 108.369 645.605 107.101C649.482 103.3 655.918 104.242 661.033 106.062C666.148 107.881 670.994 110.816 676.409 111.221C680.291 111.512 684.227 110.468 688.064 111.132C690.475 111.549 692.718 112.621 695.074 113.28C699.531 114.527 704.245 114.264 708.872 114.324C720.677 114.483 732.354 116.803 743.323 121.17C744.75 121.635 746.057 122.407 747.153 123.433C748.173 124.526 748.694 126.225 748.008 127.554L736.673 125.897C737.741 128 740.504 128.358 742.748 129.084C744.991 129.809 747.318 132.287 745.969 134.222C743.538 133.448 741.335 135.878 740.107 138.115C738.879 140.352 737.382 143.03 734.835 143.167C732.553 143.289 729.794 141.346 728.307 143.08C730.361 145.672 732.121 148.485 733.552 151.467C735.021 154.528 736.068 158.385 734.082 161.139C733.77 161.631 733.296 161.998 732.742 162.179C731.12 162.589 730.066 160.605 728.903 159.402C727.438 157.887 725.221 157.458 723.237 156.747C721.252 156.036 719.161 154.638 719.006 152.536C718.91 151.227 719.6 150.011 720.109 148.802C720.964 146.764 721.338 144.557 721.202 142.351C721.09 140.576 720.593 138.73 719.318 137.491C718.044 136.251 715.844 135.857 714.476 136.993C713.837 137.523 713.326 138.37 712.497 138.402C711.032 138.458 709.908 135.904 708.729 136.776C708.867 137.705 708.675 138.653 708.185 139.454C704.669 142.513 699.266 141.219 694.733 142.299C692.577 142.916 690.513 143.818 688.596 144.98C687.878 145.287 687.268 145.799 686.841 146.452C686.275 147.552 686.899 148.961 687.897 149.692C688.955 150.341 690.143 150.747 691.377 150.88C696.904 151.927 702.511 153.547 706.875 157.098C711.238 160.648 714.099 166.517 712.719 171.97L701.819 161.555C702.233 165.928 702.468 170.313 702.524 174.711C702.595 175.569 702.477 176.433 702.179 177.241C701.402 178.957 699.296 179.535 697.45 179.914C696.937 180.011 696.45 180.216 696.022 180.515C695.594 180.814 695.233 181.201 694.965 181.649C694.696 182.097 694.526 182.597 694.464 183.116C694.402 183.635 694.451 184.161 694.607 184.66C695.263 186.797 696.898 188.463 698.395 190.124C699.892 191.784 701.365 193.671 701.561 195.898C701.757 198.125 700.076 200.635 697.846 200.481C696.156 200.363 694.902 198.85 694.181 197.316C693.46 195.782 693.03 194.074 691.947 192.771C688.668 188.826 681.302 190.516 678.364 186.311C677.616 187.161 677.096 188.188 676.856 189.294C676.615 190.401 676.662 191.551 676.991 192.634C678.357 191.779 680.228 192.574 681.255 193.817C682.282 195.06 682.766 196.654 683.573 198.051C684.661 199.935 686.392 201.605 686.544 203.776C686.504 204.597 686.518 205.419 686.586 206.238C686.856 207.553 687.967 208.498 688.738 209.597C690.531 212.155 690.442 215.669 689.287 218.572C688.131 221.474 686.054 223.899 683.997 226.25C680.405 230.357 676.739 234.44 672.48 237.85C671.265 238.824 669.968 239.781 669.211 241.141C668.454 242.502 668.415 244.411 669.578 245.446C668.746 245.488 667.254 245.897 666.421 245.939C666.129 242.6 666.065 239.245 666.231 235.898C662.947 234.321 659.411 238.544 659.834 242.163C660.258 245.782 662.875 248.686 664.739 251.817C666.101 254.107 667.114 256.776 666.659 259.402C666.204 262.027 663.861 264.449 661.207 264.217C656.985 263.849 655.219 257.788 651.039 257.094C650.67 257.007 650.283 257.046 649.939 257.203C649.318 257.544 649.21 258.374 649.175 259.081C649.004 262.552 648.856 266.16 650.211 269.36C652.192 274.041 657.312 277.972 656.238 282.941C650.453 280.251 647.445 273.763 646.079 267.531C644.714 261.298 644.486 254.755 642.038 248.863C640.179 251.246 636.272 249.276 634.573 246.777C632.963 244.407 631.972 241.665 630.409 239.263C628.847 236.862 626.454 234.711 623.592 234.579C620.591 234.44 617.989 236.5 615.7 238.445C613.818 240.045 611.886 241.708 610.786 243.92C609.185 247.139 609.604 250.933 609.527 254.527C609.443 258.412 608.62 262.512 605.972 265.356C603.325 268.201 598.437 269.191 595.517 266.628C593.992 265.289 593.254 263.29 592.596 261.371C589.426 252.119 586.786 242.694 584.689 233.141C584.199 235.321 582.284 238.131 580.456 236.847C580.045 236.502 579.713 236.074 579.48 235.59C576.069 229.808 569.752 226.34 563.369 224.261C556.986 222.181 550.271 221.211 543.959 218.926C540.422 217.644 537.043 215.961 533.89 213.91C533.086 215.091 532.617 216.467 532.532 217.894C532.446 219.32 532.748 220.742 533.406 222.011C534.806 224.49 537.975 225.925 540.687 225.058C542.088 224.61 543.272 223.637 544.662 223.157C546.053 222.676 547.92 222.912 548.528 224.252C549.11 225.535 548.23 227.086 548.666 228.425C549.331 230.465 552.407 230.622 553.483 232.478C554.283 233.859 553.624 235.693 552.482 236.807C551.339 237.921 549.815 238.532 548.42 239.308C543.894 241.825 540.676 246.121 536.721 249.464C532.766 252.807 527.185 255.247 522.472 253.103C523.595 247.413 516.818 243.236 515.571 237.572C515.161 235.707 515.374 233.727 514.788 231.91C513.94 229.279 511.606 227.471 509.692 225.477C507.37 223.033 505.561 220.149 504.372 216.994C503.183 213.84 502.637 210.479 502.768 207.11C502.871 204.769 503.301 202.39 502.768 200.108C502.235 197.827 500.346 195.618 498.005 195.722C492.659 195.958 485.924 196.355 483.119 191.798C482.118 190.171 481.682 187.788 483.13 186.542C484.151 185.663 485.658 185.746 486.999 185.878L499.044 187.063C501.862 187.34 504.907 187.569 507.325 186.096C509.742 184.623 510.79 180.713 508.551 178.98C506.916 177.713 503.985 177.782 503.51 175.769C503.114 174.092 504.97 172.19 503.967 170.788C503.249 169.784 501.633 170.062 500.654 170.815C499.675 171.569 498.964 172.67 497.869 173.24C495.947 174.241 493.65 173.289 491.582 172.642C489.514 171.995 486.742 171.94 485.739 173.861C484.617 176.009 486.734 178.824 485.62 180.976C484.148 183.822 479.164 182.202 477.097 184.65C474.725 187.46 478.711 191.648 477.911 195.237C476.89 195.743 475.755 195.975 474.617 195.911C473.479 195.847 472.377 195.489 471.419 194.872C470.476 194.231 469.725 193.347 469.245 192.313C468.766 191.279 468.575 190.134 468.694 189C468.892 187.386 469.733 185.738 469.169 184.212C468.714 182.979 467.475 182.245 466.324 181.609L454.619 175.14C453.532 177.156 454.906 179.655 456.624 181.17C458.342 182.684 460.495 183.825 461.624 185.818C462.338 187.199 462.498 188.8 462.071 190.295C461.644 191.79 460.663 193.066 459.328 193.861C459.161 193.977 458.97 194.055 458.77 194.09C458.57 194.125 458.364 194.116 458.168 194.064C457.981 193.954 457.818 193.808 457.689 193.634C457.56 193.46 457.466 193.262 457.415 193.052C455.35 187.766 452.249 182.554 447.291 179.793C442.334 177.032 435.21 177.599 431.959 182.251C431.187 183.356 430.668 184.615 429.996 185.783C426.422 191.989 418.76 194.928 411.602 194.736C410.902 194.774 410.205 194.611 409.595 194.264C408.438 193.465 408.491 191.769 408.668 190.375L409.419 184.455C409.57 183.266 409.789 181.952 410.729 181.21C412.055 180.164 413.968 180.824 415.657 180.8C416.937 180.74 418.167 180.288 419.181 179.505C420.195 178.723 420.944 177.647 421.326 176.425C421.667 175.19 421.665 173.886 421.32 172.652C420.974 171.419 420.299 170.303 419.366 169.425C418.592 168.698 417.553 167.784 417.962 166.804C418.125 166.533 418.346 166.301 418.608 166.124C418.871 165.948 419.169 165.83 419.481 165.781C422.515 164.9 425.72 164.669 428.703 163.63C431.686 162.59 434.579 160.463 435.285 157.384C435.502 156.441 435.6 155.298 436.448 154.83C436.873 154.65 437.33 154.557 437.791 154.555C439.408 154.325 440.881 153.498 441.919 152.237C442.957 150.975 443.485 149.371 443.399 147.739C444.829 146.74 446.831 147.475 448.214 148.538C449.597 149.6 450.818 151.004 452.501 151.462C455.637 152.316 458.668 149.539 461.918 149.526C463.285 149.521 464.7 150.004 465.985 149.54C467.289 149.071 468.067 147.773 469.068 146.814C470.068 145.856 471.824 145.271 472.747 146.304L471.961 140.476C473.545 140.876 475.196 140.933 476.804 140.642C478.412 140.352 479.939 139.72 481.283 138.791L471.116 135.355C470.762 135.267 470.436 135.092 470.166 134.847C469.427 134.051 470.161 132.81 470.762 131.905C472.2 129.741 472.441 126.175 470.076 125.097C468.463 124.362 466.61 125.245 465.061 126.109L457.64 130.247C457.404 131.657 459.129 132.457 460.198 133.407C460.845 133.982 461.303 134.739 461.511 135.579C461.72 136.418 461.669 137.302 461.367 138.112C461.064 138.923 460.524 139.623 459.816 140.121C459.108 140.619 458.267 140.891 457.401 140.901C457.89 141.537 458.23 142.274 458.395 143.058C458.56 143.843 458.547 144.654 458.356 145.433L453.363 145.792C452.803 145.904 452.221 145.791 451.744 145.476C451.21 145.001 451.282 144.17 451.158 143.467C450.86 141.769 449.197 140.579 447.501 140.274C445.804 139.969 444.069 140.36 442.389 140.746C441.675 141.003 440.892 140.985 440.191 140.695C439.79 140.434 439.484 140.049 439.322 139.598C438.586 137.812 439.274 135.713 440.457 134.185C441.64 132.658 443.259 131.542 444.713 130.27C448.191 127.218 450.746 123.255 452.09 118.827C454.839 117.675 457.684 116.111 460.433 114.959C464.67 112.813 469.422 111.892 474.154 112.3L483.462 112.478C486.218 112.531 489.048 112.598 491.596 113.649C494.145 114.699 496.384 116.972 496.56 119.723C496.613 120.034 496.586 120.354 496.481 120.652C496.377 120.95 496.199 121.217 495.963 121.428C495.603 121.624 495.195 121.716 494.786 121.693C492.216 121.783 491.12 122.424 488.55 122.514Z" fill="#164453"/>
<path d="M414.608 151.59C414.993 151.253 415.27 150.824 415.409 150.351C415.548 149.877 415.543 149.378 415.395 148.907C414.458 148.572 413.439 148.487 412.452 148.659C411.466 148.831 410.551 149.255 409.811 149.883C409.227 150.429 408.724 151.044 408.315 151.713C407.02 153.667 405.875 156.002 406.625 158.186C406.686 158.424 406.798 158.649 406.955 158.847C407.111 159.044 407.308 159.211 407.535 159.337C407.871 159.462 408.234 159.515 408.595 159.491C410.021 159.489 411.446 159.408 412.862 159.248C413.731 159.15 414.741 158.923 415.077 158.174C415.518 157.19 414.45 156.077 414.761 155.051C414.966 154.593 415.277 154.181 415.672 153.845C415.867 153.676 416.018 153.467 416.111 153.234C416.204 153.002 416.238 152.752 416.208 152.506C416.083 152.025 415.286 151.752 415 152.17" fill="#164453"/>
<path d="M421.219 142.306C420.038 142.029 418.82 141.951 417.614 142.075C417.347 142.067 417.083 142.128 416.846 142.253C416.616 142.427 416.449 142.674 416.372 142.955C416.118 143.791 416.18 144.695 416.548 145.487C416.915 146.278 417.561 146.899 418.355 147.225C418.788 147.327 419.203 147.498 419.585 147.731C420.604 148.54 419.954 150.195 420.147 151.5C420.364 152.966 421.751 154.197 421.497 155.657C421.296 156.807 420.096 157.717 420.289 158.869C420.492 160.074 421.987 160.437 423.179 160.533C423.87 160.657 424.581 160.574 425.227 160.293C425.874 159.84 426.334 159.159 426.518 158.379C427.006 156.893 427.211 155.325 427.122 153.759C427.117 153.047 426.942 152.347 426.613 151.72C426.254 151.223 425.856 150.757 425.424 150.326C423.14 147.608 425.544 143.554 421.219 142.306Z" fill="#164453"/>
<path opacity="0.8" d="M714.454 352.858C714.454 352.858 545.466 255.995 472.714 274.348C472.714 274.348 318.531 290.916 300.662 327.367C300.662 327.367 251.651 174.426 233.782 169.328" stroke="#F0E967" stroke-width="2" stroke-miterlimit="10"/>
<path opacity="0.8" d="M301.755 327.356C330.09 251.875 585.359 168.234 585.359 168.234C549.111 177.414 473.806 274.315 473.806 274.315C473.806 274.315 314.518 158.544 234.874 169.254C234.874 169.254 585.614 180.729 715.546 352.856" stroke="#F0E967" stroke-width="2" stroke-miterlimit="10"/>
<path d="M234.328 176.976C238.25 176.976 241.429 173.552 241.429 169.329C241.429 165.105 238.25 161.682 234.328 161.682C230.406 161.682 227.227 165.105 227.227 169.329C227.227 173.552 230.406 176.976 234.328 176.976Z" fill="#F0E967"/>
<path d="M300.967 335.378C304.888 335.378 308.067 331.954 308.067 327.731C308.067 323.508 304.888 320.084 300.967 320.084C297.045 320.084 293.866 323.508 293.866 327.731C293.866 331.954 297.045 335.378 300.967 335.378Z" fill="#F0E967"/>
<path d="M589.916 176.976C594.139 176.976 597.563 173.552 597.563 169.329C597.563 165.105 594.139 161.682 589.916 161.682C585.693 161.682 582.269 165.105 582.269 169.329C582.269 173.552 585.693 176.976 589.916 176.976Z" fill="#F0E967"/>
<path d="M714.454 360.505C718.677 360.505 722.101 357.081 722.101 352.858C722.101 348.635 718.677 345.211 714.454 345.211C710.23 345.211 706.807 348.635 706.807 352.858C706.807 357.081 710.23 360.505 714.454 360.505Z" fill="#F0E967"/>
<path d="M475.21 287.312C479.433 287.312 482.857 283.888 482.857 279.665C482.857 275.441 479.433 272.018 475.21 272.018C470.987 272.018 467.563 275.441 467.563 279.665C467.563 283.888 470.987 287.312 475.21 287.312Z" fill="#F0E967"/>
</g>
<path d="M428.192 519.5H446.392V533.8C446.392 535.133 445.959 536.3 445.092 537.3C444.226 538.233 442.959 538.7 441.292 538.7H428.192V574H406.592V538.7H345.592C343.926 538.7 342.459 538.2 341.192 537.2C339.926 536.133 339.126 534.833 338.792 533.3L336.292 520.8L404.792 429.3H428.192V519.5ZM406.592 472.2C406.592 470.067 406.659 467.767 406.792 465.3C406.926 462.833 407.159 460.267 407.492 457.6L362.592 519.5H406.592V472.2Z" fill="#164453"/>
<path d="M593.492 501.7C593.492 514.3 592.126 525.267 589.392 534.6C586.726 543.867 582.992 551.533 578.192 557.6C573.459 563.667 567.826 568.2 561.292 571.2C554.826 574.133 547.826 575.6 540.292 575.6C532.759 575.6 525.759 574.133 519.292 571.2C512.892 568.2 507.326 563.667 502.592 557.6C497.859 551.533 494.159 543.867 491.492 534.6C488.826 525.267 487.492 514.3 487.492 501.7C487.492 489.033 488.826 478.067 491.492 468.8C494.159 459.533 497.859 451.867 502.592 445.8C507.326 439.733 512.892 435.233 519.292 432.3C525.759 429.3 532.759 427.8 540.292 427.8C547.826 427.8 554.826 429.3 561.292 432.3C567.826 435.233 573.459 439.733 578.192 445.8C582.992 451.867 586.726 459.533 589.392 468.8C592.126 478.067 593.492 489.033 593.492 501.7ZM567.992 501.7C567.992 491.233 567.226 482.567 565.692 475.7C564.159 468.833 562.092 463.367 559.492 459.3C556.959 455.233 554.026 452.4 550.692 450.8C547.359 449.133 543.892 448.3 540.292 448.3C536.759 448.3 533.326 449.133 529.992 450.8C526.726 452.4 523.826 455.233 521.292 459.3C518.759 463.367 516.726 468.833 515.192 475.7C513.726 482.567 512.992 491.233 512.992 501.7C512.992 512.167 513.726 520.833 515.192 527.7C516.726 534.567 518.759 540.033 521.292 544.1C523.826 548.167 526.726 551.033 529.992 552.7C533.326 554.3 536.759 555.1 540.292 555.1C543.892 555.1 547.359 554.3 550.692 552.7C554.026 551.033 556.959 548.167 559.492 544.1C562.092 540.033 564.159 534.567 565.692 527.7C567.226 520.833 567.992 512.167 567.992 501.7Z" fill="#164453"/>
<path d="M724.192 519.5H742.392V533.8C742.392 535.133 741.959 536.3 741.092 537.3C740.226 538.233 738.959 538.7 737.292 538.7H724.192V574H702.592V538.7H641.592C639.926 538.7 638.459 538.2 637.192 537.2C635.926 536.133 635.126 534.833 634.792 533.3L632.292 520.8L700.792 429.3H724.192V519.5ZM702.592 472.2C702.592 470.067 702.659 467.767 702.792 465.3C702.926 462.833 703.159 460.267 703.492 457.6L658.592 519.5H702.592V472.2Z" fill="#164453"/>
<defs>
<clipPath id="clip0_1248_3621">
<rect width="875.042" height="650" fill="white"/>
</clipPath>
</defs>
</svg>
