<svg width="302" height="220" viewBox="0 0 302 220" fill="none" xmlns="http://www.w3.org/2000/svg">
<path d="M271.674 77.3837H271.354C267.875 77.3798 264.539 75.9972 262.078 73.5394C259.618 71.0816 258.234 67.7492 258.23 64.2732V59.7965H219.179V59.157H258.87V64.2732C258.874 67.5242 260.147 70.6455 262.419 72.9736C264.69 75.3017 267.781 76.6529 271.034 76.7401V59.157H280.316C281.589 59.1555 282.81 58.6497 283.71 57.7505C284.61 56.8513 285.116 55.6321 285.118 54.3605V5.43605C285.116 4.16437 284.61 2.9452 283.71 2.04599C282.81 1.14678 281.589 0.640974 280.316 0.639535H158.042C156.769 0.640974 155.548 1.14678 154.648 2.04599C153.748 2.9452 153.242 4.16437 153.24 5.43605V40.9302H152.6V5.43605C152.602 3.99482 153.176 2.61308 154.196 1.59397C155.216 0.574868 156.599 0.00162246 158.042 0H280.316C281.759 0.00162246 283.142 0.574868 284.162 1.59397C285.183 2.61308 285.756 3.99482 285.758 5.43605V54.3605C285.756 55.8017 285.183 57.1834 284.162 58.2025C283.142 59.2216 281.759 59.7949 280.316 59.7965H271.674V77.3837Z" fill="#CCCCCC"/>
<path d="M260.144 16.1514C260.104 15.1198 259.665 14.1437 258.921 13.4278C258.176 12.7118 257.183 12.3116 256.149 12.311H182.208C181.147 12.311 180.129 12.7322 179.379 13.4818C178.629 14.2314 178.207 15.248 178.207 16.3081C178.207 17.3682 178.629 18.3849 179.379 19.1345C180.129 19.8841 181.147 20.3052 182.208 20.3052H256.149C257.21 20.3038 258.227 19.8822 258.977 19.1329C259.727 18.3836 260.149 17.3678 260.15 16.3081C260.151 16.2558 260.149 16.2035 260.144 16.1514Z" fill="#CCCCCC"/>
<path d="M260.144 29.5816C260.104 28.5499 259.665 27.5739 258.921 26.8579C258.176 26.142 257.183 25.7418 256.149 25.7412H182.208C181.147 25.7412 180.129 26.1623 179.379 26.9119C178.629 27.6615 178.207 28.6782 178.207 29.7383C178.207 30.7984 178.629 31.8151 179.379 32.5647C180.129 33.3143 181.147 33.7354 182.208 33.7354H256.149C257.21 33.7339 258.227 33.3123 258.977 32.5631C259.727 31.8138 260.149 30.798 260.15 29.7383C260.151 29.686 260.149 29.6337 260.144 29.5816Z" fill="#CCCCCC"/>
<path d="M260.144 43.0118C260.104 41.9801 259.665 41.004 258.921 40.2881C258.176 39.5722 257.183 39.172 256.149 39.1714H182.208C181.622 39.1714 181.043 39.3003 180.512 39.549C179.98 39.7977 179.511 40.16 179.135 40.6103C178.971 40.8096 178.825 41.0237 178.7 41.2499H214.057C215.33 41.2514 216.551 41.7573 217.451 42.6564C218.351 43.5556 218.857 44.7747 218.859 46.0464V47.1656H256.149C257.21 47.1641 258.227 46.7425 258.977 45.9932C259.727 45.2439 260.149 44.2281 260.151 43.1685C260.152 43.1162 260.149 43.0638 260.144 43.0118Z" fill="#CCCCCC"/>
<path d="M213.737 41.25H91.4625C90.02 41.252 88.6371 41.8254 87.617 42.8444C86.597 43.8634 86.023 45.2449 86.021 46.686V95.6105C86.023 97.0516 86.597 98.4331 87.617 99.4521C88.6371 100.471 90.02 101.044 91.4625 101.047H100.105V118.634H100.425C103.905 118.63 107.241 117.248 109.701 114.79C112.161 112.332 113.545 108.999 113.549 105.523V101.047H213.737C215.18 101.044 216.563 100.471 217.583 99.4521C218.603 98.4331 219.177 97.0516 219.179 95.6105V46.686C219.177 45.2449 218.603 43.8635 217.583 42.8444C216.563 41.8254 215.18 41.252 213.737 41.25ZM218.539 95.6105C218.537 96.8821 218.031 98.1012 217.131 99.0004C216.231 99.8996 215.01 100.405 213.737 100.407H112.909V105.523C112.904 108.774 111.631 111.895 109.36 114.223C107.089 116.551 103.998 117.903 100.745 117.991V100.407H91.4625C90.1896 100.405 88.9693 99.8996 88.0692 99.0004C87.1691 98.1012 86.6627 96.8821 86.6612 95.6105V46.686C86.6627 45.4144 87.1691 44.1953 88.0692 43.2961C88.9693 42.3969 90.1896 41.8911 91.4625 41.8895H213.737C215.01 41.8911 216.231 42.3969 217.131 43.2961C218.031 44.1953 218.537 45.4144 218.539 46.686V95.6105Z" fill="#1B1B18"/>
<path d="M189.57 53.561H115.629C114.596 53.5616 113.603 53.9618 112.858 54.6778C112.113 55.3937 111.675 56.3698 111.635 57.4014C111.629 57.4535 111.627 57.5058 111.628 57.5581C111.63 58.6178 112.052 59.6336 112.802 60.3829C113.552 61.1321 114.569 61.5537 115.629 61.5552H189.57C190.632 61.5552 191.649 61.1341 192.4 60.3845C193.15 59.6349 193.572 58.6182 193.572 57.5581C193.572 56.498 193.15 55.4814 192.4 54.7318C191.649 53.9822 190.632 53.561 189.57 53.561Z" fill="#164453"/>
<path d="M189.57 66.9912H115.629C114.596 66.9918 113.603 67.392 112.858 68.1079C112.113 68.8239 111.675 69.7999 111.635 70.8316C111.629 70.8837 111.627 70.936 111.628 70.9883C111.63 72.0479 112.052 73.0637 112.802 73.813C113.552 74.5623 114.569 74.9839 115.629 74.9854H189.57C190.632 74.9854 191.649 74.5643 192.4 73.8147C193.15 73.0651 193.572 72.0484 193.572 70.9883C193.572 69.9282 193.15 68.9115 192.4 68.1619C191.649 67.4123 190.632 66.9912 189.57 66.9912Z" fill="#164453"/>
<path d="M189.57 80.4214H115.629C114.596 80.422 113.603 80.8222 112.858 81.5381C112.113 82.254 111.675 83.2301 111.635 84.2618C111.629 84.3138 111.627 84.3662 111.628 84.4185C111.63 85.4781 112.052 86.4939 112.802 87.2432C113.552 87.9925 114.569 88.4141 115.629 88.4156H189.57C190.632 88.4156 191.649 87.9944 192.4 87.2448C193.15 86.4952 193.572 85.4786 193.572 84.4185C193.572 83.3584 193.15 82.3417 192.4 81.5921C191.649 80.8425 190.632 80.4214 189.57 80.4214Z" fill="#164453"/>
<path d="M71.9326 151.16C71.7884 151.16 71.6445 151.151 71.5015 151.133C71.009 151.073 70.5348 150.909 70.11 150.653C69.6852 150.397 69.3194 150.054 69.0365 149.647C68.7536 149.24 68.5601 148.777 68.4686 148.29C68.3771 147.803 68.3897 147.302 68.5055 146.82C68.5329 146.708 68.5661 146.597 68.6049 146.489L57.9251 132.83C57.455 132.224 57.1929 131.483 57.1779 130.716C57.1629 129.95 57.3957 129.199 57.8418 128.575L61.5827 123.384L66.4722 127.153L64.5079 130.524L72.287 144.145C72.4434 144.16 72.5986 144.185 72.7515 144.221C73.5896 144.422 74.3248 144.923 74.8178 145.63C75.3107 146.336 75.5272 147.199 75.4263 148.054C75.3254 148.909 74.914 149.698 74.2701 150.27C73.6262 150.843 72.7945 151.159 71.9325 151.16L71.9326 151.16Z" fill="#A0616A"/>
<path d="M90.4152 215.881L94.3395 215.88L96.2063 200.759L90.4146 200.76L90.4152 215.881Z" fill="#A0616A"/>
<path d="M101.908 219.521L89.5744 219.521L89.5742 214.761L97.1424 214.76C97.7681 214.76 98.3878 214.883 98.9659 215.123C99.5441 215.362 100.069 215.713 100.512 216.155C100.954 216.597 101.305 217.121 101.545 217.699C101.784 218.276 101.908 218.895 101.908 219.521Z" fill="#2F2E41"/>
<path d="M58.0861 215.881L62.0104 215.88L63.8772 200.759L58.0854 200.76L58.0861 215.881Z" fill="#A0616A"/>
<path d="M69.5786 219.521L57.2453 219.521L57.245 214.761L64.8132 214.76C65.439 214.76 66.0587 214.883 66.6368 215.123C67.2149 215.362 67.7403 215.713 68.1828 216.155C68.6253 216.597 68.9763 217.121 69.2158 217.699C69.4553 218.276 69.5786 218.895 69.5786 219.521Z" fill="#2F2E41"/>
<path d="M60.4946 124.121L69.305 127.465L71.456 121.496C71.7417 120.704 71.7376 119.836 71.4446 119.046C71.1517 118.256 70.5886 117.595 69.8549 117.18C69.1128 116.759 68.2447 116.618 67.4075 116.782C66.5703 116.945 65.8191 117.402 65.2896 118.07L60.4946 124.121Z" fill="#164453"/>
<path d="M89.7174 203.674C89.3656 203.674 89.0239 203.557 88.7462 203.341C88.4685 203.125 88.2705 202.823 88.1834 202.483C83.7899 185.692 79.329 177.275 74.5454 167.543C74.4258 167.301 74.2318 167.102 73.9917 166.977C73.7516 166.852 73.4778 166.807 73.2102 166.849C72.9426 166.89 72.6951 167.015 72.5038 167.207C72.3125 167.398 72.1873 167.645 72.1465 167.913L66.2171 202.144C66.1579 202.525 65.9618 202.873 65.6653 203.121C65.3688 203.369 64.9921 203.501 64.6054 203.492L55.8024 203.278C55.5888 203.274 55.3784 203.226 55.1837 203.138C54.9891 203.05 54.8144 202.924 54.6701 202.766C54.5177 202.615 54.4011 202.432 54.3289 202.23C54.2566 202.029 54.2306 201.813 54.2528 201.6C58.2398 175.333 61.379 151.556 67.4159 144.303C67.5832 144.144 67.7751 144.014 67.984 143.917L67.8008 143.889C67.7485 143.88 67.609 143.859 67.6073 143.719L67.6056 143.584L67.7433 143.558C67.9632 143.55 68.1825 143.583 68.3904 143.655L82.1685 145.773C82.5502 145.832 82.8974 146.027 83.1456 146.323C83.3938 146.619 83.5259 146.994 83.5173 147.38C84.2664 150.88 85.4143 156.164 85.517 156.424C92.8681 170.386 95.7206 181.38 98.6855 200.153C98.7469 200.552 98.6552 200.958 98.4289 201.291C98.2025 201.625 97.8583 201.86 97.4654 201.95L90.0762 203.634C89.9585 203.661 89.8382 203.674 89.7174 203.674Z" fill="#2F2E41"/>
<path d="M81.9853 148.063C81.8616 148.063 81.7384 148.048 81.6181 148.019L68.0532 144.796C67.8453 144.747 67.6495 144.657 67.478 144.53C67.3065 144.403 67.1628 144.242 67.0559 144.058C66.9455 143.867 66.875 143.655 66.8484 143.436C66.8217 143.218 66.8396 142.996 66.901 142.784C68.3637 137.718 66.4457 131.437 64.155 125.406C63.8637 123.642 64.1491 121.831 64.9689 120.242C65.7887 118.653 67.0994 117.37 68.7065 116.584L68.7434 116.566L75.8652 116.925C77.0347 117.231 78.1194 117.799 79.0378 118.584C79.9563 119.369 80.6847 120.352 81.1682 121.459C83.9132 127.877 84.6992 136.113 83.5707 146.636C83.5292 147.027 83.3444 147.39 83.0517 147.653C82.759 147.916 82.3792 148.062 81.9853 148.063L81.9853 148.063Z" fill="#164453"/>
<path d="M83.8105 133.412C83.0864 133.414 82.38 133.189 81.7896 132.77L76.5356 129.029L80.2842 124.127L83.6681 126.073L97.2661 118.236C97.2797 118.08 97.3042 117.925 97.3394 117.772C97.4988 117.095 97.8556 116.48 98.3647 116.005C98.8738 115.531 99.5124 115.218 100.2 115.106C100.887 114.993 101.592 115.087 102.226 115.376C102.86 115.664 103.394 116.134 103.76 116.725C104.127 117.316 104.31 118.003 104.286 118.698C104.262 119.394 104.032 120.066 103.625 120.631C103.219 121.196 102.653 121.627 102.001 121.871C101.349 122.115 100.639 122.16 99.9612 122.001C99.8491 121.974 99.7384 121.942 99.6296 121.903L85.9699 132.669C85.3542 133.152 84.5935 133.414 83.8105 133.412Z" fill="#A0616A"/>
<path d="M74.8685 130.556L82.6623 125.262L78.9996 120.079C78.5132 119.391 77.799 118.897 76.9831 118.684C76.1673 118.471 75.3023 118.553 74.5411 118.915C73.7711 119.282 73.1577 119.912 72.8117 120.691C72.4657 121.469 72.4099 122.346 72.6544 123.163L74.8685 130.556Z" fill="#164453"/>
<path d="M71.1206 113.908C75.4625 113.908 78.9823 110.392 78.9823 106.054C78.9823 101.717 75.4625 98.2007 71.1206 98.2007C66.7786 98.2007 63.2588 101.717 63.2588 106.054C63.2588 110.392 66.7786 113.908 71.1206 113.908Z" fill="#A0616A"/>
<path d="M71.8406 114.09C70.6607 114.085 69.7504 112.844 69.8033 111.666C69.8562 110.489 70.6479 109.453 71.6018 108.759C72.5556 108.065 73.6743 107.642 74.738 107.132C75.8017 106.622 76.8562 105.985 77.513 105.006C77.9097 104.365 78.1466 103.638 78.2036 102.887C78.2606 102.135 78.1361 101.381 77.8405 100.688C77.2293 99.3009 76.1799 98.1525 74.853 97.4183C72.882 96.2657 70.5487 95.8972 68.3178 96.3861C66.087 96.875 64.1224 98.1855 62.8154 100.057L61.4684 103.72C60.0959 105.369 59.8782 107.818 60.7219 109.789C61.5656 111.761 63.362 113.245 65.3892 113.95C67.4459 114.61 69.6475 114.676 71.7401 114.14" fill="#2F2E41"/>
<path d="M63.346 102.331C62.8074 101.501 62.0728 100.817 61.2069 100.338C60.341 99.8585 59.3704 99.5997 58.3807 99.5838C57.391 99.5679 56.4126 99.7955 55.5317 100.247C54.6509 100.698 53.8947 101.358 53.3297 102.17C52.384 103.529 52.0405 105.205 51.3903 106.727C50.2125 109.454 48.0705 111.651 45.3735 112.9C47.735 113.314 50.0875 112.114 51.9754 110.638C53.8633 109.161 55.5236 107.359 57.638 106.229C59.3013 105.344 61.1699 104.915 63.0532 104.987" fill="#2F2E41"/>
<path d="M129.519 220H7.56472C7.47983 220 7.39841 219.966 7.33838 219.906C7.27835 219.846 7.24463 219.765 7.24463 219.68C7.24463 219.595 7.27835 219.514 7.33838 219.454C7.39841 219.394 7.47983 219.36 7.56472 219.36H129.519C129.604 219.36 129.686 219.394 129.746 219.454C129.806 219.514 129.84 219.595 129.84 219.68C129.84 219.765 129.806 219.846 129.746 219.906C129.686 219.966 129.604 220 129.519 220Z" fill="#1B1B18"/>
</svg>
