<svg width="673" height="503" viewBox="0 0 673 503" fill="none" xmlns="http://www.w3.org/2000/svg">
<path d="M340.936 125.633C334.936 115.706 327.825 105.107 316.689 101.865C303.793 98.1113 290.545 105.569 279.308 112.927C245.703 134.935 213.341 158.785 182.369 184.369L182.403 184.754C206.515 183.091 230.628 181.428 254.74 179.764C272.162 178.563 290.181 177.195 305.577 168.952C311.419 165.824 317.114 161.645 323.734 161.354C331.959 160.992 339.13 166.738 344.766 172.741C378.103 208.25 387.751 262.551 425.152 293.749C401.568 235.571 373.408 179.357 340.936 125.633V125.633Z" fill="#F0F0EE"/>
<path d="M545.857 426.813C542.171 422.157 540.664 421.066 537.028 416.367C507.418 378.061 479.587 338.462 453.536 297.569C435.84 269.796 419.022 241.489 403.082 212.65C395.493 198.939 388.112 185.121 380.939 171.195C375.373 160.397 369.931 149.534 364.614 138.607C363.093 135.486 361.615 132.351 360.145 129.208C356.681 121.819 353.28 114.393 349.63 107.103C345.469 98.7952 340.405 90.0851 332.766 84.5032C329.289 81.8587 325.132 80.2586 320.78 79.8899C314.561 79.4882 308.823 82.0567 303.429 84.862C263.964 105.446 227.017 131.253 193.598 160.619C160.094 190.051 130.147 223.302 104.368 259.694C103.579 260.82 101.714 259.744 102.51 258.611C105.645 254.177 108.841 249.791 112.1 245.452C152.622 191.546 202.307 145.19 258.885 108.502C268.404 102.332 278.102 96.4514 287.979 90.8599C292.957 88.0403 297.956 85.2565 303.042 82.645C308.027 80.0836 313.32 77.7806 319.016 77.6945C338.397 77.3932 348.432 99.3476 355.325 114.12C357.491 118.769 359.683 123.404 361.902 128.025C370.287 145.567 378.995 162.948 388.026 180.17C393.599 190.803 399.294 201.374 405.112 211.882C423.216 244.606 442.458 276.667 462.839 308.065C489.838 349.657 516.621 386.398 547.378 425.292C548.225 426.368 546.711 427.904 545.857 426.813Z" fill="#E4E4E4"/>
<path d="M191.683 149.779C190.557 148.523 189.438 147.267 188.305 146.012C179.367 136.125 169.777 126.353 157.504 120.685C151.653 117.897 145.264 116.416 138.783 116.345C132.084 116.366 125.535 118.124 119.345 120.585C116.418 121.754 113.556 123.082 110.738 124.495C107.517 126.117 104.353 127.846 101.205 129.589C95.2942 132.861 89.4603 136.276 83.7031 139.834C72.2479 146.916 61.1514 154.538 50.4137 162.7C44.8474 166.933 39.3959 171.305 34.0594 175.815C29.0958 180.005 24.2326 184.308 19.4699 188.723C18.4514 189.662 16.9307 188.141 17.9491 187.202C19.2044 186.032 20.474 184.87 21.7436 183.722C25.3301 180.479 28.9739 177.298 32.6752 174.18C39.4247 168.483 46.3489 163.006 53.4478 157.75C64.4869 149.571 75.9061 141.946 87.7052 134.877C93.6015 131.347 99.5789 127.965 105.637 124.732C107.467 123.756 109.317 122.802 111.189 121.898C115.437 119.755 119.851 117.958 124.387 116.524C130.814 114.445 137.613 113.777 144.321 114.565C150.798 115.508 157.038 117.667 162.712 120.929C174.762 127.666 184.108 138.084 193.204 148.25C194.122 149.284 192.608 150.812 191.683 149.779Z" fill="#E4E4E4"/>
<path d="M438.59 252.23L467.466 241.666L481.802 236.421C486.472 234.713 491.13 232.768 495.957 231.545C500.151 230.347 504.605 230.403 508.768 231.708C512.48 233.083 515.878 235.19 518.76 237.904C521.705 240.616 524.444 243.543 526.956 246.659C530.078 250.411 533.153 254.203 536.242 257.982C548.991 273.577 561.657 289.241 574.24 304.972C586.822 320.703 599.32 336.501 611.734 352.365C624.178 368.268 636.537 384.238 648.81 400.275C650.314 402.239 651.816 404.205 653.317 406.171C654.146 407.258 656.016 406.186 655.175 405.085C642.811 388.887 630.361 372.756 617.825 356.691C605.258 340.587 592.605 324.552 579.864 308.586C567.124 292.619 554.297 276.722 541.385 260.894C538.168 256.951 534.946 253.012 531.718 249.077C528.996 245.758 526.304 242.404 523.318 239.314C517.837 233.644 510.988 228.633 502.791 228.497C497.971 228.417 493.307 229.947 488.829 231.567C484.002 233.314 479.186 235.094 474.365 236.857L445.287 247.495L438.018 250.155C436.728 250.627 437.285 252.708 438.59 252.23L438.59 252.23Z" fill="#E4E4E4"/>
<path d="M153.705 133.127C139.031 125.584 120.239 127.061 106.754 136.486C132.475 140.924 157.914 146.863 182.941 154.272C172.548 148.18 164.418 138.635 153.705 133.127Z" fill="#F0F0EE"/>
<path d="M106.61 136.459L103.785 138.756C104.741 137.952 105.734 137.198 106.755 136.485C106.706 136.477 106.658 136.467 106.61 136.459Z" fill="#F0F0EE"/>
<path d="M517.673 252.336C514.831 248.875 511.758 245.251 507.506 243.846L503.537 244.002C533.753 297.408 574.562 344.074 623.459 381.136C588.197 338.203 552.935 295.269 517.673 252.336Z" fill="#F0F0EE"/>
<path d="M270.84 223.787C272.677 230.463 276.816 236.273 282.523 240.19C284.73 241.693 287.341 243.134 288.095 245.696C288.492 247.328 288.248 249.051 287.412 250.509C286.577 251.948 285.562 253.274 284.391 254.454L284.284 254.855C278.808 251.609 273.598 247.503 270.574 241.902C267.549 236.3 267.127 228.958 270.841 223.787" fill="#F0F0EE"/>
<path d="M453.149 382.662C454.986 389.337 459.124 395.148 464.832 399.065C467.038 400.568 469.649 402.009 470.404 404.571C470.801 406.203 470.556 407.926 469.72 409.384C468.886 410.823 467.871 412.149 466.699 413.329L466.592 413.73C461.116 410.484 455.907 406.378 452.882 400.776C449.857 395.175 449.435 387.833 453.149 382.662" fill="#F0F0EE"/>
<path d="M89.3151 371.705C91.152 378.38 95.2903 384.191 100.998 388.108C103.204 389.611 105.815 391.052 106.57 393.614C106.967 395.246 106.722 396.969 105.886 398.427C105.052 399.866 104.037 401.191 102.865 402.372L102.758 402.773C97.2825 399.527 92.073 395.421 89.0482 389.819C86.0234 384.218 85.6012 376.876 89.3151 371.705" fill="#F0F0EE"/>
<path d="M507.997 79.8287C530.036 79.8287 547.902 61.9584 547.902 39.9143C547.902 17.8703 530.036 0 507.997 0C485.959 0 468.093 17.8703 468.093 39.9143C468.093 61.9584 485.959 79.8287 507.997 79.8287Z" fill="#F0E967"/>
<path d="M580.009 9.28968C560.67 6.67494 538.591 17.1306 533.578 35.9959C532.315 32.6417 530.019 29.7759 527.021 27.8127C524.022 25.8495 520.478 24.8905 516.899 25.0742C513.32 25.2578 509.893 26.5747 507.111 28.8346C504.33 31.0945 502.339 34.1803 501.425 37.6463L503.639 39.2324C545.083 48.1969 587.984 48.0029 629.345 38.6639C615.893 24.5226 599.349 11.9044 580.009 9.28968Z" fill="#F0F0EE"/>
<path d="M497.071 62.5084C477.732 59.8937 455.652 70.3494 450.64 89.2147C449.377 85.8604 447.08 82.9947 444.082 81.0315C441.084 79.0683 437.539 78.1092 433.961 78.2929C430.382 78.4766 426.954 79.7935 424.173 82.0534C421.391 84.3132 419.4 87.399 418.487 90.865L420.701 92.4512C462.145 101.416 505.045 101.222 546.407 91.8827C532.954 77.7413 516.41 65.1231 497.071 62.5084Z" fill="#F0F0EE"/>
<path d="M665.864 72.5724C665.784 72.5726 665.704 72.5602 665.628 72.5357C458.746 7.09331 276.408 15.6511 159.875 34.354C144.017 36.8984 128.115 39.8371 112.613 43.0891C108.656 43.9184 104.55 44.8072 100.41 45.7328C95.4657 46.8341 90.5873 47.9684 85.9095 49.1026C83.8892 49.581 81.9084 50.0633 79.9671 50.5494C77.0264 51.2754 74.0426 52.0321 70.8441 52.8636C67.27 53.7854 63.6386 54.7522 60.0485 55.7374C60.0353 55.742 60.022 55.7458 60.0084 55.7488L60.0087 55.7496C55.9537 56.857 51.92 57.9966 48.0192 59.1347C45.908 59.7446 43.8694 60.3461 41.9168 60.9399C41.6986 61.0003 41.5053 61.0584 41.3093 61.118L40.8898 61.2456C40.6468 61.3198 40.4069 61.3924 40.167 61.4611L40.1517 61.4657L40.1521 61.4665L39.5171 61.6637C38.7599 61.8931 38.021 62.117 37.2943 62.3401C18.0894 68.2619 7.53187 72.4746 7.42757 72.5159C7.33219 72.5542 7.23023 72.5732 7.12748 72.572C7.02473 72.5709 6.92323 72.5495 6.82875 72.509C6.73428 72.4686 6.64868 72.41 6.57686 72.3365C6.50504 72.263 6.4484 72.176 6.41017 72.0806C6.37194 71.9852 6.35288 71.8832 6.35406 71.7805C6.35523 71.6777 6.37664 71.5762 6.41705 71.4817C6.45745 71.3872 6.51607 71.3016 6.58955 71.2297C6.66304 71.1579 6.74995 71.1012 6.84532 71.063C6.95039 71.0217 17.5595 66.7876 36.8344 60.8437C37.5637 60.6197 38.3045 60.3958 39.064 60.1657L39.6539 59.9823C39.6741 59.9747 39.6944 59.9686 39.715 59.9624C39.9538 59.8944 40.1922 59.8218 40.4344 59.7484L40.8547 59.6208C41.064 59.5574 41.2703 59.4947 41.4816 59.4366C43.4209 58.8466 45.4664 58.2435 47.5829 57.6313C51.4852 56.4925 55.5227 55.353 59.5809 54.244C59.5935 54.2394 59.6064 54.2364 59.6191 54.2325V54.2318C63.2218 53.2435 66.8666 52.2729 70.4521 51.3481C73.6556 50.5158 76.6451 49.7576 79.5907 49.03C81.5403 48.5447 83.525 48.0614 85.5446 47.5801C90.2278 46.4444 95.1161 45.3087 100.069 44.205C104.215 43.2787 108.328 42.3875 112.292 41.5575C127.818 38.3001 143.745 35.3568 159.628 32.8087C276.327 14.0789 458.926 5.50738 666.099 71.0438C666.278 71.1001 666.43 71.2182 666.528 71.3769C666.627 71.5356 666.666 71.7244 666.637 71.9091C666.609 72.0937 666.515 72.2622 666.373 72.3838C666.232 72.5055 666.051 72.5724 665.864 72.5724V72.5724Z" fill="#CCCCCC"/>
<path d="M359.602 419.44H361.424V336.448H403.933V334.63H361.424V299.612H394.252C393.771 299 393.275 298.395 392.766 297.799H361.424V274.67C360.821 274.413 360.214 274.165 359.602 273.931V297.799H323.882V268.164C323.27 268.192 322.667 268.234 322.06 268.286V297.799H293.563V275.688C292.951 275.959 292.348 276.245 291.75 276.544V297.799H267.795V299.612H291.75V334.63H267.795V336.448H291.75V419.44H293.563V336.448C297.306 336.448 301.012 337.184 304.469 338.617C307.927 340.049 311.069 342.148 313.715 344.795C316.361 347.442 318.46 350.585 319.892 354.043C321.324 357.502 322.06 361.209 322.06 364.952V419.44H323.882V336.448H359.602V419.44ZM293.563 334.63V299.612H322.06V334.63H293.563ZM323.882 334.63V299.612H324.597C329.194 299.612 333.746 300.518 337.993 302.278C342.241 304.038 346.1 306.618 349.35 309.87C352.601 313.121 355.179 316.982 356.938 321.23C358.697 325.479 359.602 330.032 359.602 334.63H323.882Z" fill="#CFCFC9"/>
<path d="M672.068 446.76L0.931629 447.001C0.809285 447.001 0.688136 446.977 0.575105 446.93C0.462074 446.883 0.359378 446.814 0.272867 446.728C0.186357 446.641 0.117725 446.539 0.0709061 446.425C0.0240871 446.312 0 446.191 0 446.069C0 445.946 0.0240871 445.825 0.0709061 445.712C0.117725 445.599 0.186357 445.496 0.272867 445.41C0.359378 445.323 0.462074 445.255 0.575105 445.208C0.688136 445.161 0.809285 445.137 0.931629 445.137L672.068 444.896C672.315 444.897 672.551 444.996 672.725 445.17C672.9 445.345 672.997 445.582 672.997 445.828C672.997 446.075 672.9 446.312 672.725 446.486C672.551 446.661 672.315 446.759 672.068 446.76V446.76Z" fill="#B7B7AE"/>
<path d="M159.117 362.52H185.325V383.112C185.325 385.032 184.701 386.712 183.453 388.152C182.205 389.496 180.381 390.168 177.981 390.168H159.117V441H128.013V390.168H40.1728C37.7728 390.168 35.6608 389.448 33.8368 388.008C32.0128 386.472 30.8608 384.6 30.3808 382.392L26.7808 364.392L125.421 232.632H159.117V362.52ZM128.013 294.408C128.013 291.336 128.109 288.024 128.301 284.472C128.493 280.92 128.829 277.224 129.309 273.384L64.6528 362.52H128.013V294.408Z" fill="#164453"/>
<path d="M403.309 336.888C403.309 355.032 401.341 370.824 397.405 384.264C393.565 397.608 388.189 408.648 381.277 417.384C374.461 426.12 366.349 432.648 356.941 436.968C347.629 441.192 337.549 443.304 326.701 443.304C315.853 443.304 305.773 441.192 296.461 436.968C287.245 432.648 279.229 426.12 272.413 417.384C265.597 408.648 260.269 397.608 256.429 384.264C252.589 370.824 250.669 355.032 250.669 336.888C250.669 318.648 252.589 302.856 256.429 289.512C260.269 276.168 265.597 265.128 272.413 256.392C279.229 247.656 287.245 241.176 296.461 236.952C305.773 232.632 315.853 230.472 326.701 230.472C337.549 230.472 347.629 232.632 356.941 236.952C366.349 241.176 374.461 247.656 381.277 256.392C388.189 265.128 393.565 276.168 397.405 289.512C401.341 302.856 403.309 318.648 403.309 336.888ZM366.589 336.888C366.589 321.816 365.485 309.336 363.277 299.448C361.069 289.56 358.093 281.688 354.349 275.832C350.701 269.976 346.477 265.896 341.677 263.592C336.877 261.192 331.885 259.992 326.701 259.992C321.613 259.992 316.669 261.192 311.869 263.592C307.165 265.896 302.989 269.976 299.341 275.832C295.693 281.688 292.765 289.56 290.557 299.448C288.445 309.336 287.389 321.816 287.389 336.888C287.389 351.96 288.445 364.44 290.557 374.328C292.765 384.216 295.693 392.088 299.341 397.944C302.989 403.8 307.165 407.928 311.869 410.328C316.669 412.632 321.613 413.784 326.701 413.784C331.885 413.784 336.877 412.632 341.677 410.328C346.477 407.928 350.701 403.8 354.349 397.944C358.093 392.088 361.069 384.216 363.277 374.328C365.485 364.44 366.589 351.96 366.589 336.888Z" fill="#164453"/>
<path d="M599.117 362.52H625.325V383.112C625.325 385.032 624.701 386.712 623.453 388.152C622.205 389.496 620.381 390.168 617.981 390.168H599.117V441H568.013V390.168H480.173C477.773 390.168 475.661 389.448 473.837 388.008C472.013 386.472 470.861 384.6 470.381 382.392L466.781 364.392L565.421 232.632H599.117V362.52ZM568.013 294.408C568.013 291.336 568.109 288.024 568.301 284.472C568.493 280.92 568.829 277.224 569.309 273.384L504.653 362.52H568.013V294.408Z" fill="#164453"/>
</svg>
