<svg width="370" height="220" viewBox="0 0 370 220" fill="none" xmlns="http://www.w3.org/2000/svg">
<g clip-path="url(#clip0_889_4856)">
<path d="M181.611 13.89C181.611 13.9895 181.571 14.0848 181.501 14.1552C181.43 14.2255 181.335 14.2651 181.235 14.2654H181.055C180.777 14.0252 180.507 13.7737 180.244 13.5146H181.235C181.335 13.515 181.43 13.5546 181.501 13.6249C181.571 13.6953 181.611 13.7906 181.611 13.89Z" fill="#F2F2F2"/>
<path d="M190.626 0H96.3461C95.649 0.000774029 94.9807 0.277874 94.4878 0.770511C93.9948 1.26315 93.7176 1.93109 93.7168 2.62778V53.6818C93.7176 54.3785 93.9948 55.0464 94.4878 55.5391C94.9807 56.0317 95.649 56.3088 96.3461 56.3096H190.626C191.323 56.3088 191.992 56.0317 192.485 55.5391C192.977 55.0464 193.255 54.3785 193.256 53.6818V2.62778C193.255 1.93109 192.977 1.26315 192.485 0.770511C191.992 0.277874 191.323 0.000774029 190.626 0ZM192.504 53.6818C192.504 54.1796 192.306 54.6569 191.954 55.0088C191.602 55.3608 191.124 55.5586 190.626 55.5588H96.3461C95.8481 55.5586 95.3705 55.3608 95.0183 55.0088C94.6662 54.6569 94.4682 54.1796 94.468 53.6818V2.62778C94.4682 2.13003 94.6662 1.65273 95.0183 1.30077C95.3705 0.948807 95.8481 0.750994 96.3461 0.750795H190.626C191.124 0.750994 191.602 0.948807 191.954 1.30077C192.306 1.65273 192.504 2.13003 192.504 2.62778V53.6818Z" fill="#164453"/>
<path d="M133.427 22.2081C132.304 19.5128 130.557 17.2679 128.018 15.7813C125.355 14.2159 122.308 12.9133 119.243 12.4441C116.175 11.9907 113.047 12.1657 110.048 12.9584C109.658 13.0597 109.252 13.1686 108.846 13.2887C107.792 13.5608 106.789 14.0047 105.879 14.6026C105.849 14.6214 105.819 14.6401 105.789 14.6627C104.624 15.5186 103.828 16.9301 103.175 18.1951C102.555 19.4077 102.164 20.7441 102.502 22.0993C102.869 23.3354 103.631 24.417 104.673 25.1775C105.398 25.7481 106.348 26.4689 107.318 26.4839C107.547 26.489 107.775 26.4508 107.99 26.3713C108.057 26.3476 108.121 26.3161 108.181 26.2775C108.572 26.3946 108.976 26.4615 109.383 26.4764C111.032 26.5515 112.681 25.8533 114.375 25.2826C114.772 25.1442 115.179 25.035 115.592 24.9561C116.332 24.7951 117.1 24.8209 117.827 25.0311C117.962 25.069 118.093 25.1154 118.222 25.17C119.477 25.7581 120.536 26.6952 121.272 27.8691C121.989 28.9353 122.462 30.1478 123.251 31.1726C123.643 31.7008 124.141 32.1408 124.714 32.4641C125.286 32.7875 125.921 32.987 126.575 33.0496C128.544 33.2674 131.015 33.1622 132.709 31.9797C133.169 31.6659 133.563 31.2655 133.87 30.801C133.9 30.7559 133.93 30.7109 133.956 30.6658C135.515 28.1019 134.493 24.7571 133.427 22.2081ZM107.475 18.2702C107.851 18.3115 108.23 18.3566 108.606 18.3978C107.887 18.5261 107.215 18.8406 106.657 19.3101C106.444 19.4902 106.247 19.6873 106.067 19.8994C106.074 19.8844 106.074 19.8656 106.082 19.8506C106.192 19.5051 106.373 19.1863 106.612 18.9142C106.852 18.6422 107.146 18.4229 107.475 18.2702V18.2702ZM130.121 27.8053C130.189 27.7903 130.26 27.779 130.328 27.7678C130.436 27.7509 130.539 27.7098 130.628 27.6476C130.628 27.6589 130.632 27.6739 130.632 27.6852C130.633 27.7354 130.636 27.7856 130.643 27.8353C130.624 27.8654 130.61 27.8954 130.591 27.9254C130.433 27.8842 130.279 27.8428 130.121 27.8053L130.121 27.8053ZM129.073 18.6756C129.905 19.4606 130.613 20.3668 131.173 21.3635C130.51 20.5539 129.777 19.804 128.983 19.1224C129.043 18.981 129.074 18.8291 129.073 18.6756V18.6756ZM128.161 29.3257C128.128 29.3806 128.104 29.4401 128.089 29.5021C127.988 29.5058 127.883 29.5096 127.777 29.5096H127.725C127.721 29.4946 127.713 29.4758 127.71 29.4608C127.687 29.3932 127.669 29.3257 127.646 29.2581C127.819 29.2806 127.988 29.3031 128.161 29.3257V29.3257ZM120.13 20.9055C120.14 20.8296 120.142 20.7529 120.137 20.6765C120.22 20.7388 120.317 20.7801 120.419 20.7966C120.43 20.8004 120.445 20.8004 120.457 20.8041C120.528 20.8454 120.596 20.883 120.667 20.9243L120.644 20.9581C120.472 20.9393 120.299 20.9243 120.13 20.9055V20.9055ZM126.08 19.036H126.068C125.821 18.8821 125.573 18.7282 125.321 18.5818C125.576 18.7244 125.832 18.8784 126.08 19.036V19.036ZM124.697 26.071C124.659 26.1098 124.626 26.1541 124.6 26.2024C124.581 26.1761 124.566 26.1536 124.547 26.1273C124.594 26.1017 124.645 26.0828 124.697 26.071V26.071ZM121.332 18.7169C121.248 18.6507 121.156 18.5963 121.058 18.5555C120.574 18.369 120.078 18.2147 119.574 18.0938C119.499 18.0224 119.424 17.9511 119.352 17.876C119.779 17.9585 120.2 18.065 120.614 18.1951C121.145 18.3652 121.665 18.5658 122.173 18.7958C121.891 18.7657 121.614 18.7395 121.332 18.7169L121.332 18.7169ZM118.47 14.0094C119.55 14.1536 120.615 14.3974 121.651 14.7377C121.546 14.7114 121.441 14.6889 121.336 14.6626C120.34 14.4374 119.326 14.1971 118.304 13.9907C118.361 13.9982 118.413 14.0019 118.47 14.0095L118.47 14.0094Z" fill="#CCCCCC"/>
<path d="M122.516 43.1619C121.569 43.1355 120.39 43.1024 119.482 42.4396C119.212 42.2341 118.989 41.9719 118.831 41.6715C118.673 41.3711 118.582 41.0397 118.565 40.7006C118.549 40.4596 118.588 40.2181 118.681 39.9949C118.773 39.7717 118.916 39.5729 119.098 39.414C119.369 39.2121 119.686 39.0812 120.02 39.0331C120.354 38.985 120.695 39.0213 121.012 39.1387L120.238 33.4899L120.806 33.4121L121.715 40.053L121.241 39.8356C120.692 39.5836 119.937 39.4556 119.468 39.8514C119.353 39.9549 119.263 40.0835 119.206 40.2273C119.149 40.371 119.125 40.5261 119.138 40.6803C119.152 40.9327 119.22 41.1792 119.338 41.403C119.455 41.6268 119.62 41.8225 119.82 41.977C120.527 42.493 121.466 42.5596 122.532 42.5895L122.516 43.1619Z" fill="#164453"/>
<path d="M117.43 33.9766H114.344V34.5493H117.43V33.9766Z" fill="#164453"/>
<path d="M127.172 33.9766H124.086V34.5493H127.172V33.9766Z" fill="#164453"/>
<path d="M108.982 26.0684C106.496 25.7852 104.571 23.4052 104.36 20.9903C104.108 18.1175 105.783 15.3889 108.079 13.7768C110.481 12.0909 113.473 11.3869 116.369 11.2319C122.017 10.951 127.567 12.7795 131.941 16.3617C134.111 18.1625 136.137 20.4564 136.905 23.2272C137.572 25.6335 137.029 28.3595 135.092 30.0447C134.613 30.4577 134.054 30.767 133.449 30.9531C132.845 31.1391 132.208 31.1979 131.58 31.1257C130.077 30.9698 128.691 30.1802 127.491 29.3082C125.156 27.6119 123.24 25.2489 120.396 24.3624C118.311 23.7125 115.604 24.2846 114.33 26.1693C114.041 26.6007 113.854 27.0921 113.782 27.6064C113.756 27.7161 113.772 27.8317 113.828 27.9298C113.884 28.0279 113.975 28.1012 114.082 28.1348C114.192 28.1644 114.309 28.1495 114.408 28.0933C114.507 28.0372 114.58 27.9443 114.611 27.8348C114.946 25.461 117.866 24.5752 119.916 25.1174C122.904 25.9078 124.91 28.5727 127.361 30.2658C128.63 31.2115 130.125 31.8079 131.697 31.9954C133.06 32.1023 134.413 31.687 135.48 30.8339C137.575 29.181 138.376 26.3382 137.913 23.7786C137.376 20.8146 135.38 18.2743 133.19 16.3075C128.75 12.3625 122.985 10.2343 117.046 10.347C114.016 10.4166 110.855 11.0417 108.245 12.642C105.713 14.1944 103.756 16.7915 103.5 19.8103C103.275 22.4675 104.702 25.2467 107.15 26.4108C107.728 26.6842 108.347 26.8588 108.982 26.9275C109.531 26.9901 109.526 26.1305 108.982 26.0684H108.982Z" fill="#164453"/>
<path d="M181.611 13.89C181.611 13.9895 181.571 14.0848 181.501 14.1552C181.43 14.2255 181.335 14.2651 181.235 14.2654H150.435C150.335 14.2654 150.24 14.2259 150.169 14.1555C150.099 14.0851 150.059 13.9896 150.059 13.89C150.059 13.7905 150.099 13.695 150.169 13.6246C150.24 13.5542 150.335 13.5146 150.435 13.5146H181.235C181.335 13.515 181.43 13.5546 181.501 13.6249C181.571 13.6953 181.611 13.7906 181.611 13.89Z" fill="#164453"/>
<path d="M181.235 19.8963H150.435C150.335 19.8963 150.24 19.8567 150.169 19.7863C150.099 19.7159 150.059 19.6205 150.059 19.5209C150.059 19.4213 150.099 19.3259 150.169 19.2555C150.24 19.1851 150.335 19.1455 150.435 19.1455H181.235C181.335 19.1455 181.431 19.1851 181.501 19.2555C181.571 19.3259 181.611 19.4213 181.611 19.5209C181.611 19.6205 181.571 19.7159 181.501 19.7863C181.431 19.8567 181.335 19.8963 181.235 19.8963Z" fill="#164453"/>
<path d="M181.235 25.5272H150.435C150.335 25.5272 150.24 25.4876 150.169 25.4172C150.099 25.3468 150.059 25.2513 150.059 25.1518C150.059 25.0522 150.099 24.9567 150.169 24.8863C150.24 24.8159 150.335 24.7764 150.435 24.7764H181.235C181.335 24.7764 181.431 24.8159 181.501 24.8863C181.571 24.9567 181.611 25.0522 181.611 25.1518C181.611 25.2513 181.571 25.3468 181.501 25.4172C181.431 25.4876 181.335 25.5272 181.235 25.5272Z" fill="#164453"/>
<path d="M181.235 31.158H150.435C150.335 31.158 150.24 31.1185 150.169 31.0481C150.099 30.9777 150.059 30.8822 150.059 30.7826C150.059 30.6831 150.099 30.5876 150.169 30.5172C150.24 30.4468 150.335 30.4072 150.435 30.4072H181.235C181.335 30.4072 181.431 30.4468 181.501 30.5172C181.571 30.5876 181.611 30.6831 181.611 30.7826C181.611 30.8822 181.571 30.9777 181.501 31.0481C181.431 31.1185 181.335 31.158 181.235 31.158Z" fill="#164453"/>
<path d="M181.235 36.7889H150.435C150.335 36.7889 150.24 36.7493 150.169 36.6789C150.099 36.6085 150.059 36.513 150.059 36.4135C150.059 36.3139 150.099 36.2184 150.169 36.148C150.24 36.0776 150.335 36.0381 150.435 36.0381H181.235C181.335 36.0381 181.431 36.0776 181.501 36.148C181.571 36.2184 181.611 36.3139 181.611 36.4135C181.611 36.513 181.571 36.6085 181.501 36.6789C181.431 36.7493 181.335 36.7889 181.235 36.7889Z" fill="#164453"/>
<path d="M181.235 42.4197H150.435C150.335 42.4197 150.24 42.3802 150.169 42.3098C150.099 42.2394 150.059 42.1439 150.059 42.0443C150.059 41.9448 150.099 41.8493 150.169 41.7789C150.24 41.7085 150.335 41.6689 150.435 41.6689H181.235C181.335 41.6689 181.431 41.7085 181.501 41.7789C181.571 41.8493 181.611 41.9448 181.611 42.0443C181.611 42.1439 181.571 42.2394 181.501 42.3098C181.431 42.3802 181.335 42.4197 181.235 42.4197Z" fill="#164453"/>
<path d="M69.9139 92.556C68.8671 92.559 67.8565 92.1736 67.0778 91.4744C66.6419 91.0859 66.2901 90.6125 66.044 90.0833C65.7978 89.554 65.6625 88.98 65.6463 88.3966L48.9778 76.2811C48.4749 75.9155 48.0572 75.4454 47.7535 74.903C47.4498 74.3606 47.2674 73.7589 47.2188 73.1393C47.1701 72.5197 47.2564 71.8969 47.4717 71.3139C47.6871 70.7308 48.0263 70.2013 48.466 69.7618L60.8757 57.3594C61.3871 56.8483 62.0386 56.5003 62.7479 56.3593C63.4571 56.2183 64.1923 56.2906 64.8605 56.5672C65.5286 56.8438 66.0996 57.3122 66.5014 57.9132C66.9032 58.5141 67.1176 59.2206 67.1176 59.9434C67.0162 61.8394 66.2685 63.6435 64.9987 65.0558L56.5727 73.4769L69.7976 84.0124C69.8384 84.0097 69.8792 84.0075 69.9205 84.0075C71.0124 84.0074 72.0631 84.4247 72.857 85.1739C73.651 85.923 74.1282 86.9473 74.1909 88.0368C74.2535 89.1263 73.8968 90.1984 73.1939 91.0335C72.491 91.8687 71.4952 92.4035 70.4104 92.5284C70.2455 92.5467 70.0798 92.556 69.9139 92.556Z" fill="#FFB8B8"/>
<path d="M89.7211 164.117L94.1936 162.448L89.8819 144.413L83.2808 146.876L89.7211 164.117Z" fill="#FFB8B8"/>
<path d="M104.37 163.381L90.3131 168.625L88.2856 163.198L97.1035 159.908C98.4929 159.389 100.031 159.444 101.381 160.059C102.73 160.674 103.779 161.8 104.298 163.189L104.37 163.381Z" fill="#1B1B18"/>
<path d="M49.4841 164.936H54.2583L56.5292 146.532L49.4834 146.533L49.4841 164.936Z" fill="#FFB8B8"/>
<path d="M63.4653 169.365L48.4612 169.366L48.4609 163.572L57.8733 163.572C59.3563 163.572 60.7786 164.16 61.8274 165.208C62.8761 166.256 63.4653 167.678 63.4653 169.16L63.4653 169.365Z" fill="#1B1B18"/>
<path d="M54.6369 159.914C54.5833 159.914 54.5296 159.911 54.4757 159.906L49.415 159.424C49.0045 159.385 48.6225 159.197 48.3409 158.896C48.0592 158.596 47.8973 158.202 47.8856 157.79C47.5936 146.837 46.858 91.5591 61.0914 78.8916C61.3381 78.6748 61.644 78.5366 61.9699 78.4948V78.4946C64.548 78.1414 73.246 77.2753 76.9276 80.9763C77.1613 81.2093 77.3231 81.5044 77.3939 81.8266L93.5109 156.301C93.5605 156.53 93.5618 156.767 93.5148 156.997C93.4678 157.226 93.3734 157.444 93.2377 157.635C93.1021 157.826 92.928 157.987 92.7267 158.107C92.5255 158.228 92.3013 158.305 92.0685 158.334L85.8891 159.106C85.6659 159.134 85.4394 159.118 85.2228 159.057C85.0062 158.996 84.8039 158.893 84.6277 158.753C84.4516 158.614 84.3052 158.44 84.1971 158.243C84.089 158.046 84.0214 157.829 83.9983 157.605C83.3835 151.619 79.6889 121.211 67.3076 110.432C67.14 110.285 66.9381 110.182 66.7205 110.133C66.5028 110.084 66.2763 110.091 66.0619 110.152C65.8518 110.21 65.66 110.321 65.5046 110.474C65.3492 110.627 65.2353 110.816 65.1737 111.025C62.8817 118.521 55.4695 144.068 56.3213 158.123C56.3355 158.353 56.3025 158.583 56.2243 158.8C56.1461 159.017 56.0243 159.215 55.8665 159.383C55.7087 159.55 55.5182 159.684 55.3067 159.775C55.0952 159.867 54.8673 159.914 54.6369 159.914V159.914Z" fill="#1B1B18"/>
<path d="M64.3764 48.4198C69.4716 48.4198 73.602 44.2918 73.602 39.1996C73.602 34.1075 69.4716 29.9795 64.3764 29.9795C59.2813 29.9795 55.1509 34.1075 55.1509 39.1996C55.1509 44.2918 59.2813 48.4198 64.3764 48.4198Z" fill="#FFB8B8"/>
<path d="M55.3179 56.564C55.3179 56.564 63.8848 46.4454 70.8941 54.6181C75.4041 59.8767 77.7894 66.6274 77.5837 73.5502L77.3194 82.4443L61.159 79.9147L55.3179 56.564Z" fill="#F0E967"/>
<path d="M77.831 76.1708C77.7638 76.1708 77.6964 76.1694 77.629 76.1666C76.9386 76.138 76.2626 75.96 75.6478 75.6449C75.0329 75.3297 74.4938 74.885 74.0676 74.3413L63.5821 60.9799C63.1358 60.4112 62.8683 59.723 62.8133 59.0023C62.7584 58.2817 62.9185 57.5609 63.2734 56.9312C63.6283 56.3015 64.1621 55.7911 64.8072 55.4646C65.4524 55.138 66.1799 55.01 66.8979 55.0967L68.3741 55.2751C69.3169 55.4404 70.1745 55.9233 70.8046 56.6434L79.076 67.1835L91.1286 55.3262C91.1308 55.2855 91.1336 55.2448 91.1385 55.2038C91.2393 54.3693 91.5839 53.583 92.1295 52.9433C92.675 52.3035 93.3971 51.8388 94.2055 51.607C95.014 51.3753 95.8728 51.387 96.6746 51.6405C97.4765 51.8941 98.1857 52.3782 98.7137 53.0325C99.2416 53.6868 99.5649 54.4821 99.6429 55.319C99.721 56.1559 99.5504 56.9973 99.1525 57.7378C98.7546 58.4783 98.1471 59.0852 97.406 59.4824C96.6648 59.8797 95.8229 60.0498 94.9856 59.9714L81.3309 74.6463C80.8839 75.1274 80.3423 75.5111 79.7401 75.7735C79.1378 76.0358 78.4879 76.1711 77.831 76.1708Z" fill="#FFB8B8"/>
<path d="M65.8717 40.7939L69.8353 36.1271C70.8568 34.9244 71.9252 33.6144 72.0697 32.0435C72.228 30.3215 71.18 28.6476 69.7472 27.6781C68.3144 26.7086 66.555 26.3437 64.8299 26.2099C61.6303 25.9616 58.2634 26.49 55.6332 28.3276C53.0029 30.1653 51.2821 33.4828 51.9234 36.6255C52.4284 39.1 54.2892 41.4704 53.5659 43.8901C52.7746 46.5378 49.5293 47.3502 46.8797 48.1397C42.4322 49.465 38.1855 52.0739 35.8547 56.0848C33.5239 60.0956 33.5341 65.6262 36.6411 69.0716C38.6529 71.3026 41.6873 72.4308 44.6876 72.6006C47.688 72.7703 50.6743 72.0642 53.5197 71.0982C56.1403 70.2085 58.7325 69.0643 60.7956 67.2206C62.8587 65.3769 64.345 62.7386 64.2806 59.9734C64.2193 57.3381 62.8069 54.9376 62.2266 52.3662C61.7689 50.213 61.889 47.9771 62.5747 45.8853C63.2605 43.7934 64.4874 41.92 66.1313 40.4549" fill="#1B1B18"/>
<path d="M258.237 134.017H163.957C163.26 134.016 162.592 133.739 162.099 133.246C161.606 132.753 161.328 132.086 161.328 131.389V80.3348C161.328 79.6381 161.606 78.9702 162.099 78.4776C162.592 77.9849 163.26 77.7078 163.957 77.707H258.237C258.934 77.7078 259.602 77.9849 260.095 78.4776C260.588 78.9702 260.866 79.6381 260.866 80.3348V131.389C260.866 132.086 260.588 132.753 260.095 133.246C259.602 133.739 258.934 134.016 258.237 134.017ZM163.957 78.4578C163.459 78.4584 162.982 78.6564 162.63 79.0082C162.278 79.3601 162.079 79.8372 162.079 80.3348V131.389C162.079 131.886 162.278 132.364 162.63 132.715C162.982 133.067 163.459 133.265 163.957 133.266H258.237C258.735 133.265 259.212 133.067 259.564 132.715C259.916 132.364 260.115 131.886 260.115 131.389V80.3348C260.115 79.8372 259.916 79.3601 259.564 79.0082C259.212 78.6564 258.735 78.4584 258.237 78.4578H163.957Z" fill="#164453"/>
<path d="M201.04 99.9145C199.915 97.2222 198.167 94.9764 195.63 93.4879C192.964 91.924 189.922 90.6217 186.856 90.1519C183.788 89.6988 180.659 89.8738 177.66 90.6663C176.214 91.0405 174.621 91.4751 173.402 92.371C172.236 93.2275 171.438 94.6364 170.788 95.9021C170.165 97.1147 169.777 98.4499 170.114 99.808C170.48 101.045 171.244 102.126 172.286 102.886C173.174 103.587 174.415 104.514 175.602 104.08C175.669 104.055 175.733 104.023 175.793 103.983C177.843 104.607 179.881 103.7 181.985 102.99C183.264 102.559 184.55 102.341 185.834 102.879C187.089 103.466 188.148 104.402 188.884 105.575C189.602 106.644 190.075 107.857 190.863 108.881C191.255 109.408 191.753 109.848 192.325 110.171C192.897 110.494 193.531 110.693 194.185 110.756C196.728 111.04 200.102 110.779 201.567 108.373C203.128 105.809 202.106 102.466 201.04 99.9145ZM175.087 95.9772C175.464 96.02 175.841 96.0627 176.219 96.1054C175.5 96.2347 174.828 96.5497 174.269 97.019C174.056 97.1984 173.859 97.3952 173.679 97.6076C173.685 97.5904 173.688 97.574 173.693 97.5566C173.804 97.2115 173.985 96.8931 174.225 96.6213C174.465 96.3495 174.758 96.1303 175.087 95.9772ZM187.747 98.384C187.831 98.4468 187.928 98.4884 188.032 98.5052C188.044 98.5072 188.056 98.5095 188.068 98.5115C188.138 98.5517 188.208 98.5915 188.279 98.631C188.271 98.6421 188.265 98.6543 188.257 98.6657C188.085 98.6479 187.912 98.6308 187.74 98.6135C187.752 98.5376 187.754 98.4605 187.747 98.384ZM192.311 103.777C192.272 103.817 192.239 103.862 192.21 103.909C192.193 103.885 192.177 103.86 192.16 103.836C192.206 103.808 192.257 103.788 192.311 103.777ZM195.258 106.965C195.429 106.988 195.6 107.01 195.771 107.032C195.739 107.088 195.715 107.148 195.701 107.21C195.58 107.214 195.458 107.216 195.336 107.217L195.258 106.965ZM197.733 105.511L197.939 105.476C198.048 105.459 198.15 105.418 198.241 105.356C198.241 105.368 198.242 105.381 198.243 105.393C198.244 105.434 198.248 105.485 198.253 105.544C198.237 105.573 198.22 105.602 198.201 105.632C198.045 105.592 197.889 105.551 197.733 105.511ZM188.943 96.4264C188.861 96.358 188.768 96.3035 188.669 96.265C188.185 96.0781 187.689 95.9232 187.185 95.8011C187.109 95.7302 187.035 95.6574 186.963 95.5827C187.389 95.6666 187.81 95.7737 188.224 95.9034C188.755 96.0735 189.276 96.2737 189.785 96.5031C189.504 96.4718 189.223 96.4462 188.943 96.4264ZM193.678 96.7434C193.431 96.5891 193.183 96.4376 192.932 96.289C193.189 96.4334 193.442 96.5848 193.691 96.7432L193.678 96.7434ZM198.784 99.0722C198.121 98.2621 197.388 97.512 196.594 96.8306C196.655 96.6898 196.686 96.5375 196.684 96.3839C197.517 97.1682 198.225 98.0747 198.784 99.0722ZM189.262 92.4436C189.158 92.4194 189.053 92.395 188.948 92.3714C187.953 92.1468 186.939 91.9049 185.915 91.6997C185.97 91.7062 186.025 91.7114 186.08 91.7184C187.161 91.8615 188.226 92.1042 189.262 92.4436Z" fill="#F0E967"/>
<path d="M190.127 120.869C189.18 120.843 188.001 120.809 187.093 120.147C186.823 119.941 186.6 119.679 186.442 119.379C186.284 119.078 186.193 118.747 186.176 118.408C186.16 118.167 186.199 117.925 186.292 117.702C186.384 117.479 186.527 117.28 186.709 117.121C186.98 116.919 187.296 116.788 187.631 116.74C187.965 116.692 188.306 116.728 188.623 116.846L187.849 111.197L188.417 111.119L189.326 117.76L188.852 117.543C188.302 117.291 187.548 117.163 187.079 117.558C186.964 117.662 186.874 117.791 186.817 117.934C186.76 118.078 186.736 118.233 186.749 118.387C186.763 118.64 186.831 118.886 186.948 119.11C187.066 119.334 187.231 119.53 187.431 119.684C188.137 120.2 189.077 120.267 190.143 120.297L190.127 120.869Z" fill="#164453"/>
<path d="M185.042 111.685H181.955V112.257H185.042V111.685Z" fill="#164453"/>
<path d="M194.784 111.685H191.697V112.257H194.784V111.685Z" fill="#164453"/>
<path d="M176.593 103.775C174.107 103.492 172.182 101.112 171.971 98.6974C171.719 95.8245 173.393 93.096 175.69 91.4838C178.092 89.7979 181.084 89.0939 183.979 88.9389C189.627 88.658 195.178 90.4865 199.552 94.0688C201.722 95.8696 203.748 98.1635 204.516 100.934C205.182 103.341 204.64 106.066 202.703 107.752C202.224 108.165 201.665 108.474 201.06 108.66C200.456 108.846 199.819 108.905 199.19 108.833C197.688 108.677 196.302 107.887 195.101 107.015C192.767 105.319 190.851 102.956 188.007 102.069C185.921 101.42 183.215 101.992 181.941 103.876C181.652 104.308 181.464 104.799 181.393 105.313C181.367 105.423 181.383 105.539 181.439 105.637C181.494 105.735 181.585 105.808 181.693 105.842C181.803 105.871 181.92 105.857 182.019 105.8C182.118 105.744 182.191 105.651 182.222 105.542C182.556 103.168 185.477 102.282 187.526 102.824C190.514 103.615 192.52 106.28 194.972 107.973C196.241 108.919 197.736 109.515 199.308 109.702C200.671 109.809 202.023 109.394 203.091 108.541C205.186 106.888 205.987 104.045 205.523 101.486C204.987 98.5216 202.991 95.9813 200.801 94.0146C196.361 90.0696 190.596 87.9414 184.656 88.0541C181.627 88.1236 178.466 88.7487 175.855 90.3491C173.324 91.9014 171.367 94.4985 171.111 97.5173C170.886 100.174 172.312 102.954 174.761 104.118C175.338 104.391 175.958 104.566 176.593 104.635C177.141 104.697 177.137 103.838 176.593 103.775H176.593Z" fill="#164453"/>
<path d="M248.847 91.9725H218.046C217.946 91.9725 217.851 91.9329 217.78 91.8625C217.71 91.7921 217.67 91.6966 217.67 91.5971C217.67 91.4975 217.71 91.402 217.78 91.3316C217.851 91.2612 217.946 91.2217 218.046 91.2217H248.847C248.946 91.2217 249.042 91.2612 249.112 91.3316C249.183 91.402 249.222 91.4975 249.222 91.5971C249.222 91.6966 249.183 91.7921 249.112 91.8625C249.042 91.9329 248.946 91.9725 248.847 91.9725Z" fill="#164453"/>
<path d="M248.847 97.6033H218.046C217.946 97.6033 217.851 97.5638 217.78 97.4934C217.71 97.423 217.67 97.3275 217.67 97.2279C217.67 97.1284 217.71 97.0329 217.78 96.9625C217.851 96.8921 217.946 96.8525 218.046 96.8525H248.847C248.946 96.8525 249.042 96.8921 249.112 96.9625C249.183 97.0329 249.222 97.1284 249.222 97.2279C249.222 97.3275 249.183 97.423 249.112 97.4934C249.042 97.5638 248.946 97.6033 248.847 97.6033Z" fill="#164453"/>
<path d="M248.847 103.234H218.046C217.946 103.234 217.851 103.195 217.78 103.124C217.71 103.054 217.67 102.958 217.67 102.859C217.67 102.759 217.71 102.664 217.78 102.593C217.851 102.523 217.946 102.483 218.046 102.483H248.847C248.946 102.483 249.042 102.523 249.112 102.593C249.183 102.664 249.222 102.759 249.222 102.859C249.222 102.958 249.183 103.054 249.112 103.124C249.042 103.195 248.946 103.234 248.847 103.234Z" fill="#164453"/>
<path d="M248.847 108.865H218.046C217.946 108.865 217.851 108.826 217.78 108.755C217.71 108.685 217.67 108.589 217.67 108.49C217.67 108.39 217.71 108.295 217.78 108.224C217.851 108.154 217.946 108.114 218.046 108.114H248.847C248.946 108.114 249.042 108.154 249.112 108.224C249.183 108.295 249.222 108.39 249.222 108.49C249.222 108.589 249.183 108.685 249.112 108.755C249.042 108.826 248.946 108.865 248.847 108.865Z" fill="#164453"/>
<path d="M248.847 114.496H218.046C217.946 114.496 217.851 114.456 217.78 114.386C217.71 114.316 217.67 114.22 217.67 114.121C217.67 114.021 217.71 113.925 217.78 113.855C217.851 113.785 217.946 113.745 218.046 113.745H248.847C248.946 113.745 249.042 113.785 249.112 113.855C249.183 113.925 249.222 114.021 249.222 114.121C249.222 114.22 249.183 114.316 249.112 114.386C249.042 114.456 248.946 114.496 248.847 114.496Z" fill="#164453"/>
<path d="M248.847 120.127H218.046C217.946 120.127 217.851 120.087 217.78 120.017C217.71 119.946 217.67 119.851 217.67 119.751C217.67 119.652 217.71 119.556 217.78 119.486C217.851 119.416 217.946 119.376 218.046 119.376H248.847C248.946 119.376 249.042 119.416 249.112 119.486C249.183 119.556 249.222 119.652 249.222 119.751C249.222 119.851 249.183 119.946 249.112 120.017C249.042 120.087 248.946 120.127 248.847 120.127Z" fill="#164453"/>
<path d="M306.386 79.4626C311.829 79.4626 316.242 75.0527 316.242 69.6127C316.242 64.1727 311.829 59.7627 306.386 59.7627C300.943 59.7627 296.53 64.1727 296.53 69.6127C296.53 75.0527 300.943 79.4626 306.386 79.4626Z" fill="#FFB8B8"/>
<path d="M277.013 214.735L272.326 213.242L275.858 194.463L282.776 196.666L277.013 214.735Z" fill="#FFB8B8"/>
<path d="M269.192 210.768L278.445 213.715L276.63 219.403L261.899 214.711L261.967 214.498C262.196 213.779 262.565 213.112 263.052 212.535C263.54 211.959 264.136 211.484 264.807 211.137C265.478 210.791 266.21 210.58 266.963 210.517C267.715 210.453 268.473 210.539 269.192 210.768Z" fill="#1B1B18"/>
<path d="M311.116 214.638H306.196L303.854 195.674H311.116V214.638Z" fill="#FFB8B8"/>
<path d="M302.458 213.233H312.169V219.204H296.708V218.98C296.708 218.226 296.857 217.478 297.146 216.781C297.435 216.084 297.858 215.45 298.392 214.917C298.926 214.383 299.56 213.96 300.258 213.671C300.955 213.382 301.703 213.233 302.458 213.233Z" fill="#1B1B18"/>
<path d="M310.971 208.484L309.311 208.236C304.275 207.486 303.973 207.441 303.174 207.09C302.766 206.911 302.737 204.202 302.982 188.975C303.162 177.798 303.386 163.888 302.951 156.42C302.933 156.125 302.816 155.845 302.62 155.625C302.423 155.405 302.158 155.257 301.867 155.206C301.576 155.155 301.277 155.203 301.016 155.343C300.756 155.482 300.551 155.706 300.433 155.977C296.686 164.625 290.4 183.978 286.24 196.784C284.793 201.239 283.65 204.757 282.927 206.866C282.787 207.265 282.504 207.597 282.132 207.799C281.76 208 281.326 208.055 280.916 207.954C277.493 207.099 277.721 206.735 272.846 205.475C272.424 205.367 272.06 205.101 271.83 204.731C271.6 204.362 271.523 203.917 271.613 203.492C272.495 199.335 288.634 131.941 289.869 125.535C289.911 125.316 289.996 125.107 290.119 124.92C290.242 124.734 290.401 124.574 290.586 124.449C290.771 124.325 290.979 124.238 291.198 124.194C291.417 124.15 291.643 124.15 291.862 124.194C295.496 124.926 297.706 125.702 301.297 126.453C305.172 127.263 309.178 128.1 313.086 128.882C313.475 128.96 313.824 129.174 314.07 129.485C315.037 130.705 316.471 131.39 317.989 132.116C319.013 132.605 316.693 132.561 317.585 133.266C321.194 136.122 316.004 194.113 312.867 207.211C312.766 207.621 312.516 207.979 312.166 208.214C311.815 208.449 311.389 208.546 310.971 208.484V208.484Z" fill="#1B1B18"/>
<path d="M308.001 142.756C307.889 142.247 307.89 141.719 308.004 141.211C308.118 140.702 308.342 140.225 308.66 139.812C308.979 139.399 309.384 139.062 309.848 138.822C310.311 138.583 310.821 138.448 311.342 138.428L319.308 129.441L324.255 135.414L315.094 142.103C315.071 142.98 314.727 143.818 314.127 144.459C313.527 145.099 312.712 145.498 311.838 145.578C310.963 145.659 310.09 145.416 309.383 144.896C308.676 144.376 308.184 143.614 308.001 142.756V142.756Z" fill="#FFB8B8"/>
<path d="M310.587 78.231C310.012 75.7909 312.92 70.5404 312.345 68.1003C311.955 66.4478 308.067 67.5711 307.16 66.1358C306.253 64.7005 304.733 63.5378 303.034 63.5187C301.082 63.4968 299.16 64.9443 297.311 64.3187C295.441 63.6861 294.843 61.1267 295.67 59.3349C296.497 57.5431 298.278 56.4014 300.037 55.5067C303.034 53.9832 306.523 52.8706 309.73 53.8786C311.669 54.488 313.29 55.8083 314.858 57.0996C316.288 58.2768 317.742 59.4806 318.742 61.0394C320.7 64.0932 320.582 68.2078 318.909 71.4263C317.235 74.6448 314.186 77.0066 310.826 78.3776" fill="#1B1B18"/>
<path d="M286.386 135.016C287.45 133.24 289.065 124.919 291.057 110.952C292.413 101.417 293.594 91.7294 294.18 86.7807C294.226 86.3802 294.372 85.9978 294.606 85.6694C294.84 85.341 295.154 85.0773 295.517 84.9032C295.898 84.7197 296.276 84.5461 296.652 84.3822C301.506 82.2721 306.425 81.573 311.272 82.304C316.112 83.0469 320.652 85.1142 324.388 88.277L324.433 88.3186L324.444 88.378C324.465 88.488 326.501 99.4515 322.331 106.859C318.219 114.167 318.171 133.522 318.171 133.716V133.965L317.931 133.897C311.534 132.07 286.821 135.266 286.572 135.299L286.187 135.349L286.386 135.016Z" fill="#CCCCCC"/>
<path d="M312.639 136.502L325.206 119.755L318.725 105.877L319.196 89.4175L324.509 88.4365L324.565 88.4648C327.146 89.9734 329.147 92.3028 330.247 95.0809C331.428 98.0299 333.875 108.063 335.721 115.96C336.203 117.992 336.155 120.114 335.581 122.123C335.008 124.132 333.928 125.959 332.445 127.431L317.028 142.839L312.639 136.502Z" fill="#CCCCCC"/>
<path d="M259.882 103.313C260.182 102.887 260.572 102.532 261.025 102.273C261.478 102.014 261.981 101.857 262.501 101.814C263.021 101.771 263.544 101.842 264.033 102.022C264.522 102.203 264.966 102.488 265.333 102.859L277.344 102.674L276.269 110.353L265.149 108.106C264.486 108.681 263.634 108.992 262.756 108.981C261.878 108.971 261.035 108.639 260.386 108.048C259.736 107.457 259.326 106.649 259.234 105.776C259.141 104.904 259.371 104.027 259.882 103.313Z" fill="#FFB8B8"/>
<path d="M265.911 110.03L267.629 102.516L288.476 100.49L294.191 86.7538L294.358 86.3482L296.604 84.4122L296.652 84.3821C301.506 82.2722 306.425 81.5731 311.272 82.3039L311.443 82.3297L311.432 82.5013C311.323 84.2592 310.871 85.9789 310.103 87.5638C307.946 92.0341 294.678 111.037 294.544 111.228L294.485 111.313L265.911 110.03Z" fill="#CCCCCC"/>
<path d="M365.852 219.983H222.741C222.642 219.983 222.546 219.944 222.476 219.873C222.405 219.803 222.366 219.707 222.366 219.608C222.366 219.508 222.405 219.413 222.476 219.342C222.546 219.272 222.642 219.232 222.741 219.232H365.852C365.951 219.232 366.047 219.272 366.117 219.342C366.188 219.413 366.227 219.508 366.227 219.608C366.227 219.707 366.188 219.803 366.117 219.873C366.047 219.944 365.951 219.983 365.852 219.983Z" fill="#164453"/>
<path d="M143.486 169.304H0.375618C0.275998 169.304 0.18046 169.265 0.110018 169.195C0.0395765 169.124 0 169.029 0 168.929C0 168.83 0.0395765 168.734 0.110018 168.664C0.18046 168.593 0.275998 168.554 0.375618 168.554H143.486C143.586 168.554 143.681 168.593 143.752 168.664C143.822 168.734 143.862 168.83 143.862 168.929C143.862 169.029 143.822 169.124 143.752 169.195C143.681 169.265 143.586 169.304 143.486 169.304Z" fill="#164453"/>
</g>
<defs>
<clipPath id="clip0_889_4856">
<rect width="369.557" height="220" fill="white"/>
</clipPath>
</defs>
</svg>
