<svg width="391" height="339" viewBox="0 0 391 339" fill="none" xmlns="http://www.w3.org/2000/svg">
<path d="M106.176 17.3333V229.859H243.68V12.192C221.686 3.34615 198.072 -0.767958 174.38 0.117899C150.687 1.00376 127.448 6.8697 106.176 17.3333V17.3333Z" fill="white"/>
<path d="M92.6851 26.1513V230.464H139.437L138.601 218.899L134.004 92.2847H226.576L221.979 218.899L221.144 230.464H268.419V29.8505C267.552 29.2113 266.68 28.5801 265.797 27.961C265.625 27.8411 266.382 24.4532 266.207 24.3333C256.039 17.2245 245.039 11.3848 233.453 6.94409L230.03 44.5752H213.989V4.45176C212.942 4.19209 211.894 3.94842 210.839 3.72071V3.72075C210.839 14.556 206.532 24.9475 198.866 32.6092C191.199 40.2709 180.801 44.5752 169.96 44.5752H150.265V2.66211C149.214 2.85385 148.163 3.05759 147.119 3.2733V44.5752H130.547L127.933 8.53442C116.658 12.4409 105.884 17.6608 95.8309 24.086C95.4831 24.3097 95.1314 24.5295 94.7836 24.7611C94.0801 25.2166 93.3806 25.68 92.6851 26.1513ZM213.989 47.7231H229.802L227.336 81.7984H213.989V47.7231ZM150.265 47.7231H210.839V81.7984H187.371V81.1233C187.372 80.7991 187.308 80.478 187.184 80.1784C187.06 79.8788 186.878 79.6066 186.648 79.3774C186.419 79.1481 186.146 78.9662 185.847 78.8422C185.547 78.7182 185.226 78.6544 184.901 78.6546H175.156C174.831 78.654 174.509 78.7175 174.209 78.8413C173.909 78.9651 173.636 79.1469 173.406 79.3762C173.177 79.6055 172.994 79.8778 172.87 80.1776C172.746 80.4774 172.682 80.7988 172.682 81.1233V81.7984H150.265V47.7231ZM133.241 81.7984L130.775 47.7231H147.119V81.7984H133.241Z" fill="#F2F2F2"/>
<path d="M21.9976 224.365C22.0015 224.377 22.0055 224.385 22.0095 224.397C22.0375 224.481 22.0655 224.556 22.0975 224.64V224.644C23.4605 228.471 24.9582 232.234 26.5904 235.934L334.873 235.598C336.528 231.823 338.046 227.979 339.429 224.065C339.434 224.056 339.437 224.047 339.437 224.037L21.9976 224.365Z" fill="#CCCCCC"/>
<path d="M137.759 166.076C137.513 167.099 137.046 168.056 136.39 168.879C135.734 169.702 134.906 170.372 133.963 170.84C133.02 171.309 131.986 171.565 130.933 171.591C129.88 171.617 128.835 171.412 127.87 170.99L110.495 189.772L107.312 176.866L124.3 161.009C125.116 159.436 126.482 158.217 128.137 157.583C129.792 156.949 131.623 156.944 133.282 157.568C134.941 158.193 136.313 159.404 137.138 160.972C137.963 162.54 138.184 164.356 137.759 166.076L137.759 166.076Z" fill="#FFB6B6"/>
<path d="M117.99 182.724L94.3819 209.205L94.19 209.169C94.1101 209.157 92.3193 208.837 89.4813 208.318C79.2164 206.441 55.273 201.962 49.3331 199.889C45.9079 198.735 42.8342 196.726 40.4033 194.053C41.0189 190.701 41.6784 188.192 42.33 186.97C42.8057 186.079 42.7177 184.917 42.7377 183.59C44.2965 182.515 46.1132 181.872 48.002 181.729C59.8137 180.875 71.6624 182.774 82.614 187.278L88.8417 189.85L89.0976 189.663L110.131 174.235L110.275 174.131L117.51 182.188L117.99 182.724Z" fill="#F0E967"/>
<path d="M167.259 335.832C166.944 335.809 166.632 335.781 166.316 335.753C162.355 335.421 158.433 334.952 154.552 334.346L150.291 324.431L148.249 319.678L155.959 316.366L160.972 314.217L163.354 322.398L164.341 325.798L166.676 333.819L167.259 335.832Z" fill="#FFB6B6"/>
<path d="M80.8804 289.693V303.619C83.2187 305.345 85.6038 307.009 88.0354 308.613V289.693H80.8804Z" fill="#CACACA"/>
<path d="M55.7456 280.873C57.7562 283.102 59.8268 285.274 61.9573 287.389C66.9716 292.379 72.2958 297.049 77.8982 301.37H109.796C110.643 301.37 111.48 301.19 112.251 300.84C113.023 300.491 113.711 299.981 114.269 299.345L114.273 299.333C114.938 298.583 115.4 297.675 115.616 296.696L115.62 296.688C115.71 296.268 115.756 295.84 115.756 295.41V286.833C115.755 285.254 115.127 283.739 114.009 282.621C112.892 281.504 111.377 280.875 109.796 280.873H55.7456Z" fill="#0B2128"/>
<path d="M42.6025 247.397L46.0602 262.202C45.7221 264.347 45.6095 266.521 45.7244 268.689C47.3632 270.886 49.0541 273.039 50.7968 275.149C52.4037 277.094 54.0533 279.002 55.7454 280.873C57.756 283.102 59.8266 285.274 61.9571 287.389C67.5052 289.13 74.0447 289.841 80.88 289.889C83.2384 289.909 85.6327 289.845 88.0351 289.718C97.7763 289.206 92.44 287.644 100.51 286.022C102.645 285.599 104.652 285.168 106.498 284.748C109.996 283.961 112.922 283.226 115.04 282.667C117.427 282.044 126.04 277.744 126.04 277.744L132.835 292.525L138.831 306.506L146.726 324.168C147.742 324.26 148.758 324.338 149.776 324.4C150.855 324.476 151.936 324.537 153.018 324.584C153.873 324.628 154.725 324.66 155.584 324.684L155.876 324.776L156.116 324.7L159.969 323.473L161.268 323.062L165.941 321.576C165.941 321.576 164.898 318.292 163.071 312.815C162.399 310.806 157.643 295.949 152.666 282.978C151.191 279.127 149.664 275.221 148.093 271.334C146.806 268.142 145.495 264.962 144.168 261.826C141.862 256.389 130.717 253.457 117.595 251.919C116.927 251.843 116.255 251.767 115.58 251.695C108.893 250.992 101.797 250.629 95.1621 250.461C91.8404 250.377 103.824 250.345 100.842 250.341C99.8788 250.341 98.9421 250.344 98.0321 250.349H98.0281C95.5698 250.361 93.3074 250.397 91.3167 250.437C90.929 250.445 90.5533 250.457 90.1855 250.465H90.1815C89.9337 250.469 89.6898 250.477 89.45 250.481C85.097 250.593 82.4269 250.729 82.4269 250.729L81.3916 242.611L81.1798 240.973L80.9799 239.415V239.411L80.9559 239.216L80.792 239.212L77.914 239.156L53.7228 238.684L43.4189 238.248L42.6025 247.397Z" fill="#2F2E41"/>
<path d="M121.243 277.345C118.329 282.322 116.059 291.758 113.073 296.432C107.345 305.404 103.987 310.297 100.018 315.818C95.9165 313.585 91.9232 311.183 88.0379 308.612C85.9634 307.245 83.9208 305.83 81.9102 304.365L84.2885 298.944L85.6396 296.288L91.7074 284.347L98.5107 270.961L100.877 272.064L121.243 277.345Z" fill="#2F2E41"/>
<path d="M325.727 208.946C325.842 208.601 325.881 208.236 325.843 207.875C325.804 207.514 325.689 207.165 325.504 206.852C325.32 206.539 325.07 206.27 324.773 206.061C324.475 205.853 324.136 205.711 323.779 205.644C323.647 205.616 323.512 205.599 323.377 205.594L307.088 205.174C306.723 205.17 306.361 205.243 306.025 205.388C305.69 205.533 305.388 205.746 305.14 206.014C304.912 205.965 304.679 205.941 304.446 205.942C303.939 205.929 303.434 206.016 302.96 206.198C302.487 206.379 302.054 206.653 301.686 207.002C301.318 207.352 301.022 207.77 300.816 208.233C300.61 208.697 300.498 209.196 300.485 209.703C300.472 210.21 300.56 210.715 300.742 211.188C300.925 211.661 301.199 212.094 301.549 212.461C301.898 212.828 302.317 213.123 302.781 213.329C303.245 213.534 303.745 213.646 304.252 213.658C304.836 213.67 305.415 213.551 305.946 213.311L307.445 229.325C307.589 229.851 307.9 230.317 308.331 230.652C308.762 230.987 309.289 231.174 309.836 231.185L320.425 231.457C320.967 231.467 321.498 231.305 321.942 230.994C322.386 230.683 322.72 230.24 322.896 229.727L325.727 208.946ZM304.286 212.554C303.555 212.535 302.861 212.227 302.357 211.697C301.853 211.168 301.58 210.46 301.597 209.73C301.614 208.999 301.92 208.305 302.449 207.8C302.977 207.295 303.684 207.019 304.415 207.034C304.467 207.034 304.513 207.059 304.565 207.059C304.449 207.501 304.451 207.966 304.573 208.407L305.639 212.223C305.227 212.454 304.759 212.569 304.286 212.554V212.554Z" fill="#CCCCCC"/>
<path d="M323.779 205.645C323.432 207.628 319.53 209.022 314.839 208.779C310.525 208.581 306.997 207.067 306.351 205.273C306.59 205.202 306.839 205.169 307.088 205.174L323.377 205.595C323.512 205.6 323.647 205.616 323.779 205.645Z" fill="white"/>
<path d="M221.799 184.689V225.659H250.519V184.689C250.519 184.394 250.425 184.107 250.25 183.87C250.076 183.633 249.829 183.458 249.548 183.371C249.415 183.327 249.276 183.305 249.136 183.307H223.186C223.004 183.306 222.824 183.342 222.656 183.411C222.487 183.48 222.335 183.582 222.206 183.711C222.077 183.839 221.975 183.991 221.905 184.159C221.835 184.327 221.799 184.507 221.799 184.689V184.689ZM233.007 198.766C233.014 197.959 233.341 197.186 233.915 196.618C234.489 196.049 235.265 195.73 236.073 195.73C236.881 195.73 237.657 196.049 238.231 196.618C238.805 197.186 239.131 197.959 239.139 198.766V203.52C239.135 204.33 238.81 205.106 238.236 205.677C237.661 206.249 236.883 206.57 236.073 206.57C235.262 206.57 234.485 206.249 233.91 205.677C233.336 205.106 233.011 204.33 233.007 203.52V198.766Z" fill="#CCCCCC"/>
<path d="M221.711 224.35V228.3C221.712 228.505 221.793 228.701 221.937 228.846C222.082 228.991 222.278 229.074 222.482 229.075H249.835C250.04 229.074 250.237 228.992 250.381 228.847C250.526 228.702 250.607 228.505 250.607 228.3V224.35H221.711Z" fill="#0B2128"/>
<path d="M176.618 122.962V197.768C176.619 198.722 176.998 199.636 177.673 200.31C178.347 200.984 179.262 201.363 180.216 201.364H291.139C292.093 201.363 293.007 200.984 293.682 200.31C294.356 199.636 294.736 198.722 294.736 197.768V122.962C294.734 122.01 294.354 121.097 293.68 120.424C293.006 119.751 292.092 119.372 291.139 119.371H180.216C179.263 119.372 178.349 119.751 177.675 120.424C177 121.097 176.62 122.01 176.618 122.962V122.962Z" fill="#CCCCCC"/>
<path d="M179.22 123.892V196.845C179.221 197.354 179.424 197.842 179.784 198.202C180.145 198.563 180.633 198.765 181.143 198.766H290.215C290.725 198.765 291.213 198.563 291.574 198.202C291.934 197.842 292.137 197.354 292.138 196.845V123.892C292.138 123.382 291.935 122.893 291.575 122.532C291.215 122.171 290.726 121.968 290.215 121.967H181.143C180.633 121.968 180.144 122.171 179.783 122.532C179.423 122.893 179.22 123.382 179.22 123.892Z" fill="white"/>
<path d="M201.795 228.807C201.906 228.946 202.047 229.058 202.208 229.135C202.369 229.212 202.545 229.251 202.723 229.251H267.614C267.791 229.25 267.966 229.211 268.126 229.134C268.287 229.058 268.428 228.947 268.54 228.809C268.651 228.671 268.731 228.51 268.773 228.338C268.814 228.166 268.817 227.986 268.781 227.812L267.774 223.031C267.732 222.836 267.642 222.654 267.512 222.503C267.382 222.351 267.217 222.235 267.03 222.164C266.895 222.111 266.751 222.084 266.606 222.084H203.726C203.581 222.084 203.437 222.111 203.302 222.164C203.116 222.235 202.95 222.351 202.82 222.503C202.69 222.654 202.601 222.836 202.559 223.031L201.552 227.812C201.516 227.986 201.519 228.165 201.561 228.337C201.603 228.509 201.683 228.67 201.795 228.807V228.807Z" fill="#F2F2F2"/>
<path d="M286.675 132.016H184.617C184.511 132.014 184.41 131.97 184.335 131.894C184.261 131.819 184.22 131.717 184.22 131.611C184.22 131.505 184.261 131.403 184.335 131.327C184.41 131.251 184.511 131.207 184.617 131.205H286.675C286.781 131.207 286.882 131.251 286.957 131.327C287.031 131.403 287.072 131.505 287.072 131.611C287.072 131.717 287.031 131.819 286.957 131.894C286.882 131.97 286.781 132.014 286.675 132.016V132.016Z" fill="#0B2128"/>
<path d="M191.564 129.135C192.878 129.135 193.943 128.047 193.943 126.705C193.943 125.363 192.878 124.275 191.564 124.275C190.25 124.275 189.186 125.363 189.186 126.705C189.186 128.047 190.25 129.135 191.564 129.135Z" fill="#0B2128"/>
<path d="M199.781 129.135C201.094 129.135 202.159 128.047 202.159 126.705C202.159 125.363 201.094 124.275 199.781 124.275C198.467 124.275 197.402 125.363 197.402 126.705C197.402 128.047 198.467 129.135 199.781 129.135Z" fill="#0B2128"/>
<path d="M207.998 129.135C209.311 129.135 210.376 128.047 210.376 126.705C210.376 125.363 209.311 124.275 207.998 124.275C206.684 124.275 205.619 125.363 205.619 126.705C205.619 128.047 206.684 129.135 207.998 129.135Z" fill="#0B2128"/>
<path d="M281.728 124.875H275.892C275.776 124.878 275.666 124.925 275.586 125.008C275.505 125.09 275.46 125.201 275.46 125.316C275.46 125.432 275.505 125.543 275.586 125.625C275.666 125.708 275.776 125.755 275.892 125.758H281.728C281.844 125.756 281.955 125.709 282.036 125.626C282.118 125.544 282.163 125.432 282.163 125.316C282.163 125.2 282.118 125.089 282.036 125.006C281.955 124.924 281.844 124.877 281.728 124.875V124.875Z" fill="#0B2128"/>
<path d="M281.728 126.533H275.892C275.776 126.536 275.666 126.584 275.586 126.666C275.505 126.749 275.46 126.859 275.46 126.975C275.46 127.09 275.505 127.201 275.586 127.283C275.666 127.366 275.776 127.413 275.892 127.416H281.728C281.844 127.414 281.954 127.367 282.036 127.285C282.117 127.202 282.163 127.091 282.163 126.975C282.163 126.859 282.117 126.747 282.036 126.665C281.954 126.582 281.844 126.535 281.728 126.533Z" fill="#0B2128"/>
<path d="M281.728 128.191H275.892C275.776 128.194 275.666 128.242 275.586 128.324C275.505 128.407 275.46 128.517 275.46 128.633C275.46 128.748 275.505 128.859 275.586 128.941C275.666 129.024 275.776 129.072 275.892 129.074H281.728C281.844 129.073 281.955 129.025 282.036 128.943C282.118 128.86 282.163 128.749 282.163 128.633C282.163 128.517 282.118 128.405 282.036 128.323C281.955 128.24 281.844 128.193 281.728 128.191V128.191Z" fill="#0B2128"/>
<path d="M247.622 154.068H230.395C229.553 154.068 228.872 154.75 228.872 155.59V156.879C228.872 157.72 229.553 158.401 230.395 158.401H247.622C248.463 158.401 249.145 157.72 249.145 156.879V155.59C249.145 154.75 248.463 154.068 247.622 154.068Z" fill="#F0E967"/>
<path d="M257.918 162.732H220.098C219.257 162.732 218.575 163.414 218.575 164.255V165.543C218.575 166.384 219.257 167.065 220.098 167.065H257.918C258.759 167.065 259.441 166.384 259.441 165.543V164.255C259.441 163.414 258.759 162.732 257.918 162.732Z" fill="#F0E967"/>
<path d="M257.918 171.398H220.098C219.257 171.398 218.575 172.08 218.575 172.921V174.209C218.575 175.05 219.257 175.731 220.098 175.731H257.918C258.759 175.731 259.441 175.05 259.441 174.209V172.921C259.441 172.08 258.759 171.398 257.918 171.398Z" fill="#F0E967"/>
<path d="M168.61 231.805C173.798 231.805 178.004 230.463 178.004 228.809C178.004 227.154 173.798 225.812 168.61 225.812C163.422 225.812 159.217 227.154 159.217 228.809C159.217 230.463 163.422 231.805 168.61 231.805Z" fill="#0B2128"/>
<path d="M168.61 229.807C173.798 229.807 178.004 228.465 178.004 226.811C178.004 225.156 173.798 223.814 168.61 223.814C163.422 223.814 159.217 225.156 159.217 226.811C159.217 228.465 163.422 229.807 168.61 229.807Z" fill="#0B2128"/>
<path d="M169.31 228.818L167.91 228.797L168.297 202.676C168.353 198.414 167.289 194.211 165.212 190.488C163.135 186.765 160.117 183.652 156.46 181.459L129.743 165.5L130.461 164.299L157.178 180.259C161.046 182.578 164.237 185.87 166.434 189.808C168.631 193.745 169.756 198.189 169.696 202.697L169.31 228.818Z" fill="#0B2128"/>
<path d="M133.834 152.708C133.834 150.833 132.313 149.312 130.437 149.312C128.56 149.312 127.039 150.833 127.039 152.708V173.88C127.039 175.756 128.56 177.276 130.437 177.276C132.313 177.276 133.834 175.756 133.834 173.88V152.708Z" fill="#F0E967"/>
<path d="M128.059 183.109C125.375 183.105 122.8 182.045 120.891 180.159C118.983 178.273 117.894 175.712 117.86 173.03L117.745 162.302L119.145 162.287L119.26 173.015C119.278 174.655 119.755 176.257 120.637 177.64C121.519 179.023 122.772 180.131 124.252 180.839C125.732 181.547 127.381 181.826 129.012 181.646C130.643 181.465 132.191 180.831 133.48 179.816L143.006 172.316L143.872 173.416L134.346 180.915C132.557 182.333 130.342 183.106 128.059 183.109V183.109Z" fill="#0B2128"/>
<path d="M119.844 171.084C122.162 171.084 124.041 166.524 124.041 160.898C124.041 155.272 122.162 150.711 119.844 150.711C117.526 150.711 115.647 155.272 115.647 160.898C115.647 166.524 117.526 171.084 119.844 171.084Z" fill="#0B2128"/>
<path d="M90.2484 215.729C89.8846 213.444 89.6408 210.939 89.4809 208.319C89.1052 202.323 89.1411 195.711 89.0972 189.663C89.0787 186.915 88.8609 183.913 88.5777 181.127C88.3308 178.588 87.4832 176.144 86.105 173.998C84.7268 171.851 82.8575 170.063 80.6513 168.78C79.1494 167.912 77.7958 166.81 76.6418 165.515C76.0182 164.82 75.9423 163.214 75.8623 161.516C75.7664 159.451 75.6665 157.31 74.5593 156.207L74.5113 156.159L74.4473 156.135C69.7985 154.589 61.944 155.592 59.6096 156.131L59.5097 156.155L59.4457 156.235C58.4824 157.509 58.5344 159.547 58.5863 161.516C58.6303 163.286 58.6743 164.96 57.8908 165.463C57.2832 165.854 56.6997 166.226 56.136 166.586C49.2248 170.992 45.7553 173.205 43.213 180.399C42.8738 181.429 42.7129 182.508 42.7373 183.591C42.7173 184.918 42.8053 186.08 42.3296 186.971C41.678 188.193 41.0185 190.702 40.4029 194.054C37.1772 211.666 35.2625 252.621 43.145 253.58C43.7606 253.656 42.5055 254.89 42.0738 255.509C41.4542 256.4 40.9226 257.167 41.2304 257.754C41.4382 258.154 41.9819 258.341 42.9332 258.341C46.5227 258.341 83.4211 252.928 84.4684 250.979C84.5363 250.851 84.5443 251.091 84.4684 250.979C101.768 248.722 92.6107 230.666 90.2484 215.729Z" fill="#F0E967"/>
<path d="M131.891 233.369C131.15 232.601 130.251 232.005 129.255 231.622C128.259 231.24 127.191 231.08 126.127 231.154C125.063 231.228 124.028 231.535 123.095 232.052C122.162 232.57 121.354 233.285 120.728 234.148L95.9028 226.654L99.7517 239.561L122.736 244.699C124.257 245.654 126.075 246.019 127.847 245.724C129.619 245.428 131.22 244.494 132.349 243.097C133.477 241.701 134.054 239.939 133.969 238.146C133.885 236.353 133.145 234.653 131.891 233.369L131.891 233.369Z" fill="#FFB6B6"/>
<path d="M101.923 240.76L67.8342 234.507C67.6961 234.151 54.0109 198.748 52.32 190.795C51.2498 186.001 51.8526 180.985 54.0284 176.58L54.0884 176.474L54.2002 176.426C56.4864 175.452 59.0364 175.285 61.4298 175.954C63.8232 176.623 65.9172 178.087 67.3664 180.104C74.3116 189.883 78.8875 201.141 80.7331 212.99L81.775 219.731L98.0195 224.45L101.923 240.76Z" fill="#F0E967"/>
<path d="M90.7546 145.09C88.6489 148.938 85.2946 151.954 81.2441 153.643C77.1937 155.331 72.6886 155.591 68.4709 154.379C64.2531 153.167 60.5741 150.555 58.0399 146.974C55.5056 143.394 54.2671 139.057 54.5284 134.679C54.7897 130.301 56.5352 126.142 59.4774 122.887C62.4196 119.633 66.3831 117.477 70.7151 116.775C75.0472 116.072 79.4894 116.865 83.3103 119.023C87.1312 121.18 90.103 124.574 91.7361 128.645C91.8245 128.866 91.904 129.087 91.9836 129.317C92.9068 131.883 93.2747 134.616 93.0628 137.335C92.851 140.054 92.0643 142.697 90.7546 145.09V145.09Z" fill="#FFB6B6"/>
<path d="M93.5306 129.318C92.6995 126.994 93.062 128.204 92.222 125.889C92.7703 127.939 91.9037 129.088 91.9833 129.318H68.9858V115.957C75.7233 113.288 82.3104 111.017 86.2892 115.957C89.8348 115.957 93.2351 117.365 95.7422 119.87C98.2493 122.376 99.6578 125.774 99.6579 129.317L93.5306 129.318Z" fill="#2F2E41"/>
<path d="M74.9855 166.057C74.9678 165.81 74.9413 165.554 74.9059 165.306C74.597 163.491 74.0961 161.714 73.4117 160.004C72.7485 158.14 72.0766 156.267 71.4046 154.402C72.2699 157.786 72.0061 161.361 70.6531 164.582C66.7715 161.56 68.6374 157.01 64.1455 154.65C52.0908 148.313 47.9192 138.074 51.2913 122.347C52.4905 116.755 59.4755 111.162 71.6772 111.162C83.8877 111.162 89.3306 117.23 89.5693 129.424C74.5383 132.958 77.8237 164.82 74.9855 166.057Z" fill="#2F2E41"/>
<path d="M52.5056 122.928C56.9127 122.928 60.4853 119.358 60.4853 114.953C60.4853 110.549 56.9127 106.979 52.5056 106.979C48.0985 106.979 44.5259 110.549 44.5259 114.953C44.5259 119.358 48.0985 122.928 52.5056 122.928Z" fill="#2F2E41"/>
<path d="M48.7727 112.637C47.4118 114.22 45.2811 114.836 43.359 115.66C39.9667 117.147 36.9887 119.439 34.683 122.336C32.3774 125.234 30.8138 128.65 30.1278 132.288C29.5964 135.251 29.6659 138.318 28.8265 141.207C27.9921 144.096 25.926 146.93 22.9609 147.432C20.9544 147.774 18.9429 147 17.0555 146.235C16.0175 145.818 14.9795 145.4 13.9414 144.98C15.0242 142.264 16.1052 139.549 17.1847 136.834C15.4499 139.397 13.4323 141.756 11.17 143.868C7.45 142.369 3.72666 140.87 0 139.371C9.16848 139.405 7.60396 130.511 9.6552 121.586C10.7826 116.682 20.3832 113.361 22.2656 108.696C23.2827 106.165 25.004 103.978 27.2258 102.395C29.4475 100.811 32.0768 99.897 34.8022 99.7602C37.5277 99.6233 40.2353 100.27 42.6047 101.623C44.974 102.976 46.9059 104.979 48.1717 107.395C50.0541 108.145 50.1087 111.073 48.7727 112.637Z" fill="#2F2E41"/>
<path d="M84.5044 111.464C85.2586 111.716 85.882 112.256 86.2373 112.967C86.5927 113.678 86.6509 114.501 86.3992 115.254L79.3415 136.392C79.2168 136.765 79.0199 137.11 78.7618 137.407C78.5038 137.704 78.1897 137.947 77.8375 138.123C77.4853 138.299 77.1019 138.404 76.7092 138.432C76.3165 138.46 75.9222 138.41 75.5487 138.285V138.285C74.7945 138.034 74.1712 137.493 73.8158 136.782C73.4605 136.071 73.4022 135.249 73.6539 134.495L80.7117 113.358C80.9634 112.604 81.5043 111.981 82.2156 111.626C82.9269 111.271 83.7502 111.212 84.5044 111.464V111.464Z" fill="white"/>
<path d="M74.9134 147.555C79.3286 147.555 82.9079 143.978 82.9079 139.566C82.9079 135.153 79.3286 131.576 74.9134 131.576C70.4982 131.576 66.9189 135.153 66.9189 139.566C66.9189 143.978 70.4982 147.555 74.9134 147.555Z" fill="white"/>
<path d="M74.9132 141.563C76.017 141.563 76.9118 140.669 76.9118 139.566C76.9118 138.463 76.017 137.568 74.9132 137.568C73.8094 137.568 72.9146 138.463 72.9146 139.566C72.9146 140.669 73.8094 141.563 74.9132 141.563Z" fill="#F0E967"/>
<path d="M377.802 246.672H348.605C348.605 247.911 316.688 248.917 316.688 248.917C315.984 249.442 315.343 250.045 314.776 250.713C313.072 252.726 312.141 255.271 312.146 257.898V259.694C312.148 262.671 313.342 265.525 315.467 267.63C317.592 269.735 320.473 270.918 323.478 270.919H377.802C380.806 270.917 383.687 269.733 385.811 267.629C387.936 265.524 389.131 262.67 389.133 259.694V257.898C389.129 254.922 387.934 252.069 385.81 249.964C383.685 247.86 380.806 246.676 377.802 246.672Z" fill="#0B2128"/>
<path d="M344.807 270.453H356.472V338.533H344.807V270.453Z" fill="#0B2128"/>
<path d="M311.214 338.27C311.214 339.546 329.074 338.763 351.107 338.763C373.139 338.763 391 339.546 391 338.27C391 336.994 373.139 326.877 351.107 326.877C329.074 326.877 311.214 336.994 311.214 338.27Z" fill="#0B2128"/>
<path d="M303.279 330.606L294.428 330.606L290.217 296.566L303.281 296.567L303.279 330.606Z" fill="#9F616A"/>
<path d="M305.614 327.809L288.231 327.809H288.23C285.292 327.809 282.475 328.951 280.397 330.983C278.32 333.016 277.153 335.772 277.152 338.647V338.999L305.614 339L305.614 327.809Z" fill="#2F2E41"/>
<path d="M277.151 330.606L268.615 330.606L264.555 296.566L277.152 296.567L277.151 330.606Z" fill="#9F616A"/>
<path d="M279.485 327.809L262.387 327.809H262.386C259.497 327.809 256.725 328.951 254.682 330.983C252.638 333.016 251.49 335.772 251.49 338.647V338.999L279.485 339L279.485 327.809Z" fill="#2F2E41"/>
<path d="M308.006 223.263C308.128 222.3 308.462 221.376 308.983 220.554C309.504 219.733 310.201 219.035 311.023 218.51C311.846 217.985 312.774 217.645 313.743 217.515C314.712 217.384 315.699 217.466 316.632 217.755L326.424 206.104L335.009 210.283L320.948 226.544C320.355 228.069 319.22 229.325 317.757 230.074C316.293 230.824 314.604 231.014 313.009 230.61C311.413 230.205 310.023 229.234 309.101 227.88C308.179 226.526 307.789 224.884 308.006 223.263H308.006Z" fill="#9F616A"/>
<path d="M340.686 153.879L334.954 156.23L333.566 172.407L318.212 214.359L331.253 218.695L345.741 190.554L340.686 153.879Z" fill="#CBCBCB"/>
<path d="M355.772 135.227C347.398 135.227 340.608 128.338 340.608 119.839C340.608 111.341 347.398 104.451 355.772 104.451C364.147 104.451 370.937 111.341 370.937 119.839C370.937 128.338 364.147 135.227 355.772 135.227Z" fill="#9F616A"/>
<path d="M358.275 112.656C358.275 112.656 357.604 103.421 349.332 107.186C341.06 110.952 341.6 100.573 344.1 98.7384C346.599 96.9042 346.52 96.4503 355.663 97.6775C364.806 98.9047 382.556 100.984 376.816 119.275C371.077 137.565 362.625 132.803 362.625 132.803C362.625 132.803 370.441 116.401 365.819 119.536L361.196 122.672L358.757 122.158L358.275 112.656Z" fill="#2F2E41"/>
<path d="M369.256 118.906L372.299 102.188C372.353 101.893 372.349 101.59 372.287 101.296C372.225 101.003 372.107 100.724 371.939 100.477C371.772 100.229 371.558 100.018 371.309 99.8546C371.061 99.6912 370.783 99.5791 370.492 99.5246L366.924 98.8555L363.471 117.822L369.256 118.906Z" fill="#F0E967"/>
<path d="M365.804 128.232C361.939 128.232 358.805 125.205 358.805 121.47C358.805 117.736 361.939 114.709 365.804 114.709C369.669 114.709 372.803 117.736 372.803 121.47C372.803 125.205 369.669 128.232 365.804 128.232Z" fill="#F0E967"/>
<path d="M365.804 125.435C363.485 125.435 361.605 123.66 361.605 121.471C361.605 119.282 363.485 117.508 365.804 117.508C368.123 117.508 370.003 119.282 370.003 121.471C370.003 123.66 368.123 125.435 365.804 125.435Z" fill="#F2F2F2"/>
<path d="M365.804 122.638C365.031 122.638 364.404 122.011 364.404 121.239C364.404 120.466 365.031 119.84 365.804 119.84C366.577 119.84 367.204 120.466 367.204 121.239C367.204 122.011 366.577 122.638 365.804 122.638Z" fill="#F0E967"/>
<path d="M380.595 225.026C380.595 225.026 385.702 252.103 366.273 255.551C346.845 258.999 318.799 261.423 318.799 261.423L306.204 320.349L289.284 318.834C289.284 318.834 291.534 247.9 297.068 242.351C302.602 236.801 328.915 220.561 328.915 220.561L380.595 225.026Z" fill="#2F2E41"/>
<path d="M342.544 213.564L334.014 222.108C334.014 222.108 272.422 232.012 270.046 246.215C266.459 267.657 262.222 314.285 262.222 314.285L280.74 312.899L288.001 259.895L317.63 253.167L351.34 234.826L342.544 213.564Z" fill="#2F2E41"/>
<path d="M342.991 148.111L347.954 141.552L364.048 141.289C369.069 143.953 373.268 147.928 376.196 152.788C379.124 157.649 380.671 163.212 380.671 168.882V210.389C380.671 210.389 380.442 215.913 381.654 228.597C382.7 239.541 324.278 222.183 324.278 222.183L331.862 160.585C331.862 160.585 331.252 150.773 342.991 148.111Z" fill="#CBCBCB"/>
<path d="M328.535 237.111C328.658 236.129 328.991 235.187 329.513 234.35C330.034 233.514 330.731 232.803 331.553 232.268C332.376 231.733 333.304 231.386 334.273 231.253C335.242 231.12 336.228 231.204 337.162 231.498L346.954 219.627L355.539 223.885L341.478 240.453C340.885 242.007 339.75 243.287 338.286 244.05C336.823 244.814 335.134 245.008 333.538 244.596C331.943 244.184 330.553 243.194 329.631 241.814C328.709 240.435 328.319 238.761 328.535 237.111V237.111Z" fill="#9F616A"/>
<path d="M369.015 154.635L374.101 152.945C374.101 152.945 380.198 154.284 383.811 162.481C387.425 170.678 383.748 204.139 383.748 204.139L346.3 236.413L339.209 223.172L359.978 195.123C359.978 195.123 351.067 164.9 369.015 154.635Z" fill="#CBCBCB"/>
</svg>
