<svg width="230" height="220" viewBox="0 0 230 220" fill="none" xmlns="http://www.w3.org/2000/svg">
<g clip-path="url(#clip0_889_3955)">
<path d="M96.4483 45.8758H95.3856V16.8179C95.3856 12.3575 93.6102 8.07984 90.4501 4.92586C87.2899 1.77189 83.0038 4.33175e-06 78.5347 0H16.8509C14.638 -5.57653e-06 12.4468 0.434999 10.4024 1.28017C8.35792 2.12535 6.50028 3.36414 4.93553 4.92583C3.37078 6.48751 2.12955 8.3415 1.28271 10.3819C0.435871 12.4224 5.1577e-06 14.6093 0 16.8179V176.232C-3.47215e-06 180.692 1.77535 184.97 4.9355 188.124C8.09565 191.278 12.3817 193.05 16.8509 193.05H78.5346C80.7475 193.05 82.9387 192.615 84.9832 191.77C87.0276 190.924 88.8852 189.686 90.45 188.124C92.0148 186.562 93.256 184.708 94.1028 182.668C94.9497 180.627 95.3856 178.44 95.3856 176.232V66.5598H96.4484L96.4483 45.8758Z" fill="#1B1B18"/>
<path d="M79.2148 4.3755H71.163C71.5333 5.28153 71.6746 6.26454 71.5746 7.23793C71.4745 8.21132 71.1362 9.14522 70.5893 9.95735C70.0424 10.7695 69.3039 11.4349 68.4386 11.8951C67.5734 12.3552 66.608 12.5959 65.6276 12.596H30.2898C29.3093 12.5959 28.344 12.3552 27.4787 11.8951C26.6135 11.435 25.8749 10.7695 25.328 9.95736C24.7812 9.14522 24.4428 8.21132 24.3427 7.23793C24.2427 6.26453 24.3841 5.28152 24.7543 4.37549H17.234C13.8965 4.37549 10.6957 5.69871 8.33569 8.05405C5.97573 10.4094 4.64991 13.6039 4.6499 16.9349V176.115C4.6499 177.764 4.9754 179.397 5.6078 180.921C6.24021 182.445 7.16715 183.83 8.33568 184.996C9.50422 186.162 10.8915 187.087 12.4182 187.718C13.945 188.35 15.5814 188.674 17.2339 188.674H79.2148C80.8673 188.674 82.5037 188.35 84.0305 187.718C85.5573 187.087 86.9445 186.162 88.113 184.996C89.2816 183.83 90.2085 182.445 90.8409 180.921C91.4733 179.397 91.7988 177.764 91.7988 176.115V16.9349C91.7988 15.2856 91.4733 13.6524 90.8409 12.1286C90.2085 10.6049 89.2816 9.22031 88.113 8.05406C86.9445 6.88781 85.5573 5.96269 84.0305 5.33152C82.5037 4.70035 80.8673 4.3755 79.2148 4.3755Z" fill="white"/>
<path d="M76.8386 71.1987H19.6102C19.2277 71.1983 18.861 71.0464 18.5905 70.7765C18.32 70.5065 18.1679 70.1405 18.1675 69.7588V36.1609C18.1679 35.7791 18.32 35.4131 18.5905 35.1431C18.861 34.8732 19.2277 34.7214 19.6102 34.7209H76.8386C77.2211 34.7214 77.5878 34.8732 77.8583 35.1431C78.1287 35.4131 78.2809 35.7791 78.2813 36.1609V69.7588C78.2809 70.1405 78.1287 70.5065 77.8583 70.7765C77.5878 71.0464 77.2211 71.1983 76.8386 71.1987Z" fill="white"/>
<path d="M57.7267 52.6581C57.4354 52.3469 57.0844 52.0972 56.6945 51.9241C56.3047 51.7509 55.8839 51.6578 55.4572 51.6502C55.0306 51.6426 54.6067 51.7206 54.2109 51.8798C53.8151 52.0389 53.4554 52.2759 53.1531 52.5765L37.0475 68.6507C36.622 69.0744 36.0458 69.3128 35.4447 69.3137C34.8437 69.3146 34.2667 69.078 33.8399 68.6555L31.4546 66.2797C31.1597 65.9852 30.8096 65.7517 30.4242 65.5923C30.0389 65.4329 29.6258 65.3509 29.2087 65.3509C28.7915 65.3509 28.3785 65.4329 27.9931 65.5923C27.6078 65.7517 27.2576 65.9852 26.9627 66.2797L22.3462 70.8922H74.1016V70.2346L57.7267 52.6581Z" fill="#164453"/>
<path d="M76.8382 71.6886H19.6099C19.0973 71.688 18.6058 71.4845 18.2433 71.1227C17.8808 70.7609 17.6768 70.2704 17.6763 69.7587V36.1609C17.6768 35.6492 17.8808 35.1587 18.2433 34.7969C18.6058 34.4351 19.0973 34.2315 19.6099 34.231H76.8382C77.3509 34.2315 77.8424 34.4351 78.2049 34.7969C78.5675 35.1587 78.7714 35.6492 78.772 36.1609V69.7587C78.7714 70.2704 78.5675 70.7609 78.2049 71.1227C77.8424 71.4845 77.3509 71.6881 76.8382 71.6886ZM19.6099 35.2109C19.3576 35.2112 19.1157 35.3114 18.9372 35.4895C18.7588 35.6676 18.6584 35.9091 18.6581 36.1609V69.7587C18.6584 70.0106 18.7588 70.252 18.9372 70.4301C19.1157 70.6082 19.3576 70.7084 19.6099 70.7087H76.8382C77.0906 70.7084 77.3325 70.6082 77.511 70.4301C77.6894 70.252 77.7898 70.0106 77.7901 69.7587V36.1609C77.7898 35.909 77.6894 35.6676 77.511 35.4895C77.3325 35.3114 77.0906 35.2112 76.8382 35.2109L19.6099 35.2109Z" fill="#CBCBCB"/>
<path d="M73.3151 174.058C71.907 174.058 70.5306 173.641 69.3598 172.86C68.1891 172.079 67.2766 170.97 66.7377 169.671C66.1989 168.373 66.0579 166.944 66.3326 165.566C66.6073 164.188 67.2853 162.922 68.281 161.928C69.2767 160.934 70.5452 160.258 71.9262 159.983C73.3072 159.709 74.7387 159.85 76.0395 160.388C77.3404 160.926 78.4523 161.836 79.2346 163.005C80.0169 164.173 80.4344 165.547 80.4344 166.952C80.4323 168.836 79.6815 170.642 78.3469 171.974C77.0122 173.306 75.2026 174.055 73.3151 174.058ZM73.3151 160.394C72.0154 160.394 70.7448 160.778 69.6641 161.499C68.5834 162.22 67.7411 163.244 67.2437 164.442C66.7463 165.641 66.6162 166.96 66.8697 168.232C67.1233 169.504 67.7492 170.673 68.6682 171.59C69.5873 172.507 70.7583 173.132 72.0331 173.385C73.3078 173.638 74.6292 173.508 75.83 173.012C77.0308 172.515 78.0571 171.675 78.7792 170.596C79.5014 169.518 79.8868 168.249 79.8868 166.952C79.8848 165.213 79.1918 163.546 77.9598 162.317C76.7278 161.087 75.0574 160.395 73.3151 160.394Z" fill="#CBCBCB"/>
<path d="M70.2402 169.344C70.19 169.344 70.1413 169.328 70.1015 169.298C70.0617 169.267 70.033 169.224 70.02 169.176C70.007 169.128 70.0104 169.076 70.0296 169.03C70.0487 168.984 70.0827 168.945 70.1261 168.92L73.5417 166.952L70.1261 164.984C70.0738 164.954 70.0356 164.904 70.02 164.846C70.0043 164.788 70.0125 164.726 70.0427 164.673C70.0729 164.621 70.1226 164.583 70.181 164.568C70.2393 164.552 70.3015 164.56 70.3538 164.59L74.111 166.755C74.1456 166.775 74.1744 166.804 74.1943 166.838C74.2143 166.873 74.2249 166.912 74.2249 166.952C74.2249 166.992 74.2143 167.031 74.1943 167.066C74.1744 167.1 74.1456 167.129 74.111 167.149L70.3538 169.314C70.3193 169.334 70.2801 169.344 70.2402 169.344Z" fill="#CBCBCB"/>
<path d="M75.278 170.134C75.2176 170.134 75.1597 170.11 75.117 170.067C75.0743 170.025 75.0503 169.967 75.0503 169.907V163.998C75.0505 163.938 75.0746 163.88 75.1173 163.838C75.16 163.795 75.2178 163.771 75.278 163.771C75.3382 163.771 75.396 163.795 75.4387 163.838C75.4814 163.88 75.5055 163.938 75.5057 163.998V169.907C75.5057 169.967 75.4817 170.025 75.439 170.067C75.3963 170.11 75.3384 170.134 75.278 170.134Z" fill="#CBCBCB"/>
<path d="M33.6116 85.5085C33.3279 85.5085 33.0559 85.621 32.8553 85.8212C32.6547 86.0214 32.542 86.2929 32.542 86.5761C32.542 86.8592 32.6547 87.1307 32.8553 87.3309C33.0559 87.5311 33.3279 87.6435 33.6116 87.6435H62.8366C63.1203 87.6435 63.3924 87.5311 63.593 87.3309C63.7935 87.1307 63.9062 86.8592 63.9062 86.5761C63.9062 86.2929 63.7935 86.0214 63.593 85.8212C63.3924 85.621 63.1203 85.5085 62.8366 85.5085H33.6116Z" fill="#CCCCCC"/>
<path d="M17.0833 100.208C16.7996 100.208 16.5275 100.32 16.327 100.521C16.1264 100.721 16.0137 100.992 16.0137 101.276C16.0137 101.559 16.1264 101.83 16.327 102.03C16.5275 102.231 16.7996 102.343 17.0833 102.343H79.365C79.6487 102.343 79.9207 102.231 80.1213 102.03C80.3219 101.83 80.4346 101.559 80.4346 101.276C80.4346 100.992 80.3219 100.721 80.1213 100.521C79.9207 100.32 79.6487 100.208 79.365 100.208H17.0833Z" fill="#CCCCCC"/>
<path d="M17.0833 108.701C16.7996 108.701 16.5275 108.813 16.327 109.014C16.1264 109.214 16.0137 109.485 16.0137 109.768C16.0137 110.052 16.1264 110.323 16.327 110.523C16.5275 110.723 16.7996 110.836 17.0833 110.836H79.365C79.6487 110.836 79.9207 110.723 80.1213 110.523C80.3219 110.323 80.4346 110.052 80.4346 109.768C80.4346 109.485 80.3219 109.214 80.1213 109.014C79.9207 108.813 79.6487 108.701 79.365 108.701H17.0833Z" fill="#CCCCCC"/>
<path d="M17.0833 117.194C16.7996 117.194 16.5275 117.307 16.327 117.507C16.1264 117.707 16.0137 117.978 16.0137 118.262C16.0137 118.545 16.1264 118.816 16.327 119.016C16.5275 119.217 16.7996 119.329 17.0833 119.329H79.365C79.6487 119.329 79.9207 119.217 80.1213 119.016C80.3219 118.816 80.4346 118.545 80.4346 118.262C80.4346 117.978 80.3219 117.707 80.1213 117.507C79.9207 117.307 79.6487 117.194 79.365 117.194H17.0833Z" fill="#CCCCCC"/>
<path d="M17.0833 125.687C16.7996 125.687 16.5275 125.799 16.327 126C16.1264 126.2 16.0137 126.471 16.0137 126.755C16.0137 127.038 16.1264 127.309 16.327 127.509C16.5275 127.71 16.7996 127.822 17.0833 127.822H79.365C79.6487 127.822 79.9207 127.71 80.1213 127.509C80.3219 127.309 80.4346 127.038 80.4346 126.755C80.4346 126.471 80.3219 126.2 80.1213 126C79.9207 125.799 79.6487 125.687 79.365 125.687H17.0833Z" fill="#CCCCCC"/>
<path d="M17.0833 134.18C16.9428 134.18 16.8037 134.208 16.674 134.261C16.5442 134.315 16.4263 134.393 16.327 134.493C16.2276 134.592 16.1488 134.709 16.0951 134.839C16.0413 134.968 16.0137 135.107 16.0137 135.247C16.0137 135.388 16.0413 135.526 16.0951 135.656C16.1488 135.785 16.2276 135.903 16.327 136.002C16.4263 136.101 16.5442 136.18 16.674 136.234C16.8037 136.287 16.9428 136.315 17.0833 136.315H79.365C79.6487 136.315 79.9207 136.202 80.1213 136.002C80.3219 135.802 80.4346 135.531 80.4346 135.247C80.4346 134.964 80.3219 134.693 80.1213 134.493C79.9207 134.292 79.6487 134.18 79.365 134.18H17.0833Z" fill="#CCCCCC"/>
<path d="M17.0833 142.673C16.7996 142.673 16.5275 142.786 16.327 142.986C16.1264 143.186 16.0137 143.457 16.0137 143.741C16.0137 144.024 16.1264 144.295 16.327 144.495C16.5275 144.696 16.7996 144.808 17.0833 144.808H79.365C79.6487 144.808 79.9207 144.696 80.1213 144.495C80.3219 144.295 80.4346 144.024 80.4346 143.741C80.4346 143.457 80.3219 143.186 80.1213 142.986C79.9207 142.786 79.6487 142.673 79.365 142.673H17.0833Z" fill="#CCCCCC"/>
<path d="M168.32 152.234C168.653 151.956 168.921 151.608 169.104 151.215C169.288 150.823 169.383 150.395 169.383 149.961C169.383 149.528 169.288 149.1 169.104 148.707C168.92 148.315 168.652 147.967 168.32 147.689L166.112 108.909L159.812 110.331L163.977 148.204C163.546 148.793 163.346 149.52 163.416 150.246C163.486 150.972 163.82 151.648 164.355 152.144C164.891 152.641 165.59 152.925 166.321 152.941C167.052 152.958 167.763 152.706 168.32 152.234H168.32Z" fill="#9F616A"/>
<path d="M193.899 157.284C193.556 157.018 193.276 156.68 193.078 156.294C192.881 155.908 192.77 155.484 192.754 155.051C192.739 154.618 192.818 154.187 192.988 153.788C193.157 153.389 193.412 153.032 193.735 152.742L194.534 113.908L200.881 115.101L198.093 153.1C198.545 153.673 198.771 154.392 198.728 155.12C198.684 155.848 198.375 156.536 197.858 157.051C197.341 157.567 196.652 157.875 195.923 157.918C195.193 157.961 194.473 157.735 193.899 157.284H193.899Z" fill="#9F616A"/>
<path d="M197.257 214.999L202.199 214.998L203.609 203.491L197.256 203.492L197.257 214.999Z" fill="#9F616A"/>
<path d="M195.997 213.388L205.73 213.388H205.73C207.375 213.388 208.953 214.04 210.116 215.201C211.279 216.362 211.933 217.936 211.933 219.578V219.779L195.997 219.78L195.997 213.388Z" fill="#1B1B18"/>
<path d="M166.417 214.999L171.36 214.998L172.769 195.972L166.417 195.973L166.417 214.999Z" fill="#9F616A"/>
<path d="M165.157 213.388L174.89 213.388H174.89C176.535 213.388 178.113 214.04 179.276 215.201C180.439 216.362 181.093 217.936 181.093 219.578V219.779L165.157 219.78L165.157 213.388Z" fill="#1B1B18"/>
<path d="M186.72 94.1455C191.186 94.1455 194.806 90.5325 194.806 86.0757C194.806 81.6188 191.186 78.0059 186.72 78.0059C182.255 78.0059 178.635 81.6188 178.635 86.0757C178.635 90.5325 182.255 94.1455 186.72 94.1455Z" fill="#9F616A"/>
<path d="M196.603 102.731C196.603 102.731 200.196 103.03 200.496 104.823C200.795 106.616 200.496 111.996 200.496 111.996C200.496 111.996 202.891 119.17 200.496 120.963C198.1 122.756 191.811 123.055 191.811 123.055L196.603 102.731Z" fill="#F0E967"/>
<path d="M166.057 143.379L162.763 148.759C162.763 148.759 163.961 172.371 164.26 172.969C164.498 173.319 164.604 173.743 164.56 174.164V177.452L165.458 206.145C165.458 206.145 163.062 207.34 166.057 208.237C169.052 209.133 172.945 209.432 173.544 206.443C174.143 203.455 174.171 178.555 174.143 177.751L174.442 176.555L179.234 158.921L190.314 183.429L196.902 210.927C196.902 210.927 206.873 212.076 205.076 208.19C203.28 204.305 198.998 175.36 198.998 175.36C198.998 175.36 198.1 172.371 198.1 171.773C198.1 171.175 197.801 170.876 197.801 170.279C197.801 169.681 197.501 167.888 197.501 167.888L195.405 149.058L166.057 143.379Z" fill="#1B1B18"/>
<path d="M178.635 95.4255C178.635 95.4255 178.815 95.8715 192.125 97.5267C192.125 97.5267 199.598 102.432 199.897 103.628C200.197 104.823 194.207 120.066 194.207 120.066L193.608 131.723C193.608 131.723 196.602 136.763 195.106 152.346C190.426 152.605 171.478 146.457 166.806 143.827C166.096 143.428 164.441 145.189 164.56 144.873C165.458 142.482 164.56 142.781 165.458 142.183C166.357 141.586 167.854 120.664 167.854 120.664C167.854 120.664 166.057 97.9489 168.153 97.3511C170.25 96.7533 178.635 95.4255 178.635 95.4255Z" fill="#F0E967"/>
<path d="M169.052 97.6501C169.052 97.6501 165.458 97.3513 164.56 100.34C163.661 103.329 156.175 114.686 157.672 115.882C159.169 117.078 170.549 121.262 170.849 120.963C171.148 120.664 169.052 97.6501 169.052 97.6501Z" fill="#F0E967"/>
<path d="M196.136 80.9295C195.797 79.6688 195.318 78.4086 194.344 77.5377C193.357 76.6618 192.09 76.1639 190.769 76.1328C189.263 75.2611 187.571 74.7556 185.832 74.6572C184.093 74.5588 182.356 74.8702 180.76 75.5662C180.587 75.2181 180.308 74.934 179.963 74.755C179.866 75.5849 179.77 76.4149 179.674 77.2448C179.303 76.9659 178.931 76.6869 178.56 76.408C178.541 76.8991 178.523 77.3903 178.505 77.8815C178.164 77.5894 177.824 77.2973 177.484 77.0052C177.411 78.7447 178.861 80.2507 180.501 80.8437C182.142 81.4366 183.94 81.3272 185.682 81.245C186.543 81.2044 187.523 81.2191 188.104 81.8541C188.712 82.5193 188.597 83.539 188.612 84.4396C188.633 85.7061 189.936 85.0857 190.589 86.1717C190.824 86.5611 191.105 86.9615 191.096 87.4156C191.035 87.8272 190.885 88.2207 190.658 88.5696C190.177 89.5611 189.22 92.6459 189.677 93.6488C190.522 93.1768 191.367 92.7048 192.212 92.2328C192.212 92.2328 197.778 87.032 196.136 80.9295Z" fill="#1B1B18"/>
<path d="M229.057 220H128.577C128.49 220 128.407 219.966 128.346 219.904C128.284 219.843 128.25 219.76 128.25 219.673C128.25 219.587 128.284 219.504 128.346 219.442C128.407 219.381 128.49 219.347 128.577 219.347H229.057C229.143 219.347 229.227 219.381 229.288 219.442C229.349 219.504 229.384 219.587 229.384 219.673C229.384 219.76 229.349 219.843 229.288 219.904C229.227 219.966 229.143 220 229.057 220Z" fill="#CBCBCB"/>
<path d="M144.419 219.477C144.419 219.477 139.531 210.471 127.708 214.366L144.419 219.477Z" fill="#F1F1F1"/>
<path d="M144.714 219.257C144.714 219.257 138.668 211.587 147.394 202.019L144.714 219.257Z" fill="#F1F1F1"/>
</g>
<defs>
<clipPath id="clip0_889_3955">
<rect width="229.384" height="220" fill="white"/>
</clipPath>
</defs>
</svg>
