<svg width="254" height="220" viewBox="0 0 254 220" fill="none" xmlns="http://www.w3.org/2000/svg">
<g clip-path="url(#clip0_889_4304)">
<path d="M174.54 68.0023C174.531 72.9731 173.049 77.8297 170.28 81.9579C167.512 86.0862 163.581 89.3005 158.986 91.1947C154.391 93.0888 149.338 93.5775 144.465 92.5991C139.592 91.6207 135.119 89.2191 131.61 85.698C128.102 82.1768 125.717 77.6943 124.756 72.8172C123.795 67.9402 124.302 62.8877 126.212 58.2986C128.122 53.7095 131.35 49.79 135.487 47.0357C139.624 44.2813 144.485 42.8159 149.455 42.8247C152.758 42.822 156.028 43.4721 159.079 44.7375C162.129 46.0029 164.899 47.8588 167.23 50.1985C169.561 52.5381 171.407 55.3155 172.662 58.3708C173.916 61.4262 174.554 64.6994 174.54 68.0023Z" fill="#F2F2F2"/>
<path d="M216.363 82.6526L219.896 75.905C216.728 72.0783 206.332 67.4371 206.332 67.4371L192.263 54.629C192.113 54.0575 191.815 53.5357 191.4 53.1159C190.984 52.6961 190.465 52.3932 189.895 52.2377C189.325 52.0822 188.725 52.0796 188.154 52.2302C187.582 52.3807 187.061 52.6791 186.642 53.0952C186.222 53.5114 185.92 54.0307 185.765 54.6008C185.611 55.1709 185.609 55.7718 185.76 56.3428C185.911 56.9139 186.21 57.4351 186.627 57.8539C187.043 58.2727 187.563 58.5743 188.133 58.7284L203.333 76.9613L216.363 82.6526Z" fill="#9E616A"/>
<path d="M214.651 82.1875L219.64 83.7763C223.268 84.9316 227.177 84.8446 230.75 83.5289C231.831 83.1264 232.778 82.4296 233.484 81.5173C234.189 80.6049 234.626 79.5133 234.744 78.3659C234.893 76.8094 234.446 75.2543 233.493 74.0149C232.539 72.7755 231.151 71.9444 229.609 71.6896C224.93 70.9206 218.902 70.5413 216.751 73.1011L216.729 73.127L214.651 82.1875Z" fill="#F0E967"/>
<path d="M178.766 102.844C192.644 102.844 203.895 91.5918 203.895 77.7112C203.895 63.8306 192.644 52.5781 178.766 52.5781C164.887 52.5781 153.637 63.8306 153.637 77.7112C153.637 91.5918 164.887 102.844 178.766 102.844Z" fill="white"/>
<path d="M168.51 67.8808C168.165 69.7341 167.6 71.5394 166.826 73.2582C162.393 82.6372 175.017 79.5802 179.528 79.5802C184.46 79.5802 189.18 82.1743 188.459 70.6477C188.151 65.7241 184.46 61.7153 179.528 61.7153C175.315 61.7153 169.391 63.5883 168.51 67.8808Z" fill="#1B1B18"/>
<path d="M178.789 79.5778C182.797 79.5778 186.046 76.328 186.046 72.3192C186.046 68.3103 182.797 65.0605 178.789 65.0605C174.781 65.0605 171.531 68.3103 171.531 72.3192C171.531 76.328 174.781 79.5778 178.789 79.5778Z" fill="#FFB6B6"/>
<path d="M173.86 64.9203C175.132 64.1449 176.588 63.7254 178.078 63.7058C179.567 63.6862 181.034 64.0671 182.326 64.8087C183.618 65.5503 184.686 66.6254 185.421 67.9215C186.155 69.2177 186.527 70.6873 186.499 72.1767C182.801 73.1053 178.916 73.8159 174.972 72.3988L174.041 70.1191L173.492 72.4005C172.291 72.8914 171.087 73.3069 169.883 72.3957C169.833 70.9105 170.175 69.4385 170.873 68.1266C171.571 66.8148 172.601 65.7092 173.86 64.9203Z" fill="#1B1B18"/>
<path d="M198.305 94.4235C193.951 99.3779 187.824 102.421 181.247 102.897C174.669 103.372 168.168 101.242 163.147 96.9647L165.303 90.9495C165.79 89.8812 166.559 88.9655 167.526 88.3009C168.494 87.6362 169.625 87.2475 170.797 87.1765L172.168 87.0923L175.437 84.2719C175.437 84.2719 184.247 83.9573 184.116 83.8066L189.453 87.017L189.448 86.9948L191.546 87.1233C192.718 87.194 193.849 87.5826 194.817 88.2473C195.784 88.912 196.553 89.8278 197.04 90.8964L198.305 94.4235Z" fill="#164453"/>
<path d="M176.561 197.986L175.936 189.3C171.846 187.255 167.319 186.24 162.747 186.342C169.179 191.314 168.664 201.252 173.118 208.053C174.523 210.164 176.386 211.931 178.567 213.224C180.748 214.517 183.192 215.302 185.718 215.522L191.071 218.602C191.683 214.554 191.411 210.422 190.273 206.49C189.135 202.557 187.158 198.919 184.478 195.824C182.957 194.103 181.226 192.58 179.325 191.292C178.155 194.652 176.561 197.986 176.561 197.986Z" fill="#F2F2F2"/>
<path d="M13.8138 44.0291L13.1894 35.3432C9.09917 33.2982 4.57166 32.2827 0 32.385C6.43171 37.3572 5.91654 47.2951 10.3708 54.0963C11.7763 56.2068 13.6387 57.974 15.8199 59.2669C18.0011 60.5597 20.4452 61.3451 22.9712 61.5648L28.3239 64.6447C28.9362 60.5971 28.6639 56.4648 27.5257 52.5326C26.3875 48.6004 24.4105 44.9617 21.7309 41.8673C20.2104 40.1462 18.4793 38.6235 16.5784 37.335C15.4084 40.6947 13.8138 44.0291 13.8138 44.0291Z" fill="#F2F2F2"/>
<path d="M199.977 215.665L195.801 215.665L193.815 199.558H199.977L199.977 215.665Z" fill="#9E616A"/>
<path d="M201.041 219.713L187.579 219.713V219.542C187.579 218.152 188.131 216.819 189.114 215.837C190.096 214.854 191.429 214.302 192.819 214.301H192.819L195.278 212.436L199.866 214.302L201.042 214.302L201.041 219.713Z" fill="#1B1B18"/>
<path d="M236.775 215.665L232.6 215.665L230.614 199.558H236.776L236.775 215.665Z" fill="#9E616A"/>
<path d="M237.84 219.713L224.377 219.713V219.542C224.377 218.152 224.929 216.819 225.912 215.837C226.895 214.854 228.227 214.302 229.617 214.301H229.617L232.077 212.436L236.665 214.302L237.84 214.302L237.84 219.713Z" fill="#1B1B18"/>
<path d="M230.425 129.458L233.937 162.825C233.937 162.825 238.612 196.235 237.734 200.845C236.856 205.455 237.953 206.114 237.953 206.114L229.942 205.543C229.942 205.543 230.162 202.689 228.845 201.372C227.528 200.055 228.187 196.104 228.187 196.104L212.647 141.751L203.209 170.289C203.209 170.289 201.672 201.68 201.453 202.119C201.233 202.558 200.575 208.485 200.575 208.485H192.454C192.454 208.485 193.551 204.973 192.015 203.875C190.479 202.778 189.162 203.656 190.479 201.68C191.796 199.705 192.234 197.29 191.796 196.192C191.357 195.095 191.357 190.704 191.357 190.704C191.357 190.704 192.015 131.434 195.746 129.458C199.478 127.482 230.425 129.458 230.425 129.458Z" fill="#1B1B18"/>
<path d="M213.794 61.8982C218.564 61.8982 222.431 58.0305 222.431 53.2594C222.431 48.4883 218.564 44.6206 213.794 44.6206C209.023 44.6206 205.156 48.4883 205.156 53.2594C205.156 58.0305 209.023 61.8982 213.794 61.8982Z" fill="#9E616A"/>
<path d="M233.41 133.095C216.682 136.55 194.515 130.61 194.515 130.61L200.428 104.973L198.326 78.1426C198.069 74.8616 199.937 71.7861 202.844 70.6963L206.858 69.1927L210.175 64.4424L219.652 64.7534L223.44 69.7405L226.429 71.3268L232.91 74.7647L232.939 74.7789V74.7932L230.905 94.5248L229.678 106.422C229.678 106.422 233.404 119.803 232.639 121.577C231.875 123.349 232.54 122.493 232.725 123.44C232.91 124.388 233.478 124.447 233.564 126.313C233.652 128.176 233.41 133.095 233.41 133.095Z" fill="#F0E967"/>
<path d="M253.631 220H124.418C124.342 220 124.268 219.969 124.214 219.915C124.16 219.86 124.13 219.787 124.13 219.71C124.13 219.634 124.16 219.56 124.214 219.506C124.268 219.452 124.342 219.421 124.418 219.421H253.631C253.708 219.421 253.782 219.451 253.836 219.506C253.89 219.56 253.921 219.634 253.921 219.71C253.921 219.787 253.89 219.861 253.836 219.915C253.782 219.969 253.708 220 253.631 220Z" fill="#CCCCCC"/>
<path d="M213.374 61.4834C214.889 61.4679 216.399 61.3231 217.89 61.0504C219.365 60.7105 222.62 58.193 223.507 56.7058C224.167 55.6008 224.562 53.8916 224.778 52.6525C225.069 51.0125 225.013 49.3297 224.613 47.7128C224.213 46.096 223.478 44.5812 222.455 43.2666C222.061 42.7159 221.525 42.282 220.905 42.0108C220.85 41.9909 220.793 41.9735 220.736 41.9589C219.837 41.7468 219.021 41.2707 218.394 40.5917C218.272 40.4542 218.141 40.3257 218.001 40.2071C217.297 39.6439 216.471 39.2551 215.588 39.0726C214.163 38.7302 212.124 39.1593 209.528 40.349C208.223 40.9467 206.776 40.78 205.66 40.5679C205.597 40.5575 205.533 40.5636 205.474 40.5857C205.414 40.6078 205.362 40.6451 205.321 40.6939C204.861 41.1493 204.245 41.4135 203.597 41.4333C203.201 41.4609 202.799 42.0209 202.315 42.7501C202.205 42.9156 202.077 43.1088 201.983 43.2266L201.965 43.0053L201.747 43.2584C201.404 43.6562 201.168 44.1343 201.06 44.6481C200.952 45.1619 200.975 45.6948 201.129 46.197C201.282 46.6992 201.56 47.1544 201.936 47.5204C202.313 47.8863 202.776 48.151 203.282 48.2898C203.683 48.3856 204.094 48.4402 204.507 48.4527C204.757 48.4687 205.016 48.4853 205.264 48.5218C206.063 48.664 206.811 49.0108 207.435 49.5284C208.06 50.046 208.539 50.7167 208.827 51.4751C208.895 51.6503 209.003 51.8076 209.141 51.9348C209.279 52.0619 209.445 52.1556 209.625 52.2085C209.806 52.2614 209.996 52.2722 210.181 52.24C210.366 52.2078 210.542 52.1334 210.693 52.0227C210.946 51.8153 211.245 51.672 211.565 51.6052C211.885 51.5383 212.216 51.5499 212.531 51.6388C212.804 51.7818 213.02 52.0145 213.143 52.2979C213.291 52.6133 213.529 52.8775 213.828 53.0567C214.846 53.5491 214.975 55.8432 214.663 57.7665C214.363 59.6204 213.71 60.9728 213.074 61.0552C212.585 61.1186 212.53 61.1548 212.497 61.2425L212.467 61.3209L212.524 61.3921C212.798 61.4833 213.087 61.5144 213.374 61.4834Z" fill="#1B1B18"/>
<path d="M178.766 103.159C173.733 103.159 168.814 101.667 164.63 98.8706C160.446 96.0744 157.184 92.1 155.259 87.45C153.333 82.8 152.829 77.6833 153.811 72.7469C154.792 67.8105 157.216 63.2761 160.774 59.7172C164.333 56.1582 168.866 53.7346 173.802 52.7527C178.737 51.7707 183.853 52.2747 188.503 54.2008C193.152 56.1269 197.126 59.3886 199.921 63.5735C202.717 67.7583 204.209 72.6784 204.209 77.7115C204.202 84.4584 201.519 90.9267 196.749 95.6974C191.979 100.468 185.511 103.152 178.766 103.159ZM178.766 52.8934C173.858 52.8934 169.06 54.3489 164.98 57.076C160.899 59.803 157.718 63.6791 155.84 68.214C153.962 72.749 153.471 77.7391 154.428 82.5533C155.386 87.3676 157.749 91.7897 161.219 95.2606C164.69 98.7315 169.111 101.095 173.925 102.053C178.738 103.01 183.727 102.519 188.262 100.641C192.796 98.7621 196.671 95.5811 199.398 91.4998C202.125 87.4184 203.58 82.6201 203.58 77.7115C203.572 71.1316 200.956 64.8234 196.304 60.1707C191.652 55.518 185.345 52.9008 178.766 52.8934Z" fill="#F0E967"/>
<path d="M90.9387 50.581C104.817 50.581 116.068 39.3286 116.068 25.448C116.068 11.5674 104.817 0.314941 90.9387 0.314941C77.0602 0.314941 65.8096 11.5674 65.8096 25.448C65.8096 39.3286 77.0602 50.581 90.9387 50.581Z" fill="white"/>
<path d="M92.1019 28.0115C96.6274 28.0115 100.296 24.3423 100.296 19.816C100.296 15.2898 96.6274 11.6206 92.1019 11.6206C87.5764 11.6206 83.9077 15.2898 83.9077 19.816C83.9077 24.3423 87.5764 28.0115 92.1019 28.0115Z" fill="#FFB8B8"/>
<path d="M99.3164 14.4018C99.3164 14.4018 101.45 10.3226 96.7561 9.95177C96.7561 9.95177 92.7547 6.3214 88.6762 9.28809C88.6762 9.28809 86.4515 9.28809 85.235 11.806C85.235 11.806 83.4853 11.1423 83.1008 12.9185C83.1008 12.9185 81.8205 16.6268 83.1008 19.9643C84.3811 23.3019 84.8063 23.6727 84.8063 23.6727C84.8063 23.6727 83.908 19.531 89.0289 19.1602C94.1497 18.7893 98.8476 15.5809 99.2744 19.66C99.7011 23.7392 100.17 21.8965 100.17 21.8965C100.17 21.8965 104.224 16.0706 99.3164 14.4018Z" fill="#1B1B18"/>
<path d="M109.837 42.1598C105.483 47.1143 99.3565 50.1577 92.7788 50.6332C86.2011 51.1086 79.7003 48.9779 74.6797 44.701L76.8351 38.6859C77.3222 37.6175 78.0908 36.7019 79.0586 36.0372C80.0264 35.3725 81.1569 34.9838 82.3287 34.9128L83.6999 34.8286L86.9696 32.0082C86.9696 32.0082 95.7794 31.6936 95.6487 31.543L100.985 34.7533L100.981 34.7311L103.078 34.8596C104.25 34.9303 105.381 35.3189 106.349 35.9836C107.317 36.6483 108.085 37.5641 108.572 38.6327L109.837 42.1598Z" fill="#164453"/>
<path d="M90.939 50.8957C85.9067 50.8957 80.9873 49.4032 76.8031 46.607C72.6189 43.8107 69.3577 39.8363 67.4319 35.1863C65.5061 30.5363 65.0023 25.4196 65.984 20.4832C66.9658 15.5468 69.3891 11.0125 72.9475 7.45351C76.5058 3.89457 81.0395 1.4709 85.9751 0.488986C90.9107 -0.492926 96.0266 0.0110245 100.676 1.93711C105.325 3.8632 109.299 7.12491 112.095 11.3098C114.891 15.4947 116.383 20.4147 116.383 25.4479C116.375 32.1947 113.692 38.663 108.922 43.4337C104.152 48.2045 97.6847 50.888 90.939 50.8957ZM90.939 0.629692C86.0312 0.629691 81.2336 2.08525 77.1529 4.8123C73.0722 7.53936 69.8917 11.4154 68.0136 15.9504C66.1355 20.4853 65.644 25.4754 66.6015 30.2896C67.559 35.1039 69.9223 39.5261 73.3926 42.9969C76.863 46.4678 81.2844 48.8315 86.0979 49.7891C90.9114 50.7468 95.9008 50.2553 100.435 48.3768C104.969 46.4984 108.845 43.3174 111.571 39.2361C114.298 35.1548 115.753 30.3564 115.753 25.4479C115.746 18.868 113.129 12.5597 108.477 7.90701C103.825 3.25432 97.5178 0.637156 90.939 0.629692Z" fill="#F0E967"/>
<path d="M32.2858 90.2509C46.1642 90.2509 57.4149 78.9985 57.4149 65.1179C57.4149 51.2373 46.1642 39.9849 32.2858 39.9849C18.4074 39.9849 7.15674 51.2373 7.15674 65.1179C7.15674 78.9985 18.4074 90.2509 32.2858 90.2509Z" fill="white"/>
<path d="M20.6387 56.942C21.6778 53.63 24.0407 50.5923 27.3085 49.4727C30.5765 48.353 35.3617 50.0586 37.8185 52.5075C42.3125 56.987 43.4092 72.3758 40.3217 77.2388C39.7076 77.2063 37.5884 77.1822 36.9669 77.159L36.0876 74.2279V77.1301C35.0973 77.0995 34.0993 77.0783 33.0936 77.0667C29.7215 77.0249 26.497 75.6771 24.0979 73.3067C21.6989 70.9363 20.3121 67.728 20.2291 64.3562C20.1487 61.1305 20.2292 58.2472 20.6387 56.942Z" fill="#1B1B18"/>
<path d="M31.9131 67.9187C35.8683 67.9187 39.0747 64.7119 39.0747 60.756C39.0747 56.8001 35.8683 53.5933 31.9131 53.5933C27.9578 53.5933 24.7515 56.8001 24.7515 60.756C24.7515 64.7119 27.9578 67.9187 31.9131 67.9187Z" fill="#9E616A"/>
<path d="M25.7324 54.4655L33.9783 50.3359C35.6642 51.0957 37.1161 52.2928 38.1834 53.8029C39.2508 55.313 39.8948 57.0813 40.0487 58.9242L40.2542 61.3865L36.8012 60.5074L36.4229 57.3589L35.8366 60.2618L34.243 59.8563L34.2582 54.9682L32.6637 59.8528L26.9723 58.545L25.7324 54.4655Z" fill="#1B1B18"/>
<path d="M50.9331 81.7497C46.5796 86.7041 40.4526 89.7475 33.875 90.223C27.2973 90.6984 20.7965 88.5678 15.7759 84.2909L17.9313 78.2757C18.4183 77.2073 19.187 76.2917 20.1548 75.627C21.1226 74.9623 22.253 74.5736 23.4249 74.5026L24.7961 74.4185L28.0657 71.5981C28.0657 71.5981 36.8755 71.2835 36.7448 71.1328L42.0812 74.3431L42.0768 74.321L44.1746 74.4495C45.3465 74.5202 46.4771 74.9087 47.445 75.5734C48.4128 76.2382 49.1814 77.154 49.6682 78.2225L50.9331 81.7497Z" fill="#164453"/>
<path d="M32.2861 90.5656C27.2538 90.5656 22.3345 89.0731 18.1503 86.2769C13.9661 83.4806 10.7049 79.5062 8.77909 74.8563C6.85331 70.2063 6.34944 65.0896 7.33119 60.1532C8.31295 55.2168 10.7362 50.6824 14.2946 47.1234C17.853 43.5645 22.3867 41.1408 27.3223 40.1589C32.2579 39.177 37.3738 39.6809 42.0231 41.607C46.6723 43.5331 50.6461 46.7948 53.4419 50.9797C56.2377 55.1646 57.73 60.0847 57.73 65.1178C57.7223 71.8646 55.0392 78.3329 50.2692 83.1037C45.4992 87.8744 39.0319 90.558 32.2861 90.5656ZM32.2861 40.2996C27.3783 40.2996 22.5808 41.7552 18.5001 44.4822C14.4194 47.2093 11.2389 51.0854 9.36075 55.6203C7.48262 60.1552 6.99121 65.1453 7.94868 69.9596C8.90614 74.7738 11.2695 79.196 14.7398 82.6669C18.2101 86.1378 22.6316 88.5015 27.4451 89.4591C32.2586 90.4167 37.2479 89.9252 41.7821 88.0468C46.3163 86.1684 50.1918 82.9873 52.9184 78.906C55.6451 74.8247 57.1004 70.0264 57.1004 65.1178C57.0929 58.5379 54.4762 52.2296 49.8242 47.5769C45.1723 42.9242 38.865 40.3071 32.2861 40.2996V40.2996Z" fill="#F0E967"/>
<path d="M201.974 90.75L198.17 84.1514C193.242 84.7775 183.755 91.0709 183.755 91.0709L165.404 96.0927C164.842 95.9131 164.242 95.885 163.664 96.0111C163.087 96.1373 162.554 96.4132 162.117 96.8112C161.681 97.2092 161.357 97.7151 161.178 98.2782C160.999 98.8412 160.972 99.4414 161.098 100.018C161.225 100.595 161.502 101.129 161.9 101.565C162.299 102.001 162.805 102.324 163.368 102.503C163.931 102.681 164.531 102.708 165.108 102.58C165.685 102.453 166.218 102.175 166.653 101.776L190.189 98.7058L201.974 90.75Z" fill="#9E616A"/>
<path d="M200.664 91.946L209.181 84.8108L210.421 79.0674C210.66 77.939 210.579 76.7662 210.186 75.6815C209.794 74.5968 209.106 73.6435 208.201 72.9293C206.966 71.9693 205.414 71.5139 203.857 71.6551C202.3 71.7963 200.855 72.5235 199.813 73.6897C196.658 77.2292 193.108 82.1175 194.117 85.3051L194.128 85.3374L200.664 91.946Z" fill="#F0E967"/>
<path d="M70.1187 116.734H38.1154C37.2577 116.733 36.4354 116.391 35.829 115.785C35.2225 115.178 34.8813 114.356 34.8804 113.498V93.7839C34.8813 92.9261 35.2225 92.1037 35.829 91.4971C36.4354 90.8905 37.2577 90.5493 38.1154 90.5483H70.1187C70.9764 90.5493 71.7986 90.8905 72.4051 91.4971C73.0116 92.1037 73.3527 92.9261 73.3537 93.7839V113.498C73.3527 114.356 73.0116 115.178 72.4051 115.785C71.7986 116.391 70.9764 116.733 70.1187 116.734Z" fill="#E6E6E6"/>
<path d="M57.4031 114.194H40.3648C39.5616 114.193 38.7914 113.874 38.2234 113.306C37.6554 112.737 37.3359 111.967 37.335 111.164V96.1176C37.3359 95.3142 37.6554 94.544 38.2234 93.9759C38.7914 93.4078 39.5616 93.0883 40.3648 93.0874H67.8689C68.6722 93.0883 69.4423 93.4078 70.0103 93.9759C70.5783 94.544 70.8978 95.3142 70.8987 96.1176V100.696C70.8946 104.275 69.4714 107.706 66.9414 110.236C64.4113 112.767 60.9811 114.19 57.4031 114.194Z" fill="white"/>
<path d="M65.1253 101.326H43.1087C42.9182 101.326 42.7356 101.251 42.6009 101.116C42.4663 100.981 42.3906 100.799 42.3906 100.608C42.3906 100.418 42.4663 100.235 42.6009 100.1C42.7356 99.9658 42.9182 99.8901 43.1087 99.8901H65.1253C65.3158 99.8901 65.4984 99.9658 65.6331 100.1C65.7677 100.235 65.8434 100.418 65.8434 100.608C65.8434 100.799 65.7677 100.981 65.6331 101.116C65.4984 101.251 65.3158 101.326 65.1253 101.326Z" fill="#164453"/>
<path d="M46.5527 104.164H43.1087C42.9183 104.164 42.7356 104.089 42.6009 103.954C42.4663 103.819 42.3906 103.637 42.3906 103.446C42.3906 103.256 42.4663 103.073 42.6009 102.938C42.7356 102.804 42.9183 102.728 43.1087 102.728H46.5527C46.7431 102.728 46.9258 102.804 47.0604 102.938C47.1951 103.073 47.2707 103.256 47.2707 103.446C47.2707 103.637 47.1951 103.819 47.0604 103.954C46.9258 104.089 46.7431 104.164 46.5527 104.164Z" fill="#164453"/>
<path d="M52.6524 107.002H43.1087C42.9185 107.002 42.7362 106.926 42.6019 106.791C42.4675 106.657 42.3921 106.474 42.3921 106.284C42.3921 106.094 42.4675 105.911 42.6019 105.777C42.7362 105.642 42.9185 105.566 43.1087 105.566H52.6524C52.8425 105.566 53.0248 105.642 53.1591 105.777C53.2935 105.911 53.3689 106.094 53.3689 106.284C53.3689 106.474 53.2935 106.657 53.1591 106.791C53.0248 106.926 52.8425 107.002 52.6524 107.002Z" fill="#164453"/>
<path d="M33.7636 96.9268C37.5026 96.9268 40.5336 93.8953 40.5336 90.1558C40.5336 86.4163 37.5026 83.3848 33.7636 83.3848C30.0247 83.3848 26.9937 86.4163 26.9937 90.1558C26.9937 93.8953 30.0247 96.9268 33.7636 96.9268Z" fill="#F0E967"/>
<path d="M153.224 27.3185H121.22C120.363 27.3176 119.54 26.9764 118.934 26.3698C118.327 25.7632 117.986 24.9408 117.985 24.083V4.36885C117.986 3.51103 118.327 2.68862 118.934 2.08205C119.54 1.47548 120.363 1.13427 121.22 1.1333H153.224C154.081 1.13427 154.904 1.47547 155.51 2.08204C156.117 2.68862 156.458 3.51103 156.459 4.36885V24.083C156.458 24.9408 156.117 25.7632 155.51 26.3698C154.904 26.9764 154.081 27.3176 153.224 27.3185Z" fill="#E6E6E6"/>
<path d="M140.508 24.7795H123.47C122.667 24.7786 121.896 24.4591 121.328 23.891C120.76 23.3229 120.441 22.5527 120.44 21.7493V6.70304C120.441 5.89964 120.76 5.12942 121.328 4.56134C121.896 3.99327 122.667 3.67374 123.47 3.67285H150.974C151.777 3.67374 152.547 3.99328 153.115 4.56136C153.683 5.12944 154.003 5.89966 154.004 6.70304V11.2819C154 14.8605 152.576 18.2913 150.046 20.8217C147.516 23.3521 144.086 24.7755 140.508 24.7795Z" fill="white"/>
<path d="M148.23 11.9119H126.214C126.023 11.9119 125.841 11.8362 125.706 11.7015C125.571 11.5669 125.496 11.3842 125.496 11.1937C125.496 11.0033 125.571 10.8206 125.706 10.6859C125.841 10.5512 126.023 10.4756 126.214 10.4756H148.23C148.421 10.4756 148.603 10.5512 148.738 10.6859C148.873 10.8206 148.948 11.0033 148.948 11.1937C148.948 11.3842 148.873 11.5669 148.738 11.7015C148.603 11.8362 148.421 11.9119 148.23 11.9119Z" fill="#164453"/>
<path d="M129.658 14.7494H126.214C126.023 14.7494 125.841 14.6737 125.706 14.539C125.571 14.4043 125.496 14.2216 125.496 14.0312C125.496 13.8407 125.571 13.658 125.706 13.5233C125.841 13.3887 126.023 13.313 126.214 13.313H129.658C129.848 13.313 130.031 13.3887 130.165 13.5233C130.3 13.658 130.376 13.8407 130.376 14.0312C130.376 14.2216 130.3 14.4043 130.165 14.539C130.031 14.6737 129.848 14.7494 129.658 14.7494Z" fill="#164453"/>
<path d="M135.757 17.5873H126.214C126.023 17.5869 125.841 17.511 125.707 17.3764C125.573 17.2417 125.497 17.0593 125.497 16.8691C125.497 16.6788 125.573 16.4964 125.707 16.3618C125.841 16.2271 126.023 16.1513 126.214 16.1509H135.757C135.948 16.1509 136.13 16.2265 136.265 16.3612C136.4 16.4959 136.475 16.6786 136.475 16.8691C136.475 17.0595 136.4 17.2422 136.265 17.3769C136.13 17.5116 135.948 17.5873 135.757 17.5873Z" fill="#164453"/>
<path d="M116.869 31.125C120.608 31.125 123.639 28.0936 123.639 24.354C123.639 20.6145 120.608 17.583 116.869 17.583C113.13 17.583 110.099 20.6145 110.099 24.354C110.099 28.0936 113.13 31.125 116.869 31.125Z" fill="#F0E967"/>
</g>
<defs>
<clipPath id="clip0_889_4304">
<rect width="253.921" height="220" fill="white"/>
</clipPath>
</defs>
</svg>
