<svg width="691" height="503" viewBox="0 0 691 503" fill="none" xmlns="http://www.w3.org/2000/svg">
<g clip-path="url(#clip0_792_3573)">
<path d="M402.506 88.6729C415.457 88.6729 425.955 78.1654 425.955 65.2037C425.955 52.2419 415.457 41.7344 402.506 41.7344C389.556 41.7344 379.057 52.2419 379.057 65.2037C379.057 78.1654 389.556 88.6729 402.506 88.6729Z" fill="#F2F2F2"/>
<path d="M584.409 436.984C619.263 410.413 635.91 365.764 625.488 323.172C625.23 322.114 624.956 321.058 624.668 320.004C617.759 294.722 600.665 270.693 575.752 262.615C554.833 255.832 531.999 261.048 510.176 258.351C467.335 253.056 434.121 218.363 410.752 182.039C387.382 145.715 369.421 105.055 338.367 75.0463C287.181 25.5817 203.682 14.9319 140.218 47.1297C76.7536 79.3276 36.3275 150.761 38.0516 221.954C39.7757 293.146 82.0032 361.211 143.328 397.324C165.856 410.59 191.912 419.988 217.843 416.7C240.343 413.846 260.787 401.746 283.182 398.154C318.39 392.506 353.375 408.439 383.828 427.005C414.281 445.572 443.696 467.578 478.302 476.186C511.904 484.544 553.533 460.521 584.409 436.984Z" fill="#F2F2F2"/>
<path d="M534.331 48.6249C533.567 48.1151 532.794 47.6316 532.03 47.1394C509.944 33.0018 486.271 21.5165 461.501 12.9209L455.757 92.222H419.346V1.34483C417.054 0.870184 414.744 0.421908 412.434 0V92.222H369.165C345.344 92.222 322.499 82.7512 305.656 65.8931C288.812 49.0349 279.349 26.1704 279.349 2.32938V2.3293C277.031 2.83032 274.73 3.3665 272.429 3.93783V92.222H237.186L231.715 16.6038C206.259 26.3748 182.093 39.224 159.753 54.8656C159.367 55.1293 158.981 55.4018 158.603 55.6655C156.662 57.0279 154.748 58.4167 152.842 59.823V362.357H256.709L254.873 336.911L244.774 197.198H448.16L438.061 336.911L436.225 362.357H538.942V51.6837C537.414 50.6466 535.877 49.6269 534.331 48.6249ZM272.429 174.125H243.105L237.687 99.1483H272.429V174.125ZM412.434 174.125H363.184V172.639C363.184 171.925 363.043 171.218 362.77 170.559C362.497 169.899 362.096 169.3 361.591 168.795C361.086 168.291 360.487 167.891 359.828 167.618C359.168 167.346 358.461 167.206 357.748 167.207H336.337C335.624 167.207 334.918 167.347 334.26 167.62C333.601 167.893 333.003 168.293 332.498 168.798C331.994 169.302 331.595 169.901 331.322 170.56C331.049 171.219 330.909 171.926 330.909 172.639V174.125H279.349V99.1483H412.434V174.125ZM419.346 174.125V99.1483H455.256L449.838 174.125H419.346Z" fill="#515148"/>
<path d="M0 381.73C7.62931 390.778 15.8813 399.281 24.6955 407.177L666.304 408.056C675.119 400.16 683.371 391.657 691 382.609L0 381.73Z" fill="#515148"/>
<path d="M435.096 300.249V375.581C435.096 376.541 435.478 377.461 436.156 378.14C436.834 378.819 437.754 379.201 438.713 379.202H550.251C551.21 379.201 552.13 378.819 552.808 378.14C553.486 377.461 553.868 376.541 553.868 375.581V300.249C553.866 299.29 553.484 298.371 552.806 297.693C552.128 297.015 551.209 296.634 550.251 296.633H438.713C437.755 296.634 436.836 297.015 436.158 297.693C435.48 298.371 435.098 299.29 435.096 300.249V300.249Z" fill="#515148"/>
<path d="M437.712 301.187V374.652C437.713 375.165 437.917 375.657 438.28 376.019C438.642 376.382 439.133 376.586 439.646 376.587H549.322C549.835 376.586 550.326 376.382 550.689 376.019C551.051 375.657 551.255 375.165 551.256 374.652V301.187C551.256 300.674 551.052 300.181 550.69 299.817C550.327 299.454 549.836 299.249 549.322 299.248H439.646C439.133 299.249 438.641 299.454 438.278 299.817C437.916 300.181 437.712 300.674 437.712 301.187V301.187Z" fill="#2B84A1"/>
<path d="M432.763 390.273C432.968 390.529 433.227 390.736 433.523 390.878C433.818 391.019 434.142 391.092 434.47 391.09H553.901C554.227 391.09 554.55 391.017 554.844 390.876C555.139 390.735 555.399 390.53 555.605 390.276C555.81 390.022 555.957 389.726 556.034 389.408C556.111 389.09 556.116 388.76 556.049 388.44L554.195 379.626C554.118 379.267 553.953 378.932 553.714 378.653C553.475 378.374 553.17 378.159 552.827 378.028C552.578 377.931 552.314 377.881 552.047 377.881H436.317C436.05 377.881 435.785 377.931 435.537 378.028C435.194 378.159 434.889 378.374 434.65 378.653C434.411 378.932 434.245 379.267 434.168 379.626L432.314 388.44C432.248 388.759 432.255 389.09 432.332 389.407C432.41 389.724 432.557 390.02 432.763 390.273V390.273Z" fill="#363630"/>
<path d="M547.949 381.678H550.77C551.006 381.678 551.198 381.486 551.198 381.249V379.898C551.198 379.661 551.006 379.469 550.77 379.469H547.949C547.712 379.469 547.52 379.661 547.52 379.898V381.249C547.52 381.486 547.712 381.678 547.949 381.678Z" fill="#515148"/>
<path d="M540.592 381.678H543.413C543.65 381.678 543.842 381.486 543.842 381.249V379.898C543.842 379.661 543.65 379.469 543.413 379.469H540.592C540.355 379.469 540.163 379.661 540.163 379.898V381.249C540.163 381.486 540.355 381.678 540.592 381.678Z" fill="#515148"/>
<path d="M533.235 381.678H536.056C536.293 381.678 536.485 381.486 536.485 381.249V379.898C536.485 379.661 536.293 379.469 536.056 379.469H533.235C532.998 379.469 532.806 379.661 532.806 379.898V381.249C532.806 381.486 532.998 381.678 533.235 381.678Z" fill="#515148"/>
<path d="M525.878 381.678H528.699C528.936 381.678 529.128 381.486 529.128 381.249V379.898C529.128 379.661 528.936 379.469 528.699 379.469H525.878C525.641 379.469 525.449 379.661 525.449 379.898V381.249C525.449 381.486 525.641 381.678 525.878 381.678Z" fill="#515148"/>
<path d="M518.521 381.678H521.342C521.579 381.678 521.771 381.486 521.771 381.249V379.898C521.771 379.661 521.579 379.469 521.342 379.469H518.521C518.285 379.469 518.093 379.661 518.093 379.898V381.249C518.093 381.486 518.285 381.678 518.521 381.678Z" fill="#515148"/>
<path d="M511.164 381.678H513.985C514.222 381.678 514.414 381.486 514.414 381.249V379.898C514.414 379.661 514.222 379.469 513.985 379.469H511.164C510.928 379.469 510.736 379.661 510.736 379.898V381.249C510.736 381.486 510.928 381.678 511.164 381.678Z" fill="#515148"/>
<path d="M503.808 381.678H506.629C506.866 381.678 507.058 381.486 507.058 381.249V379.898C507.058 379.661 506.866 379.469 506.629 379.469H503.808C503.571 379.469 503.379 379.661 503.379 379.898V381.249C503.379 381.486 503.571 381.678 503.808 381.678Z" fill="#515148"/>
<path d="M496.451 381.678H499.272C499.509 381.678 499.701 381.486 499.701 381.249V379.898C499.701 379.661 499.509 379.469 499.272 379.469H496.451C496.214 379.469 496.022 379.661 496.022 379.898V381.249C496.022 381.486 496.214 381.678 496.451 381.678Z" fill="#515148"/>
<path d="M489.094 381.678H491.915C492.152 381.678 492.344 381.486 492.344 381.249V379.898C492.344 379.661 492.152 379.469 491.915 379.469H489.094C488.857 379.469 488.665 379.661 488.665 379.898V381.249C488.665 381.486 488.857 381.678 489.094 381.678Z" fill="#515148"/>
<path d="M481.737 381.678H484.558C484.795 381.678 484.987 381.486 484.987 381.249V379.898C484.987 379.661 484.795 379.469 484.558 379.469H481.737C481.5 379.469 481.308 379.661 481.308 379.898V381.249C481.308 381.486 481.5 381.678 481.737 381.678Z" fill="#515148"/>
<path d="M474.381 381.678H477.202C477.438 381.678 477.63 381.486 477.63 381.249V379.898C477.63 379.661 477.438 379.469 477.202 379.469H474.381C474.144 379.469 473.952 379.661 473.952 379.898V381.249C473.952 381.486 474.144 381.678 474.381 381.678Z" fill="#515148"/>
<path d="M467.024 381.678H469.845C470.081 381.678 470.273 381.486 470.273 381.249V379.898C470.273 379.661 470.081 379.469 469.845 379.469H467.024C466.787 379.469 466.595 379.661 466.595 379.898V381.249C466.595 381.486 466.787 381.678 467.024 381.678Z" fill="#515148"/>
<path d="M459.667 381.678H462.488C462.725 381.678 462.917 381.486 462.917 381.249V379.898C462.917 379.661 462.725 379.469 462.488 379.469H459.667C459.43 379.469 459.238 379.661 459.238 379.898V381.249C459.238 381.486 459.43 381.678 459.667 381.678Z" fill="#515148"/>
<path d="M452.31 381.678H455.131C455.368 381.678 455.56 381.486 455.56 381.249V379.898C455.56 379.661 455.368 379.469 455.131 379.469H452.31C452.073 379.469 451.881 379.661 451.881 379.898V381.249C451.881 381.486 452.073 381.678 452.31 381.678Z" fill="#515148"/>
<path d="M444.953 381.678H447.774C448.011 381.678 448.203 381.486 448.203 381.249V379.898C448.203 379.661 448.011 379.469 447.774 379.469H444.953C444.717 379.469 444.525 379.661 444.525 379.898V381.249C444.525 381.486 444.717 381.678 444.953 381.678Z" fill="#515148"/>
<path d="M437.597 381.678H440.417C440.654 381.678 440.846 381.486 440.846 381.249V379.898C440.846 379.661 440.654 379.469 440.417 379.469H437.597C437.36 379.469 437.168 379.661 437.168 379.898V381.249C437.168 381.486 437.36 381.678 437.597 381.678Z" fill="#515148"/>
<path d="M548.035 385.359H550.856C551.093 385.359 551.285 385.167 551.285 384.93V383.58C551.285 383.343 551.093 383.15 550.856 383.15H548.035C547.799 383.15 547.607 383.343 547.607 383.58V384.93C547.607 385.167 547.799 385.359 548.035 385.359Z" fill="#515148"/>
<path d="M540.679 385.359H543.5C543.737 385.359 543.929 385.167 543.929 384.93V383.58C543.929 383.343 543.737 383.15 543.5 383.15H540.679C540.442 383.15 540.25 383.343 540.25 383.58V384.93C540.25 385.167 540.442 385.359 540.679 385.359Z" fill="#515148"/>
<path d="M533.322 385.359H536.143C536.38 385.359 536.572 385.167 536.572 384.93V383.58C536.572 383.343 536.38 383.15 536.143 383.15H533.322C533.085 383.15 532.893 383.343 532.893 383.58V384.93C532.893 385.167 533.085 385.359 533.322 385.359Z" fill="#515148"/>
<path d="M525.965 385.359H528.786C529.023 385.359 529.215 385.167 529.215 384.93V383.58C529.215 383.343 529.023 383.15 528.786 383.15H525.965C525.728 383.15 525.536 383.343 525.536 383.58V384.93C525.536 385.167 525.728 385.359 525.965 385.359Z" fill="#515148"/>
<path d="M518.608 385.359H521.429C521.666 385.359 521.858 385.167 521.858 384.93V383.58C521.858 383.343 521.666 383.15 521.429 383.15H518.608C518.371 383.15 518.18 383.343 518.18 383.58V384.93C518.18 385.167 518.371 385.359 518.608 385.359Z" fill="#515148"/>
<path d="M511.251 385.359H514.072C514.309 385.359 514.501 385.167 514.501 384.93V383.58C514.501 383.343 514.309 383.15 514.072 383.15H511.251C511.015 383.15 510.823 383.343 510.823 383.58V384.93C510.823 385.167 511.015 385.359 511.251 385.359Z" fill="#515148"/>
<path d="M503.895 385.359H506.716C506.953 385.359 507.145 385.167 507.145 384.93V383.58C507.145 383.343 506.953 383.15 506.716 383.15H503.895C503.658 383.15 503.466 383.343 503.466 383.58V384.93C503.466 385.167 503.658 385.359 503.895 385.359Z" fill="#515148"/>
<path d="M496.538 385.359H499.359C499.596 385.359 499.788 385.167 499.788 384.93V383.58C499.788 383.343 499.596 383.15 499.359 383.15H496.538C496.301 383.15 496.109 383.343 496.109 383.58V384.93C496.109 385.167 496.301 385.359 496.538 385.359Z" fill="#515148"/>
<path d="M489.181 385.359H492.002C492.239 385.359 492.431 385.167 492.431 384.93V383.58C492.431 383.343 492.239 383.15 492.002 383.15H489.181C488.944 383.15 488.752 383.343 488.752 383.58V384.93C488.752 385.167 488.944 385.359 489.181 385.359Z" fill="#515148"/>
<path d="M481.824 385.359H484.645C484.882 385.359 485.074 385.167 485.074 384.93V383.58C485.074 383.343 484.882 383.15 484.645 383.15H481.824C481.587 383.15 481.395 383.343 481.395 383.58V384.93C481.395 385.167 481.587 385.359 481.824 385.359Z" fill="#515148"/>
<path d="M474.467 385.359H477.288C477.525 385.359 477.717 385.167 477.717 384.93V383.58C477.717 383.343 477.525 383.15 477.288 383.15H474.467C474.23 383.15 474.038 383.343 474.038 383.58V384.93C474.038 385.167 474.23 385.359 474.467 385.359Z" fill="#515148"/>
<path d="M467.111 385.359H469.932C470.168 385.359 470.36 385.167 470.36 384.93V383.58C470.36 383.343 470.168 383.15 469.932 383.15H467.111C466.874 383.15 466.682 383.343 466.682 383.58V384.93C466.682 385.167 466.874 385.359 467.111 385.359Z" fill="#515148"/>
<path d="M459.754 385.359H462.575C462.811 385.359 463.003 385.167 463.003 384.93V383.58C463.003 383.343 462.811 383.15 462.575 383.15H459.754C459.517 383.15 459.325 383.343 459.325 383.58V384.93C459.325 385.167 459.517 385.359 459.754 385.359Z" fill="#515148"/>
<path d="M452.397 385.359H455.218C455.455 385.359 455.646 385.167 455.646 384.93V383.58C455.646 383.343 455.455 383.15 455.218 383.15H452.397C452.16 383.15 451.968 383.343 451.968 383.58V384.93C451.968 385.167 452.16 385.359 452.397 385.359Z" fill="#515148"/>
<path d="M445.04 385.359H447.861C448.098 385.359 448.29 385.167 448.29 384.93V383.58C448.29 383.343 448.098 383.15 447.861 383.15H445.04C444.804 383.15 444.612 383.343 444.612 383.58V384.93C444.612 385.167 444.804 385.359 445.04 385.359Z" fill="#515148"/>
<path d="M437.683 385.359H440.504C440.741 385.359 440.933 385.167 440.933 384.93V383.58C440.933 383.343 440.741 383.15 440.504 383.15H437.683C437.447 383.15 437.255 383.343 437.255 383.58V384.93C437.255 385.167 437.447 385.359 437.683 385.359Z" fill="#515148"/>
<path d="M486.974 389.777H515.544C515.781 389.777 515.973 389.585 515.973 389.348V387.998C515.973 387.761 515.781 387.568 515.544 387.568H486.974C486.737 387.568 486.545 387.761 486.545 387.998V389.348C486.545 389.585 486.737 389.777 486.974 389.777Z" fill="#515148"/>
<path d="M456.705 315.32H454.208C453.451 315.32 452.837 315.935 452.837 316.692C452.837 317.45 453.451 318.065 454.208 318.065H456.705C457.462 318.065 458.076 317.45 458.076 316.692C458.076 315.935 457.462 315.32 456.705 315.32Z" fill="white"/>
<path d="M485.267 315.32H482.77C482.013 315.32 481.399 315.935 481.399 316.692C481.399 317.45 482.013 318.065 482.77 318.065H485.267C486.024 318.065 486.638 317.45 486.638 316.692C486.638 315.935 486.024 315.32 485.267 315.32Z" fill="white"/>
<path d="M493.36 315.32H490.863C490.106 315.32 489.492 315.935 489.492 316.692C489.492 317.45 490.106 318.065 490.863 318.065H493.36C494.117 318.065 494.731 317.45 494.731 316.692C494.731 315.935 494.117 315.32 493.36 315.32Z" fill="white"/>
<path d="M477.499 315.092H461.977C461.22 315.092 460.606 315.706 460.606 316.464C460.606 317.222 461.22 317.836 461.977 317.836H477.499C478.256 317.836 478.87 317.222 478.87 316.464C478.87 315.706 478.256 315.092 477.499 315.092Z" fill="white"/>
<path d="M515.582 315.092H500.06C499.303 315.092 498.689 315.706 498.689 316.464C498.689 317.222 499.303 317.836 500.06 317.836H515.582C516.339 317.836 516.952 317.222 516.952 316.464C516.952 315.706 516.339 315.092 515.582 315.092Z" fill="white"/>
<path d="M464.322 321.514H461.825C461.067 321.514 460.454 322.128 460.454 322.886C460.454 323.644 461.067 324.258 461.825 324.258H464.322C465.079 324.258 465.693 323.644 465.693 322.886C465.693 322.128 465.079 321.514 464.322 321.514Z" fill="white"/>
<path d="M492.884 321.514H490.387C489.629 321.514 489.016 322.128 489.016 322.886C489.016 323.644 489.629 324.258 490.387 324.258H492.884C493.641 324.258 494.255 323.644 494.255 322.886C494.255 322.128 493.641 321.514 492.884 321.514Z" fill="white"/>
<path d="M500.977 321.514H498.479C497.722 321.514 497.108 322.128 497.108 322.886C497.108 323.644 497.722 324.258 498.479 324.258H500.977C501.734 324.258 502.348 323.644 502.348 322.886C502.348 322.128 501.734 321.514 500.977 321.514Z" fill="white"/>
<path d="M485.115 321.285H469.594C468.836 321.285 468.223 321.9 468.223 322.657C468.223 323.415 468.836 324.029 469.594 324.029H485.115C485.872 324.029 486.486 323.415 486.486 322.657C486.486 321.9 485.872 321.285 485.115 321.285Z" fill="white"/>
<path d="M523.198 321.285H507.677C506.919 321.285 506.306 321.9 506.306 322.657C506.306 323.415 506.919 324.029 507.677 324.029H523.198C523.955 324.029 524.569 323.415 524.569 322.657C524.569 321.9 523.955 321.285 523.198 321.285Z" fill="white"/>
<path d="M471.939 327.709H469.441C468.684 327.709 468.07 328.323 468.07 329.081C468.07 329.839 468.684 330.453 469.441 330.453H471.939C472.696 330.453 473.31 329.839 473.31 329.081C473.31 328.323 472.696 327.709 471.939 327.709Z" fill="white"/>
<path d="M500.501 327.709H498.003C497.246 327.709 496.632 328.323 496.632 329.081C496.632 329.839 497.246 330.453 498.003 330.453H500.501C501.258 330.453 501.872 329.839 501.872 329.081C501.872 328.323 501.258 327.709 500.501 327.709Z" fill="white"/>
<path d="M508.593 327.709H506.096C505.339 327.709 504.725 328.323 504.725 329.081C504.725 329.839 505.339 330.453 506.096 330.453H508.593C509.351 330.453 509.964 329.839 509.964 329.081C509.964 328.323 509.351 327.709 508.593 327.709Z" fill="white"/>
<path d="M492.732 327.48H477.21C476.453 327.48 475.839 328.095 475.839 328.853C475.839 329.61 476.453 330.225 477.21 330.225H492.732C493.489 330.225 494.103 329.61 494.103 328.853C494.103 328.095 493.489 327.48 492.732 327.48Z" fill="white"/>
<path d="M530.815 327.48H515.293C514.536 327.48 513.922 328.095 513.922 328.853C513.922 329.61 514.536 330.225 515.293 330.225H530.815C531.572 330.225 532.186 329.61 532.186 328.853C532.186 328.095 531.572 327.48 530.815 327.48Z" fill="white"/>
<path d="M479.555 333.902H477.058C476.3 333.902 475.687 334.517 475.687 335.274C475.687 336.032 476.3 336.647 477.058 336.647H479.555C480.312 336.647 480.926 336.032 480.926 335.274C480.926 334.517 480.312 333.902 479.555 333.902Z" fill="white"/>
<path d="M508.117 333.902H505.62C504.863 333.902 504.249 334.517 504.249 335.274C504.249 336.032 504.863 336.647 505.62 336.647H508.117C508.875 336.647 509.488 336.032 509.488 335.274C509.488 334.517 508.875 333.902 508.117 333.902Z" fill="white"/>
<path d="M516.21 333.902H513.713C512.956 333.902 512.342 334.517 512.342 335.274C512.342 336.032 512.956 336.647 513.713 336.647H516.21C516.967 336.647 517.581 336.032 517.581 335.274C517.581 334.517 516.967 333.902 516.21 333.902Z" fill="white"/>
<path d="M500.348 333.674H484.826C484.069 333.674 483.456 334.288 483.456 335.046C483.456 335.804 484.069 336.418 484.826 336.418H500.348C501.105 336.418 501.719 335.804 501.719 335.046C501.719 334.288 501.105 333.674 500.348 333.674Z" fill="white"/>
<path d="M485.267 358.531H482.77C482.013 358.531 481.399 359.146 481.399 359.903C481.399 360.661 482.013 361.276 482.77 361.276H485.267C486.024 361.276 486.638 360.661 486.638 359.903C486.638 359.146 486.024 358.531 485.267 358.531Z" fill="white"/>
<path d="M493.36 358.531H490.863C490.106 358.531 489.492 359.146 489.492 359.903C489.492 360.661 490.106 361.276 490.863 361.276H493.36C494.117 361.276 494.731 360.661 494.731 359.903C494.731 359.146 494.117 358.531 493.36 358.531Z" fill="white"/>
<path d="M515.582 358.76H500.06C499.303 358.76 498.689 359.374 498.689 360.132C498.689 360.89 499.303 361.504 500.06 361.504H515.582C516.339 361.504 516.952 360.89 516.952 360.132C516.952 359.374 516.339 358.76 515.582 358.76Z" fill="white"/>
<path d="M456.705 358.531H454.208C453.451 358.531 452.837 359.146 452.837 359.903C452.837 360.661 453.451 361.276 454.208 361.276H456.705C457.462 361.276 458.076 360.661 458.076 359.903C458.076 359.146 457.462 358.531 456.705 358.531Z" fill="white"/>
<path d="M477.499 358.76H461.977C461.22 358.76 460.606 359.374 460.606 360.132C460.606 360.89 461.22 361.504 461.977 361.504H477.499C478.256 361.504 478.87 360.89 478.87 360.132C478.87 359.374 478.256 358.76 477.499 358.76Z" fill="white"/>
<path d="M464.322 352.338H461.825C461.067 352.338 460.454 352.952 460.454 353.71C460.454 354.468 461.067 355.082 461.825 355.082H464.322C465.079 355.082 465.693 354.468 465.693 353.71C465.693 352.952 465.079 352.338 464.322 352.338Z" fill="white"/>
<path d="M492.884 352.338H490.387C489.629 352.338 489.016 352.952 489.016 353.71C489.016 354.468 489.629 355.082 490.387 355.082H492.884C493.641 355.082 494.255 354.468 494.255 353.71C494.255 352.952 493.641 352.338 492.884 352.338Z" fill="white"/>
<path d="M500.977 352.338H498.479C497.722 352.338 497.108 352.952 497.108 353.71C497.108 354.468 497.722 355.082 498.479 355.082H500.977C501.734 355.082 502.348 354.468 502.348 353.71C502.348 352.952 501.734 352.338 500.977 352.338Z" fill="white"/>
<path d="M485.115 352.566H469.594C468.836 352.566 468.223 353.181 468.223 353.939C468.223 354.696 468.836 355.311 469.594 355.311H485.115C485.872 355.311 486.486 354.696 486.486 353.939C486.486 353.181 485.872 352.566 485.115 352.566Z" fill="white"/>
<path d="M471.939 346.145H469.441C468.684 346.145 468.07 346.759 468.07 347.517C468.07 348.275 468.684 348.889 469.441 348.889H471.939C472.696 348.889 473.31 348.275 473.31 347.517C473.31 346.759 472.696 346.145 471.939 346.145Z" fill="white"/>
<path d="M500.501 346.145H498.003C497.246 346.145 496.632 346.759 496.632 347.517C496.632 348.275 497.246 348.889 498.003 348.889H500.501C501.258 348.889 501.872 348.275 501.872 347.517C501.872 346.759 501.258 346.145 500.501 346.145Z" fill="white"/>
<path d="M508.593 346.145H506.096C505.339 346.145 504.725 346.759 504.725 347.517C504.725 348.275 505.339 348.889 506.096 348.889H508.593C509.351 348.889 509.964 348.275 509.964 347.517C509.964 346.759 509.351 346.145 508.593 346.145Z" fill="white"/>
<path d="M492.732 346.373H477.21C476.453 346.373 475.839 346.987 475.839 347.745C475.839 348.503 476.453 349.117 477.21 349.117H492.732C493.489 349.117 494.103 348.503 494.103 347.745C494.103 346.987 493.489 346.373 492.732 346.373Z" fill="white"/>
<path d="M479.555 339.949H477.058C476.3 339.949 475.687 340.564 475.687 341.321C475.687 342.079 476.3 342.694 477.058 342.694H479.555C480.312 342.694 480.926 342.079 480.926 341.321C480.926 340.564 480.312 339.949 479.555 339.949Z" fill="white"/>
<path d="M508.117 339.949H505.62C504.863 339.949 504.249 340.564 504.249 341.321C504.249 342.079 504.863 342.694 505.62 342.694H508.117C508.875 342.694 509.488 342.079 509.488 341.321C509.488 340.564 508.875 339.949 508.117 339.949Z" fill="white"/>
<path d="M516.21 339.949H513.713C512.956 339.949 512.342 340.564 512.342 341.321C512.342 342.079 512.956 342.694 513.713 342.694H516.21C516.967 342.694 517.581 342.079 517.581 341.321C517.581 340.564 516.967 339.949 516.21 339.949Z" fill="white"/>
<path d="M500.348 340.18H484.826C484.069 340.18 483.456 340.794 483.456 341.552C483.456 342.31 484.069 342.924 484.826 342.924H500.348C501.105 342.924 501.719 342.31 501.719 341.552C501.719 340.794 501.105 340.18 500.348 340.18Z" fill="white"/>
<path d="M443.428 431.122L431.704 412.574L468.503 383.214L483.692 366.372C485.666 364.184 488.178 362.552 490.979 361.64C493.78 360.729 496.77 360.569 499.652 361.176C502.534 361.784 505.206 363.137 507.402 365.102C509.597 367.067 511.238 369.574 512.162 372.373C513.531 376.521 513.237 381.039 511.341 384.973C509.445 388.907 506.097 391.951 502.001 393.461L477.983 402.317L443.428 431.122Z" fill="#FFB6B6"/>
<path d="M168.346 296.637V386.785H231.446V296.637C231.447 295.989 231.24 295.357 230.856 294.835C230.472 294.313 229.931 293.928 229.312 293.737C229.02 293.64 228.714 293.593 228.407 293.596H171.393C170.993 293.595 170.598 293.673 170.228 293.826C169.859 293.978 169.523 294.202 169.24 294.484C168.957 294.767 168.732 295.102 168.579 295.472C168.425 295.841 168.346 296.237 168.346 296.637V296.637ZM192.971 327.612C192.987 325.835 193.704 324.136 194.966 322.885C196.227 321.634 197.931 320.933 199.707 320.933C201.483 320.933 203.187 321.634 204.448 322.885C205.709 324.136 206.426 325.835 206.443 327.612V338.072C206.434 339.854 205.72 341.56 204.458 342.817C203.196 344.074 201.487 344.779 199.707 344.779C197.926 344.779 196.218 344.074 194.956 342.817C193.694 341.56 192.98 339.854 192.971 338.072V327.612Z" fill="#363630"/>
<path d="M168.152 383.902V392.595C168.154 393.046 168.333 393.477 168.65 393.797C168.967 394.116 169.397 394.297 169.847 394.301H229.944C230.394 394.298 230.825 394.118 231.143 393.798C231.461 393.479 231.639 393.046 231.639 392.595V383.902H168.152Z" fill="#515148"/>
<path d="M69.0806 160.818V325.415C69.0822 327.512 69.9155 329.523 71.3974 331.007C72.8793 332.49 74.8888 333.324 76.9845 333.325H320.69C322.786 333.324 324.795 332.49 326.277 331.007C327.759 329.523 328.593 327.512 328.594 325.415V160.818C328.589 158.722 327.755 156.714 326.273 155.233C324.792 153.752 322.784 152.919 320.69 152.916H76.9845C74.8906 152.919 72.8831 153.752 71.4016 155.233C69.9202 156.714 69.0856 158.722 69.0806 160.818Z" fill="#515148"/>
<path d="M74.7979 162.866V323.384C74.7998 324.505 75.2454 325.579 76.0372 326.371C76.829 327.164 77.9023 327.61 79.0221 327.612H318.662C319.781 327.61 320.855 327.164 321.646 326.371C322.438 325.579 322.884 324.505 322.886 323.384V162.866C322.886 161.743 322.441 160.667 321.649 159.873C320.857 159.079 319.783 158.631 318.662 158.629H79.0221C77.901 158.631 76.8266 159.079 76.0347 159.873C75.2428 160.667 74.798 161.743 74.7979 162.866Z" fill="white"/>
<path d="M119.271 393.711C119.515 394.017 119.825 394.264 120.178 394.433C120.531 394.602 120.917 394.689 121.308 394.687H263.879C264.268 394.686 264.653 394.599 265.005 394.431C265.357 394.263 265.667 394.018 265.913 393.715C266.158 393.412 266.333 393.058 266.425 392.679C266.517 392.299 266.523 391.904 266.443 391.522L264.23 381.001C264.138 380.572 263.941 380.173 263.655 379.84C263.37 379.507 263.006 379.25 262.596 379.094C262.3 378.977 261.984 378.918 261.665 378.918H123.513C123.194 378.918 122.878 378.977 122.582 379.094C122.172 379.25 121.808 379.506 121.523 379.84C121.238 380.173 121.04 380.572 120.948 381.001L118.735 391.522C118.657 391.904 118.664 392.299 118.756 392.677C118.849 393.056 119.025 393.409 119.271 393.711Z" fill="#363630"/>
<path d="M310.885 180.742H86.6548C86.4218 180.737 86.2 180.641 86.037 180.474C85.874 180.307 85.7827 180.083 85.7827 179.85C85.7827 179.616 85.874 179.392 86.037 179.225C86.2 179.059 86.4218 178.962 86.6548 178.957H310.885C311.118 178.962 311.339 179.059 311.502 179.225C311.665 179.392 311.757 179.616 311.757 179.85C311.757 180.083 311.665 180.307 311.502 180.474C311.339 180.641 311.118 180.737 310.885 180.742V180.742Z" fill="#515148"/>
<path d="M101.919 174.399C104.805 174.399 107.144 172.005 107.144 169.052C107.144 166.099 104.805 163.705 101.919 163.705C99.0325 163.705 96.6929 166.099 96.6929 169.052C96.6929 172.005 99.0325 174.399 101.919 174.399Z" fill="#515148"/>
<path d="M119.971 174.399C122.857 174.399 125.197 172.005 125.197 169.052C125.197 166.099 122.857 163.705 119.971 163.705C117.085 163.705 114.745 166.099 114.745 169.052C114.745 172.005 117.085 174.399 119.971 174.399Z" fill="#515148"/>
<path d="M138.024 174.399C140.91 174.399 143.249 172.005 143.249 169.052C143.249 166.099 140.91 163.705 138.024 163.705C135.138 163.705 132.798 166.099 132.798 169.052C132.798 172.005 135.138 174.399 138.024 174.399Z" fill="#515148"/>
<path d="M300.014 165.027H287.192C286.938 165.033 286.697 165.138 286.52 165.32C286.343 165.501 286.244 165.745 286.244 165.999C286.244 166.252 286.343 166.496 286.52 166.678C286.697 166.859 286.938 166.964 287.192 166.97H300.014C300.269 166.966 300.512 166.862 300.691 166.681C300.87 166.499 300.971 166.254 300.971 165.999C300.971 165.743 300.87 165.498 300.691 165.317C300.512 165.135 300.269 165.031 300.014 165.027Z" fill="#515148"/>
<path d="M300.014 168.676H287.192C286.938 168.681 286.697 168.786 286.519 168.968C286.342 169.149 286.243 169.393 286.243 169.647C286.243 169.901 286.342 170.145 286.519 170.326C286.697 170.508 286.938 170.613 287.192 170.618H300.014C300.269 170.615 300.513 170.512 300.693 170.33C300.872 170.148 300.973 169.903 300.973 169.647C300.973 169.391 300.872 169.146 300.693 168.964C300.513 168.783 300.269 168.679 300.014 168.676V168.676Z" fill="#515148"/>
<path d="M300.014 172.324H287.192C286.938 172.33 286.697 172.435 286.52 172.617C286.343 172.798 286.244 173.042 286.244 173.295C286.244 173.549 286.343 173.793 286.52 173.974C286.697 174.156 286.938 174.261 287.192 174.267H300.014C300.269 174.263 300.512 174.159 300.691 173.977C300.87 173.796 300.971 173.551 300.971 173.295C300.971 173.04 300.87 172.795 300.691 172.613C300.512 172.432 300.269 172.328 300.014 172.324V172.324Z" fill="#515148"/>
<path d="M609.128 387.716C609.515 388.844 610.249 389.82 611.225 390.504C612.201 391.188 613.368 391.545 614.559 391.523L637.824 390.924C639.024 390.901 640.184 390.489 641.131 389.751C642.077 389.014 642.76 387.989 643.077 386.831L646.369 351.595C647.537 352.124 648.809 352.386 650.091 352.36C651.205 352.332 652.302 352.085 653.321 351.633C654.339 351.18 655.258 350.531 656.026 349.723C656.794 348.915 657.395 347.963 657.796 346.923C658.196 345.882 658.388 344.773 658.36 343.658C658.332 342.543 658.085 341.444 657.633 340.425C657.181 339.406 656.533 338.486 655.725 337.717C654.918 336.949 653.967 336.347 652.927 335.946C651.887 335.545 650.779 335.353 649.665 335.381C649.153 335.38 648.641 335.433 648.14 335.54C647.595 334.95 646.933 334.481 646.196 334.162C645.458 333.844 644.663 333.684 643.86 333.692L608.072 334.617C607.775 334.628 607.48 334.664 607.189 334.726C606.404 334.873 605.66 335.186 605.006 335.644C604.352 336.103 603.804 336.696 603.399 337.384C602.993 338.073 602.74 338.84 602.655 339.635C602.571 340.429 602.658 341.232 602.909 341.991L609.128 387.716ZM647.044 349.202L649.387 340.806C649.653 339.836 649.66 338.813 649.405 337.84C649.519 337.839 649.619 337.785 649.733 337.785C651.339 337.752 652.893 338.358 654.054 339.469C655.215 340.581 655.888 342.108 655.925 343.716C655.963 345.323 655.362 346.88 654.254 348.045C653.147 349.21 651.623 349.888 650.017 349.93C648.978 349.963 647.95 349.711 647.044 349.202Z" fill="#363630"/>
<path d="M607.189 334.727C607.952 339.091 616.524 342.158 626.832 341.625C636.31 341.188 644.06 337.857 645.48 333.909C644.954 333.753 644.408 333.68 643.86 333.693L608.072 334.618C607.775 334.629 607.48 334.665 607.189 334.727V334.727Z" fill="#515148"/>
<path d="M628.72 368.355C628.768 368.343 628.812 368.324 628.853 368.297L633.905 364.987C633.967 364.947 634.017 364.893 634.051 364.828C634.086 364.764 634.104 364.692 634.104 364.62C634.105 364.547 634.086 364.475 634.052 364.411C634.017 364.346 633.967 364.292 633.906 364.252L628.654 360.809C628.606 360.777 628.552 360.755 628.495 360.744C628.438 360.733 628.38 360.734 628.324 360.745C628.267 360.757 628.213 360.78 628.165 360.812C628.118 360.845 628.077 360.886 628.045 360.935C628.013 360.983 627.991 361.037 627.981 361.094C627.97 361.151 627.971 361.209 627.983 361.266C627.994 361.323 628.017 361.376 628.05 361.424C628.083 361.472 628.125 361.512 628.173 361.544L632.863 364.619L628.372 367.562C628.285 367.618 628.221 367.704 628.192 367.804C628.162 367.904 628.169 368.011 628.211 368.106C628.252 368.201 628.326 368.278 628.42 368.324C628.513 368.37 628.62 368.381 628.72 368.355H628.72Z" fill="#2B84A1"/>
<path d="M620.74 368.723C620.825 368.702 620.902 368.655 620.96 368.59C621.018 368.525 621.056 368.444 621.068 368.357C621.08 368.27 621.065 368.182 621.027 368.103C620.988 368.025 620.927 367.96 620.851 367.916L616.194 365.244L620.695 361.897C620.742 361.863 620.781 361.82 620.81 361.77C620.84 361.721 620.859 361.666 620.868 361.609C620.876 361.552 620.873 361.494 620.859 361.438C620.845 361.382 620.82 361.329 620.786 361.283C620.751 361.236 620.708 361.197 620.659 361.168C620.609 361.138 620.555 361.119 620.498 361.11C620.441 361.102 620.382 361.105 620.327 361.119C620.271 361.133 620.218 361.158 620.172 361.192L615.132 364.939C615.074 364.982 615.027 365.04 614.996 365.106C614.965 365.172 614.951 365.245 614.955 365.317C614.96 365.39 614.982 365.461 615.02 365.523C615.059 365.585 615.112 365.636 615.175 365.673L620.414 368.678C620.513 368.735 620.63 368.751 620.74 368.723V368.723Z" fill="#2B84A1"/>
<path d="M628.218 371.254C628.261 371.244 628.301 371.226 628.339 371.203C628.388 371.173 628.431 371.134 628.465 371.087C628.499 371.041 628.524 370.988 628.537 370.932C628.551 370.876 628.553 370.818 628.545 370.761C628.536 370.703 628.516 370.649 628.486 370.599L621.323 358.814C621.263 358.714 621.165 358.643 621.052 358.616C620.939 358.588 620.819 358.607 620.72 358.668C620.621 358.728 620.549 358.826 620.522 358.939C620.494 359.052 620.513 359.172 620.573 359.271L627.735 371.057C627.784 371.137 627.857 371.2 627.944 371.235C628.031 371.271 628.127 371.277 628.218 371.254Z" fill="#2B84A1"/>
<path d="M255.308 331.238L255.498 331.84L255.508 331.86L261.239 349.297L267.831 369.391L280.234 407.153L280.354 413.019V413.039L281.276 460.226L278.721 466.623L281.596 477.112C281.596 477.112 280.274 461.258 273.181 470.362C269.164 475.536 264.465 480.83 260.608 485.794C266.228 488.07 271.939 490.129 277.739 491.97C278.992 492.371 280.254 492.753 281.516 493.134C281.787 493.214 282.057 493.294 282.328 493.374C301.556 499.065 321.435 502.264 341.477 502.89C342.518 502.92 343.54 502.94 344.532 502.96C344.883 502.97 345.224 502.98 345.564 502.98C346.686 502.99 347.798 503 348.92 503C351.184 503 353.439 502.967 355.683 502.9C372.293 502.431 388.806 500.196 404.943 496.232C404.833 489.564 404.533 481.773 404.102 473.45C403.901 469.369 399.403 464.948 399.133 460.676C398.942 457.467 402.98 454.449 402.769 451.19C401.407 431.126 399.704 438.828 398.441 424.62C398.311 423.226 398.191 421.893 398.081 420.619C397.269 411.495 396.708 405.789 396.708 405.789L402.098 371.787L410.564 318.403L409.912 317.331L409.181 316.97L364.529 294.85L362.105 288.633C361.398 286.842 360.173 285.304 358.585 284.215C356.998 283.127 355.122 282.539 353.198 282.527L323.784 282.406C322.258 282.399 320.751 282.757 319.391 283.449C318.03 284.142 316.854 285.149 315.96 286.387L307.995 297.427L255.308 331.238Z" fill="#515148"/>
<path d="M287.016 398.751L280.354 413.019L275.806 422.766L267.981 463.766L264.064 467.927L260.708 453.196L225.581 461.002C224.429 454.595 225.273 461.219 224.562 454.19C224.762 453.99 224.972 453.789 225.183 453.589C225.744 453.067 226.215 452.576 226.205 452.105C225.804 427.859 227.006 386.598 237.045 361.6C238.617 357.519 240.69 353.649 243.216 350.079C243.416 349.809 243.607 349.538 243.797 349.267C248.425 342.78 251.351 336.392 255.498 331.85V331.84C255.524 331.819 255.548 331.796 255.569 331.77C255.584 331.763 255.597 331.752 255.609 331.74L284.101 316.619L285.323 350.992L286.195 375.699L287.016 398.751Z" fill="#515148"/>
<path d="M389.755 402.803L398.077 420.624L400.981 426.83L408.804 467.827L412.708 471.978L416.072 457.251L417.653 456.926L446.158 451.017L454.467 477.427C456.339 474.304 457.077 470.63 456.555 467.026C456.033 463.421 454.284 460.108 451.603 457.645C451.035 457.131 450.562 456.631 450.576 456.158C451.049 427.641 449.306 375.57 433.567 354.139C428.568 347.338 425.569 340.564 421.206 335.831C421.192 335.818 421.192 335.804 421.179 335.804L410.56 318.402L409.911 317.334L409.182 316.969L389.755 402.803Z" fill="#515148"/>
<path d="M339.34 274.028C360.952 274.028 378.472 256.493 378.472 234.863C378.472 213.232 360.952 195.697 339.34 195.697C317.728 195.697 300.208 213.232 300.208 234.863C300.208 256.493 317.728 274.028 339.34 274.028Z" fill="#FFB6B6"/>
<path d="M392.232 207.506C391.929 207.182 391.563 206.922 391.157 206.742C390.751 206.562 390.314 206.466 389.87 206.46L390.458 204.825C390.65 204.31 390.702 203.753 390.608 203.212C390.515 202.67 390.279 202.163 389.925 201.743C389.571 201.322 389.112 201.004 388.594 200.819C388.077 200.635 387.52 200.592 386.98 200.694L384.838 201.107L385.039 199.674C385.117 199.141 385.054 198.596 384.858 198.094C384.661 197.592 384.337 197.15 383.918 196.811C383.499 196.472 382.999 196.249 382.467 196.162C381.936 196.075 381.39 196.128 380.886 196.317C380.426 196.497 379.932 196.573 379.44 196.538C378.948 196.503 378.469 196.358 378.04 196.114C377.609 195.878 377.235 195.55 376.944 195.154C376.653 194.757 376.451 194.302 376.354 193.82L375.607 190.216L375.528 190.023C371.893 183.958 364.902 179.546 356.348 177.928C348.734 176.478 340.927 177.216 333.4 177.911C330.414 178.192 327.042 178.508 324.232 180.231C321.843 181.708 319.823 184.661 320.236 187.641C312.815 185.364 304.858 189.909 300.915 195.64C296.243 202.461 295.479 211.004 295.356 217.684C295.022 233.488 298.28 246.418 305.016 256.122C305.508 256.825 305.631 258.293 306.606 258.785L306.404 258.46C307.493 259.005 308.599 259.884 308.187 260.824C307.001 263.532 314.879 269.518 320.429 271.495C330.555 275.108 344.018 274.8 353.485 273.499L353.819 271.258C357.235 270.792 359.641 269.904 360.318 268.515C361.512 267.496 362.531 266.582 363.418 265.738L363.427 265.729C363.444 265.712 363.479 265.685 363.497 265.668C367.774 261.563 368.766 259.225 369.214 255.665C369.644 252.175 368.88 248.633 368.099 245.442C384.556 247.991 361.617 227.898 376.951 224.013C377.127 223.959 377.306 223.915 377.487 223.881C377.935 223.776 378.383 223.67 378.813 223.547C380.887 222.984 382.873 222.135 384.715 221.025C389 218.414 390.414 214.951 392.627 211.048C392.947 210.492 393.081 209.849 393.009 209.212C392.938 208.575 392.666 207.977 392.232 207.506V207.506Z" fill="#363630"/>
<path d="M477.744 405.59C477.735 407.128 477.718 409.282 477.647 411.945C477.639 412.314 477.63 412.692 477.621 413.079C477.507 417.975 477.393 422.08 477.208 426.642C477.2 426.958 477.191 427.266 477.173 427.582C476.927 433.946 476.541 441.356 475.873 453.09C474.635 474.766 472.475 456.07 470.305 463.673C470.2 464.051 470.086 464.499 469.981 465.027C469.652 466.94 469.098 468.808 468.329 470.59C467.179 471.276 465.993 471.935 464.825 472.595C461.497 474.449 458.116 476.233 454.708 477.93C452.794 478.879 450.871 479.811 448.939 480.707C448.631 480.848 448.333 480.989 448.034 481.121C438.14 485.701 427.943 489.595 417.516 492.776C415.478 493.391 413.45 493.989 411.395 494.542C409.252 495.14 407.109 495.703 404.94 496.23C388.803 500.195 372.29 502.432 355.68 502.902C353.441 502.972 351.184 502.998 348.918 502.998C347.794 502.998 346.687 502.989 345.563 502.981C345.221 502.981 344.878 502.972 344.536 502.963C343.543 502.937 342.516 502.919 341.48 502.893C321.438 502.267 301.559 499.068 282.332 493.373L281.515 493.136C280.25 492.749 278.994 492.371 277.739 491.967C271.942 490.13 266.231 488.073 260.604 485.797C256.31 484.065 252.065 482.208 247.87 480.224C247.832 480.214 247.796 480.196 247.765 480.171C246.887 479.767 246 479.345 245.121 478.914C245.007 478.853 244.884 478.791 244.761 478.73C241.486 477.13 238.245 475.454 235.04 473.702C232.343 467.505 228.549 466.319 226.196 460.869C225.511 459.25 225.016 457.557 224.72 455.824C224.72 455.806 224.712 455.788 224.712 455.762C224.958 459.032 223.667 449.961 224.703 455.727C224.694 455.621 224.685 455.507 224.677 455.375C224.65 455.059 224.615 454.672 224.562 454.189C221.55 424.752 221.743 391.087 220.435 363.347C220.347 361.554 220.256 359.837 220.163 358.196C220.136 357.651 220.101 357.115 220.066 356.587C220.127 356.429 220.198 356.262 220.277 356.104C220.294 356.058 220.314 356.014 220.338 355.972C220.364 355.918 220.393 355.865 220.426 355.814C220.444 355.788 220.47 355.752 220.487 355.726C220.5 355.696 220.515 355.667 220.531 355.638C220.61 355.515 220.698 355.383 220.795 355.26C220.839 355.207 220.874 355.163 220.918 355.12C220.948 355.075 220.983 355.033 221.023 354.997C221.05 354.954 221.083 354.916 221.12 354.882C221.155 354.847 221.19 354.803 221.234 354.759C221.253 354.732 221.277 354.708 221.304 354.689C221.374 354.609 221.45 354.535 221.533 354.469C221.846 354.181 222.181 353.916 222.534 353.678C222.657 353.599 222.788 353.52 222.911 353.432C223.796 352.902 224.728 352.455 225.695 352.096C226.029 351.973 226.363 351.859 226.723 351.736C226.855 351.7 226.977 351.656 227.109 351.612C227.302 351.551 227.496 351.489 227.698 351.445C228.699 351.147 229.779 350.892 230.947 350.654C231.088 350.628 231.237 350.602 231.386 350.566C231.597 350.523 231.816 350.487 232.036 350.452C232.335 350.399 232.642 350.347 232.949 350.294C235.558 349.881 238.517 349.573 241.784 349.371C242.092 349.354 242.399 349.336 242.706 349.318C243.066 349.301 243.427 349.283 243.795 349.266C244.103 349.248 244.419 349.239 244.735 349.23C245.042 349.213 245.359 349.204 245.684 349.195C246.571 349.169 247.484 349.143 248.415 349.125C251.067 349.072 253.86 349.09 256.793 349.151C258.154 349.187 259.542 349.222 260.965 349.283C261.061 349.283 261.149 349.292 261.237 349.292C262.475 349.336 263.722 349.389 265.004 349.459C265.9 349.503 266.805 349.547 267.709 349.6C268.561 349.652 269.422 349.705 270.291 349.767C270.967 349.802 271.644 349.855 272.329 349.898C272.908 349.942 273.488 349.986 274.068 350.022L274.858 350.074C275.288 350.109 275.719 350.136 276.158 350.18C277.124 350.259 278.09 350.338 279.073 350.417C280.048 350.505 281.041 350.593 282.033 350.681C283.025 350.769 284.027 350.865 285.028 350.962C285.133 350.971 285.23 350.98 285.326 350.988C286.24 351.085 287.153 351.173 288.075 351.27C288.286 351.287 288.505 351.305 288.716 351.331C289.595 351.42 290.492 351.523 291.379 351.617C291.651 351.647 291.922 351.675 292.195 351.705C292.89 351.781 293.575 351.847 294.275 351.929C295.197 352.034 296.137 352.131 297.05 352.254C297.762 352.333 298.473 352.412 299.185 352.5C300.3 352.632 301.433 352.773 302.566 352.922C302.996 352.975 303.426 353.028 303.857 353.089C307.089 353.493 310.355 353.942 313.675 354.408C318.707 355.12 323.819 355.893 328.965 356.728C334.12 357.563 339.305 358.445 344.518 359.374C345.836 359.611 347.153 359.848 348.479 360.095C349.076 360.209 349.673 360.323 350.27 360.437C351.289 360.622 352.308 360.815 353.327 361.009C354.345 361.202 355.364 361.395 356.383 361.598C357.595 361.835 358.816 362.072 360.027 362.31C368.011 363.892 375.95 365.579 383.696 367.346C384.969 367.636 386.242 367.935 387.507 368.225C390.036 368.814 392.542 369.412 395.025 370.018C395.71 370.176 396.386 370.343 397.062 370.51C398.748 370.932 400.434 371.354 402.094 371.785L402.384 371.864C403.605 372.163 404.799 372.471 405.993 372.787C408.813 373.525 411.585 374.272 414.31 375.028C416.119 375.529 417.908 376.036 419.676 376.549C422.32 377.314 424.91 378.087 427.431 378.869C428.054 379.063 428.678 379.256 429.293 379.441C431.137 380.012 432.955 380.592 434.72 381.172C436.125 381.629 437.495 382.095 438.848 382.561C440.2 383.027 441.526 383.493 442.826 383.959C443.66 384.258 444.486 384.574 445.311 384.873C446.497 385.312 447.665 385.752 448.807 386.191C449.158 386.323 449.5 386.464 449.843 386.596C450.062 386.692 450.273 386.771 450.484 386.859C450.897 387.026 451.318 387.185 451.722 387.352C452.135 387.51 452.539 387.677 452.943 387.853C453.338 388.011 453.742 388.178 454.129 388.345C454.524 388.503 454.91 388.67 455.297 388.846C455.622 388.978 455.938 389.118 456.245 389.259C456.869 389.531 457.492 389.804 458.098 390.085C458.397 390.226 458.695 390.358 458.994 390.498L459.679 390.815C459.776 390.867 459.872 390.911 459.969 390.955C460.188 391.061 460.417 391.175 460.636 391.281C461.146 391.518 461.646 391.773 462.138 392.01C462.797 392.344 463.438 392.678 464.053 393.003C464.676 393.337 465.282 393.671 465.862 393.997C465.958 394.049 466.046 394.102 466.143 394.155C466.274 394.225 466.406 394.304 466.538 394.375C466.986 394.629 467.416 394.893 467.846 395.148C468.69 395.667 469.489 396.176 470.235 396.686C470.402 396.8 470.56 396.915 470.727 397.02C471.28 397.416 471.807 397.802 472.299 398.198C472.299 398.207 472.299 398.207 472.308 398.207C472.475 398.33 472.633 398.462 472.791 398.585C472.923 398.708 473.063 398.813 473.195 398.936C473.651 399.332 474.073 399.71 474.459 400.097C474.589 400.216 474.712 400.342 474.828 400.475C474.879 400.517 474.926 400.564 474.969 400.615C475.144 400.791 475.302 400.967 475.452 401.143C475.475 401.167 475.496 401.193 475.513 401.222C475.724 401.468 475.917 401.714 476.102 401.96C476.19 402.083 476.286 402.206 476.365 402.329C476.471 402.479 476.576 402.637 476.664 402.786C476.743 402.909 476.813 403.041 476.883 403.164C477.07 403.481 477.228 403.813 477.358 404.157C477.456 404.391 477.536 404.632 477.595 404.878C477.661 405.112 477.711 405.35 477.744 405.59V405.59Z" fill="#363630"/>
<path opacity="0.2" d="M477.744 405.591C477.735 407.13 477.718 409.283 477.647 411.946C477.639 412.316 477.621 412.693 477.612 413.08C477.524 416.816 477.393 421.43 477.208 426.643C477.2 426.959 477.191 427.267 477.173 427.583C476.927 433.947 476.541 441.357 475.873 453.091C474.635 474.767 472.475 456.071 470.306 463.674C464.281 459.965 457.677 456.08 450.616 452.089C449.342 451.368 448.057 450.645 446.76 449.918C432.639 442.034 416.866 433.771 400.399 425.588C399.749 425.263 399.091 424.938 398.441 424.621C360.721 405.961 319.551 387.81 286.196 375.697C279.758 373.359 273.611 371.25 267.832 369.395C255.66 365.501 245.139 362.776 237.042 361.599C228.611 360.368 222.788 360.808 220.435 363.348C220.347 361.555 220.256 359.838 220.163 358.197C220.127 357.652 220.092 357.116 220.057 356.588C220.111 356.444 220.182 356.306 220.25 356.166C220.26 356.146 220.267 356.125 220.277 356.105C220.294 356.059 220.314 356.015 220.338 355.973C220.364 355.919 220.393 355.866 220.426 355.815C220.455 355.753 220.49 355.694 220.531 355.639C220.61 355.516 220.698 355.384 220.795 355.261C220.866 355.169 220.942 355.081 221.023 354.997C221.05 354.955 221.083 354.917 221.12 354.883C221.155 354.848 221.19 354.804 221.234 354.76C221.253 354.733 221.277 354.709 221.304 354.69C221.374 354.61 221.45 354.536 221.533 354.47C221.846 354.182 222.181 353.917 222.534 353.679C222.657 353.6 222.788 353.521 222.911 353.433C223.796 352.903 224.728 352.456 225.695 352.097C226.029 351.974 226.363 351.86 226.723 351.737C226.855 351.701 226.977 351.657 227.109 351.613C227.302 351.552 227.496 351.49 227.698 351.446C228.699 351.148 229.779 350.893 230.947 350.655C231.298 350.585 231.667 350.515 232.036 350.453C232.335 350.401 232.642 350.348 232.949 350.295C235.558 349.882 238.517 349.574 241.784 349.372C242.092 349.354 242.399 349.337 242.706 349.319C243.066 349.302 243.427 349.284 243.795 349.267C244.103 349.249 244.419 349.24 244.735 349.231C245.042 349.214 245.359 349.205 245.684 349.196C246.571 349.17 247.484 349.144 248.415 349.126C251.067 349.082 253.86 349.1 256.793 349.161C258.154 349.187 259.542 349.231 260.965 349.293C261.052 349.293 261.149 349.302 261.237 349.302C262.475 349.337 263.731 349.398 265.004 349.46C265.9 349.504 266.805 349.548 267.709 349.601C268.561 349.653 269.422 349.706 270.291 349.768C270.967 349.803 271.644 349.856 272.329 349.899C272.908 349.943 273.488 349.987 274.068 350.022C274.761 350.075 275.455 350.128 276.158 350.181C277.124 350.26 278.09 350.339 279.073 350.418C280.048 350.506 281.041 350.594 282.033 350.682C283.025 350.77 284.027 350.866 285.028 350.963C285.133 350.972 285.23 350.981 285.326 350.989C286.24 351.086 287.153 351.174 288.075 351.271C293.186 351.789 298.447 352.396 303.857 353.09C307.089 353.503 310.361 353.946 313.675 354.417C318.707 355.129 323.819 355.903 328.965 356.729C334.12 357.564 339.305 358.446 344.518 359.375C345.836 359.612 347.153 359.849 348.479 360.096C350.095 360.394 351.711 360.699 353.327 361.01C354.346 361.203 355.364 361.396 356.383 361.599C357.595 361.836 358.816 362.073 360.028 362.311C368.011 363.893 375.95 365.58 383.696 367.347C384.969 367.637 386.242 367.936 387.507 368.226C390.036 368.815 392.542 369.413 395.025 370.019C395.71 370.186 396.386 370.353 397.062 370.52C398.757 370.942 400.434 371.364 402.094 371.786V371.795C402.191 371.812 402.287 371.839 402.384 371.865C403.596 372.173 404.799 372.48 405.994 372.797C408.813 373.535 411.585 374.279 414.31 375.029C416.119 375.539 417.911 376.04 419.676 376.55C422.32 377.324 424.91 378.097 427.431 378.87C428.054 379.064 428.678 379.257 429.293 379.442C431.137 380.022 432.946 380.599 434.72 381.173C436.125 381.63 437.495 382.096 438.848 382.562C440.2 383.028 441.526 383.494 442.826 383.96C443.669 384.259 444.495 384.566 445.311 384.865C446.506 385.305 447.665 385.744 448.807 386.192C449.158 386.324 449.5 386.465 449.843 386.597C450.484 386.843 451.108 387.098 451.722 387.353C452.135 387.511 452.539 387.678 452.943 387.854C453.338 388.012 453.742 388.179 454.129 388.346C454.524 388.504 454.91 388.671 455.297 388.847C455.622 388.979 455.938 389.119 456.245 389.26C456.869 389.532 457.492 389.805 458.098 390.086C458.397 390.227 458.695 390.359 458.994 390.499L459.679 390.816C459.776 390.868 459.872 390.912 459.969 390.956C460.715 391.308 461.435 391.66 462.138 392.011C462.797 392.345 463.438 392.679 464.053 393.004C464.782 393.391 465.475 393.769 466.143 394.156C466.274 394.226 466.406 394.305 466.538 394.376C466.986 394.63 467.416 394.894 467.846 395.149C468.69 395.668 469.489 396.177 470.235 396.687C470.973 397.197 471.658 397.698 472.299 398.199C472.299 398.208 472.299 398.208 472.308 398.208C472.615 398.454 472.914 398.7 473.195 398.937C473.652 399.333 474.073 399.711 474.459 400.098C474.589 400.217 474.712 400.343 474.828 400.476C474.879 400.518 474.927 400.565 474.969 400.616C475.153 400.818 475.338 401.021 475.513 401.223C475.724 401.469 475.917 401.715 476.102 401.961C476.19 402.084 476.286 402.207 476.365 402.33C476.471 402.48 476.576 402.638 476.664 402.787C476.743 402.91 476.813 403.042 476.883 403.165C477.07 403.482 477.228 403.814 477.358 404.159C477.454 404.393 477.533 404.634 477.595 404.879C477.661 405.113 477.711 405.351 477.744 405.591V405.591Z" fill="black"/>
<path d="M305.644 413.878L305.401 414.024C300.589 416.869 298.71 422.901 301.029 428C301.503 429.045 301.997 430.058 302.491 430.977C305.052 435.726 322.289 482.109 330.805 469.613C339.321 457.117 352.667 434.707 351.139 431.54C349.61 428.373 345.49 422.552 340.784 422.497C338.937 422.476 336.196 423.09 333.548 423.845C328.74 425.216 323.621 423.107 321.137 418.755L320.632 417.87C317.612 412.587 310.874 410.791 305.644 413.878Z" fill="#F0F0EE"/>
</g>
<defs>
<clipPath id="clip0_792_3573">
<rect width="691" height="503" fill="white"/>
</clipPath>
</defs>
</svg>
