<svg width="318" height="229" viewBox="0 0 318 229" fill="none" xmlns="http://www.w3.org/2000/svg">
<g clip-path="url(#clip0_889_5513)">
<path d="M317.54 227.243H0.459538C0.337661 227.243 0.220775 227.195 0.134595 227.109C0.0484151 227.023 0 226.907 0 226.785C0 226.664 0.0484151 226.547 0.134595 226.461C0.220775 226.375 0.337661 226.327 0.459538 226.327H317.54C317.662 226.327 317.779 226.375 317.865 226.461C317.952 226.547 318 226.664 318 226.785C318 226.907 317.952 227.023 317.865 227.109C317.779 227.195 317.662 227.243 317.54 227.243Z" fill="#CCCCCC"/>
<path d="M286.156 147.348H99.5837C98.7915 147.348 98.0317 147.661 97.4716 148.22C96.9114 148.778 96.5967 149.536 96.5967 150.325C96.5967 151.115 96.9114 151.873 97.4716 152.431C98.0317 152.989 98.7915 153.303 99.5837 153.303H104.868V224.54C104.868 225.329 105.183 226.087 105.743 226.645C106.303 227.204 107.063 227.517 107.855 227.517C108.648 227.517 109.407 227.204 109.967 226.645C110.528 226.087 110.842 225.329 110.842 224.54L110.888 153.303H274.438V224.54C274.438 225.329 274.752 226.087 275.313 226.645C275.873 227.204 276.633 227.517 277.425 227.517C278.217 227.517 278.977 227.204 279.537 226.645C280.097 226.087 280.412 225.329 280.412 224.54V154.873L281.281 153.303H286.156C286.948 153.303 287.708 152.989 288.268 152.431C288.828 151.873 289.143 151.115 289.143 150.325C289.143 149.536 288.828 148.778 288.268 148.22C287.708 147.661 286.948 147.348 286.156 147.348Z" fill="#CCCCCC"/>
<path d="M203.021 148.906H146.506C145.412 148.905 144.363 148.471 143.589 147.699C142.815 146.928 142.38 145.882 142.379 144.791V113.773C142.38 112.682 142.815 111.636 143.589 110.865C144.363 110.093 145.412 109.659 146.506 109.658H203.021C204.115 109.659 205.165 110.093 205.938 110.865C206.712 111.636 207.147 112.682 207.149 113.773V144.791C207.147 145.882 206.712 146.928 205.938 147.699C205.165 148.471 204.115 148.905 203.021 148.906Z" fill="#3F3D56"/>
<path d="M203.02 112.825H146.506C146.254 112.826 146.013 112.926 145.834 113.104C145.656 113.281 145.556 113.522 145.555 113.773V144.792C145.556 145.044 145.656 145.285 145.834 145.462C146.013 145.64 146.254 145.74 146.506 145.741H203.02C203.273 145.74 203.514 145.64 203.692 145.462C203.871 145.285 203.971 145.044 203.972 144.792V113.773C203.971 113.522 203.871 113.281 203.692 113.104C203.514 112.926 203.273 112.826 203.02 112.825Z" fill="white"/>
<path d="M179.584 134.786C179.584 134.786 172.818 133.232 169.097 136.081C165.376 138.931 173.833 145.406 173.833 145.406L179.584 134.786Z" fill="#2F2E41"/>
<path d="M175.095 131.85C178.619 131.85 181.477 129.001 181.477 125.488C181.477 121.974 178.619 119.126 175.095 119.126C171.571 119.126 168.713 121.974 168.713 125.488C168.713 129.001 171.571 131.85 175.095 131.85Z" fill="#A0616A"/>
<path d="M170.16 116.558C170.586 115.838 171.203 115.249 171.943 114.857C172.683 114.464 173.517 114.283 174.354 114.333C175.23 114.443 176.084 114.681 176.889 115.041L181.061 116.663C182.14 117.083 183.322 117.597 183.791 118.654C184.226 119.634 183.901 120.767 183.573 121.788L182.012 126.641C181.839 125.542 181.542 124.467 181.128 123.435C180.706 122.396 179.944 121.53 178.966 120.978C177.882 120.423 176.605 120.435 175.388 120.493C173.666 120.576 171.792 120.794 170.568 122.006C169.918 122.694 169.478 123.552 169.298 124.479C169.121 125.402 169.031 126.34 169.031 127.279C168.325 126.068 167.73 124.797 167.253 123.479C166.861 122.498 166.638 121.458 166.593 120.403C166.552 119.339 166.906 118.297 167.587 117.477C167.933 117.076 168.385 116.78 168.89 116.621C169.396 116.462 169.937 116.448 170.45 116.578L170.16 116.558Z" fill="#2F2E41"/>
<path d="M190.333 140.303C190.273 140.088 190.151 139.895 189.981 139.749C189.812 139.604 189.603 139.511 189.382 139.483C189.367 139.472 189.351 139.463 189.336 139.455L179.809 134.133C179.537 133.981 179.216 133.939 178.914 134.017C178.612 134.094 178.352 134.285 178.187 134.549L175.582 138.754L171.657 134.842L171.595 134.78C171.393 134.579 171.128 134.455 170.844 134.431C170.56 134.406 170.277 134.482 170.043 134.644L162.214 140.11C162.2 140.11 162.186 140.115 162.172 140.115C161.798 140.177 161.455 140.365 161.202 140.647C160.949 140.93 160.8 141.29 160.78 141.668L160.578 145.74H191.845L190.333 140.303Z" fill="#F0E967"/>
<path d="M207.784 145.109H201.751C201.751 144.941 201.684 144.78 201.565 144.661C201.446 144.542 201.284 144.476 201.116 144.476H199.211C199.043 144.476 198.881 144.542 198.762 144.661C198.643 144.78 198.576 144.941 198.576 145.109H196.671C196.671 144.941 196.604 144.78 196.485 144.661C196.366 144.542 196.205 144.476 196.036 144.476H194.131C193.963 144.476 193.801 144.542 193.682 144.661C193.563 144.78 193.496 144.941 193.496 145.109H191.591C191.591 144.941 191.524 144.78 191.405 144.661C191.286 144.542 191.125 144.476 190.956 144.476H189.051C188.883 144.476 188.721 144.542 188.602 144.661C188.483 144.78 188.416 144.941 188.416 145.109H186.511C186.511 144.941 186.444 144.78 186.325 144.661C186.206 144.542 186.045 144.476 185.876 144.476H183.971C183.803 144.476 183.641 144.542 183.522 144.661C183.403 144.78 183.336 144.941 183.336 145.109H181.431C181.431 144.941 181.364 144.78 181.245 144.661C181.126 144.542 180.965 144.476 180.796 144.476H178.891C178.723 144.476 178.561 144.542 178.442 144.661C178.323 144.78 178.256 144.941 178.256 145.109H176.351C176.351 144.941 176.284 144.78 176.165 144.661C176.046 144.542 175.885 144.476 175.716 144.476H173.811C173.643 144.476 173.481 144.542 173.362 144.661C173.243 144.78 173.176 144.941 173.176 145.109H171.271C171.271 144.941 171.204 144.78 171.085 144.661C170.966 144.542 170.805 144.476 170.636 144.476H168.731C168.563 144.476 168.401 144.542 168.282 144.661C168.163 144.78 168.096 144.941 168.096 145.109H166.191C166.191 144.941 166.124 144.78 166.005 144.661C165.886 144.542 165.725 144.476 165.556 144.476H163.651C163.483 144.476 163.321 144.542 163.202 144.661C163.083 144.78 163.016 144.941 163.016 145.109H161.111C161.111 144.941 161.044 144.78 160.925 144.661C160.806 144.542 160.645 144.476 160.476 144.476H158.571C158.403 144.476 158.241 144.542 158.122 144.661C158.003 144.78 157.936 144.941 157.936 145.109H156.031C156.031 144.941 155.964 144.78 155.845 144.661C155.726 144.542 155.565 144.476 155.396 144.476H153.491C153.323 144.476 153.161 144.542 153.042 144.661C152.923 144.78 152.856 144.941 152.856 145.109H150.951C150.951 144.941 150.884 144.78 150.765 144.661C150.646 144.542 150.485 144.476 150.316 144.476H148.411C148.243 144.476 148.081 144.542 147.962 144.661C147.843 144.78 147.776 144.941 147.776 145.109H141.744C141.239 145.109 140.755 145.31 140.399 145.666C140.042 146.022 139.842 146.505 139.842 147.008C139.842 147.511 140.042 147.993 140.399 148.35C140.755 148.706 141.239 148.906 141.744 148.907H207.784C208.289 148.907 208.773 148.707 209.131 148.351C209.488 147.994 209.689 147.511 209.689 147.008C209.689 146.504 209.488 146.021 209.131 145.665C208.773 145.309 208.289 145.109 207.784 145.109Z" fill="#3F3D56"/>
<path d="M131.924 134.08V146.69H100.233C99.384 146.719 98.5376 146.578 97.7445 146.274C96.9514 145.971 96.2277 145.511 95.6166 144.923C95.0055 144.334 94.5195 143.629 94.1876 142.85C93.8556 142.07 93.6846 141.232 93.6846 140.385C93.6846 139.538 93.8556 138.7 94.1876 137.92C94.5195 137.14 95.0055 136.435 95.6166 135.847C96.2277 135.259 96.9514 134.799 97.7445 134.495C98.5376 134.192 99.384 134.051 100.233 134.08H131.924Z" fill="#F2F2F2"/>
<path d="M132.702 146.593C132.702 146.722 132.651 146.845 132.56 146.936C132.468 147.027 132.345 147.078 132.216 147.078H99.6685C97.9008 147.078 96.2055 146.378 94.9556 145.132C93.7056 143.886 93.0034 142.196 93.0034 140.434C93.0034 138.671 93.7056 136.981 94.9556 135.735C96.2055 134.489 97.9008 133.789 99.6685 133.789H132.216C132.345 133.789 132.468 133.84 132.56 133.931C132.651 134.022 132.702 134.145 132.702 134.274C132.702 134.403 132.651 134.526 132.56 134.617C132.468 134.708 132.345 134.759 132.216 134.759H99.6685C98.1598 134.76 96.7133 135.359 95.6469 136.423C94.5805 137.487 93.9815 138.929 93.9815 140.434C93.9815 141.938 94.5805 143.38 95.6469 144.444C96.7133 145.508 98.1598 146.107 99.6685 146.108H132.216C132.345 146.108 132.468 146.159 132.56 146.25C132.651 146.341 132.702 146.464 132.702 146.593Z" fill="#F0E967"/>
<path d="M131.924 136.99H97.8685C97.8556 136.99 97.8429 136.988 97.831 136.983C97.8192 136.978 97.8083 136.971 97.7992 136.962C97.7901 136.953 97.7829 136.942 97.778 136.93C97.7731 136.918 97.7705 136.906 97.7705 136.893C97.7705 136.88 97.7731 136.867 97.778 136.856C97.7829 136.844 97.7901 136.833 97.7992 136.824C97.8083 136.815 97.8192 136.808 97.831 136.803C97.8429 136.798 97.8556 136.796 97.8685 136.796H131.924C131.949 136.796 131.974 136.806 131.992 136.825C132.01 136.843 132.02 136.867 132.02 136.893C132.02 136.919 132.01 136.943 131.992 136.961C131.974 136.979 131.949 136.99 131.924 136.99Z" fill="#CCCCCC"/>
<path d="M131.924 139.318H97.8685C97.8556 139.318 97.8429 139.316 97.831 139.311C97.8192 139.306 97.8083 139.299 97.7992 139.29C97.7901 139.281 97.7829 139.27 97.778 139.258C97.7731 139.246 97.7705 139.234 97.7705 139.221C97.7705 139.208 97.7731 139.196 97.778 139.184C97.7829 139.172 97.7901 139.161 97.7992 139.152C97.8083 139.143 97.8192 139.136 97.831 139.131C97.8429 139.126 97.8556 139.124 97.8685 139.124H131.924C131.949 139.124 131.974 139.134 131.992 139.153C132.01 139.171 132.02 139.195 132.02 139.221C132.02 139.247 132.01 139.271 131.992 139.289C131.974 139.308 131.949 139.318 131.924 139.318Z" fill="#CCCCCC"/>
<path d="M131.924 141.645H97.8685C97.8556 141.645 97.8429 141.643 97.831 141.638C97.8192 141.633 97.8083 141.626 97.7992 141.617C97.7901 141.608 97.7829 141.597 97.778 141.585C97.7731 141.574 97.7705 141.561 97.7705 141.548C97.7705 141.535 97.7731 141.523 97.778 141.511C97.7829 141.499 97.7901 141.488 97.7992 141.479C97.8083 141.47 97.8192 141.463 97.831 141.458C97.8429 141.454 97.8556 141.451 97.8685 141.451H131.924C131.949 141.451 131.974 141.462 131.992 141.48C132.01 141.498 132.02 141.523 132.02 141.548C132.02 141.574 132.01 141.598 131.992 141.617C131.974 141.635 131.949 141.645 131.924 141.645Z" fill="#CCCCCC"/>
<path d="M131.924 143.973H97.8685C97.8556 143.973 97.8429 143.971 97.831 143.966C97.8192 143.961 97.8083 143.954 97.7992 143.945C97.7901 143.936 97.7829 143.925 97.778 143.914C97.7731 143.902 97.7705 143.889 97.7705 143.876C97.7705 143.863 97.7731 143.851 97.778 143.839C97.7829 143.827 97.7901 143.816 97.7992 143.807C97.8083 143.798 97.8192 143.791 97.831 143.786C97.8429 143.782 97.8556 143.779 97.8685 143.779H131.924C131.949 143.779 131.974 143.79 131.992 143.808C132.01 143.826 132.02 143.851 132.02 143.876C132.02 143.902 132.01 143.926 131.992 143.945C131.974 143.963 131.949 143.973 131.924 143.973Z" fill="#CCCCCC"/>
<path d="M125.95 120.795V133.405H94.2589C93.4099 133.434 92.5635 133.293 91.7704 132.989C90.9773 132.686 90.2536 132.226 89.6425 131.638C89.0314 131.049 88.5454 130.344 88.2134 129.565C87.8815 128.785 87.7104 127.947 87.7104 127.1C87.7104 126.253 87.8815 125.415 88.2134 124.635C88.5454 123.855 89.0314 123.15 89.6425 122.562C90.2536 121.974 90.9773 121.514 91.7704 121.21C92.5635 120.907 93.4099 120.765 94.2589 120.795H125.95Z" fill="#F2F2F2"/>
<path d="M126.728 133.308C126.728 133.436 126.677 133.56 126.585 133.651C126.494 133.742 126.371 133.793 126.242 133.793H93.6944C92.8191 133.793 91.9524 133.621 91.1438 133.287C90.3351 132.953 89.6004 132.464 88.9815 131.847C88.3626 131.23 87.8716 130.497 87.5366 129.691C87.2017 128.885 87.0293 128.021 87.0293 127.148C87.0293 126.276 87.2017 125.412 87.5366 124.606C87.8716 123.799 88.3626 123.067 88.9815 122.45C89.6004 121.833 90.3351 121.344 91.1438 121.01C91.9524 120.676 92.8191 120.504 93.6944 120.504H126.242C126.371 120.504 126.494 120.555 126.586 120.646C126.677 120.737 126.728 120.86 126.728 120.989C126.728 121.118 126.677 121.241 126.586 121.332C126.494 121.423 126.371 121.474 126.242 121.474H93.6944C92.1856 121.475 90.7392 122.074 89.6728 123.138C88.6064 124.202 88.0074 125.644 88.0074 127.148C88.0074 128.652 88.6064 130.095 89.6728 131.159C90.7392 132.223 92.1856 132.821 93.6944 132.823H126.242C126.371 132.823 126.494 132.874 126.585 132.965C126.677 133.056 126.728 133.179 126.728 133.308Z" fill="#3F3D56"/>
<path d="M125.95 123.705H91.8944C91.8815 123.705 91.8688 123.702 91.8569 123.698C91.845 123.693 91.8342 123.686 91.8251 123.677C91.816 123.668 91.8088 123.657 91.8039 123.645C91.7989 123.633 91.7964 123.621 91.7964 123.608C91.7964 123.595 91.7989 123.582 91.8039 123.57C91.8088 123.559 91.816 123.548 91.8251 123.539C91.8342 123.53 91.845 123.523 91.8569 123.518C91.8688 123.513 91.8815 123.511 91.8944 123.511H125.95C125.975 123.511 126 123.521 126.018 123.539C126.036 123.558 126.046 123.582 126.046 123.608C126.046 123.633 126.036 123.658 126.018 123.676C126 123.694 125.975 123.705 125.95 123.705Z" fill="#CCCCCC"/>
<path d="M125.95 126.033H91.8944C91.8815 126.033 91.8688 126.031 91.8569 126.026C91.845 126.021 91.8342 126.014 91.8251 126.005C91.816 125.996 91.8088 125.985 91.8039 125.973C91.7989 125.961 91.7964 125.949 91.7964 125.936C91.7964 125.923 91.7989 125.91 91.8039 125.899C91.8088 125.887 91.816 125.876 91.8251 125.867C91.8342 125.858 91.845 125.851 91.8569 125.846C91.8688 125.841 91.8815 125.839 91.8944 125.839H125.95C125.975 125.839 126 125.849 126.018 125.868C126.036 125.886 126.046 125.91 126.046 125.936C126.046 125.961 126.036 125.986 126.018 126.004C126 126.022 125.975 126.033 125.95 126.033Z" fill="#CCCCCC"/>
<path d="M125.95 128.36H91.8944C91.8815 128.36 91.8688 128.358 91.8569 128.353C91.845 128.348 91.8342 128.341 91.8251 128.332C91.816 128.323 91.8088 128.312 91.8039 128.3C91.7989 128.288 91.7964 128.276 91.7964 128.263C91.7964 128.25 91.7989 128.238 91.8039 128.226C91.8088 128.214 91.816 128.203 91.8251 128.194C91.8342 128.185 91.845 128.178 91.8569 128.173C91.8688 128.168 91.8815 128.166 91.8944 128.166H125.95C125.975 128.166 126 128.176 126.018 128.195C126.036 128.213 126.046 128.237 126.046 128.263C126.046 128.289 126.036 128.313 126.018 128.331C126 128.35 125.975 128.36 125.95 128.36Z" fill="#CCCCCC"/>
<path d="M125.95 130.688H91.8944C91.8815 130.688 91.8688 130.686 91.8569 130.681C91.845 130.676 91.8342 130.669 91.8251 130.66C91.816 130.651 91.8088 130.64 91.8039 130.628C91.7989 130.617 91.7964 130.604 91.7964 130.591C91.7964 130.578 91.7989 130.566 91.8039 130.554C91.8088 130.542 91.816 130.531 91.8251 130.522C91.8342 130.513 91.845 130.506 91.8569 130.501C91.8688 130.496 91.8815 130.494 91.8944 130.494H125.95C125.975 130.494 126 130.505 126.018 130.523C126.036 130.541 126.046 130.566 126.046 130.591C126.046 130.617 126.036 130.641 126.018 130.66C126 130.678 125.975 130.688 125.95 130.688Z" fill="#CCCCCC"/>
<path d="M162.816 191.511V180.516C162.815 180.03 162.622 179.564 162.277 179.22C161.932 178.877 161.465 178.684 160.977 178.684H119.159C118.672 178.684 118.204 178.877 117.86 179.22C117.515 179.564 117.321 180.03 117.321 180.516V191.511H162.816Z" fill="#CCCCCC"/>
<path d="M162.815 195.634H117.321V209.835H162.815V195.634Z" fill="#CCCCCC"/>
<path d="M117.321 213.959V224.954C117.321 225.44 117.515 225.906 117.86 226.249C118.204 226.593 118.672 226.786 119.159 226.786H160.977C161.465 226.786 161.932 226.593 162.277 226.249C162.622 225.906 162.815 225.44 162.816 224.954V213.959H117.321Z" fill="#CCCCCC"/>
<path d="M139.839 186.93C140.6 186.93 141.217 186.315 141.217 185.556C141.217 184.797 140.6 184.182 139.839 184.182C139.077 184.182 138.46 184.797 138.46 185.556C138.46 186.315 139.077 186.93 139.839 186.93Z" fill="white"/>
<path d="M139.839 205.255C140.6 205.255 141.217 204.639 141.217 203.88C141.217 203.121 140.6 202.506 139.839 202.506C139.077 202.506 138.46 203.121 138.46 203.88C138.46 204.639 139.077 205.255 139.839 205.255Z" fill="white"/>
<path d="M139.913 223.191C140.674 223.191 141.291 222.576 141.291 221.817C141.291 221.058 140.674 220.442 139.913 220.442C139.151 220.442 138.534 221.058 138.534 221.817C138.534 222.576 139.151 223.191 139.913 223.191Z" fill="white"/>
<path d="M157.658 166.147V178.757H125.967C125.118 178.787 124.272 178.645 123.478 178.342C122.685 178.038 121.962 177.579 121.35 176.99C120.739 176.402 120.253 175.697 119.921 174.917C119.59 174.138 119.418 173.299 119.418 172.452C119.418 171.605 119.59 170.767 119.921 169.987C120.253 169.208 120.739 168.503 121.35 167.914C121.962 167.326 122.685 166.866 123.478 166.563C124.272 166.259 125.118 166.118 125.967 166.147H157.658Z" fill="#F2F2F2"/>
<path d="M158.436 178.66C158.436 178.789 158.385 178.912 158.294 179.003C158.202 179.094 158.079 179.145 157.95 179.145H125.403C124.527 179.146 123.66 178.975 122.85 178.641C122.041 178.308 121.306 177.818 120.686 177.201C120.067 176.584 119.575 175.851 119.24 175.045C118.904 174.238 118.732 173.374 118.732 172.501C118.732 171.628 118.904 170.763 119.24 169.957C119.575 169.15 120.067 168.418 120.686 167.801C121.306 167.184 122.041 166.694 122.85 166.361C123.66 166.027 124.527 165.856 125.403 165.856H157.95C158.079 165.856 158.202 165.908 158.294 165.998C158.385 166.089 158.436 166.213 158.436 166.341C158.436 166.47 158.385 166.593 158.294 166.684C158.202 166.775 158.079 166.826 157.95 166.826H125.403C123.894 166.828 122.447 167.426 121.381 168.49C120.315 169.554 119.716 170.997 119.716 172.501C119.716 174.005 120.315 175.447 121.381 176.511C122.447 177.576 123.894 178.174 125.403 178.175H157.95C158.079 178.175 158.202 178.226 158.294 178.317C158.385 178.408 158.436 178.532 158.436 178.66Z" fill="#3F3D56"/>
<path d="M157.658 169.057H123.602C123.59 169.057 123.577 169.055 123.565 169.05C123.553 169.045 123.542 169.038 123.533 169.029C123.524 169.02 123.517 169.009 123.512 168.998C123.507 168.986 123.504 168.973 123.504 168.96C123.504 168.947 123.507 168.935 123.512 168.923C123.517 168.911 123.524 168.9 123.533 168.891C123.542 168.882 123.553 168.875 123.565 168.87C123.577 168.866 123.59 168.863 123.602 168.863H157.658C157.683 168.863 157.708 168.874 157.726 168.892C157.744 168.91 157.754 168.935 157.754 168.96C157.754 168.986 157.744 169.01 157.726 169.029C157.708 169.047 157.683 169.057 157.658 169.057Z" fill="#CCCCCC"/>
<path d="M157.658 171.385H123.602C123.59 171.386 123.577 171.383 123.565 171.378C123.553 171.373 123.542 171.366 123.533 171.357C123.524 171.348 123.517 171.338 123.512 171.326C123.507 171.314 123.504 171.301 123.504 171.288C123.504 171.276 123.507 171.263 123.512 171.251C123.517 171.239 123.524 171.229 123.533 171.22C123.542 171.211 123.553 171.203 123.565 171.199C123.577 171.194 123.59 171.191 123.602 171.191H157.658C157.683 171.192 157.708 171.202 157.726 171.22C157.744 171.238 157.754 171.263 157.754 171.288C157.754 171.314 157.744 171.339 157.726 171.357C157.708 171.375 157.683 171.385 157.658 171.385Z" fill="#CCCCCC"/>
<path d="M157.658 173.713H123.602C123.59 173.714 123.577 173.711 123.565 173.706C123.553 173.701 123.542 173.694 123.533 173.685C123.524 173.676 123.517 173.666 123.512 173.654C123.507 173.642 123.504 173.629 123.504 173.617C123.504 173.604 123.507 173.591 123.512 173.579C123.517 173.567 123.524 173.557 123.533 173.548C123.542 173.539 123.553 173.532 123.565 173.527C123.577 173.522 123.59 173.519 123.602 173.52H157.658C157.683 173.52 157.708 173.53 157.726 173.548C157.744 173.566 157.754 173.591 157.754 173.617C157.754 173.642 157.744 173.667 157.726 173.685C157.708 173.703 157.683 173.713 157.658 173.713Z" fill="#CCCCCC"/>
<path d="M157.658 176.042H123.602C123.59 176.042 123.577 176.039 123.565 176.034C123.553 176.03 123.542 176.023 123.533 176.014C123.524 176.005 123.517 175.994 123.512 175.982C123.507 175.97 123.504 175.957 123.504 175.945C123.504 175.932 123.507 175.919 123.512 175.907C123.517 175.896 123.524 175.885 123.533 175.876C123.542 175.867 123.553 175.86 123.565 175.855C123.577 175.85 123.59 175.848 123.602 175.848H157.658C157.683 175.848 157.708 175.858 157.726 175.876C157.744 175.894 157.754 175.919 157.754 175.945C157.754 175.97 157.744 175.995 157.726 176.013C157.708 176.031 157.683 176.042 157.658 176.042Z" fill="#CCCCCC"/>
<path d="M114.935 83.8445V3.44567C114.936 2.53214 115.301 1.65633 115.949 1.01036C116.597 0.364401 117.475 0.00103911 118.391 0H182.142C183.059 0.00104516 183.937 0.36441 184.585 1.01037C185.233 1.65633 185.598 2.53214 185.599 3.44567V83.8445C185.598 84.758 185.233 85.6338 184.585 86.2798C183.937 86.9258 183.059 87.2891 182.142 87.2901H118.391C117.475 87.2891 116.597 86.9258 115.949 86.2798C115.301 85.6338 114.936 84.758 114.935 83.8445ZM118.391 0.765705C117.679 0.7665 116.995 1.04911 116.491 1.55153C115.987 2.05395 115.704 2.73514 115.703 3.44567V83.8445C115.704 84.555 115.987 85.2362 116.491 85.7386C116.995 86.2411 117.679 86.5237 118.391 86.5245H182.142C182.855 86.5237 183.538 86.2411 184.042 85.7386C184.546 85.2362 184.83 84.555 184.831 83.8445V3.44567C184.83 2.73514 184.546 2.05395 184.042 1.55153C183.538 1.04911 182.855 0.766501 182.142 0.765705H118.391Z" fill="#E6E6E6"/>
<path d="M153.842 36.9227V20.4142C153.842 19.9575 154.025 19.5196 154.349 19.1966C154.673 18.8736 155.112 18.6919 155.57 18.6914H169.603C170.061 18.6919 170.5 18.8736 170.824 19.1966C171.148 19.5196 171.331 19.9575 171.331 20.4142V36.9227C171.331 37.3794 171.148 37.8173 170.824 38.1403C170.5 38.4633 170.061 38.645 169.603 38.6455H155.57C155.112 38.645 154.673 38.4633 154.349 38.1403C154.025 37.8173 153.842 37.3794 153.842 36.9227Z" fill="#F0E967"/>
<path d="M126.575 44.5798V28.0715C126.575 27.6147 126.757 27.1768 127.081 26.8538C127.405 26.5308 127.845 26.3491 128.303 26.3486H142.336C142.794 26.3491 143.233 26.5308 143.557 26.8538C143.881 27.1768 144.064 27.6147 144.064 28.0715V44.5799C144.064 45.0366 143.881 45.4746 143.557 45.7975C143.233 46.1205 142.794 46.3022 142.336 46.3027H128.303C127.845 46.3022 127.405 46.1205 127.081 45.7975C126.757 45.4745 126.575 45.0366 126.575 44.5798Z" fill="#CCCCCC"/>
<path d="M148.465 67.9334V51.425C148.466 50.9682 148.648 50.5303 148.972 50.2073C149.296 49.8843 149.735 49.7027 150.194 49.7021H164.226C164.685 49.7027 165.124 49.8843 165.448 50.2073C165.772 50.5303 165.954 50.9682 165.955 51.425V67.9334C165.954 68.3902 165.772 68.8281 165.448 69.1511C165.124 69.4741 164.685 69.6557 164.226 69.6562H150.194C149.735 69.6557 149.296 69.4741 148.972 69.1511C148.648 68.8281 148.466 68.3902 148.465 67.9334Z" fill="#164453"/>
<path d="M232.325 143.409H217.887C217.75 143.409 217.614 143.441 217.491 143.501L213.847 145.32C213.727 145.371 213.625 145.455 213.553 145.564C213.481 145.672 213.443 145.799 213.443 145.929C213.443 146.059 213.481 146.186 213.553 146.294C213.625 146.403 213.727 146.488 213.847 146.538L217.491 148.357C217.614 148.417 217.75 148.449 217.887 148.449H232.325C232.524 148.46 232.72 148.393 232.869 148.262C233.019 148.131 233.111 147.946 233.125 147.748V144.11C233.111 143.912 233.019 143.727 232.869 143.596C232.72 143.465 232.524 143.398 232.325 143.409Z" fill="#3F3D56"/>
<path d="M233.125 144.11V147.748C233.111 147.946 233.019 148.131 232.869 148.262C232.72 148.393 232.524 148.46 232.325 148.449H229.449V143.409H232.325C232.524 143.398 232.72 143.465 232.869 143.596C233.019 143.728 233.111 143.912 233.125 144.11Z" fill="#F0E967"/>
<path d="M232.216 116.197C232.87 115.915 233.577 115.775 234.289 115.785C235.001 115.794 235.703 115.954 236.349 116.253C236.995 116.552 237.571 116.984 238.038 117.52C238.505 118.056 238.853 118.685 239.059 119.364C239.123 119.58 239.173 119.8 239.206 120.022L259.397 130.003L264.07 126.916L269.884 133.589L262.749 139.365C261.891 140.055 260.833 140.45 259.732 140.492C258.631 140.535 257.546 140.222 256.637 139.601L236.151 125.478C235.999 125.542 235.843 125.599 235.685 125.647C235.003 125.853 234.285 125.912 233.579 125.822C232.872 125.732 232.192 125.494 231.585 125.124C230.977 124.753 230.454 124.259 230.051 123.674C229.648 123.088 229.374 122.424 229.246 121.725C229.209 121.523 229.184 121.318 229.172 121.112C229.115 120.081 229.376 119.057 229.921 118.178C230.465 117.299 231.266 116.608 232.216 116.197Z" fill="#FFB8B8"/>
<path d="M274.271 177.652H252.209C252.209 178.285 229.471 178.798 229.471 178.798C229.114 179.066 228.789 179.373 228.501 179.714C227.638 180.741 227.166 182.039 227.168 183.379V184.295C227.169 185.814 227.774 187.27 228.852 188.344C229.929 189.417 231.389 190.021 232.913 190.021H274.271C275.794 190.02 277.254 189.416 278.331 188.343C279.408 187.269 280.014 185.813 280.015 184.295V183.379C280.013 181.861 279.407 180.405 278.33 179.332C277.254 178.258 275.794 177.654 274.271 177.652Z" fill="#3F3D56"/>
<path d="M250.272 228.275H256.246V189.794H250.272V228.275Z" fill="#3F3D56"/>
<path d="M233.27 228.067C233.27 228.71 242.322 228.315 253.489 228.315C264.656 228.315 273.709 228.71 273.709 228.067C273.709 227.423 264.656 222.32 253.489 222.32C242.322 222.32 233.27 227.423 233.27 228.067Z" fill="#3F3D56"/>
<path d="M238.662 223.556L233.029 223.556L230.348 208.989L238.663 208.99L238.662 223.556Z" fill="#FFB8B8"/>
<path d="M240.099 229L221.933 228.999V228.77C221.933 227.845 222.116 226.928 222.471 226.073C222.827 225.218 223.347 224.441 224.004 223.786C224.661 223.132 225.44 222.612 226.298 222.258C227.156 221.904 228.075 221.722 229.004 221.722H229.004L240.099 221.722L240.099 229Z" fill="#2F2E41"/>
<path d="M230.236 214.523L219.004 189.415C218.067 187.299 217.963 184.908 218.714 182.719C219.465 180.53 221.016 178.703 223.057 177.603L247.419 164.58L258.535 163.637L268.79 162.708L268.864 162.833C268.958 162.992 271.163 166.789 269.673 170.951C268.542 174.109 265.602 176.575 260.933 178.282C250.035 182.265 237.446 185.67 232.54 186.949C232.323 187.004 232.12 187.104 231.945 187.243C231.77 187.382 231.626 187.557 231.524 187.755C231.421 187.951 231.359 188.166 231.344 188.386C231.328 188.607 231.359 188.829 231.433 189.037L241.868 212.407C241.977 212.704 242.016 213.021 241.983 213.335C241.949 213.649 241.844 213.951 241.674 214.218C241.505 214.485 241.277 214.709 241.007 214.874C240.737 215.039 240.433 215.14 240.117 215.17L232.321 215.735C232.254 215.742 232.188 215.745 232.123 215.745C231.724 215.745 231.333 215.629 230.998 215.412C230.663 215.196 230.398 214.887 230.236 214.523Z" fill="#2F2E41"/>
<path d="M241.419 223.556L235.786 223.556L233.105 208.989L241.42 208.99L241.419 223.556Z" fill="#FFB8B8"/>
<path d="M242.856 229L224.69 228.999V228.77C224.69 227.845 224.873 226.928 225.229 226.073C225.584 225.218 226.105 224.441 226.761 223.786C227.418 223.132 228.197 222.612 229.055 222.258C229.913 221.904 230.833 221.722 231.761 221.722H231.762L242.857 221.722L242.856 229Z" fill="#2F2E41"/>
<path d="M233.453 215.897L222.221 190.789C221.283 188.673 221.18 186.282 221.931 184.093C222.682 181.904 224.232 180.077 226.274 178.977L250.635 165.954L261.752 165.011L272.006 164.082L272.08 164.207C272.175 164.366 274.38 168.163 272.889 172.325C271.759 175.483 268.818 177.949 264.15 179.656C253.252 183.64 240.663 187.044 235.756 188.323C235.54 188.378 235.337 188.478 235.162 188.617C234.987 188.756 234.843 188.931 234.74 189.129C234.637 189.325 234.576 189.54 234.561 189.761C234.545 189.981 234.576 190.203 234.65 190.411L245.085 213.782C245.194 214.078 245.233 214.395 245.199 214.709C245.166 215.023 245.06 215.325 244.891 215.592C244.722 215.859 244.494 216.083 244.224 216.248C243.954 216.413 243.649 216.514 243.334 216.544L235.537 217.11C235.471 217.116 235.405 217.119 235.34 217.119C234.94 217.119 234.55 217.003 234.215 216.786C233.88 216.57 233.615 216.261 233.453 215.897Z" fill="#2F2E41"/>
<path d="M227.855 139.195C223.135 132.937 219.404 125.995 216.791 118.611C216.64 118.17 216.651 117.689 216.822 117.254C216.993 116.82 217.313 116.46 217.725 116.238L233.875 107.611C234.137 107.471 234.427 107.392 234.723 107.38C235.02 107.368 235.316 107.423 235.587 107.542C235.864 107.662 236.11 107.844 236.306 108.072C236.502 108.301 236.643 108.572 236.719 108.863C238.598 115.979 242.132 122.553 247.033 128.054C247.235 128.278 247.383 128.545 247.465 128.834C247.548 129.124 247.563 129.428 247.51 129.725C247.459 130.016 247.342 130.292 247.168 130.532C246.993 130.772 246.766 130.968 246.504 131.107L230.354 139.734C229.94 139.954 229.463 140.02 229.005 139.921C228.547 139.823 228.14 139.565 227.855 139.195Z" fill="#CCCCCC"/>
<path d="M228.957 138.369C229.044 138.477 229.166 138.552 229.302 138.58C229.438 138.608 229.579 138.588 229.702 138.523L245.853 129.896C245.931 129.855 245.999 129.796 246.051 129.725C246.103 129.654 246.138 129.572 246.153 129.485C246.17 129.393 246.165 129.298 246.139 129.209C246.113 129.119 246.067 129.037 246.003 128.968C240.958 123.305 237.32 116.537 235.385 109.212C235.363 109.121 235.319 109.037 235.259 108.966C235.199 108.895 235.122 108.839 235.037 108.802C234.956 108.766 234.868 108.749 234.779 108.752C234.69 108.756 234.604 108.78 234.526 108.823L218.376 117.45C218.254 117.516 218.158 117.622 218.106 117.751C218.054 117.879 218.049 118.022 218.091 118.154C220.657 125.405 224.322 132.223 228.957 138.369Z" fill="white"/>
<path d="M281.509 136.893L268.861 141.685L265.773 133.133C265.363 131.998 265.368 130.755 265.789 129.623C266.21 128.491 267.018 127.544 268.071 126.949C269.137 126.347 270.383 126.145 271.585 126.379C272.787 126.613 273.865 127.268 274.625 128.225L281.509 136.893Z" fill="#F0E967"/>
<path d="M249.337 170.776C249.071 170.588 248.848 170.346 248.683 170.066C248.518 169.785 248.414 169.473 248.38 169.15C246.76 154.074 247.888 142.275 251.829 133.081C252.523 131.495 253.569 130.086 254.887 128.961C256.206 127.836 257.763 127.024 259.442 126.585L269.666 126.07L269.719 126.096C272.027 127.222 273.908 129.06 275.085 131.337C276.262 133.613 276.672 136.207 276.254 138.734C272.965 147.376 270.211 156.373 272.311 163.631C272.4 163.935 272.425 164.253 272.387 164.566C272.349 164.88 272.247 165.182 272.089 165.456C271.936 165.72 271.729 165.951 271.483 166.133C271.237 166.315 270.956 166.444 270.657 166.514L251.183 171.132C250.867 171.207 250.54 171.214 250.221 171.152C249.903 171.091 249.602 170.963 249.337 170.776Z" fill="#F0E967"/>
<path d="M266.254 122.263C272.488 122.263 277.541 117.226 277.541 111.011C277.541 104.797 272.488 99.7598 266.254 99.7598C260.021 99.7598 254.968 104.797 254.968 111.011C254.968 117.226 260.021 122.263 266.254 122.263Z" fill="#FFB8B8"/>
<path d="M234.935 119.923L226.139 123.794C225.805 123.941 225.425 123.949 225.085 123.818C224.744 123.686 224.469 123.425 224.321 123.092L224.104 122.6C223.957 122.267 223.948 121.889 224.08 121.549C224.212 121.209 224.474 120.936 224.808 120.788L233.604 116.917C233.939 116.771 234.318 116.762 234.659 116.894C235 117.025 235.274 117.286 235.422 117.62L235.64 118.111C235.787 118.444 235.796 118.823 235.664 119.162C235.532 119.502 235.27 119.776 234.935 119.923Z" fill="#CCCCCC"/>
<path d="M238.152 125.878L229.356 129.749C229.021 129.896 228.642 129.904 228.301 129.773C227.961 129.641 227.686 129.38 227.538 129.047L227.321 128.556C227.173 128.222 227.165 127.844 227.297 127.504C227.429 127.164 227.691 126.891 228.025 126.743L236.821 122.872C237.156 122.726 237.535 122.717 237.876 122.849C238.217 122.98 238.491 123.242 238.639 123.575L238.857 124.066C239.004 124.4 239.013 124.778 238.88 125.117C238.748 125.457 238.487 125.731 238.152 125.878Z" fill="#CCCCCC"/>
<path d="M244.936 149.14L225.325 133.717C225.169 133.772 225.01 133.819 224.849 133.857C224.157 134.019 223.438 134.033 222.74 133.9C222.042 133.766 221.38 133.488 220.797 133.082C220.21 132.677 219.717 132.151 219.35 131.54C218.983 130.929 218.752 130.247 218.671 129.54C218.539 128.409 218.795 127.267 219.396 126.299C219.998 125.331 220.91 124.594 221.984 124.208C222.654 123.968 223.368 123.873 224.078 123.927C224.788 123.981 225.479 124.185 226.105 124.524C226.731 124.863 227.278 125.33 227.71 125.894C228.142 126.458 228.45 127.107 228.613 127.799C228.664 128.018 228.699 128.24 228.718 128.464L248.24 139.691L253.098 136.903L258.48 143.926L250.937 149.286C250.054 149.908 248.993 150.23 247.912 150.204C246.831 150.178 245.787 149.805 244.936 149.14Z" fill="#FFB8B8"/>
<path d="M260.873 146.114L249.684 138.528L254.943 131.104C255.641 130.118 256.666 129.41 257.837 129.105C259.009 128.8 260.25 128.917 261.343 129.436C262.449 129.962 263.329 130.864 263.826 131.98C264.323 133.095 264.403 134.352 264.052 135.521L260.873 146.114Z" fill="#F0E967"/>
<path d="M262.116 109.335C259.215 111.315 255.406 113.349 252.443 111.241C250.498 109.857 249.885 107.295 250.674 105.046C252.093 101.001 255.99 99.2205 259.718 97.8556C264.563 96.0813 269.839 94.6698 274.842 95.9405C279.844 97.2111 284.265 102.039 283.362 107.106C282.636 111.181 278.78 114.571 279.328 118.673C279.878 122.802 284.536 124.975 288.648 125.713C292.759 126.451 297.361 126.688 300.316 129.632C304.085 133.388 303.144 140.101 299.597 144.067C296.05 148.033 290.697 149.83 285.51 151.052C278.638 152.671 271.205 153.522 264.678 150.835C258.152 148.148 253.073 140.915 254.963 134.132C255.762 131.267 257.643 128.846 259.461 126.489C261.28 124.132 263.121 121.667 263.814 118.775C264.392 116.365 263.965 113.567 262.361 111.759C262.07 111.443 261.886 111.042 261.837 110.615C261.788 110.188 261.876 109.757 262.088 109.383L262.116 109.335Z" fill="#2F2E41"/>
<path d="M50.123 164.004C47.2146 165.023 44.092 165.278 41.0559 164.745C38.0198 164.212 35.1727 162.909 32.7887 160.96C26.7173 155.88 24.8137 147.51 23.2648 139.761C21.7378 132.12 20.2107 124.48 18.6836 116.839L28.2749 123.423C35.1724 128.157 42.2253 133.044 47.0011 139.901C51.7769 146.759 53.8615 156.121 50.0243 163.542" fill="#E6E6E6"/>
<path d="M49.303 191.755C50.2738 184.706 51.272 177.566 50.591 170.442C49.9863 164.114 48.0498 157.934 44.1075 152.867C42.0149 150.182 39.4686 147.882 36.5831 146.069C35.8307 145.596 35.1381 146.785 35.8873 147.256C40.8801 150.402 44.7418 155.047 46.9157 160.521C49.3167 166.609 49.7023 173.246 49.2885 179.713C49.0383 183.624 48.508 187.51 47.9736 191.39C47.9315 191.566 47.9578 191.75 48.0471 191.907C48.1365 192.064 48.2823 192.181 48.4551 192.235C48.6313 192.283 48.8192 192.259 48.9779 192.169C49.1367 192.079 49.2535 191.931 49.303 191.755H49.303Z" fill="#CFCFC9"/>
<path d="M39.9524 179.282C38.7051 181.172 36.9905 182.71 34.9739 183.747C32.9574 184.785 30.7067 185.287 28.4388 185.206C22.6105 184.93 17.7515 180.875 13.3774 177.025L0.439941 165.637L9.00242 165.229C15.16 164.935 21.4765 164.661 27.3415 166.554C33.2064 168.447 38.6153 173.003 39.6878 179.055" fill="#E6E6E6"/>
<path d="M52.0463 195.808C47.3738 187.566 41.9542 178.406 32.2702 175.478C29.5776 174.667 26.7542 174.376 23.9521 174.622C23.069 174.698 23.2895 176.055 24.171 175.979C28.868 175.59 33.5558 176.827 37.4454 179.48C41.1883 182.02 44.1026 185.551 46.5692 189.295C48.08 191.589 49.4334 193.98 50.7869 196.367C51.2195 197.13 52.4839 196.58 52.0463 195.808Z" fill="#CFCFC9"/>
<path d="M59.5329 204.483C59.3754 202.664 58.7205 200.923 57.6393 199.45C56.5582 197.977 55.0923 196.828 53.4014 196.128V191.363H45.3848V196.278C43.7771 197.013 42.3934 198.159 41.3749 199.6C40.3565 201.041 39.7396 202.726 39.5872 204.483L37.7021 226.327H61.4179L59.5329 204.483Z" fill="#CFCFC9"/>
</g>
<defs>
<clipPath id="clip0_889_5513">
<rect width="318" height="229" fill="white"/>
</clipPath>
</defs>
</svg>
