<svg width="645" height="526" viewBox="0 0 645 526" fill="none" xmlns="http://www.w3.org/2000/svg">
<g clip-path="url(#clip0_1132_4008)">
<path d="M610.749 430.135C622.03 470.302 513.451 562.073 322.419 510.842C168.611 469.594 34.0889 452.124 34.0889 430.135C34.0889 408.145 163.179 431.211 322.419 431.211C481.659 431.211 604.804 408.964 610.749 430.135Z" fill="#3F3D56"/>
<path opacity="0.1" d="M610.749 430.135C622.03 470.302 513.451 562.073 322.419 510.842C168.611 469.594 34.0889 452.124 34.0889 430.135C34.0889 408.145 163.179 431.211 322.419 431.211C481.659 431.211 604.804 408.964 610.749 430.135Z" fill="black"/>
<path d="M610.749 430.134C622.03 470.301 513.451 521.18 322.419 469.95C168.611 428.702 34.0889 452.124 34.0889 430.134C34.0889 408.144 163.179 390.318 322.419 390.318C481.659 390.318 604.804 408.964 610.749 430.134Z" fill="#3F3D56"/>
<path opacity="0.1" d="M415.133 458.979C427.449 458.979 437.433 455.523 437.433 451.258C437.433 446.994 427.449 443.537 415.133 443.537C402.816 443.537 392.832 446.994 392.832 451.258C392.832 455.523 402.816 458.979 415.133 458.979Z" fill="black"/>
<path opacity="0.1" d="M506.051 458.979C518.367 458.979 528.351 455.523 528.351 451.258C528.351 446.994 518.367 443.537 506.051 443.537C493.734 443.537 483.75 446.994 483.75 451.258C483.75 455.523 493.734 458.979 506.051 458.979Z" fill="black"/>
<path opacity="0.1" d="M322.5 436.675C362.765 436.675 395.406 427.84 395.406 416.943C395.406 406.045 362.765 397.211 322.5 397.211C282.236 397.211 249.595 406.045 249.595 416.943C249.595 427.84 282.236 436.675 322.5 436.675Z" fill="black"/>
<path d="M645 356.889V0H0V356.889H297.626V404.596C282.761 406.377 272.753 409.701 272.753 413.511C272.753 419.196 295.025 423.806 322.5 423.806C349.975 423.806 372.247 419.196 372.247 413.511C372.247 409.701 362.239 406.377 347.374 404.596V356.889H645Z" fill="#3F3D56"/>
<path d="M611.55 12.5039H33.4512V332.375H611.55V12.5039Z" fill="#F2F2F2"/>
<path d="M170.369 55.7867C145.733 43.7629 116.519 45.9571 94.2094 61.9803C78.7807 73.0541 69.2731 88.3544 85.3101 107.439C121.204 150.15 124.324 257.717 194.553 240.317C264.782 222.917 289.748 262.465 291.31 207.097C292.873 151.73 294.435 131.167 271.023 115.347C247.612 99.527 232.007 78.9633 210.16 72.6354C199.917 69.6709 184.19 62.5333 170.369 55.7867Z" fill="#F0E767"/>
<path d="M112.339 70.6841L111.696 71.0791C98.9766 78.7994 94.1635 94.9095 100.497 108.407C101.793 111.172 103.138 113.854 104.483 116.283C111.449 128.84 158.793 251.732 181.069 218.217C203.345 184.701 238.167 124.651 233.999 116.271C229.832 107.891 218.681 92.5296 206.152 92.5296C201.234 92.5296 193.958 94.2498 186.931 96.3414C174.175 100.137 160.482 94.6863 153.733 83.1819L152.361 80.8416C144.157 66.8763 126.164 62.3082 112.339 70.6841Z" fill="#F1F0EE"/>
<path d="M132.205 136.373C132.77 135.336 133.537 134.423 134.46 133.687C135.293 133.04 136.321 132.696 137.375 132.711C138.323 132.711 139.096 132.935 139.692 133.381L139.285 138.014C139.253 138.252 139.133 138.468 138.95 138.623C138.758 138.741 138.535 138.798 138.31 138.787C138.201 138.787 138.059 138.787 137.883 138.765C137.707 138.743 137.524 138.735 137.334 138.715L136.755 138.654C136.577 138.634 136.398 138.623 136.218 138.623C135.296 138.623 134.562 138.867 134.014 139.355C133.405 139.924 132.927 140.618 132.612 141.39V154.19H126.313V133.124H130.052C130.318 133.118 130.583 133.145 130.842 133.205C131.034 133.25 131.214 133.337 131.369 133.458C131.516 133.58 131.628 133.738 131.695 133.916C131.78 134.141 131.846 134.372 131.893 134.607L132.205 136.373Z" fill="#0C3E4D"/>
<path d="M148.076 135.296C148.464 134.948 148.874 134.626 149.304 134.332C149.733 134.04 150.189 133.788 150.665 133.58C151.162 133.366 151.68 133.202 152.209 133.092C152.794 132.974 153.39 132.916 153.987 132.92C155.027 132.902 156.059 133.104 157.015 133.513C157.87 133.887 158.63 134.45 159.238 135.158C159.859 135.897 160.323 136.754 160.601 137.678C160.915 138.719 161.069 139.801 161.057 140.887V154.195H155.47V140.883C155.47 139.718 155.2 138.814 154.658 138.172C154.117 137.529 153.318 137.207 152.261 137.206C151.494 137.202 150.736 137.376 150.047 137.714C149.317 138.079 148.65 138.559 148.072 139.136V154.191H142.469V123.898H148.076V135.296Z" fill="#0C3E4D"/>
<path d="M169.058 144.399C169.114 145.343 169.305 146.274 169.627 147.164C169.887 147.881 170.29 148.537 170.812 149.093C171.297 149.6 171.891 149.989 172.55 150.231C173.262 150.49 174.016 150.617 174.773 150.608C175.485 150.623 176.195 150.526 176.877 150.322C177.408 150.156 177.925 149.946 178.421 149.694C178.86 149.463 179.247 149.253 179.579 149.064C179.869 148.886 180.202 148.788 180.542 148.779C180.726 148.768 180.909 148.805 181.073 148.887C181.238 148.968 181.377 149.092 181.479 149.245L182.92 151.074C182.382 151.709 181.752 152.26 181.052 152.71C180.371 153.144 179.642 153.499 178.88 153.766C178.135 154.029 177.366 154.216 176.585 154.325C175.834 154.431 175.077 154.486 174.319 154.487C172.939 154.499 171.568 154.255 170.276 153.766C169.051 153.3 167.941 152.572 167.026 151.633C166.067 150.632 165.327 149.442 164.853 148.139C164.299 146.592 164.031 144.956 164.063 143.313C164.054 141.945 164.288 140.587 164.754 139.301C165.188 138.09 165.859 136.978 166.729 136.031C167.614 135.085 168.686 134.334 169.877 133.827C171.204 133.268 172.633 132.991 174.072 133.013C175.314 133.003 176.548 133.219 177.712 133.651C178.788 134.05 179.765 134.677 180.576 135.49C181.402 136.336 182.042 137.345 182.456 138.452C182.928 139.736 183.159 141.096 183.136 142.463C183.136 143.224 183.055 143.733 182.893 143.998C182.731 144.263 182.419 144.393 181.959 144.393L169.058 144.399ZM178.627 141.371C178.63 140.748 178.537 140.128 178.352 139.532C178.18 138.979 177.9 138.464 177.529 138.02C177.149 137.575 176.673 137.224 176.136 136.993C175.517 136.731 174.849 136.603 174.177 136.617C172.729 136.617 171.587 137.03 170.752 137.856C169.918 138.681 169.386 139.853 169.159 141.371H178.627Z" fill="#0C3E4D"/>
<path d="M199.449 137.229C199.364 137.393 199.239 137.532 199.084 137.633C198.929 137.72 198.754 137.762 198.576 137.756C198.312 137.747 198.054 137.674 197.824 137.543C197.554 137.4 197.236 137.241 196.87 137.065C196.454 136.871 196.022 136.711 195.58 136.587C195.013 136.436 194.429 136.365 193.842 136.373C193.344 136.369 192.848 136.436 192.369 136.571C191.966 136.681 191.587 136.868 191.253 137.12C190.96 137.342 190.721 137.627 190.552 137.953C190.389 138.27 190.305 138.622 190.307 138.978C190.293 139.427 190.454 139.864 190.755 140.197C191.093 140.551 191.495 140.838 191.94 141.04C192.478 141.297 193.036 141.511 193.607 141.68C194.229 141.87 194.865 142.073 195.517 142.29C196.166 142.507 196.804 142.758 197.427 143.041C198.027 143.312 198.587 143.664 199.092 144.088C199.584 144.504 199.987 145.015 200.277 145.591C200.591 146.261 200.744 146.996 200.723 147.736C200.733 148.663 200.553 149.582 200.196 150.437C199.846 151.26 199.318 151.995 198.651 152.59C197.915 153.234 197.054 153.718 196.121 154.012C195.002 154.369 193.832 154.541 192.657 154.522C191.959 154.522 191.262 154.456 190.576 154.324C189.926 154.2 189.287 154.023 188.666 153.795C188.08 153.58 187.515 153.312 186.979 152.993C186.487 152.7 186.024 152.36 185.597 151.978L186.612 150.311C186.725 150.118 186.881 149.955 187.068 149.833C187.274 149.712 187.511 149.653 187.749 149.661C188.052 149.667 188.345 149.762 188.593 149.936C188.869 150.117 189.185 150.319 189.568 150.528C189.999 150.769 190.451 150.967 190.919 151.121C191.558 151.32 192.225 151.412 192.894 151.395C193.465 151.406 194.035 151.327 194.581 151.16C195.015 151.03 195.419 150.812 195.766 150.52C196.064 150.269 196.3 149.953 196.457 149.596C196.607 149.247 196.683 148.87 196.68 148.49C196.699 148.016 196.54 147.552 196.234 147.188C195.9 146.823 195.497 146.527 195.049 146.316C194.505 146.053 193.941 145.836 193.362 145.666C192.733 145.476 192.093 145.273 191.443 145.055C190.79 144.839 190.149 144.588 189.523 144.305C188.908 144.031 188.34 143.664 187.836 143.217C187.337 142.767 186.934 142.222 186.651 141.613C186.334 140.887 186.181 140.099 186.205 139.306C186.201 138.487 186.374 137.676 186.712 136.929C187.05 136.182 187.546 135.517 188.164 134.979C188.86 134.38 189.664 133.921 190.534 133.628C191.585 133.279 192.688 133.111 193.795 133.13C195.092 133.113 196.381 133.34 197.595 133.8C198.655 134.213 199.618 134.84 200.425 135.643L199.449 137.229Z" fill="#0C3E4D"/>
<path d="M208.814 127.169C208.816 127.529 208.74 127.886 208.591 128.214C208.449 128.539 208.248 128.836 207.999 129.089C207.746 129.343 207.445 129.544 207.114 129.681C206.78 129.823 206.42 129.895 206.057 129.895C205.701 129.897 205.349 129.824 205.022 129.681C204.369 129.397 203.849 128.873 203.569 128.218C203.427 127.888 203.354 127.532 203.356 127.173C203.353 126.807 203.426 126.444 203.569 126.106C203.849 125.451 204.369 124.927 205.022 124.643C205.349 124.5 205.701 124.428 206.057 124.43C206.42 124.429 206.78 124.501 207.114 124.643C207.445 124.78 207.746 124.982 207.999 125.236C208.248 125.488 208.449 125.785 208.591 126.11C208.74 126.443 208.816 126.804 208.814 127.169V127.169ZM208.064 133.548V154.191H204.102V133.55L208.064 133.548Z" fill="#0C3E4D"/>
<path d="M230.088 124.207V154.191H227.69C227.45 154.213 227.211 154.143 227.019 153.997C226.827 153.851 226.697 153.639 226.653 153.401L226.308 151.031C225.468 152.041 224.453 152.891 223.312 153.542C222.125 154.188 220.791 154.513 219.441 154.486C218.335 154.501 217.241 154.265 216.241 153.795C215.276 153.326 214.437 152.633 213.794 151.774C213.067 150.783 212.535 149.662 212.228 148.472C211.842 146.99 211.659 145.463 211.683 143.931C211.671 142.487 211.876 141.049 212.291 139.665C212.657 138.427 213.255 137.27 214.053 136.255C214.811 135.304 215.768 134.531 216.857 133.989C218.013 133.426 219.285 133.144 220.57 133.164C221.608 133.117 222.643 133.302 223.6 133.706C224.556 134.111 225.411 134.723 226.1 135.5V124.207H230.088ZM226.1 138.548C225.451 137.694 224.751 137.099 223.999 136.76C223.202 136.414 222.341 136.242 221.473 136.255C219.657 136.255 218.252 136.908 217.258 138.214C216.264 139.52 215.766 141.429 215.763 143.941C215.745 145.07 215.857 146.196 216.099 147.299C216.274 148.113 216.605 148.886 217.075 149.574C217.475 150.141 218.021 150.59 218.655 150.873C219.321 151.161 220.042 151.303 220.768 151.29C221.816 151.318 222.851 151.05 223.754 150.518C224.663 149.941 225.461 149.205 226.11 148.345L226.1 138.548Z" fill="#0C3E4D"/>
<path d="M251.397 151.306C250.94 151.859 250.398 152.335 249.792 152.718C249.164 153.121 248.493 153.452 247.791 153.706C247.075 153.964 246.337 154.158 245.587 154.284C244.842 154.413 244.088 154.479 243.332 154.482C241.987 154.496 240.653 154.251 239.401 153.761C238.222 153.293 237.161 152.572 236.293 151.648C235.38 150.654 234.684 149.481 234.25 148.203C233.739 146.686 233.492 145.092 233.52 143.491C233.508 142.122 233.731 140.761 234.179 139.468C234.591 138.272 235.237 137.17 236.079 136.227C236.922 135.3 237.955 134.566 239.107 134.074C240.378 133.534 241.747 133.265 243.128 133.284C244.299 133.273 245.46 133.484 246.553 133.904C247.575 134.298 248.503 134.903 249.274 135.682C250.069 136.507 250.681 137.49 251.072 138.567C251.525 139.82 251.746 141.145 251.723 142.478C251.723 143.047 251.662 143.426 251.54 143.615C251.417 143.813 251.188 143.9 250.848 143.9H237.094C237.11 145.058 237.291 146.208 237.634 147.315C237.909 148.199 238.362 149.018 238.965 149.722C239.519 150.355 240.215 150.849 240.995 151.164C241.837 151.492 242.734 151.655 243.638 151.642C244.431 151.658 245.223 151.551 245.984 151.326C246.567 151.145 247.134 150.918 247.68 150.646C248.087 150.441 248.483 150.213 248.865 149.965C249.105 149.784 249.39 149.675 249.689 149.651C249.824 149.645 249.959 149.673 250.08 149.734C250.201 149.794 250.304 149.885 250.38 149.997L251.397 151.306ZM248.472 141.656C248.481 140.874 248.361 140.095 248.117 139.351C247.898 138.684 247.545 138.068 247.08 137.542C246.623 137.03 246.058 136.625 245.425 136.357C244.723 136.071 243.969 135.93 243.211 135.942C241.477 135.942 240.106 136.447 239.097 137.455C238.089 138.464 237.462 139.862 237.217 141.65L248.472 141.656Z" fill="#0C3E4D"/>
<path d="M256.317 137.513C257.212 136.383 258.312 135.432 259.558 134.709C260.805 133.999 262.218 133.634 263.652 133.652C264.656 133.632 265.654 133.812 266.587 134.181C267.402 134.509 268.124 135.032 268.691 135.704C269.266 136.41 269.693 137.226 269.945 138.102C270.241 139.128 270.385 140.193 270.371 141.262V154.182H268.42V141.271C268.42 139.375 267.987 137.889 267.121 136.812C266.254 135.735 264.934 135.196 263.159 135.196C261.863 135.193 260.591 135.541 259.477 136.202C258.281 136.918 257.241 137.868 256.42 138.994V154.202H254.469V133.978H255.547C255.62 133.97 255.693 133.978 255.763 134C255.832 134.022 255.897 134.057 255.952 134.105C256.007 134.152 256.053 134.21 256.085 134.276C256.117 134.341 256.136 134.413 256.14 134.485L256.317 137.513Z" fill="#0C3E4D"/>
<path d="M279.904 154.517C278.658 154.517 277.683 154.175 276.979 153.49C276.276 152.806 275.924 151.705 275.923 150.188V135.745H272.794C272.536 135.745 272.399 135.642 272.399 135.439V135.07L275.915 134.927L276.219 127.207C276.234 127.122 276.27 127.043 276.322 126.974C276.346 126.938 276.38 126.909 276.419 126.889C276.458 126.869 276.501 126.86 276.545 126.862H276.991V134.931H283.615V135.745H276.991V150.149C276.978 150.69 277.061 151.23 277.236 151.743C277.375 152.146 277.596 152.517 277.886 152.831C278.152 153.112 278.483 153.324 278.85 153.449C279.239 153.583 279.647 153.649 280.058 153.646C280.531 153.655 281 153.572 281.441 153.404C281.8 153.261 282.144 153.084 282.468 152.874C282.71 152.716 282.941 152.54 283.157 152.347C283.333 152.185 283.463 152.102 283.552 152.102C283.64 152.113 283.72 152.156 283.775 152.224L284.04 152.619C283.805 152.908 283.535 153.167 283.236 153.39C282.923 153.623 282.586 153.821 282.231 153.982C281.866 154.151 281.485 154.284 281.093 154.377C280.704 154.471 280.305 154.518 279.904 154.517V154.517Z" fill="#0C3E4D"/>
<path d="M293.723 126.785C294.2 126.78 294.674 126.861 295.122 127.026C295.528 127.178 295.898 127.415 296.204 127.721C296.511 128.028 296.748 128.397 296.899 128.804C297.072 129.263 297.157 129.75 297.15 130.24C297.157 130.734 297.072 131.225 296.899 131.687C296.745 132.098 296.505 132.472 296.196 132.784C295.888 133.088 295.52 133.325 295.114 133.477C294.667 133.643 294.193 133.726 293.716 133.72C293.235 133.726 292.758 133.644 292.307 133.477C291.899 133.324 291.527 133.088 291.215 132.784C290.902 132.474 290.661 132.1 290.506 131.687C290.333 131.225 290.248 130.734 290.255 130.24C290.248 129.75 290.333 129.262 290.506 128.804C290.661 128.395 290.903 128.025 291.215 127.72C291.528 127.417 291.9 127.183 292.307 127.032C292.76 126.864 293.24 126.78 293.723 126.785V126.785ZM293.723 132.223C293.922 132.237 294.121 132.2 294.301 132.114C294.481 132.028 294.635 131.897 294.748 131.733C294.966 131.407 295.076 130.911 295.076 130.246C295.076 129.58 294.966 129.086 294.748 128.762C294.634 128.6 294.48 128.47 294.3 128.385C294.12 128.299 293.922 128.262 293.723 128.277C293.522 128.262 293.32 128.298 293.137 128.383C292.954 128.468 292.795 128.599 292.677 128.762C292.456 129.086 292.345 129.582 292.345 130.246C292.345 130.909 292.456 131.407 292.677 131.733C292.794 131.898 292.952 132.03 293.135 132.116C293.319 132.202 293.522 132.239 293.723 132.223Z" fill="#0C3E4D"/>
<path d="M300.058 127.928C300.239 127.599 300.483 127.308 300.777 127.073C301.044 126.867 301.373 126.757 301.711 126.761C301.975 126.748 302.236 126.824 302.452 126.976L302.321 128.454C302.312 128.531 302.274 128.601 302.215 128.651C302.155 128.688 302.087 128.706 302.017 128.703H301.881L301.705 128.687L301.519 128.667C301.458 128.667 301.399 128.667 301.348 128.667C301.092 128.654 300.84 128.737 300.643 128.9C300.449 129.082 300.297 129.302 300.196 129.548V133.63H298.18V126.915H299.373C299.457 126.913 299.541 126.922 299.623 126.941C299.685 126.955 299.743 126.983 299.793 127.022C299.84 127.061 299.875 127.111 299.896 127.168C299.924 127.233 299.947 127.299 299.965 127.367L300.058 127.928Z" fill="#0C3E4D"/>
<path d="M309.247 127.098V127.831C309.25 127.879 309.243 127.928 309.227 127.973C309.21 128.018 309.185 128.06 309.152 128.096C309.061 128.175 308.95 128.227 308.83 128.246L308.343 128.354C308.369 128.45 308.389 128.548 308.404 128.647C308.42 128.749 308.428 128.853 308.428 128.957C308.432 129.272 308.36 129.584 308.216 129.865C308.075 130.132 307.878 130.365 307.638 130.549C307.376 130.744 307.082 130.891 306.768 130.983C306.42 131.086 306.059 131.138 305.696 131.135C305.591 131.135 305.499 131.135 305.39 131.125C305.292 131.12 305.194 131.108 305.098 131.09C305.037 131.117 304.985 131.159 304.946 131.212C304.907 131.266 304.883 131.328 304.876 131.394C304.876 131.449 304.894 131.502 304.926 131.546C304.959 131.59 305.005 131.622 305.058 131.637C305.213 131.694 305.375 131.729 305.54 131.742C305.738 131.761 305.965 131.773 306.219 131.779C306.474 131.785 306.731 131.801 306.996 131.825C307.257 131.848 307.517 131.889 307.774 131.945C308.014 131.995 308.244 132.088 308.453 132.218C308.653 132.343 308.818 132.515 308.935 132.719C309.063 132.962 309.126 133.235 309.117 133.509C309.114 133.819 309.038 134.123 308.896 134.398C308.738 134.699 308.516 134.962 308.246 135.168C307.929 135.409 307.572 135.592 307.191 135.709C306.728 135.85 306.245 135.917 305.761 135.907C305.3 135.914 304.839 135.863 304.391 135.757C304.053 135.676 303.731 135.542 303.435 135.362C303.205 135.223 303.012 135.031 302.874 134.801C302.755 134.601 302.691 134.372 302.69 134.139C302.681 133.867 302.774 133.601 302.951 133.395C303.151 133.178 303.401 133.013 303.68 132.915C303.506 132.818 303.364 132.673 303.27 132.498C303.175 132.323 303.133 132.125 303.146 131.927C303.148 131.821 303.165 131.715 303.198 131.613C303.236 131.497 303.292 131.388 303.364 131.289C303.445 131.178 303.54 131.078 303.646 130.989C303.766 130.888 303.899 130.803 304.041 130.736C303.706 130.565 303.419 130.311 303.208 130C303 129.683 302.893 129.311 302.901 128.933C302.897 128.617 302.971 128.305 303.117 128.025C303.26 127.754 303.463 127.519 303.709 127.337C303.975 127.141 304.273 126.994 304.59 126.903C304.947 126.799 305.318 126.748 305.69 126.751C306.215 126.74 306.736 126.851 307.211 127.075L309.247 127.098ZM307.272 133.857C307.276 133.784 307.257 133.712 307.218 133.65C307.18 133.588 307.124 133.539 307.057 133.509C306.88 133.429 306.691 133.378 306.498 133.357C306.269 133.327 306.012 133.31 305.728 133.302C305.443 133.294 305.161 133.28 304.878 133.254C304.761 133.333 304.657 133.431 304.57 133.543C304.491 133.645 304.448 133.772 304.45 133.902C304.448 133.992 304.469 134.081 304.511 134.161C304.563 134.246 304.639 134.314 304.728 134.358C304.861 134.423 305.003 134.468 305.149 134.491C305.369 134.527 305.592 134.543 305.815 134.54C306.055 134.544 306.295 134.526 306.531 134.487C306.686 134.463 306.836 134.415 306.976 134.345C307.073 134.298 307.154 134.222 307.207 134.127C307.25 134.044 307.272 133.951 307.272 133.857ZM305.712 129.897C305.836 129.916 305.963 129.906 306.083 129.868C306.203 129.831 306.313 129.767 306.404 129.681C306.496 129.594 306.567 129.489 306.611 129.371C306.656 129.254 306.673 129.127 306.662 129.002C306.668 128.886 306.652 128.77 306.613 128.66C306.575 128.55 306.515 128.449 306.437 128.362C306.225 128.211 305.972 128.129 305.712 128.129C305.452 128.129 305.198 128.211 304.987 128.362C304.909 128.449 304.849 128.55 304.81 128.66C304.772 128.77 304.755 128.886 304.762 129.002C304.76 129.124 304.779 129.244 304.817 129.36C304.853 129.465 304.912 129.562 304.989 129.642C305.072 129.728 305.173 129.796 305.285 129.84C305.42 129.884 305.562 129.903 305.704 129.897H305.712Z" fill="#0C3E4D"/>
<path d="M171.046 170.121H175.589V175.499C174.957 175.966 174.249 176.318 173.495 176.54C172.741 176.758 171.96 176.867 171.175 176.864C170.195 176.877 169.221 176.709 168.301 176.37C167.479 176.066 166.725 175.602 166.083 175.005C165.469 174.425 164.984 173.722 164.661 172.941C164.324 172.119 164.154 171.238 164.162 170.35C164.151 169.455 164.312 168.566 164.636 167.731C164.94 166.96 165.404 166.261 165.996 165.681C166.607 165.089 167.333 164.631 168.129 164.334C169.023 164.003 169.971 163.84 170.924 163.852C171.427 163.85 171.93 163.895 172.425 163.985C172.866 164.065 173.299 164.184 173.719 164.342C174.097 164.486 174.461 164.668 174.803 164.885C175.117 165.084 175.411 165.312 175.682 165.567L174.821 166.87C174.763 166.964 174.688 167.046 174.598 167.111C174.509 167.175 174.407 167.221 174.299 167.245C174.058 167.286 173.81 167.23 173.61 167.089C173.375 166.949 173.156 166.827 172.946 166.726C172.742 166.624 172.529 166.541 172.31 166.477C172.087 166.411 171.858 166.364 171.627 166.337C171.359 166.306 171.089 166.291 170.819 166.293C170.304 166.285 169.793 166.384 169.318 166.586C168.883 166.774 168.495 167.056 168.181 167.411C167.858 167.787 167.612 168.222 167.458 168.693C167.282 169.231 167.196 169.794 167.203 170.36C167.193 170.972 167.287 171.581 167.484 172.161C167.652 172.654 167.921 173.107 168.274 173.49C168.617 173.852 169.037 174.134 169.502 174.316C170.006 174.51 170.542 174.606 171.082 174.6C171.409 174.603 171.735 174.568 172.054 174.496C172.343 174.425 172.625 174.331 172.899 174.215V172.284H171.635C171.475 172.293 171.317 172.239 171.197 172.133C171.145 172.086 171.104 172.028 171.077 171.963C171.05 171.898 171.037 171.828 171.039 171.758L171.046 170.121Z" fill="#0C3E4D"/>
<path d="M179.991 163.633V176.723H177.27V163.633H179.991Z" fill="#0C3E4D"/>
<path d="M186.029 167.516C186.672 167.508 187.311 167.618 187.915 167.84C188.462 168.042 188.96 168.357 189.376 168.766C189.792 169.182 190.115 169.682 190.324 170.232C190.558 170.85 190.672 171.507 190.662 172.167C190.672 172.834 190.558 173.497 190.324 174.122C190.116 174.676 189.793 175.18 189.376 175.6C188.961 176.011 188.463 176.33 187.915 176.536C187.312 176.761 186.672 176.872 186.029 176.864C185.381 176.873 184.737 176.761 184.129 176.536C183.577 176.33 183.075 176.011 182.654 175.6C182.232 175.182 181.906 174.678 181.698 174.122C181.465 173.497 181.35 172.834 181.36 172.167C181.35 171.507 181.465 170.85 181.698 170.232C181.907 169.68 182.233 169.18 182.654 168.766C183.075 168.358 183.578 168.042 184.129 167.84C184.737 167.617 185.381 167.508 186.029 167.516V167.516ZM186.029 174.853C186.654 174.853 187.115 174.633 187.411 174.192C187.708 173.75 187.855 173.082 187.854 172.185C187.854 171.288 187.706 170.621 187.411 170.182C187.116 169.744 186.656 169.525 186.029 169.527C185.385 169.527 184.915 169.746 184.615 170.182C184.315 170.619 184.168 171.288 184.168 172.185C184.168 173.082 184.317 173.753 184.615 174.192C184.913 174.63 185.385 174.853 186.029 174.853V174.853Z" fill="#0C3E4D"/>
<path d="M194.753 168.618C195.095 168.296 195.485 168.03 195.908 167.828C196.345 167.622 196.823 167.519 197.306 167.526C197.787 167.516 198.263 167.621 198.695 167.832C199.126 168.042 199.502 168.352 199.791 168.736C200.105 169.158 200.339 169.634 200.48 170.14C200.647 170.738 200.729 171.357 200.721 171.977C200.729 172.654 200.635 173.328 200.441 173.976C200.276 174.535 200.008 175.058 199.651 175.518C199.32 175.936 198.902 176.277 198.426 176.516C197.935 176.756 197.393 176.877 196.846 176.869C196.598 176.873 196.351 176.846 196.11 176.79C195.903 176.742 195.704 176.667 195.517 176.567C195.338 176.474 195.171 176.357 195.021 176.221C194.868 176.085 194.723 175.939 194.587 175.785L194.49 176.239C194.468 176.396 194.385 176.537 194.261 176.634C194.134 176.711 193.988 176.747 193.84 176.739H192.033V163.633H194.753V168.618ZM194.753 174.258C194.936 174.465 195.165 174.626 195.42 174.73C195.652 174.822 195.9 174.87 196.149 174.871C196.394 174.872 196.636 174.823 196.86 174.726C197.085 174.622 197.277 174.459 197.417 174.254C197.591 173.99 197.714 173.696 197.78 173.387C197.877 172.952 197.922 172.508 197.913 172.062C197.919 171.674 197.885 171.286 197.812 170.905C197.761 170.629 197.66 170.366 197.514 170.127C197.395 169.937 197.224 169.785 197.022 169.688C196.811 169.595 196.582 169.549 196.351 169.554C196.047 169.547 195.746 169.622 195.482 169.771C195.206 169.944 194.96 170.16 194.753 170.411V174.258Z" fill="#0C3E4D"/>
<path d="M201.913 168.915C202.448 168.44 203.07 168.074 203.744 167.836C204.437 167.596 205.166 167.475 205.899 167.481C206.407 167.473 206.912 167.564 207.386 167.748C207.809 167.913 208.193 168.167 208.51 168.492C208.821 168.816 209.062 169.202 209.217 169.624C209.384 170.083 209.467 170.569 209.462 171.058V176.724H208.216C208.013 176.737 207.809 176.702 207.623 176.619C207.465 176.518 207.348 176.363 207.293 176.183L207.096 175.683C206.885 175.863 206.666 176.033 206.438 176.191C206.232 176.334 206.013 176.459 205.784 176.562C205.554 176.666 205.312 176.743 205.063 176.791C204.785 176.842 204.502 176.867 204.218 176.864C203.834 176.869 203.452 176.815 203.085 176.702C202.767 176.606 202.473 176.444 202.221 176.226C201.979 176.009 201.791 175.739 201.672 175.436C201.537 175.093 201.469 174.725 201.475 174.356C201.481 174.012 201.565 173.674 201.722 173.368C201.921 172.994 202.214 172.677 202.573 172.45C203.075 172.131 203.626 171.896 204.204 171.755C205.052 171.549 205.921 171.443 206.794 171.441V171.056C206.794 170.526 206.685 170.141 206.464 169.906C206.342 169.784 206.196 169.689 206.035 169.628C205.874 169.567 205.702 169.542 205.53 169.553C205.262 169.544 204.995 169.58 204.74 169.657C204.551 169.72 204.368 169.799 204.193 169.892C204.031 169.981 203.875 170.058 203.722 170.129C203.55 170.203 203.364 170.239 203.177 170.234C203.008 170.239 202.842 170.19 202.703 170.094C202.578 170.004 202.471 169.891 202.387 169.762L201.913 168.915ZM206.811 173.035C206.361 173.048 205.912 173.094 205.468 173.175C205.18 173.224 204.9 173.312 204.635 173.436C204.463 173.513 204.316 173.638 204.21 173.795C204.132 173.927 204.091 174.078 204.092 174.231C204.078 174.352 204.094 174.475 204.138 174.588C204.182 174.702 204.253 174.803 204.345 174.883C204.567 175.023 204.829 175.089 205.091 175.071C205.408 175.077 205.723 175.015 206.013 174.889C206.31 174.74 206.577 174.539 206.803 174.297L206.811 173.035Z" fill="#0C3E4D"/>
<path d="M213.922 163.633V176.723H211.2V163.633H213.922Z" fill="#0C3E4D"/>
<path d="M223.076 176.863C222.686 176.867 222.298 176.801 221.931 176.666C221.617 176.552 221.331 176.37 221.095 176.133C220.866 175.894 220.691 175.609 220.582 175.297C220.462 174.946 220.403 174.576 220.408 174.205V169.526H219.636C219.566 169.53 219.496 169.519 219.431 169.493C219.366 169.467 219.307 169.428 219.259 169.377C219.21 169.326 219.173 169.266 219.151 169.199C219.128 169.133 219.119 169.063 219.126 168.993V167.936L220.57 167.656L221.105 165.444C221.134 165.313 221.211 165.197 221.32 165.119C221.43 165.042 221.564 165.007 221.698 165.023H223.138V167.674H225.393V169.526H223.138V174.031C223.13 174.217 223.184 174.399 223.292 174.551C223.344 174.617 223.411 174.67 223.489 174.704C223.566 174.738 223.65 174.754 223.734 174.748C223.819 174.75 223.903 174.74 223.985 174.719C224.045 174.7 224.104 174.676 224.161 174.648L224.301 174.578C224.349 174.556 224.402 174.545 224.455 174.547C224.525 174.544 224.595 174.564 224.652 174.604C224.714 174.655 224.766 174.716 224.806 174.784L225.63 176.07C225.273 176.335 224.872 176.535 224.445 176.662C224.001 176.796 223.54 176.864 223.076 176.863V176.863Z" fill="#0C3E4D"/>
<path d="M229.279 168.446C229.6 168.17 229.959 167.942 230.346 167.768C230.783 167.585 231.254 167.497 231.728 167.51C232.181 167.501 232.631 167.59 233.047 167.768C233.42 167.933 233.752 168.178 234.019 168.485C234.289 168.806 234.49 169.177 234.612 169.578C234.749 170.025 234.815 170.492 234.809 170.96V176.723H232.088V170.96C232.11 170.59 232.002 170.223 231.781 169.925C231.669 169.798 231.53 169.698 231.373 169.634C231.216 169.569 231.046 169.542 230.877 169.554C230.587 169.551 230.301 169.615 230.04 169.741C229.764 169.877 229.508 170.049 229.279 170.253V176.723H226.56V163.633H229.279V168.446Z" fill="#0C3E4D"/>
<path d="M239.628 165.172C239.629 165.382 239.584 165.59 239.496 165.78C239.408 165.966 239.285 166.134 239.134 166.274C238.98 166.419 238.8 166.535 238.603 166.616C238.399 166.701 238.179 166.744 237.957 166.742C237.743 166.744 237.532 166.701 237.335 166.616C237.145 166.534 236.971 166.418 236.822 166.274C236.673 166.133 236.553 165.964 236.47 165.776C236.385 165.585 236.342 165.377 236.344 165.168C236.342 164.955 236.385 164.743 236.47 164.548C236.641 164.167 236.951 163.865 237.337 163.707C237.534 163.624 237.746 163.582 237.959 163.584C238.181 163.582 238.4 163.624 238.605 163.707C238.803 163.784 238.983 163.9 239.136 164.046C239.287 164.191 239.409 164.364 239.496 164.554C239.584 164.748 239.629 164.959 239.628 165.172V165.172ZM239.346 167.657V176.724H236.626V167.657H239.346Z" fill="#0C3E4D"/>
<path d="M243.762 168.644C243.934 168.482 244.116 168.33 244.305 168.19C244.493 168.05 244.695 167.93 244.908 167.834C245.131 167.735 245.363 167.659 245.601 167.607C245.868 167.55 246.14 167.522 246.413 167.524C246.866 167.516 247.317 167.604 247.734 167.783C248.106 167.947 248.437 168.192 248.704 168.5C248.973 168.82 249.175 169.191 249.296 169.592C249.433 170.04 249.5 170.506 249.494 170.974V176.737H246.78V170.96C246.803 170.59 246.694 170.224 246.474 169.926C246.362 169.798 246.222 169.699 246.065 169.634C245.908 169.57 245.738 169.542 245.569 169.554C245.279 169.552 244.993 169.616 244.732 169.742C244.456 169.877 244.201 170.049 243.972 170.253V176.724H241.252V167.656H242.937C243.083 167.644 243.229 167.683 243.351 167.765C243.472 167.848 243.562 167.97 243.604 168.111L243.762 168.644Z" fill="#0C3E4D"/>
<path d="M253.976 163.633V170.97H254.381C254.514 170.978 254.646 170.952 254.766 170.895C254.871 170.831 254.961 170.746 255.031 170.646L256.751 168.092C256.845 167.948 256.976 167.831 257.13 167.754C257.284 167.678 257.456 167.644 257.628 167.656H260.121L257.768 170.883C257.552 171.169 257.284 171.412 256.978 171.6C257.115 171.7 257.239 171.816 257.348 171.946C257.464 172.084 257.569 172.232 257.664 172.386L260.231 176.731H257.768C257.588 176.736 257.409 176.702 257.243 176.63C257.086 176.554 256.957 176.43 256.874 176.277L255.154 173.067C255.098 172.95 255.009 172.852 254.899 172.783C254.773 172.733 254.639 172.71 254.504 172.718H253.976V176.731H251.257V163.633H253.976Z" fill="#0C3E4D"/>
<path d="M264.124 165.172C264.125 165.382 264.08 165.59 263.992 165.78C263.903 165.967 263.778 166.135 263.625 166.274C263.47 166.419 263.29 166.535 263.093 166.616C262.889 166.701 262.669 166.744 262.448 166.742C262.234 166.744 262.022 166.701 261.826 166.616C261.635 166.534 261.461 166.418 261.312 166.274C261.163 166.133 261.044 165.964 260.96 165.776C260.875 165.585 260.831 165.378 260.832 165.168C260.831 164.955 260.874 164.743 260.96 164.548C261.129 164.165 261.439 163.861 261.826 163.701C262.022 163.618 262.234 163.576 262.448 163.578C262.669 163.576 262.888 163.618 263.093 163.701C263.291 163.778 263.471 163.894 263.625 164.04C263.775 164.186 263.897 164.358 263.984 164.548C264.076 164.743 264.124 164.956 264.124 165.172ZM263.842 167.657V176.724H261.122V167.657H263.842Z" fill="#0C3E4D"/>
<path d="M268.258 168.644C268.43 168.482 268.611 168.33 268.801 168.19C268.986 168.05 269.184 167.931 269.394 167.834C269.868 167.624 270.382 167.518 270.901 167.524C271.354 167.516 271.804 167.604 272.22 167.783C272.593 167.947 272.925 168.192 273.192 168.5C273.461 168.82 273.663 169.191 273.784 169.592C273.921 170.04 273.988 170.506 273.982 170.974V176.737H271.276V170.96C271.299 170.59 271.19 170.224 270.97 169.926C270.858 169.798 270.718 169.698 270.561 169.634C270.404 169.57 270.235 169.542 270.065 169.554C269.776 169.552 269.489 169.616 269.228 169.742C268.953 169.877 268.697 170.049 268.468 170.253V176.723H265.748V167.656H267.433C267.579 167.644 267.725 167.683 267.847 167.765C267.968 167.848 268.058 167.97 268.1 168.111L268.258 168.644Z" fill="#0C3E4D"/>
<path d="M284.01 167.937V168.925C284.014 168.99 284.005 169.055 283.983 169.116C283.961 169.178 283.928 169.234 283.884 169.282C283.761 169.388 283.61 169.457 283.449 169.48L282.792 169.628C282.826 169.758 282.854 169.89 282.875 170.023C282.895 170.162 282.906 170.301 282.906 170.442C282.912 170.867 282.814 171.288 282.62 171.666C282.428 172.028 282.158 172.343 281.83 172.588C281.478 172.856 281.08 173.056 280.657 173.181C280.186 173.318 279.699 173.384 279.209 173.378C279.069 173.378 278.93 173.378 278.796 173.365C278.664 173.357 278.532 173.341 278.401 173.317C278.32 173.353 278.249 173.41 278.197 173.482C278.144 173.555 278.112 173.639 278.103 173.728C278.103 173.802 278.127 173.874 278.171 173.933C278.215 173.992 278.277 174.035 278.348 174.056C278.557 174.133 278.775 174.181 278.998 174.196C279.268 174.222 279.572 174.24 279.916 174.249C280.26 174.259 280.607 174.277 280.965 174.309C281.317 174.341 281.667 174.395 282.013 174.471C282.337 174.54 282.647 174.665 282.93 174.838C283.2 175.007 283.423 175.24 283.58 175.517C283.755 175.849 283.839 176.221 283.824 176.596C283.823 177.013 283.72 177.425 283.526 177.795C283.314 178.202 283.015 178.558 282.649 178.835C282.222 179.16 281.74 179.407 281.227 179.566C280.602 179.758 279.95 179.851 279.296 179.841C278.674 179.852 278.054 179.786 277.449 179.643C276.994 179.535 276.559 179.357 276.159 179.114C275.848 178.928 275.587 178.668 275.399 178.357C275.24 178.088 275.155 177.78 275.154 177.467C275.141 177.099 275.267 176.739 275.506 176.459C275.777 176.167 276.116 175.945 276.493 175.814C276.26 175.682 276.07 175.488 275.942 175.253C275.815 175.017 275.757 174.751 275.774 174.484C275.776 174.34 275.8 174.197 275.845 174.06C275.895 173.903 275.971 173.756 276.069 173.623C276.178 173.472 276.306 173.336 276.45 173.217C276.616 173.079 276.799 172.964 276.995 172.875C276.543 172.645 276.157 172.306 275.871 171.887C275.591 171.46 275.447 170.958 275.458 170.448C275.452 170.02 275.552 169.598 275.749 169.219C275.939 168.855 276.209 168.539 276.539 168.293C276.895 168.026 277.297 167.826 277.724 167.7C278.206 167.563 278.706 167.496 279.207 167.503C279.916 167.489 280.619 167.639 281.261 167.941L284.01 167.937ZM281.326 177.058C281.331 176.96 281.306 176.862 281.254 176.778C281.202 176.695 281.126 176.629 281.036 176.59C280.797 176.483 280.542 176.416 280.281 176.392C279.936 176.348 279.589 176.323 279.24 176.317C278.857 176.309 278.476 176.288 278.095 176.252C277.936 176.361 277.795 176.494 277.678 176.647C277.571 176.786 277.514 176.957 277.516 177.133C277.515 177.254 277.543 177.375 277.599 177.482C277.668 177.6 277.771 177.694 277.894 177.753C278.072 177.841 278.263 177.902 278.46 177.933C278.757 177.981 279.058 178.003 279.359 177.998C279.682 178.003 280.006 177.98 280.325 177.927C280.531 177.892 280.731 177.825 280.917 177.729C281.048 177.665 281.157 177.564 281.229 177.437C281.293 177.321 281.326 177.19 281.326 177.058V177.058ZM279.227 171.714C279.677 171.714 280.006 171.602 280.214 171.378C280.422 171.136 280.53 170.825 280.516 170.507C280.525 170.35 280.503 170.193 280.451 170.044C280.4 169.896 280.319 169.759 280.214 169.642C280.01 169.432 279.681 169.328 279.227 169.328C278.772 169.328 278.443 169.432 278.239 169.642C278.134 169.759 278.054 169.896 278.002 170.044C277.95 170.193 277.928 170.35 277.937 170.507C277.935 170.67 277.961 170.833 278.012 170.989C278.059 171.132 278.139 171.261 278.245 171.368C278.356 171.481 278.491 171.568 278.64 171.623C278.828 171.689 279.027 171.72 279.227 171.714Z" fill="#0C3E4D"/>
<path d="M303.865 121.997V121.8C303.865 121.79 303.865 121.78 303.865 121.77C303.874 121.66 303.891 121.55 303.915 121.442C303.954 121.203 304.024 120.971 304.124 120.751C304.382 120.181 304.82 119.711 305.372 119.416C305.619 119.282 305.886 119.188 306.162 119.135C306.279 119.111 306.398 119.096 306.518 119.088H306.611H306.824C306.971 119.094 307.118 119.112 307.262 119.141C307.896 119.269 308.467 119.609 308.88 120.107C309.063 120.326 309.212 120.573 309.32 120.838C309.472 121.205 309.544 121.6 309.532 121.998C309.52 122.395 309.424 122.785 309.251 123.143C309.129 123.395 308.97 123.628 308.779 123.834C308.526 124.107 308.221 124.328 307.882 124.483C307.543 124.638 307.177 124.725 306.804 124.738C306.585 124.746 306.366 124.729 306.15 124.687C305.865 124.631 305.59 124.53 305.337 124.389C305.006 124.206 304.715 123.959 304.481 123.662C304.267 123.393 304.105 123.087 304.003 122.759C303.936 122.546 303.895 122.326 303.879 122.104L303.865 121.997ZM306.693 119.507C306.22 119.506 305.757 119.646 305.363 119.909C304.969 120.172 304.662 120.546 304.48 120.983C304.299 121.421 304.251 121.902 304.344 122.367C304.436 122.831 304.664 123.258 304.999 123.593C305.334 123.928 305.76 124.156 306.225 124.248C306.689 124.34 307.171 124.293 307.608 124.111C308.046 123.93 308.42 123.623 308.683 123.229C308.945 122.835 309.086 122.372 309.085 121.898C309.085 121.584 309.024 121.273 308.904 120.983C308.784 120.692 308.607 120.429 308.385 120.207C308.163 119.984 307.899 119.808 307.609 119.688C307.319 119.568 307.008 119.506 306.693 119.507V119.507Z" fill="#0C3E4D"/>
<path d="M307.236 122.212L307.868 123.199H307.454C307.447 123.2 307.441 123.199 307.435 123.196C307.43 123.193 307.425 123.189 307.422 123.184L306.83 122.257C306.827 122.252 306.824 122.248 306.819 122.245C306.815 122.242 306.809 122.241 306.804 122.241H306.257V123.197H305.822V120.59H306.968C307.087 120.587 307.205 120.602 307.319 120.636C307.434 120.666 307.542 120.716 307.639 120.784C307.761 120.868 307.848 120.993 307.886 121.135C307.903 121.212 307.915 121.29 307.924 121.369C307.93 121.473 307.919 121.578 307.892 121.679C307.877 121.749 307.848 121.817 307.807 121.876C307.711 122.011 307.572 122.109 307.412 122.155C307.355 122.172 307.298 122.186 307.24 122.202L307.236 122.212ZM306.249 121.878H306.877C306.921 121.879 306.964 121.875 307.007 121.866C307.076 121.85 307.146 121.827 307.205 121.807C307.242 121.797 307.278 121.779 307.307 121.754C307.376 121.705 307.427 121.636 307.454 121.556C307.475 121.468 307.475 121.376 307.454 121.288C307.449 121.249 307.437 121.211 307.418 121.177C307.399 121.143 307.372 121.113 307.341 121.09C307.296 121.06 307.252 121.031 307.205 121.003C307.17 120.982 307.131 120.969 307.09 120.964L306.999 120.952C306.958 120.952 306.916 120.94 306.877 120.94H306.229L306.249 121.878Z" fill="#0C3E4D"/>
<path opacity="0.1" d="M611.55 12.8691C611.55 12.8691 371.39 37.7484 327.647 133.834C283.903 229.919 33.4512 332.01 33.4512 332.01H611.55V12.8691Z" fill="black"/>
<path d="M503.688 165.576V189.296H414.922V167.026H412.349V451.259H414.922V400.374H503.688V451.259H506.262V165.576H503.688ZM503.688 191.87V230.997H414.922V191.87L503.688 191.87ZM414.922 314.399V275.272H503.688V314.399H414.922ZM503.688 316.972V356.099H414.922V316.972H503.688ZM414.922 272.698V233.57H503.688V272.698H414.922ZM414.922 397.801V358.673H503.688V397.801H414.922Z" fill="#2F2E41"/>
<path d="M386.932 171.225V174.78C386.932 174.78 384.393 175.796 384.393 179.859C384.393 183.922 382.362 199.159 382.362 199.159C382.362 199.159 385.917 202.207 388.964 201.191C390.65 200.679 392.208 199.813 393.534 198.651L394.041 182.906L392.01 178.843V171.732L386.932 171.225Z" fill="#F0E967"/>
<path d="M484.075 30.0273C484.075 30.0273 475.244 31.0432 475.244 35.1064C475.244 39.1696 468.179 54.4067 468.179 54.4067C468.179 54.4067 480.542 57.4541 491.14 56.4383C501.737 55.4225 507.036 53.8988 507.036 53.8988L508.802 38.1538L501.737 34.0906L484.075 30.0273Z" fill="#F0E967"/>
<path d="M484.935 65.5797V55.9296C484.935 55.9296 474.271 34.5977 482.904 34.5977C491.536 34.5977 492.552 53.898 492.552 53.898V67.6113L484.935 65.5797Z" fill="#FFB8B8"/>
<path d="M393.533 166.653C393.533 166.653 387.948 163.606 386.932 166.653C385.916 169.701 382.87 176.303 386.932 176.811C390.994 177.319 395.057 173.764 395.057 173.764L393.533 166.653Z" fill="#FFB8B8"/>
<path d="M421.024 187.227C421.024 187.227 417.966 191.266 422.403 230.671C426.839 270.076 424.283 298.768 432.704 298.375C432.704 298.375 430.506 306.92 437.663 307.235C444.819 307.55 448.088 308.047 448.645 306.073C449.203 304.099 450.075 294.967 448.131 295.057C448.131 295.057 448.252 297.649 449.064 287.221C449.876 276.793 447.577 227.547 450.514 220.916L461.998 244.407C461.998 244.407 462.512 255.423 464.698 260.516C466.883 265.609 471.514 295.264 471.514 295.264L471.077 299.83C471.077 299.83 486.746 301.696 487.273 299.074C487.8 296.452 487.618 292.564 486.91 291.298C486.202 290.033 486.202 290.033 487.376 287.38C487.897 286.383 488.197 285.286 488.256 284.163C488.316 283.04 488.134 281.917 487.722 280.87C486.983 278.957 485.017 236.838 485.017 236.838C485.017 236.838 481.332 185.709 473.437 183.48C465.543 181.252 421.024 187.227 421.024 187.227Z" fill="#2F2E41"/>
<path d="M434.829 302.172L430.07 311.485C430.07 311.485 421.836 308.948 423.804 316.324C431.708 316.57 439.617 316.092 447.434 314.896C447.434 314.896 450.734 316.04 451.291 314.066C451.848 312.092 449.263 305.394 447.32 305.485C445.376 305.576 434.829 302.172 434.829 302.172Z" fill="#2F2E41"/>
<path d="M472.282 297.824C472.282 297.824 467.644 309.73 469.618 310.287C471.592 310.844 489.204 312.619 490.53 313.207C491.856 313.794 498.364 314.14 498.831 310.222C499.297 306.304 495.349 305.189 495.349 305.189C495.349 305.189 488.163 304.226 485.917 297.837C483.671 291.448 472.282 297.824 472.282 297.824Z" fill="#2F2E41"/>
<path d="M428.305 90.6288C435.796 90.6288 441.869 84.5545 441.869 77.0615C441.869 69.5684 435.796 63.4941 428.305 63.4941C420.813 63.4941 414.74 69.5684 414.74 77.0615C414.74 84.5545 420.813 90.6288 428.305 90.6288Z" fill="#FFB8B8"/>
<path d="M421.166 83.488C421.166 83.488 424.736 102.054 423.308 105.624C421.88 109.195 443.297 104.196 443.297 104.196C443.297 104.196 439.014 85.6302 439.728 81.3458C440.441 77.0614 421.166 83.488 421.166 83.488Z" fill="#FFB8B8"/>
<path d="M427.893 60.3045C426.765 60.1001 425.606 60.1513 424.5 60.4543C423.615 60.8463 422.801 61.3807 422.089 62.0365C420.797 63.0662 419.417 63.9804 417.966 64.7687C416.753 65.2904 415.661 66.056 414.758 67.0179C414.376 67.5434 414.071 68.1206 413.852 68.7322C412.461 72.2861 412.087 76.1574 412.773 79.912C412.85 80.4455 413.01 80.9635 413.248 81.4471C413.99 82.8145 415.629 83.3534 417.009 84.0701C419.63 85.431 421.617 87.7226 423.767 89.7478C424.566 90.5451 425.463 91.2367 426.437 91.8059C429.504 93.4785 433.253 92.9328 436.695 92.3414C436.939 92.3409 437.181 92.2922 437.406 92.1979C437.631 92.1037 437.835 91.9658 438.007 91.7923C438.178 91.6187 438.314 91.413 438.405 91.1868C438.497 90.9607 438.543 90.7186 438.54 90.4746L441.258 78.2494C441.751 76.4381 441.985 74.5663 441.954 72.6894C441.765 69.7217 440.159 65.6108 437.981 63.5027C435.444 61.0465 431.21 60.6557 427.893 60.3045Z" fill="#2F2E41"/>
<path d="M417.908 106.72C417.908 106.72 418.923 99.6091 425.017 99.1011C428.463 98.7757 431.866 98.0949 435.172 97.0695C435.68 97.0695 442.281 97.5774 445.328 100.625C445.328 100.625 447.359 103.672 448.375 101.641C449.39 99.6091 449.39 98.5932 451.422 99.6091C453.453 100.625 453.453 96.5616 457.007 97.0695C460.562 97.5774 469.702 120.433 469.702 120.433L466.655 123.988C466.655 123.988 462.593 151.415 469.702 163.097C476.811 174.779 479.858 187.476 472.749 190.016C465.64 192.555 415.876 215.411 417.908 201.19C419.939 186.968 418.415 164.621 416.384 164.113C414.353 163.605 403.182 123.48 403.182 123.48C403.631 120.933 404.7 118.535 406.293 116.498C407.887 114.461 409.958 112.847 412.322 111.799C420.446 108.243 417.908 106.72 417.908 106.72Z" fill="#164453"/>
<path d="M454.468 99.1022L457.007 97.0706C457.007 97.0706 461.577 97.0706 462.085 96.0548C462.592 95.039 465.131 95.039 467.162 94.0232C469.194 93.0074 466.655 91.4837 469.194 90.4679C471.733 89.4521 471.733 90.4679 471.733 87.9283C471.733 85.3888 478.334 82.8493 478.842 79.8019C479.349 76.7545 484.427 62.5332 484.427 62.5332L494.075 65.5806L491.536 83.8651C491.536 83.8651 491.536 93.0074 486.966 99.1022C482.396 105.197 472.24 120.434 467.162 120.942C462.085 121.45 454.468 99.1022 454.468 99.1022Z" fill="#164453"/>
<path d="M406.228 120.941L403.181 123.481C403.181 123.481 402.166 134.655 402.166 135.163C402.166 135.671 403.181 141.765 402.166 142.273C401.15 142.781 399.119 152.939 399.627 153.447V154.971L392.518 166.145V176.811L409.275 166.145C409.275 166.145 418.923 165.129 417.399 156.495C415.876 147.86 406.228 120.941 406.228 120.941Z" fill="#164453"/>
<path d="M322.5 356.89C327.711 356.89 331.935 352.664 331.935 347.453C331.935 342.241 327.711 338.016 322.5 338.016C317.29 338.016 313.065 342.241 313.065 347.453C313.065 352.664 317.29 356.89 322.5 356.89Z" fill="#F0E967"/>
</g>
<defs>
<clipPath id="clip0_1132_4008">
<rect width="645" height="526" fill="white"/>
</clipPath>
</defs>
</svg>
