<svg width="205" height="240" viewBox="0 0 205 240" fill="none" xmlns="http://www.w3.org/2000/svg">
<g clip-path="url(#clip0_1161_4358)">
<path d="M48.347 97.9538C56.1096 97.9538 62.4025 91.6655 62.4025 83.9085C62.4025 76.1516 56.1096 69.8633 48.347 69.8633C40.5844 69.8633 34.2915 76.1516 34.2915 83.9085C34.2915 91.6655 40.5844 97.9538 48.347 97.9538Z" fill="#2F2E41"/>
<path d="M49.5273 97.9811C55.8825 97.9811 61.0345 92.8329 61.0345 86.4823C61.0345 80.1316 55.8825 74.9834 49.5273 74.9834C43.172 74.9834 38.02 80.1316 38.02 86.4823C38.02 92.8329 43.172 97.9811 49.5273 97.9811Z" fill="#A0616A"/>
<path d="M93.3517 121.458C93.169 121.642 93.001 121.84 92.8494 122.05L69.6288 121.23L66.9728 116.253L58.9321 119.276L62.7768 128.546C63.0874 129.295 63.6326 129.923 64.3306 130.336C65.0287 130.748 65.8419 130.924 66.6481 130.835L92.9249 127.952C93.5355 128.742 94.3724 129.328 95.3242 129.632C96.2761 129.935 97.2979 129.941 98.2536 129.65C99.2093 129.359 100.054 128.784 100.674 128.002C101.295 127.219 101.662 126.266 101.728 125.27C101.793 124.274 101.554 123.281 101.041 122.425C100.528 121.568 99.7663 120.887 98.8569 120.474C97.9476 120.06 96.9338 119.933 95.9503 120.109C94.9669 120.285 94.0605 120.757 93.3517 121.46V121.458Z" fill="#A0616A"/>
<path d="M55.8388 123.753C55.5429 123.62 55.2791 123.425 55.0654 123.181C54.8517 122.938 54.6931 122.651 54.6005 122.34L51.3678 111.493C51.0165 110.749 50.8155 109.942 50.7762 109.121C50.7369 108.299 50.86 107.477 51.1387 106.703C51.4173 105.928 51.8459 105.216 52.3999 104.608C52.954 103.999 53.6227 103.505 54.3678 103.155C55.113 102.804 55.9199 102.604 56.7424 102.565C57.565 102.527 58.3872 102.651 59.1618 102.93C59.9365 103.209 60.6486 103.638 61.2574 104.192C61.8661 104.746 62.3596 105.415 62.7096 106.159L68.9746 115.633C69.1534 115.903 69.2718 116.209 69.3216 116.529C69.3715 116.85 69.3517 117.177 69.2637 117.489C69.1756 117.801 69.0213 118.09 68.8112 118.337C68.6012 118.584 68.3404 118.782 68.0465 118.92L57.7199 123.737C57.4261 123.874 57.1062 123.946 56.7818 123.949C56.4575 123.951 56.1365 123.884 55.8407 123.751L55.8388 123.753Z" fill="#CCCCCC"/>
<path d="M78.7094 233.88L83.7544 231.135L75.5624 210.385L68.1167 214.435L78.7094 233.88Z" fill="#A0616A"/>
<path d="M76.5264 232.934L86.4613 227.529C87.2927 227.077 88.2051 226.793 89.1465 226.693C90.0878 226.593 91.0397 226.679 91.9476 226.947C92.8556 227.214 93.7019 227.658 94.4382 228.253C95.1745 228.847 95.7865 229.581 96.2391 230.412L96.2392 230.412L96.3512 230.618L80.0843 239.466L76.5264 232.934Z" fill="#2F2E41"/>
<path d="M23.1961 233.903H28.9397L31.6725 211.764H23.1924L23.1961 233.903Z" fill="#A0616A"/>
<path d="M21.731 232.028H33.0433C34.9551 232.028 36.7887 232.787 38.1405 234.138C39.4924 235.489 40.2519 237.321 40.2519 239.232V239.466H21.7314L21.731 232.028Z" fill="#2F2E41"/>
<path d="M58.8883 135.644L60.7623 158.117L81.6671 220.785C81.8243 221.256 81.7877 221.77 81.5654 222.214C81.3431 222.659 80.9533 222.996 80.4818 223.153C80.4297 223.171 80.3769 223.186 80.3234 223.199L73.9164 224.723C73.506 224.821 73.0746 224.777 72.692 224.6C72.3094 224.422 71.9979 224.121 71.8081 223.744L45.0825 170.767C44.9954 170.594 44.8569 170.453 44.6861 170.362C44.5154 170.271 44.3207 170.235 44.1287 170.259C43.9368 170.284 43.7571 170.367 43.6142 170.497C43.4713 170.627 43.3723 170.798 43.3307 170.987L31.5709 224.529C31.4793 224.946 31.2478 225.319 30.9149 225.586C30.582 225.854 30.1676 226 29.7404 226H23.7781C23.5324 226 23.2891 225.952 23.0619 225.859C22.8348 225.765 22.6283 225.628 22.4542 225.455C22.2802 225.281 22.142 225.076 22.0476 224.849C21.9531 224.622 21.9043 224.379 21.9038 224.134C21.9038 224.123 21.9039 224.112 21.904 224.102C22.4503 186.975 20.6484 144.674 34.9925 137.983L37.3351 131.896L58.8883 135.644Z" fill="#164453"/>
<path d="M36.6619 133.49L34.2472 118.894C33.8474 116.5 34.0571 114.044 34.8569 111.753C35.6568 109.461 37.0212 107.408 38.8241 105.782C40.5864 104.172 42.7261 103.031 45.0458 102.464C47.3656 101.898 49.7907 101.924 52.0977 102.54C52.2345 102.577 52.3718 102.614 52.5091 102.653C55.3472 103.465 57.8674 105.129 59.7292 107.418C61.5911 109.708 62.705 112.513 62.9204 115.456C63.3815 121.795 62.9673 130.991 58.3861 138.803L58.2971 138.955L36.6619 133.49Z" fill="#CCCCCC"/>
<path d="M60.9748 80.3703C58.3452 82.1815 55.224 83.1454 52.0303 83.1325C53.1696 83.9219 54.4666 84.4551 55.8319 84.6953C51.5857 85.6055 47.1972 85.6302 42.9411 84.7679C41.995 84.6163 41.0821 84.3031 40.2424 83.8418C39.824 83.6083 39.4595 83.2894 39.1725 82.9059C38.8856 82.5223 38.6826 82.0827 38.5769 81.6156C38.2957 80.0009 39.5528 78.5341 40.8613 77.5458C42.8645 76.0553 45.1741 75.0284 47.6231 74.5394C50.0721 74.0503 52.5993 74.1113 55.0218 74.718C56.6035 75.1267 58.188 75.8168 59.2155 77.0865C60.243 78.3562 60.5475 80.3132 59.5683 81.6203L60.9748 80.3703Z" fill="#2F2E41"/>
<path d="M48.1622 69.7943C49.4961 64.4103 44.7153 58.4326 39.1667 58.5445C33.5384 58.6583 29.3962 63.7413 26.549 68.5934C23.7019 73.4456 20.873 78.9481 15.6471 81.0375C13.9175 81.7289 12.0431 81.9805 10.1922 81.7699C8.34125 81.5592 6.57154 80.8929 5.04173 79.8306C3.51192 78.7683 2.26981 77.3433 1.42678 75.6833C0.583748 74.0233 0.166134 72.1801 0.21138 70.3191C-0.491395 76.2149 0.48172 82.5942 4.28748 87.1547C8.09324 91.7152 15.1725 93.77 20.2639 90.7053C23.1687 88.9548 25.0282 85.9126 26.5598 82.8868C28.0914 79.861 29.4543 76.6699 31.7749 74.1956C34.0954 71.7213 37.6838 70.0794 40.9138 71.1202C42.1956 71.5336 43.3458 72.3374 44.6703 72.5837C45.9948 72.8299 47.6623 72.1998 47.8431 70.8659L48.1622 69.7943Z" fill="#2F2E41"/>
<path d="M20.426 167.382C19.9484 166.822 19.5994 166.165 19.4034 165.456C19.2075 164.748 19.1694 164.005 19.2919 163.28C19.4145 162.555 19.6946 161.865 20.1126 161.26C20.5306 160.655 21.0762 160.149 21.7112 159.777L31.6929 115.066L41.819 119.22L28.8237 161.861C29.3808 162.969 29.5113 164.242 29.1905 165.44C28.8697 166.637 28.1199 167.675 27.0836 168.356C26.0472 169.038 24.7965 169.315 23.5692 169.135C22.3418 168.955 21.2232 168.331 20.426 167.382V167.382Z" fill="#A0616A"/>
<path d="M27.7391 121.482C27.5795 121.2 27.4828 120.886 27.4557 120.563C27.4285 120.24 27.4715 119.915 27.5817 119.61L31.4203 108.961C31.7433 107.331 32.7009 105.897 34.0824 104.973C35.4638 104.049 37.1559 103.712 38.7865 104.034C40.4171 104.357 41.8525 105.314 42.7771 106.695C43.7016 108.075 44.0395 109.766 43.7165 111.395V111.395L43.1332 122.736C43.1165 123.059 43.0303 123.375 42.8803 123.663C42.7303 123.95 42.52 124.202 42.2639 124.401C42.0078 124.599 41.7118 124.741 41.3962 124.815C41.0805 124.889 40.7525 124.894 40.4345 124.831L29.2604 122.583C28.9424 122.52 28.6419 122.388 28.3794 122.198C28.117 122.007 27.8987 121.762 27.7396 121.48L27.7391 121.482Z" fill="#CCCCCC"/>
<path d="M140.687 1.71305C140.475 1.20856 140.119 0.777434 139.663 0.472976C139.208 0.168518 138.673 0.0040817 138.125 0H86.9817C86.2466 0.000372163 85.5417 0.292353 85.0219 0.811784C84.502 1.33122 84.2098 2.03561 84.2095 2.7702V67.4229C84.2098 68.1574 84.502 68.8618 85.0219 69.3813C85.5417 69.9007 86.2466 70.1927 86.9817 70.193H138.125C138.86 70.1921 139.565 69.8999 140.085 69.3806C140.604 68.8613 140.897 68.1573 140.898 67.4229V2.77113C140.899 2.40794 140.827 2.04817 140.687 1.71305ZM140.282 67.4224C140.281 67.9932 140.053 68.5404 139.65 68.944C139.246 69.3476 138.698 69.5749 138.127 69.576H86.9817C86.4101 69.576 85.8619 69.3491 85.4578 68.9452C85.0536 68.5413 84.8265 67.9936 84.8265 67.4224V2.77113C84.8276 2.2003 85.0551 1.65317 85.459 1.24953C85.8629 0.845889 86.4105 0.618637 86.9817 0.617523H138.125C138.556 0.619292 138.977 0.74941 139.334 0.991251C139.69 1.23309 139.967 1.57567 140.127 1.97523C140.159 2.05472 140.186 2.13584 140.208 2.21822C140.258 2.39955 140.282 2.58656 140.282 2.7744L140.282 67.4224Z" fill="#CCCCCC"/>
<path d="M130.013 15.2658H114.608C114.282 15.2658 113.968 15.1361 113.737 14.9051C113.506 14.6741 113.376 14.3609 113.376 14.0343C113.376 13.7076 113.506 13.3944 113.737 13.1634C113.968 12.9325 114.282 12.8027 114.608 12.8027H130.013C130.335 12.809 130.643 12.9415 130.869 13.1718C131.095 13.4021 131.221 13.7117 131.221 14.0343C131.221 14.3568 131.095 14.6665 130.869 14.8967C130.643 15.127 130.335 15.2595 130.013 15.2658H130.013Z" fill="#CCCCCC"/>
<path d="M130.013 21.7306H114.608C114.282 21.7306 113.968 21.6009 113.737 21.3699C113.506 21.139 113.376 20.8257 113.376 20.4991C113.376 20.1725 113.506 19.8592 113.737 19.6283C113.968 19.3973 114.282 19.2676 114.608 19.2676H130.013C130.335 19.2739 130.643 19.4064 130.869 19.6367C131.095 19.8669 131.221 20.1766 131.221 20.4991C131.221 20.8216 131.095 21.1313 130.869 21.3616C130.643 21.5919 130.335 21.7244 130.013 21.7306H130.013Z" fill="#CCCCCC"/>
<path d="M106.706 25.412H95.4464C95.0788 25.4116 94.7264 25.2655 94.4665 25.0058C94.2066 24.7461 94.0604 24.3939 94.0601 24.0266V10.7515C94.0604 10.3842 94.2066 10.0321 94.4665 9.77237C94.7264 9.51265 95.0788 9.36658 95.4464 9.36621H106.706C107.074 9.36671 107.426 9.51281 107.686 9.77251C107.946 10.0322 108.092 10.3843 108.093 10.7515V24.0266C108.092 24.3939 107.946 24.7461 107.686 25.0058C107.426 25.2655 107.074 25.4116 106.706 25.412V25.412Z" fill="#CCCCCC"/>
<path d="M129.906 34.9689H95.0918C94.7649 34.9689 94.4515 34.8392 94.2203 34.6082C93.9892 34.3773 93.8594 34.064 93.8594 33.7374C93.8594 33.4108 93.9892 33.0975 94.2203 32.8666C94.4515 32.6356 94.7649 32.5059 95.0918 32.5059H129.906C130.233 32.5059 130.546 32.6356 130.777 32.8666C131.008 33.0975 131.138 33.4108 131.138 33.7374C131.138 34.064 131.008 34.3773 130.777 34.6082C130.546 34.8392 130.233 34.9689 129.906 34.9689V34.9689Z" fill="#CCCCCC"/>
<path d="M129.906 41.4367H95.0918C94.7649 41.4367 94.4515 41.307 94.2203 41.076C93.9892 40.845 93.8594 40.5318 93.8594 40.2052C93.8594 39.8786 93.9892 39.5653 94.2203 39.3344C94.4515 39.1034 94.7649 38.9736 95.0918 38.9736H129.906C130.233 38.9736 130.546 39.1034 130.777 39.3344C131.008 39.5653 131.138 39.8786 131.138 40.2052C131.138 40.5318 131.008 40.845 130.777 41.076C130.546 41.307 130.233 41.4367 129.906 41.4367Z" fill="#CCCCCC"/>
<path d="M129.906 47.8996H95.0918C94.7649 47.8996 94.4515 47.7699 94.2203 47.5389C93.9892 47.3079 93.8594 46.9947 93.8594 46.6681C93.8594 46.3414 93.9892 46.0282 94.2203 45.7972C94.4515 45.5663 94.7649 45.4365 95.0918 45.4365H129.906C130.233 45.4365 130.546 45.5663 130.777 45.7972C131.008 46.0282 131.138 46.3414 131.138 46.6681C131.138 46.9947 131.008 47.3079 130.777 47.5389C130.546 47.7699 130.233 47.8996 129.906 47.8996V47.8996Z" fill="#CCCCCC"/>
<path d="M129.906 54.3664H95.0918C94.7649 54.3664 94.4515 54.2367 94.2203 54.0057C93.9892 53.7747 93.8594 53.4615 93.8594 53.1349C93.8594 52.8082 93.9892 52.495 94.2203 52.264C94.4515 52.0331 94.7649 51.9033 95.0918 51.9033H129.906C130.233 51.9033 130.546 52.0331 130.777 52.264C131.008 52.495 131.138 52.8082 131.138 53.1349C131.138 53.4615 131.008 53.7747 130.777 54.0057C130.546 54.2367 130.233 54.3664 129.906 54.3664V54.3664Z" fill="#CCCCCC"/>
<path d="M129.906 60.8303H95.0918C94.7649 60.8303 94.4515 60.7005 94.2203 60.4696C93.9892 60.2386 93.8594 59.9254 93.8594 59.5987C93.8594 59.2721 93.9892 58.9589 94.2203 58.7279C94.4515 58.4969 94.7649 58.3672 95.0918 58.3672H129.906C130.233 58.3672 130.546 58.4969 130.777 58.7279C131.008 58.9589 131.138 59.2721 131.138 59.5987C131.138 59.9254 131.008 60.2386 130.777 60.4696C130.546 60.7005 130.233 60.8303 129.906 60.8303Z" fill="#CCCCCC"/>
<path d="M171.576 39.887C171.305 39.2457 170.853 38.6977 170.274 38.3107C169.695 37.9238 169.016 37.7149 168.32 37.71H103.325C102.39 37.7105 101.494 38.0815 100.834 38.7417C100.173 39.4018 99.8018 40.2971 99.8013 41.2306V123.395C99.8018 124.329 100.173 125.224 100.834 125.884C101.494 126.544 102.39 126.916 103.325 126.916H168.322C169.256 126.915 170.151 126.544 170.812 125.884C171.472 125.224 171.844 124.329 171.845 123.395V41.2306C171.847 40.7694 171.756 40.3126 171.578 39.887H171.576Z" fill="#E6E6E6"/>
<path d="M166.283 122.303H105.543C104.667 122.302 103.982 121.345 103.982 120.125V43.9059C103.983 42.6842 104.669 41.7275 105.543 41.7275H166.283C167.159 41.7287 167.844 42.6854 167.844 43.9059V120.125C167.843 121.346 167.158 122.303 166.283 122.303Z" fill="white"/>
<path d="M171.576 39.887C171.305 39.2457 170.853 38.6977 170.274 38.3107C169.695 37.9238 169.016 37.7149 168.32 37.71H103.325C102.39 37.7105 101.494 38.0815 100.834 38.7417C100.173 39.4018 99.8018 40.2971 99.8013 41.2306V123.395C99.8018 124.329 100.173 125.224 100.834 125.884C101.494 126.544 102.39 126.916 103.325 126.916H168.322C169.256 126.915 170.151 126.544 170.812 125.884C171.472 125.224 171.844 124.329 171.845 123.395V41.2306C171.847 40.7694 171.756 40.3126 171.578 39.887H171.576ZM171.06 123.395C171.059 124.122 170.77 124.818 170.257 125.331C169.743 125.845 169.046 126.133 168.32 126.134H103.325C102.598 126.134 101.901 125.846 101.387 125.332C100.873 124.819 100.584 124.123 100.584 123.396V41.2311C100.585 40.505 100.874 39.809 101.388 39.2956C101.901 38.7822 102.598 38.4933 103.325 38.4923H168.322C168.869 38.4944 169.404 38.6594 169.857 38.9662C170.31 39.2731 170.661 39.7079 170.866 40.2152C170.906 40.3163 170.94 40.4194 170.969 40.5242C171.031 40.7547 171.063 40.9924 171.063 41.2311L171.06 123.395Z" fill="#164453"/>
<path d="M158.012 57.1087H138.434C138.019 57.1087 137.621 56.9438 137.327 56.6503C137.033 56.3568 136.868 55.9587 136.868 55.5436C136.868 55.1285 137.033 54.7304 137.327 54.4369C137.621 54.1434 138.019 53.9785 138.434 53.9785H158.012C158.427 53.9785 158.826 54.1434 159.119 54.4369C159.413 54.7304 159.578 55.1285 159.578 55.5436C159.578 55.9587 159.413 56.3568 159.119 56.6503C158.826 56.9438 158.427 57.1087 158.012 57.1087V57.1087Z" fill="#164453"/>
<path d="M158.012 65.3255H138.434C138.019 65.3255 137.621 65.1606 137.327 64.8671C137.033 64.5736 136.868 64.1755 136.868 63.7604C136.868 63.3453 137.033 62.9472 137.327 62.6537C137.621 62.3602 138.019 62.1953 138.434 62.1953H158.012C158.427 62.1953 158.826 62.3602 159.119 62.6537C159.413 62.9472 159.578 63.3453 159.578 63.7604C159.578 64.1755 159.413 64.5736 159.119 64.8671C158.826 65.1606 158.427 65.3255 158.012 65.3255V65.3255Z" fill="#164453"/>
<path d="M128.389 70.0041H114.082C113.615 70.0036 113.167 69.8179 112.837 69.4878C112.507 69.1577 112.321 68.7101 112.32 68.2433V51.3721C112.321 50.9053 112.507 50.4577 112.837 50.1276C113.167 49.7975 113.615 49.6118 114.082 49.6113H128.389C128.857 49.6118 129.305 49.7975 129.635 50.1276C129.965 50.4577 130.151 50.9053 130.152 51.3721V68.2433C130.151 68.7101 129.965 69.1577 129.635 69.4878C129.305 69.8179 128.857 70.0036 128.389 70.0041Z" fill="#F0E967"/>
<path d="M157.876 82.1497H113.631C113.216 82.1497 112.817 81.9848 112.524 81.6913C112.23 81.3978 112.065 80.9997 112.065 80.5846C112.065 80.1695 112.23 79.7714 112.524 79.4779C112.817 79.1844 113.216 79.0195 113.631 79.0195H157.876C158.291 79.0195 158.69 79.1844 158.984 79.4779C159.277 79.7714 159.442 80.1695 159.442 80.5846C159.442 80.9997 159.277 81.3978 158.984 81.6913C158.69 81.9848 158.291 82.1497 157.876 82.1497V82.1497Z" fill="#E6E6E6"/>
<path d="M157.876 90.3665H113.631C113.216 90.3677 112.817 90.2039 112.522 89.9112C112.228 89.6185 112.062 89.2209 112.061 88.8058C112.059 88.3907 112.223 87.9921 112.516 87.6978C112.809 87.4035 113.207 87.2375 113.622 87.2363H157.876C158.291 87.2363 158.69 87.4012 158.984 87.6947C159.277 87.9883 159.442 88.3863 159.442 88.8014C159.442 89.2165 159.277 89.6146 158.984 89.9081C158.69 90.2016 158.291 90.3665 157.876 90.3665V90.3665Z" fill="#E6E6E6"/>
<path d="M157.876 98.5834H113.631C113.216 98.5834 112.817 98.4185 112.524 98.1249C112.23 97.8314 112.065 97.4333 112.065 97.0182C112.065 96.6031 112.23 96.2051 112.524 95.9115C112.817 95.618 113.216 95.4531 113.631 95.4531H157.876C158.291 95.452 158.69 95.6158 158.985 95.9085C159.279 96.2012 159.445 96.5988 159.447 97.0139C159.448 97.429 159.284 97.8275 158.991 98.1219C158.698 98.4162 158.3 98.5822 157.885 98.5834H157.876Z" fill="#E6E6E6"/>
<path d="M157.876 106.799H113.631C113.425 106.8 113.222 106.76 113.031 106.682C112.841 106.604 112.668 106.489 112.522 106.344C112.377 106.199 112.261 106.027 112.181 105.837C112.102 105.647 112.061 105.444 112.061 105.238C112.06 105.033 112.1 104.829 112.178 104.639C112.256 104.449 112.371 104.276 112.516 104.13C112.661 103.985 112.834 103.869 113.023 103.79C113.213 103.711 113.417 103.67 113.622 103.669H157.876C158.291 103.669 158.69 103.834 158.984 104.127C159.277 104.421 159.442 104.819 159.442 105.234C159.442 105.649 159.277 106.047 158.984 106.341C158.69 106.634 158.291 106.799 157.876 106.799V106.799Z" fill="#E6E6E6"/>
<path d="M157.876 115.016H113.631C113.216 115.017 112.817 114.853 112.522 114.561C112.228 114.268 112.062 113.87 112.061 113.455C112.059 113.04 112.223 112.642 112.516 112.347C112.809 112.053 113.207 111.887 113.622 111.886H157.876C158.291 111.886 158.69 112.051 158.984 112.344C159.277 112.638 159.442 113.036 159.442 113.451C159.442 113.866 159.277 114.264 158.984 114.558C158.69 114.851 158.291 115.016 157.876 115.016V115.016Z" fill="#E6E6E6"/>
<path d="M179.7 56.9438C193.673 56.9438 205 45.6249 205 31.6623C205 17.6998 193.673 6.38086 179.7 6.38086C165.728 6.38086 154.4 17.6998 154.4 31.6623C154.4 45.6249 165.728 56.9438 179.7 56.9438Z" fill="#F0E967"/>
<path d="M183.685 32.5001V18.5527H176.497V32.5001H173.141L176.615 38.5139L180.091 44.5285L183.566 38.5139L187.041 32.4992L183.685 32.5001Z" fill="white"/>
<path d="M189.105 240H10.6004C10.4761 240 10.3569 239.95 10.2691 239.863C10.1812 239.775 10.1318 239.656 10.1318 239.532C10.1318 239.407 10.1812 239.288 10.2691 239.201C10.3569 239.113 10.4761 239.063 10.6004 239.063H189.105C189.229 239.063 189.349 239.113 189.436 239.201C189.524 239.288 189.574 239.407 189.574 239.532C189.574 239.656 189.524 239.775 189.436 239.863C189.349 239.95 189.229 240 189.105 240Z" fill="#E6E6E6"/>
</g>
<defs>
<clipPath id="clip0_1161_4358">
<rect width="205" height="240" fill="white"/>
</clipPath>
</defs>
</svg>
