<svg width="161" height="161" viewBox="0 0 161 161" fill="none" xmlns="http://www.w3.org/2000/svg">
<path d="M64.1076 17.5182C47.3716 9.35011 27.5257 10.8407 12.3702 21.7256C1.88912 29.2484 -4.56967 39.6423 6.32467 52.6068C30.7081 81.6217 32.8279 154.694 80.5363 142.874C128.245 131.054 145.205 157.92 146.266 120.307C147.327 82.695 148.388 68.7256 132.484 57.9788C116.58 47.2321 105.98 33.2626 91.1381 28.9639C84.1802 26.9501 73.4965 22.1013 64.1076 17.5182Z" fill="#F0E767"/>
<path d="M24.6867 27.6383L24.2493 27.9067C15.609 33.1512 12.3393 44.0952 16.6421 53.2642C17.5222 55.1425 18.4359 56.9645 19.3496 58.6147C24.0816 67.1451 56.244 150.629 71.3767 127.861C86.5094 105.093 110.164 64.2994 107.333 58.6067C104.502 52.914 96.9274 42.4785 88.4159 42.4785C85.0751 42.4785 80.1324 43.6471 75.3588 45.0679C66.6929 47.6466 57.3912 43.9436 52.8067 36.1284L51.8742 34.5385C46.301 25.0516 34.0784 21.9483 24.6867 27.6383Z" fill="#F1F0EE"/>
<path d="M38.1813 72.2622C38.5649 71.5576 39.0859 70.9372 39.7135 70.4375C40.2792 69.9982 40.9776 69.7645 41.6938 69.7747C42.3378 69.7747 42.8623 69.9263 43.2675 70.2296L42.9911 73.3771C42.969 73.5384 42.8877 73.6857 42.7631 73.7903C42.6329 73.871 42.4812 73.9098 42.3284 73.9017C42.2546 73.9017 42.158 73.9017 42.0386 73.8869C41.9192 73.8722 41.7944 73.8668 41.6656 73.8534L41.2725 73.8118C41.1513 73.798 41.0295 73.7908 40.9075 73.7903C40.2814 73.7903 39.7823 73.9563 39.4102 74.2881C38.9965 74.6744 38.6715 75.1459 38.4577 75.67V84.3654H34.1791V70.0551H36.7189C36.8993 70.0508 37.0797 70.0693 37.2555 70.1102C37.3859 70.1409 37.5081 70.1995 37.6137 70.2819C37.7132 70.3648 37.7895 70.472 37.8351 70.5931C37.8928 70.7457 37.9377 70.9028 37.9693 71.0627L38.1813 72.2622Z" fill="#0C3E4D"/>
<path d="M48.9628 71.531C49.2262 71.2945 49.505 71.0758 49.7973 70.8762C50.0889 70.6775 50.3984 70.5063 50.7217 70.3651C51.0594 70.2196 51.4109 70.1086 51.7709 70.0337C52.1683 69.9534 52.573 69.9143 52.9784 69.9169C53.6847 69.9043 54.3857 70.0415 55.0352 70.3194C55.6162 70.574 56.1325 70.9559 56.5459 71.437C56.9677 71.9388 57.2827 72.5214 57.4716 73.149C57.6847 73.8559 57.7892 74.591 57.7816 75.3292V84.3694H53.986V75.3265C53.986 74.535 53.8022 73.9209 53.4346 73.4844C53.067 73.0479 52.524 72.8292 51.8058 72.8284C51.2846 72.8256 50.7698 72.9436 50.3018 73.1732C49.806 73.4217 49.353 73.7478 48.9601 74.1392V84.3667H45.1538V63.7882H48.9628V71.531Z" fill="#0C3E4D"/>
<path d="M63.2167 77.7147C63.2547 78.3561 63.3849 78.9887 63.6031 79.593C63.78 80.0799 64.0539 80.5258 64.4081 80.9038C64.7379 81.2477 65.1416 81.512 65.5887 81.6766C66.0728 81.8522 66.5846 81.939 67.0995 81.9329C67.583 81.9429 68.0651 81.8773 68.5283 81.7383C68.8893 81.6255 69.2403 81.4828 69.5775 81.3117C69.8754 81.1547 70.1383 81.0125 70.3637 80.8837C70.5613 80.763 70.7871 80.6964 71.0185 80.6905C71.143 80.6826 71.2673 80.7077 71.379 80.7633C71.4907 80.8189 71.5857 80.903 71.6544 81.0071L72.6338 82.2495C72.2681 82.6806 71.8404 83.055 71.3646 83.3604C70.9019 83.6557 70.4067 83.8965 69.8888 84.0782C69.3831 84.2566 68.8608 84.3838 68.3298 84.4579C67.82 84.5301 67.3058 84.5668 66.7909 84.5679C65.853 84.5761 64.9217 84.41 64.0445 84.0782C63.2118 83.7615 62.4582 83.267 61.8361 82.6292C61.1851 81.9488 60.6826 81.1406 60.3603 80.2558C59.984 79.2044 59.8021 78.0933 59.8236 76.9768C59.8174 76.0478 59.9764 75.1251 60.2932 74.2518C60.5876 73.4291 61.0438 72.6737 61.6349 72.03C62.2358 71.3876 62.9642 70.8776 63.7735 70.5327C64.6748 70.153 65.6452 69.9648 66.6232 69.98C67.4669 69.9733 68.3047 70.1202 69.0959 70.4133C69.827 70.6843 70.4907 71.1104 71.0413 71.6624C71.6021 72.2374 72.037 72.9227 72.3186 73.6749C72.6393 74.5469 72.7958 75.4708 72.7801 76.3999C72.7801 76.9164 72.7251 77.2625 72.6151 77.4423C72.505 77.6221 72.2931 77.7107 71.9804 77.7107L63.2167 77.7147ZM69.7171 75.6579C69.7193 75.2344 69.6564 74.8132 69.5306 74.4088C69.4138 74.0326 69.2237 73.6833 68.9711 73.3811C68.7134 73.0791 68.3898 72.8404 68.0252 72.6834C67.6045 72.5055 67.1509 72.4186 66.6943 72.4285C65.7104 72.4285 64.9349 72.7089 64.3678 73.2697C63.8007 73.8306 63.4398 74.6266 63.2851 75.6579H69.7171Z" fill="#0C3E4D"/>
<path d="M83.8623 72.8431C83.8047 72.9546 83.7192 73.0494 83.6141 73.1181C83.509 73.1769 83.3897 73.2056 83.2693 73.2013C83.0897 73.1951 82.9143 73.1454 82.7582 73.0564C82.5748 72.9598 82.3588 72.8516 82.1101 72.7317C81.8274 72.6 81.5344 72.4914 81.234 72.4071C80.849 72.305 80.4517 72.2562 80.0534 72.2622C79.7151 72.2593 79.3781 72.3044 79.0525 72.3963C78.7784 72.4714 78.5211 72.598 78.2944 72.7693C78.0954 72.9201 77.9327 73.1136 77.8181 73.3355C77.7072 73.5507 77.6501 73.7897 77.6518 74.0318C77.6421 74.3368 77.7513 74.6336 77.9563 74.8596C78.1856 75.1003 78.4588 75.2948 78.7613 75.4325C79.1269 75.6068 79.5055 75.7521 79.8937 75.8672C80.3159 75.996 80.7483 76.1342 81.1911 76.2818C81.6322 76.4289 82.0652 76.5991 82.4885 76.7916C82.8963 76.9757 83.2769 77.215 83.6195 77.5027C83.9538 77.7854 84.2276 78.1327 84.4245 78.5237C84.638 78.9791 84.7418 79.4781 84.7277 79.9808C84.7341 80.6105 84.6122 81.235 84.3695 81.8162C84.1316 82.3749 83.7734 82.8742 83.3203 83.2786C82.8203 83.7158 82.2351 84.0447 81.6016 84.2446C80.8412 84.4868 80.0464 84.6037 79.2484 84.5907C78.7738 84.5908 78.3003 84.5459 77.8342 84.4566C77.3927 84.3722 76.9588 84.252 76.5369 84.097C76.139 83.9511 75.7554 83.7688 75.3911 83.5523C75.0564 83.3534 74.7419 83.1224 74.4519 82.8627L75.1415 81.7303C75.2181 81.5994 75.3243 81.4882 75.4514 81.4056C75.5916 81.3237 75.7521 81.2833 75.9143 81.2889C76.1196 81.2926 76.3191 81.3575 76.4872 81.4754C76.675 81.5988 76.8897 81.7357 77.15 81.8779C77.4422 82.0412 77.7496 82.176 78.0677 82.2804C78.5017 82.4156 78.9549 82.4786 79.4094 82.4669C79.7973 82.4745 80.184 82.4206 80.5551 82.3072C80.8502 82.2186 81.1242 82.0707 81.3601 81.8725C81.5623 81.7016 81.7229 81.4868 81.8297 81.2446C81.9314 81.0073 81.983 80.7515 81.9813 80.4933C81.9938 80.1711 81.8856 79.8559 81.6781 79.6091C81.451 79.3609 81.1775 79.1594 80.8731 79.0161C80.5038 78.8381 80.1206 78.6905 79.7273 78.5747C79.2998 78.4459 78.8651 78.3077 78.4232 78.1601C77.98 78.0129 77.5447 77.8428 77.1191 77.6503C76.7017 77.4638 76.3153 77.2145 75.9734 76.911C75.6345 76.6057 75.3607 76.2352 75.1684 75.8216C74.9527 75.3281 74.8491 74.7929 74.8651 74.2545C74.8626 73.6977 74.9801 73.1468 75.2098 72.6395C75.4395 72.1322 75.7759 71.6804 76.1961 71.3149C76.6685 70.908 77.2152 70.5964 77.8061 70.3973C78.52 70.1602 79.269 70.0458 80.0212 70.0591C80.9025 70.0473 81.7783 70.2016 82.6025 70.514C83.3226 70.7946 83.9771 71.2208 84.5251 71.7658L83.8623 72.8431Z" fill="#0C3E4D"/>
<path d="M90.2245 66.0101C90.2257 66.2548 90.1739 66.4969 90.0729 66.7198C89.9763 66.941 89.8399 67.1424 89.6704 67.3142C89.4985 67.4866 89.2942 67.6234 89.0693 67.7167C88.8423 67.8129 88.5981 67.8621 88.3516 67.8616C88.1097 67.8629 87.8702 67.8136 87.6485 67.7167C87.2045 67.5236 86.8512 67.1679 86.6611 66.7225C86.5647 66.4983 86.5153 66.2568 86.5162 66.0128C86.5144 65.7639 86.5637 65.5173 86.6611 65.2883C86.8512 64.8429 87.2045 64.4872 87.6485 64.2941C87.8702 64.1972 88.1097 64.1478 88.3516 64.1492C88.5981 64.1486 88.8423 64.1979 89.0693 64.2941C89.2942 64.3874 89.4985 64.5242 89.6704 64.6966C89.8399 64.8683 89.9763 65.0698 90.0729 65.291C90.1742 65.5171 90.2259 65.7623 90.2245 66.0101ZM89.7147 70.3437V84.3668H87.0233V70.345L89.7147 70.3437Z" fill="#0C3E4D"/>
<path d="M104.676 63.9976V84.3667H103.047C102.884 84.3811 102.721 84.334 102.591 84.2348C102.46 84.1355 102.372 83.9912 102.342 83.8301L102.108 82.2201C101.537 82.9059 100.847 83.4835 100.072 83.9253C99.2664 84.3641 98.36 84.5851 97.4426 84.5666C96.6919 84.5771 95.9486 84.4165 95.2691 84.0971C94.6133 83.7789 94.0433 83.3083 93.6068 82.7245C93.1129 82.0511 92.7518 81.2898 92.5429 80.4813C92.2807 79.4745 92.1562 78.4369 92.1726 77.3968C92.1644 76.4155 92.3037 75.4386 92.5858 74.4988C92.8347 73.6577 93.2408 72.8715 93.7826 72.1817C94.2978 71.5359 94.948 71.0107 95.6877 70.6428C96.4728 70.2605 97.3369 70.0684 98.2101 70.082C98.9149 70.0501 99.618 70.1761 100.268 70.4507C100.918 70.7253 101.498 71.1416 101.967 71.6692V63.9976H104.676ZM101.967 73.7394C101.526 73.1598 101.05 72.7551 100.539 72.5252C99.998 72.2903 99.4131 72.1732 98.8232 72.1817C97.5898 72.1817 96.6354 72.6254 95.9601 73.5127C95.2848 74.3999 94.9462 75.6969 94.9444 77.4035C94.932 78.17 95.0085 78.9354 95.1725 79.6843C95.2912 80.2376 95.5163 80.7625 95.8353 81.2299C96.1075 81.6151 96.4782 81.92 96.9086 82.1127C97.3617 82.3078 97.851 82.4043 98.3442 82.3958C99.0562 82.4146 99.7592 82.2328 100.373 81.8712C100.99 81.479 101.532 80.9791 101.973 80.3954L101.967 73.7394Z" fill="#0C3E4D"/>
<path d="M119.152 82.4066C118.842 82.7819 118.473 83.1057 118.061 83.3659C117.635 83.6396 117.179 83.8647 116.702 84.0367C116.216 84.2122 115.715 84.3438 115.205 84.4298C114.699 84.5173 114.186 84.5622 113.673 84.564C112.76 84.5735 111.853 84.4073 111.003 84.0743C110.202 83.7567 109.481 83.2666 108.891 82.6387C108.271 81.9636 107.799 81.1667 107.504 80.2988C107.156 79.268 106.988 78.1852 107.007 77.0976C107 76.1677 107.151 75.2433 107.456 74.3646C107.735 73.5521 108.174 72.8036 108.746 72.1629C109.319 71.5335 110.02 71.0347 110.803 70.7005C111.666 70.3337 112.597 70.1509 113.535 70.1639C114.33 70.1563 115.119 70.2993 115.861 70.5851C116.556 70.8523 117.186 71.2638 117.71 71.7926C118.25 72.3533 118.666 73.0211 118.931 73.7528C119.239 74.604 119.389 75.5043 119.374 76.4093C119.374 76.7957 119.332 77.0533 119.249 77.1821C119.166 77.3163 119.01 77.3753 118.779 77.3753H109.436C109.446 78.1621 109.569 78.9434 109.802 79.6951C109.989 80.296 110.297 80.8525 110.706 81.3306C111.083 81.7605 111.556 82.096 112.086 82.31C112.657 82.5332 113.267 82.6434 113.881 82.6347C114.42 82.6457 114.958 82.5733 115.475 82.42C115.871 82.2974 116.256 82.1431 116.627 81.9585C116.904 81.8186 117.172 81.6641 117.432 81.4956C117.595 81.3728 117.789 81.2989 117.992 81.2823C118.083 81.2779 118.175 81.2972 118.257 81.3383C118.339 81.3794 118.41 81.441 118.461 81.517L119.152 82.4066ZM117.165 75.8512C117.171 75.3195 117.09 74.7906 116.924 74.2855C116.775 73.8321 116.535 73.4139 116.219 73.0565C115.909 72.7083 115.525 72.4334 115.095 72.2515C114.618 72.0568 114.106 71.961 113.591 71.9697C112.413 71.9697 111.481 72.3123 110.796 72.9975C110.111 73.6826 109.685 74.6325 109.519 75.8472L117.165 75.8512Z" fill="#0C3E4D"/>
<path d="M122.494 73.0363C123.102 72.2687 123.849 71.6224 124.696 71.1312C125.543 70.6488 126.503 70.4011 127.477 70.4134C128.159 70.3997 128.837 70.5219 129.471 70.773C130.024 70.9959 130.515 71.351 130.9 71.8074C131.291 72.2873 131.58 72.8413 131.752 73.4362C131.953 74.1336 132.051 74.8569 132.041 75.5828V84.36H130.716V75.5895C130.716 74.3015 130.422 73.2917 129.833 72.5601C129.245 71.8284 128.347 71.4626 127.142 71.4626C126.262 71.4606 125.398 71.6966 124.641 72.1455C123.828 72.632 123.122 73.2772 122.564 74.0426V84.3734H121.238V70.6348H121.971C122.02 70.6298 122.07 70.6349 122.117 70.6497C122.165 70.6645 122.208 70.6888 122.246 70.721C122.284 70.7533 122.314 70.7928 122.336 70.8372C122.358 70.8817 122.371 70.9301 122.373 70.9796L122.494 73.0363Z" fill="#0C3E4D"/>
<path d="M138.518 84.588C137.671 84.588 137.008 84.3555 136.531 83.8904C136.053 83.4253 135.814 82.6775 135.813 81.6471V71.8355H133.688C133.512 71.8355 133.419 71.7657 133.419 71.6275V71.3766L135.807 71.28L136.014 66.0354C136.024 65.9779 136.048 65.9236 136.084 65.8771C136.101 65.8526 136.123 65.8327 136.15 65.8194C136.176 65.806 136.206 65.7996 136.235 65.8007H136.539V71.2827H141.039V71.8355H136.539V81.6203C136.53 81.9882 136.586 82.3548 136.705 82.703C136.799 82.9773 136.95 83.229 137.146 83.4422C137.327 83.6333 137.552 83.7774 137.801 83.8622C138.065 83.9529 138.343 83.9983 138.622 83.9964C138.943 84.0021 139.262 83.946 139.561 83.8313C139.805 83.7346 140.039 83.6141 140.259 83.4718C140.424 83.3642 140.58 83.2444 140.727 83.1135C140.847 83.0035 140.935 82.9472 140.996 82.9472C141.055 82.9543 141.109 82.9841 141.147 83.0304L141.327 83.2987C141.167 83.495 140.984 83.6707 140.781 83.8219C140.568 83.9801 140.339 84.1151 140.098 84.2244C139.85 84.3393 139.591 84.4292 139.325 84.4928C139.061 84.5562 138.79 84.5881 138.518 84.588Z" fill="#0C3E4D"/>
<path d="M147.905 65.7497C148.229 65.7458 148.551 65.8013 148.855 65.9134C149.131 66.016 149.382 66.177 149.591 66.3854C149.799 66.5938 149.96 66.8447 150.063 67.1209C150.18 67.4326 150.238 67.7634 150.233 68.0963C150.238 68.4318 150.18 68.7653 150.063 69.0797C149.958 69.3588 149.795 69.6126 149.585 69.8243C149.376 70.0314 149.125 70.1919 148.85 70.2953C148.546 70.4085 148.224 70.4644 147.9 70.4603C147.574 70.4645 147.249 70.4086 146.943 70.2953C146.666 70.1914 146.413 70.031 146.201 69.8243C145.989 69.6138 145.825 69.3598 145.72 69.0797C145.602 68.7654 145.544 68.4319 145.549 68.0963C145.544 67.7633 145.602 67.4324 145.72 67.1209C145.825 66.8434 145.989 66.592 146.201 66.3843C146.414 66.1789 146.666 66.0199 146.943 65.9174C147.251 65.8031 147.577 65.7463 147.905 65.7497ZM147.905 69.4433C148.04 69.4533 148.176 69.4279 148.298 69.3695C148.42 69.3112 148.525 69.2219 148.602 69.1106C148.749 68.8892 148.824 68.5524 148.824 68.1003C148.824 67.6482 148.749 67.3127 148.602 67.0927C148.524 66.9823 148.419 66.8938 148.297 66.836C148.175 66.7782 148.04 66.7529 147.905 66.7627C147.769 66.7525 147.631 66.7775 147.507 66.8353C147.382 66.893 147.275 66.9817 147.194 67.0927C147.044 67.3127 146.969 67.6495 146.969 68.1003C146.969 68.5511 147.044 68.8892 147.194 69.1106C147.274 69.2229 147.381 69.3126 147.506 69.3709C147.63 69.4293 147.768 69.4542 147.905 69.4433Z" fill="#164453"/>
<path d="M152.208 66.5252C152.331 66.3012 152.497 66.1037 152.696 65.9443C152.878 65.8041 153.102 65.7294 153.331 65.7323C153.51 65.7236 153.687 65.775 153.834 65.8785L153.746 66.8821C153.739 66.9343 153.713 66.9822 153.673 67.0163C153.633 67.041 153.586 67.0532 153.539 67.0511H153.446L153.327 67.0404L153.201 67.027C153.159 67.027 153.119 67.027 153.084 67.027C152.91 67.0179 152.739 67.0744 152.605 67.1853C152.474 67.3086 152.37 67.4586 152.302 67.6254V70.3986H150.932V65.8369H151.743C151.8 65.8355 151.857 65.8414 151.913 65.8544C151.955 65.8641 151.994 65.8829 152.028 65.9094C152.06 65.9357 152.084 65.97 152.098 66.0087C152.117 66.0525 152.133 66.0978 152.145 66.1442L152.208 66.5252Z" fill="#164453"/>
<path d="M158.451 65.9617V66.4595C158.453 66.4922 158.448 66.525 158.437 66.5559C158.426 66.5868 158.409 66.6151 158.386 66.6393C158.324 66.6928 158.249 66.7281 158.168 66.7412L157.836 66.815C157.854 66.8803 157.868 66.9466 157.878 67.0136C157.889 67.0833 157.894 67.1537 157.894 67.2242C157.897 67.4386 157.848 67.6505 157.751 67.8414C157.655 68.0227 157.52 68.1811 157.357 68.3056C157.18 68.4384 156.98 68.5384 156.767 68.6008C156.531 68.6708 156.285 68.7056 156.039 68.7041C155.967 68.7041 155.904 68.7041 155.831 68.6974C155.764 68.6936 155.698 68.6855 155.632 68.6732C155.591 68.6914 155.556 68.7201 155.529 68.7564C155.503 68.7926 155.486 68.8352 155.482 68.8799C155.481 68.9171 155.493 68.9533 155.516 68.9831C155.538 69.0129 155.569 69.0346 155.605 69.0449C155.71 69.0838 155.821 69.1078 155.933 69.116C156.067 69.1294 156.221 69.1375 156.394 69.1415C156.567 69.1455 156.742 69.1562 156.921 69.1723C157.099 69.1886 157.276 69.2159 157.45 69.2542C157.614 69.2883 157.77 69.351 157.912 69.4393C158.047 69.5243 158.159 69.6413 158.239 69.7801C158.326 69.9452 158.369 70.1302 158.362 70.3168C158.361 70.5271 158.309 70.734 158.212 70.9205C158.105 71.125 157.954 71.3035 157.771 71.4438C157.555 71.6073 157.313 71.7318 157.054 71.8114C156.74 71.907 156.412 71.9523 156.083 71.9456C155.769 71.9503 155.457 71.9161 155.152 71.8436C154.923 71.7886 154.703 71.698 154.502 71.5753C154.346 71.4811 154.215 71.3503 154.121 71.1942C154.04 71.0583 153.997 70.903 153.997 70.7448C153.99 70.5599 154.053 70.3794 154.174 70.239C154.31 70.0915 154.48 69.9795 154.669 69.9129C154.551 69.8469 154.454 69.7488 154.39 69.6301C154.326 69.5113 154.297 69.3768 154.306 69.2421C154.308 69.1697 154.319 69.0978 154.341 69.0288C154.368 68.9501 154.406 68.8759 154.454 68.8087C154.51 68.7334 154.574 68.6649 154.646 68.6048C154.727 68.536 154.818 68.4782 154.914 68.4331C154.686 68.3165 154.492 68.1444 154.348 67.9326C154.207 67.7177 154.135 67.4651 154.14 67.2081C154.137 66.9935 154.187 66.7815 154.286 66.591C154.384 66.4072 154.521 66.2476 154.689 66.1241C154.869 65.9908 155.072 65.8908 155.287 65.8289C155.53 65.7584 155.782 65.7236 156.035 65.7256C156.391 65.7182 156.745 65.7935 157.068 65.9456L158.451 65.9617ZM157.109 70.5529C157.112 70.5034 157.099 70.4543 157.073 70.4122C157.047 70.37 157.008 70.3368 156.963 70.3168C156.843 70.2622 156.715 70.2274 156.583 70.2135C156.428 70.1933 156.253 70.1813 156.06 70.1759C155.867 70.1705 155.675 70.1611 155.483 70.1437C155.403 70.1973 155.333 70.2634 155.274 70.3396C155.22 70.4093 155.191 70.4954 155.192 70.5838C155.191 70.6449 155.205 70.7054 155.234 70.7595C155.269 70.8173 155.32 70.8638 155.381 70.8937C155.471 70.9379 155.568 70.9682 155.667 70.9836C155.816 71.0079 155.968 71.0191 156.119 71.0171C156.282 71.0198 156.445 71.0077 156.606 70.9809C156.711 70.965 156.813 70.9324 156.908 70.8843C156.974 70.8524 157.029 70.8009 157.065 70.7367C157.094 70.6798 157.109 70.6168 157.109 70.5529ZM156.049 67.8629C156.134 67.8756 156.22 67.869 156.301 67.8435C156.383 67.8181 156.458 67.7744 156.52 67.7159C156.582 67.6574 156.63 67.5855 156.66 67.5056C156.691 67.4258 156.702 67.3401 156.695 67.2551C156.699 67.1761 156.688 67.097 156.662 67.0224C156.635 66.9478 156.595 66.8791 156.542 66.8204C156.398 66.7175 156.226 66.6622 156.049 66.6622C155.873 66.6622 155.7 66.7175 155.557 66.8204C155.504 66.8791 155.463 66.9478 155.437 67.0224C155.411 67.097 155.399 67.1761 155.404 67.2551C155.403 67.3376 155.416 67.4197 155.442 67.4979C155.466 67.5696 155.506 67.6351 155.558 67.6898C155.615 67.7484 155.684 67.7942 155.759 67.824C155.851 67.8539 155.948 67.867 156.044 67.8629H156.049Z" fill="#164453"/>
<path d="M64.5678 95.1885H67.6536V98.8419C67.2245 99.1589 66.7432 99.3982 66.2314 99.5489C65.7192 99.6975 65.1883 99.7716 64.655 99.7689C63.9892 99.7779 63.3274 99.6642 62.7028 99.4335C62.1443 99.2271 61.6322 98.912 61.1961 98.5064C60.7787 98.1126 60.4495 97.6347 60.2301 97.1044C60.0008 96.5461 59.8854 95.9476 59.8907 95.3441C59.8836 94.736 59.9929 94.1321 60.2127 93.5651C60.4193 93.0409 60.7344 92.5664 61.1371 92.1724C61.5516 91.7704 62.045 91.4589 62.5861 91.2574C63.1934 91.0324 63.837 90.9214 64.4846 90.93C64.8265 90.9287 65.1678 90.9588 65.5042 91.0199C65.8039 91.0744 66.098 91.1556 66.383 91.2628C66.6403 91.3607 66.8871 91.4844 67.1196 91.6317C67.3328 91.7667 67.5328 91.9217 67.7167 92.0946L67.1317 92.9801C67.0928 93.0442 67.0414 93.0998 66.9805 93.1436C66.9197 93.1874 66.8506 93.2185 66.7775 93.235C66.6135 93.263 66.4452 93.2249 66.3092 93.129C66.1496 93.0338 66.0007 92.9506 65.8584 92.8822C65.7197 92.8131 65.5751 92.7566 65.4264 92.7131C65.2747 92.6682 65.1194 92.6364 64.9622 92.6179C64.7801 92.5969 64.5968 92.5871 64.4135 92.5883C64.0634 92.5825 63.7161 92.6502 63.3938 92.7869C63.0982 92.9149 62.8344 93.1064 62.621 93.3477C62.4014 93.6027 62.2346 93.8987 62.1299 94.2185C62.0102 94.5838 61.9518 94.9664 61.9569 95.3508C61.9497 95.7666 62.0141 96.1805 62.1474 96.5744C62.2617 96.9094 62.4444 97.2169 62.6841 97.4774C62.9176 97.7234 63.2026 97.9149 63.5186 98.0382C63.8609 98.1701 64.2251 98.2356 64.5919 98.2314C64.814 98.2335 65.0355 98.2096 65.252 98.1603C65.4482 98.1122 65.6402 98.0485 65.8262 97.9698V96.6576H64.9676C64.8588 96.664 64.7518 96.6273 64.6697 96.5556C64.6347 96.5232 64.6071 96.4837 64.5886 96.4398C64.57 96.3958 64.5611 96.3484 64.5624 96.3007L64.5678 95.1885Z" fill="#0C3E4D"/>
<path d="M70.6442 90.7812V99.6738H68.7954V90.7812H70.6442Z" fill="#0C3E4D"/>
<path d="M74.7456 93.4189C75.1825 93.4136 75.6168 93.4881 76.0269 93.6389C76.3987 93.7759 76.7371 93.9904 77.0197 94.2682C77.3022 94.5509 77.5216 94.8901 77.6637 95.2637C77.822 95.6837 77.8999 96.1297 77.8931 96.5785C77.8999 97.0317 77.8221 97.4821 77.6637 97.9068C77.5223 98.283 77.3029 98.625 77.0197 98.9103C76.7373 99.1899 76.399 99.4067 76.0269 99.5463C75.6173 99.6993 75.1828 99.7748 74.7456 99.769C74.3053 99.775 73.8677 99.6995 73.4549 99.5463C73.0802 99.4063 72.7389 99.1897 72.4527 98.9103C72.1666 98.6264 71.9451 98.2841 71.8033 97.9068C71.6449 97.4821 71.5671 97.0317 71.5739 96.5785C71.5672 96.1297 71.645 95.6837 71.8033 95.2637C71.9458 94.8891 72.1673 94.5495 72.4527 94.2682C72.7392 93.9908 73.0806 93.7765 73.4549 93.6389C73.8682 93.4878 74.3056 93.4132 74.7456 93.4189ZM74.7456 98.4032C75.1705 98.4032 75.4835 98.2534 75.6848 97.9537C75.886 97.6541 75.9862 97.1997 75.9853 96.5906C75.9853 95.9815 75.8851 95.528 75.6848 95.2301C75.4844 94.9323 75.1714 94.7838 74.7456 94.7847C74.3082 94.7847 73.9889 94.9336 73.785 95.2301C73.581 95.5266 73.4817 95.9815 73.4817 96.5906C73.4817 97.1997 73.5824 97.6559 73.785 97.9537C73.9876 98.2516 74.3082 98.4032 74.7456 98.4032Z" fill="#0C3E4D"/>
<path d="M80.6718 94.1676C80.9042 93.9494 81.169 93.7683 81.4567 93.6309C81.7536 93.4912 82.0785 93.421 82.4066 93.4257C82.7329 93.4194 83.0561 93.4907 83.3495 93.6337C83.643 93.7766 83.8983 93.9872 84.0944 94.2481C84.308 94.5345 84.4668 94.8579 84.5627 95.202C84.6762 95.6081 84.7313 96.0282 84.7263 96.4498C84.7318 96.9094 84.6676 97.3672 84.5358 97.8076C84.4236 98.1872 84.2416 98.5425 83.9992 98.8554C83.7748 99.1393 83.4908 99.3706 83.1673 99.5329C82.8333 99.6961 82.4657 99.7783 82.094 99.7731C81.9256 99.7753 81.7576 99.7573 81.5936 99.7194C81.4534 99.6864 81.3181 99.6354 81.191 99.5678C81.0692 99.5042 80.9561 99.4253 80.8543 99.333C80.7499 99.2403 80.6514 99.1413 80.5591 99.0365L80.4934 99.3451C80.478 99.4513 80.4223 99.5474 80.3377 99.6134C80.2518 99.6653 80.1522 99.69 80.052 99.6845H78.8243V90.7812H80.6718V94.1676ZM80.6718 97.9994C80.7963 98.1397 80.9515 98.2494 81.1253 98.3201C81.2829 98.3824 81.4509 98.4148 81.6204 98.4153C81.7864 98.4166 81.9509 98.3832 82.1034 98.3174C82.256 98.2463 82.3866 98.1356 82.4817 97.9967C82.5999 97.8174 82.6836 97.6177 82.7286 97.4077C82.7943 97.1123 82.8244 96.8101 82.8185 96.5075C82.8226 96.2438 82.7996 95.9803 82.7501 95.7213C82.7155 95.5341 82.6468 95.355 82.5475 95.1926C82.4665 95.0638 82.3507 94.9605 82.2134 94.8948C82.0698 94.8314 81.9141 94.8003 81.7572 94.8036C81.5507 94.7986 81.3467 94.8496 81.1669 94.9511C80.9796 95.0686 80.8125 95.2154 80.6718 95.3858V97.9994Z" fill="#0C3E4D"/>
<path d="M85.5367 94.3688C85.9 94.0465 86.3224 93.7977 86.7804 93.6362C87.2509 93.4726 87.746 93.3909 88.2442 93.3947C88.5895 93.3895 88.9325 93.451 89.2545 93.5758C89.5421 93.6881 89.8024 93.8605 90.0179 94.0816C90.2296 94.3018 90.3931 94.5636 90.4982 94.8504C90.612 95.1624 90.6684 95.4924 90.6645 95.8245V99.6737H89.818C89.68 99.6829 89.5419 99.6585 89.4155 99.6026C89.3078 99.5336 89.2284 99.4285 89.1914 99.3061L89.0572 98.9667C88.9142 99.089 88.7651 99.2041 88.6105 99.3115C88.4705 99.4091 88.3219 99.4935 88.1664 99.5637C88.0096 99.6342 87.8453 99.6864 87.6767 99.7193C87.4873 99.7542 87.295 99.7708 87.1024 99.769C86.8416 99.7724 86.5818 99.7353 86.3323 99.659C86.1164 99.5935 85.9166 99.4833 85.746 99.3356C85.5815 99.1883 85.4538 99.0045 85.373 98.799C85.2807 98.5655 85.2352 98.3161 85.2389 98.0651C85.2429 97.8316 85.3003 97.6021 85.4066 97.3942C85.542 97.1397 85.7413 96.9247 85.9848 96.7704C86.326 96.5535 86.7003 96.394 87.093 96.2981C87.6689 96.158 88.2593 96.0863 88.852 96.0848V95.8231C88.852 95.4636 88.7782 95.2019 88.6279 95.0423C88.5454 94.9593 88.4461 94.8949 88.3366 94.8535C88.2271 94.812 88.1101 94.7945 87.9933 94.8021C87.8117 94.7965 87.6305 94.8205 87.4566 94.8732C87.3285 94.9159 87.2041 94.9693 87.085 95.0329C86.975 95.0933 86.869 95.1456 86.7657 95.1939C86.6487 95.2438 86.5225 95.268 86.3954 95.265C86.2806 95.2685 86.1677 95.2351 86.0734 95.1697C85.9883 95.1087 85.9155 95.0323 85.8587 94.9443L85.5367 94.3688ZM88.864 97.1675C88.558 97.1763 88.253 97.2081 87.9517 97.2627C87.7559 97.2961 87.5654 97.3556 87.3855 97.4398C87.2685 97.4927 87.1685 97.5773 87.0971 97.684C87.0439 97.7737 87.016 97.8762 87.0166 97.9805C87.0075 98.0627 87.0183 98.1459 87.0482 98.2229C87.0781 98.3 87.1262 98.3688 87.1883 98.4233C87.3395 98.5185 87.5172 98.5631 87.6954 98.5507C87.9107 98.5552 88.1245 98.5131 88.322 98.4273C88.5233 98.3259 88.705 98.1897 88.8587 98.0248L88.864 97.1675Z" fill="#0C3E4D"/>
<path d="M93.694 90.7812V99.6738H91.8452V90.7812H93.694Z" fill="#0C3E4D"/>
<path d="M99.9126 99.769C99.6472 99.7717 99.3836 99.7263 99.1344 99.6349C98.921 99.5573 98.7272 99.4336 98.5669 99.2726C98.4113 99.1106 98.2923 98.9171 98.2181 98.7051C98.1364 98.4664 98.0965 98.2154 98.1 97.9631V94.7847H97.5754C97.5279 94.7873 97.4804 94.7795 97.4361 94.762C97.3919 94.7445 97.352 94.7176 97.3191 94.6832C97.2862 94.6488 97.2612 94.6077 97.2457 94.5627C97.2302 94.5177 97.2246 94.4698 97.2293 94.4225V93.7047L98.21 93.5142L98.5736 92.0115C98.5933 91.9224 98.6454 91.8438 98.7198 91.791C98.7942 91.7382 98.8855 91.7149 98.9761 91.7257H99.9542V93.5263H101.486V94.7847H99.9542V97.8451C99.9492 97.971 99.986 98.0951 100.059 98.1979C100.094 98.2429 100.14 98.2787 100.193 98.302C100.245 98.3254 100.302 98.3357 100.359 98.3321C100.417 98.3334 100.474 98.3267 100.53 98.312C100.571 98.2992 100.611 98.283 100.649 98.2637L100.744 98.2167C100.777 98.2015 100.813 98.1942 100.849 98.1953C100.897 98.1932 100.944 98.2069 100.983 98.2342C101.025 98.2686 101.06 98.3099 101.088 98.3563L101.647 99.2297C101.405 99.4098 101.132 99.5461 100.842 99.6322C100.541 99.723 100.228 99.7691 99.9126 99.769Z" fill="#0C3E4D"/>
<path d="M104.127 94.0509C104.345 93.8635 104.589 93.7085 104.851 93.5907C105.148 93.4661 105.468 93.4062 105.79 93.4149C106.098 93.4093 106.404 93.4692 106.687 93.5907C106.94 93.7024 107.165 93.8687 107.347 94.0777C107.53 94.2953 107.667 94.5477 107.749 94.8197C107.842 95.1239 107.888 95.4407 107.883 95.7588V99.6738H106.035V95.7588C106.05 95.5073 105.976 95.2585 105.827 95.0558C105.751 94.9693 105.656 94.9015 105.549 94.8578C105.442 94.814 105.327 94.7955 105.212 94.8036C105.015 94.8017 104.821 94.8453 104.643 94.931C104.456 95.0229 104.282 95.1398 104.127 95.2785V99.6738H102.279V90.7812H104.127V94.0509Z" fill="#0C3E4D"/>
<path d="M111.157 91.8263C111.158 91.969 111.127 92.11 111.067 92.2396C111.008 92.3661 110.924 92.4799 110.822 92.575C110.716 92.6736 110.594 92.7522 110.461 92.8071C110.322 92.865 110.173 92.8942 110.022 92.8929C109.877 92.8942 109.733 92.8649 109.599 92.8071C109.47 92.7514 109.352 92.6728 109.251 92.575C109.149 92.4792 109.068 92.3643 109.012 92.2369C108.954 92.1068 108.925 91.9659 108.926 91.8236C108.925 91.6787 108.954 91.5352 109.012 91.4023C109.128 91.1434 109.338 90.9388 109.601 90.8308C109.735 90.7744 109.878 90.7461 110.023 90.7476C110.174 90.7462 110.323 90.7744 110.462 90.8308C110.596 90.8837 110.719 90.962 110.823 91.0616C110.925 91.1602 111.008 91.2772 111.067 91.4064C111.127 91.5383 111.158 91.6815 111.157 91.8263ZM110.965 93.5141V99.6737H109.118V93.5141H110.965Z" fill="#0C3E4D"/>
<path d="M113.965 94.185C114.082 94.0752 114.205 93.9721 114.334 93.8765C114.462 93.7814 114.599 93.7005 114.743 93.635C114.895 93.568 115.053 93.5163 115.214 93.4807C115.396 93.4418 115.58 93.4229 115.766 93.4243C116.074 93.4186 116.38 93.4785 116.663 93.6001C116.916 93.7117 117.141 93.878 117.322 94.0871C117.505 94.3047 117.642 94.5571 117.725 94.829C117.818 95.1333 117.863 95.4501 117.859 95.7682V99.6832H116.015V95.7588C116.031 95.5073 115.957 95.2585 115.807 95.0558C115.731 94.9693 115.636 94.9015 115.53 94.8578C115.423 94.814 115.308 94.7955 115.193 94.8036C114.996 94.8019 114.801 94.8455 114.624 94.931C114.437 95.0229 114.263 95.1398 114.107 95.2785V99.6738H112.26V93.5142H113.404C113.504 93.506 113.603 93.5321 113.686 93.5883C113.768 93.6444 113.829 93.7272 113.858 93.8228L113.965 94.185Z" fill="#0C3E4D"/>
<path d="M120.904 90.7812V95.7656H121.179C121.27 95.7708 121.36 95.7533 121.441 95.7146C121.512 95.671 121.573 95.6135 121.621 95.5455L122.789 93.8107C122.853 93.7126 122.942 93.6333 123.047 93.5812C123.152 93.529 123.268 93.5059 123.385 93.5142H125.078L123.48 95.7065C123.333 95.9006 123.151 96.0657 122.944 96.1935C123.036 96.2614 123.121 96.3403 123.195 96.4283C123.273 96.5227 123.345 96.6227 123.409 96.7275L125.153 99.6792H123.48C123.358 99.6825 123.236 99.6591 123.123 99.6108C123.017 99.5591 122.929 99.475 122.873 99.3706L121.704 97.1904C121.666 97.1108 121.606 97.0437 121.531 96.9972C121.446 96.963 121.354 96.9479 121.263 96.9529H120.904V99.6792H119.057V90.7812H120.904Z" fill="#0C3E4D"/>
<path d="M127.798 91.8263C127.798 91.969 127.768 92.11 127.708 92.2396C127.647 92.3664 127.562 92.4803 127.458 92.575C127.353 92.6736 127.231 92.7522 127.098 92.8071C126.959 92.865 126.809 92.8942 126.659 92.8929C126.513 92.8943 126.369 92.865 126.236 92.8071C126.107 92.7514 125.989 92.6728 125.887 92.575C125.786 92.4792 125.705 92.3643 125.649 92.2369C125.59 92.1069 125.561 91.966 125.561 91.8236C125.56 91.6786 125.59 91.5351 125.649 91.4024C125.763 91.1421 125.974 90.936 126.236 90.8268C126.37 90.7703 126.514 90.742 126.659 90.7436C126.809 90.7421 126.958 90.7704 127.098 90.8268C127.232 90.8796 127.354 90.958 127.458 91.0575C127.561 91.1562 127.644 91.2732 127.703 91.4024C127.765 91.5351 127.797 91.6798 127.798 91.8263ZM127.606 93.5141V99.6737H125.759V93.5141H127.606Z" fill="#0C3E4D"/>
<path d="M130.606 94.1849C130.723 94.0747 130.846 93.9717 130.975 93.8763C131.1 93.7817 131.235 93.7007 131.377 93.6348C131.7 93.4922 132.049 93.4203 132.401 93.4242C132.709 93.4186 133.015 93.4785 133.297 93.5999C133.551 93.7117 133.776 93.878 133.958 94.087C134.14 94.3045 134.277 94.5569 134.36 94.8289C134.453 95.1331 134.498 95.45 134.494 95.7681V99.6831H132.656V95.7587C132.671 95.5072 132.598 95.2583 132.448 95.0557C132.372 94.9692 132.277 94.9014 132.17 94.8577C132.064 94.8139 131.949 94.7953 131.834 94.8034C131.637 94.8016 131.442 94.8452 131.265 94.9309C131.078 95.0227 130.904 95.1396 130.748 95.2784V99.6737H128.901V93.5141H130.045C130.145 93.5058 130.244 93.532 130.327 93.5881C130.409 93.6443 130.47 93.7271 130.499 93.8227L130.606 94.1849Z" fill="#0C3E4D"/>
<path d="M141.307 93.7047V94.3755C141.31 94.4197 141.303 94.4639 141.289 94.5056C141.274 94.5473 141.251 94.5857 141.221 94.6184C141.138 94.6904 141.035 94.7369 140.926 94.7525L140.479 94.8532C140.503 94.9415 140.522 95.0311 140.536 95.1215C140.55 95.2157 140.557 95.3107 140.557 95.4059C140.561 95.6949 140.494 95.9806 140.363 96.2378C140.232 96.4836 140.049 96.6976 139.826 96.8643C139.587 97.0458 139.317 97.1822 139.029 97.2668C138.709 97.3597 138.378 97.4049 138.045 97.401C137.95 97.401 137.856 97.401 137.765 97.3916C137.675 97.3864 137.585 97.3756 137.497 97.3594C137.441 97.3839 137.393 97.4227 137.358 97.4717C137.322 97.5207 137.3 97.5782 137.294 97.6385C137.294 97.6886 137.31 97.7373 137.34 97.7775C137.37 97.8176 137.412 97.847 137.46 97.8612C137.602 97.9138 137.751 97.9459 137.902 97.9564C138.086 97.9739 138.292 97.986 138.526 97.9927C138.759 97.9994 138.995 98.0114 139.238 98.0329C139.478 98.0551 139.716 98.0918 139.951 98.1429C140.171 98.1903 140.381 98.2747 140.573 98.3925C140.756 98.5072 140.908 98.6659 141.015 98.854C141.134 99.0792 141.191 99.332 141.181 99.5866C141.18 99.8703 141.11 100.15 140.978 100.401C140.834 100.678 140.631 100.919 140.383 101.108C140.092 101.328 139.765 101.496 139.417 101.604C138.992 101.735 138.549 101.798 138.104 101.791C137.682 101.799 137.261 101.754 136.85 101.657C136.541 101.584 136.245 101.462 135.974 101.297C135.762 101.171 135.585 100.994 135.457 100.783C135.349 100.6 135.292 100.391 135.291 100.178C135.282 99.9283 135.368 99.6842 135.53 99.494C135.714 99.2951 135.945 99.1444 136.201 99.0553C136.043 98.966 135.913 98.8339 135.826 98.6741C135.74 98.5144 135.7 98.3335 135.712 98.1523C135.713 98.0543 135.73 97.9569 135.761 97.8639C135.795 97.7574 135.846 97.6572 135.912 97.5674C135.987 97.4647 136.074 97.3719 136.171 97.291C136.284 97.1976 136.408 97.1196 136.541 97.0589C136.235 96.9029 135.972 96.6722 135.778 96.388C135.588 96.0978 135.49 95.7568 135.498 95.41C135.493 95.1197 135.561 94.833 135.695 94.5754C135.824 94.3282 136.008 94.1131 136.232 93.9462C136.474 93.7652 136.746 93.6289 137.037 93.5437C137.364 93.4502 137.704 93.405 138.044 93.4095C138.526 93.4002 139.003 93.5021 139.439 93.7074L141.307 93.7047ZM139.484 99.9005C139.487 99.8337 139.47 99.7675 139.435 99.7107C139.4 99.6539 139.348 99.6092 139.287 99.5825C139.124 99.5098 138.951 99.4645 138.774 99.4484C138.539 99.4182 138.303 99.4012 138.067 99.3974C137.807 99.392 137.547 99.3773 137.289 99.3531C137.181 99.4268 137.085 99.5174 137.006 99.6214C136.933 99.7159 136.894 99.8322 136.896 99.9515C136.895 100.034 136.914 100.116 136.952 100.189C136.999 100.269 137.068 100.333 137.152 100.373C137.273 100.433 137.403 100.474 137.537 100.495C137.739 100.528 137.943 100.542 138.147 100.539C138.367 100.543 138.587 100.527 138.804 100.491C138.944 100.467 139.08 100.422 139.206 100.357C139.295 100.313 139.369 100.244 139.418 100.158C139.461 100.079 139.484 99.9905 139.484 99.9005ZM138.058 96.27C138.363 96.27 138.587 96.1939 138.728 96.0419C138.869 95.8778 138.943 95.6663 138.934 95.4502C138.94 95.3436 138.925 95.2368 138.89 95.1359C138.854 95.0351 138.8 94.9422 138.728 94.8626C138.59 94.7203 138.366 94.6492 138.058 94.6492C137.749 94.6492 137.525 94.7203 137.387 94.8626C137.316 94.9422 137.261 95.0351 137.225 95.1359C137.19 95.2368 137.175 95.3436 137.181 95.4502C137.18 95.5614 137.198 95.672 137.232 95.7776C137.264 95.8746 137.319 95.9628 137.391 96.0352C137.466 96.1121 137.558 96.1712 137.659 96.2082C137.787 96.2533 137.922 96.2743 138.058 96.27Z" fill="#0C3E4D"/>
<path d="M154.795 62.4962V62.362C154.795 62.3553 154.795 62.3486 154.795 62.3419C154.801 62.267 154.812 62.1926 154.828 62.1192C154.855 61.957 154.903 61.7991 154.971 61.6496C155.146 61.2621 155.444 60.9433 155.818 60.7426C155.987 60.6519 156.168 60.5876 156.355 60.5521C156.435 60.5359 156.516 60.5252 156.597 60.5199H156.66H156.805C156.905 60.524 157.004 60.5361 157.102 60.5561C157.533 60.6426 157.921 60.8742 158.201 61.2122C158.326 61.3613 158.427 61.5287 158.5 61.7086C158.603 61.9582 158.653 62.2267 158.644 62.4965C158.636 62.7663 158.571 63.0314 158.454 63.2743C158.37 63.4458 158.262 63.6041 158.133 63.7439C157.961 63.9296 157.754 64.0795 157.523 64.1849C157.293 64.2904 157.044 64.3493 156.791 64.3584C156.642 64.3636 156.493 64.3519 156.347 64.3235C156.153 64.2855 155.967 64.2171 155.794 64.1209C155.57 63.9968 155.372 63.8289 155.213 63.6272C155.068 63.4448 154.958 63.2368 154.889 63.0141C154.843 62.8694 154.815 62.7199 154.804 62.5686L154.795 62.4962ZM156.716 60.8043C156.394 60.8041 156.08 60.8992 155.812 61.0778C155.545 61.2564 155.336 61.5103 155.213 61.8075C155.089 62.1047 155.057 62.4318 155.12 62.7473C155.183 63.0629 155.337 63.3528 155.565 63.5803C155.792 63.8078 156.082 63.9627 156.398 64.0254C156.713 64.0881 157.04 64.0557 157.338 63.9325C157.635 63.8093 157.889 63.6006 158.067 63.333C158.246 63.0654 158.341 62.7508 158.341 62.4291C158.341 62.2157 158.299 62.0043 158.218 61.8071C158.136 61.6099 158.016 61.4307 157.865 61.2798C157.714 61.1289 157.535 61.0092 157.338 60.9277C157.141 60.8461 156.929 60.8042 156.716 60.8043Z" fill="#164453"/>
<path d="M157.085 62.6424L157.514 63.3132H157.233C157.228 63.3138 157.224 63.3131 157.22 63.3111C157.216 63.3092 157.213 63.3062 157.211 63.3025L156.809 62.6733C156.807 62.6699 156.805 62.667 156.802 62.6651C156.799 62.6631 156.795 62.6622 156.791 62.6625H156.42V63.3119H156.124V61.5409H156.903C156.983 61.5384 157.064 61.5488 157.141 61.5717C157.219 61.592 157.293 61.6261 157.359 61.6724C157.441 61.7295 157.501 61.8142 157.526 61.9112C157.538 61.9635 157.546 62.0163 157.552 62.0695C157.556 62.1404 157.549 62.2116 157.53 62.2801C157.52 62.3283 157.501 62.3739 157.473 62.4143C157.407 62.5059 157.313 62.5726 157.204 62.6035C157.166 62.6156 157.127 62.625 157.088 62.6357L157.085 62.6424ZM156.414 62.4157H156.841C156.871 62.4164 156.9 62.4137 156.929 62.4076C156.976 62.3969 157.023 62.3808 157.064 62.3674C157.089 62.3605 157.113 62.3481 157.133 62.3311C157.18 62.2981 157.215 62.2511 157.233 62.197C157.247 62.137 157.247 62.0744 157.233 62.0145C157.23 61.9881 157.222 61.9625 157.208 61.9394C157.195 61.9164 157.177 61.8962 157.156 61.8803C157.125 61.8602 157.096 61.8401 157.064 61.8213C157.04 61.807 157.013 61.7979 156.986 61.7945L156.924 61.7864C156.896 61.7864 156.868 61.7784 156.841 61.7784H156.401L156.414 62.4157Z" fill="#164453"/>
</svg>
