<svg width="210" height="70" viewBox="0 0 210 70" fill="none" xmlns="http://www.w3.org/2000/svg">
<path d="M7.03109 20.1852C7.67441 19.0037 8.54814 17.9632 9.60059 17.1252C10.5494 16.3886 11.7205 15.9966 12.9216 16.0137C14.0016 16.0137 14.8813 16.268 15.5608 16.7765L15.0973 22.055C15.0602 22.3254 14.9239 22.5724 14.7148 22.748C14.4966 22.8832 14.2422 22.9483 13.9858 22.9347C13.8621 22.9347 13.7001 22.9347 13.4998 22.91C13.2996 22.8852 13.0903 22.8762 12.8743 22.8537L12.2151 22.784C12.0119 22.7608 11.8076 22.7487 11.6031 22.748C10.5531 22.748 9.71609 23.0262 9.09209 23.5827C8.3982 24.2306 7.85316 25.0213 7.49459 25.9002V40.4825H0.319336V16.484H4.57859C4.88127 16.4768 5.18366 16.5077 5.47859 16.5762C5.69727 16.6278 5.90221 16.726 6.07934 16.8642C6.24614 17.0032 6.37405 17.183 6.45059 17.3862C6.54728 17.642 6.62254 17.9054 6.67559 18.1737L7.03109 20.1852Z" fill="#F0F0EE"/>
<path d="M25.1124 18.9589C25.5541 18.5624 26.0216 18.1956 26.5119 17.8609C27.0008 17.5276 27.5198 17.2406 28.0621 17.0036C28.6285 16.7598 29.2179 16.5736 29.8216 16.4479C30.4881 16.3133 31.1667 16.2477 31.8466 16.2521C33.0311 16.2309 34.2067 16.461 35.2958 16.9271C36.2702 17.3539 37.1361 17.9945 37.8293 18.8014C38.5367 19.6429 39.0649 20.6198 39.3818 21.6724C39.7392 22.8578 39.9144 24.0906 39.9016 25.3286V40.4891H33.5363V25.3241C33.5363 23.9966 33.2281 22.9669 32.6116 22.2349C31.9951 21.5029 31.0846 21.1361 29.8801 21.1346C29.006 21.13 28.1427 21.3279 27.3579 21.7129C26.5264 22.1296 25.7668 22.6765 25.1079 23.3329V40.4846H18.7246V5.97412H25.1124V18.9589Z" fill="#F0F0EE"/>
<path d="M49.0163 29.3291C49.0802 30.4048 49.2984 31.4656 49.6643 32.4791C49.9611 33.2956 50.4204 34.0434 51.0143 34.6774C51.5674 35.2541 52.2445 35.6973 52.9943 35.9734C53.8061 36.2679 54.6644 36.4135 55.5278 36.4031C56.3387 36.4199 57.1472 36.3099 57.9241 36.0769C58.5295 35.8877 59.118 35.6484 59.6836 35.3614C60.1831 35.0981 60.6241 34.8596 61.0021 34.6436C61.3334 34.4412 61.712 34.3295 62.1001 34.3196C62.3089 34.3064 62.5174 34.3485 62.7047 34.4418C62.892 34.535 63.0513 34.6761 63.1666 34.8506L64.8091 36.9341C64.1958 37.6571 63.4785 38.285 62.6806 38.7971C61.9046 39.2923 61.0742 39.6962 60.2056 40.0009C59.3576 40.3001 58.4817 40.5134 57.5911 40.6376C56.7361 40.7586 55.8738 40.8203 55.0103 40.8221C53.4375 40.8358 51.8758 40.5574 50.4046 40.0009C49.0081 39.4697 47.7443 38.6404 46.7011 37.5709C45.6094 36.4298 44.7666 35.0744 44.2261 33.5906C43.5951 31.8274 43.2901 29.964 43.3261 28.0916C43.3157 26.5337 43.5824 24.9864 44.1136 23.5219C44.6074 22.1421 45.3724 20.8752 46.3636 19.7959C47.3714 18.7185 48.5929 17.8632 49.9501 17.2849C51.4616 16.6481 53.0891 16.3324 54.7291 16.3579C56.144 16.3468 57.5491 16.593 58.8758 17.0846C60.1019 17.539 61.2149 18.2536 62.1383 19.1794C63.0788 20.1436 63.8082 21.2929 64.2803 22.5544C64.8183 24.0168 65.0807 25.5662 65.0543 27.1241C65.0543 27.9904 64.9621 28.5709 64.7776 28.8724C64.5931 29.1739 64.2376 29.3224 63.7133 29.3224L49.0163 29.3291ZM59.9176 25.8799C59.9213 25.1697 59.8158 24.4632 59.6048 23.7851C59.4091 23.1543 59.0902 22.5685 58.6666 22.0616C58.2345 21.5552 57.6918 21.1549 57.0803 20.8916C56.3748 20.5932 55.6142 20.4475 54.8483 20.4641C53.1983 20.4641 51.8978 20.9344 50.9468 21.8749C49.9958 22.8154 49.3906 24.1504 49.1311 25.8799H59.9176Z" fill="#F0F0EE"/>
<path d="M83.6389 21.1593C83.5422 21.3463 83.3988 21.5052 83.2227 21.6205C83.0463 21.719 82.8463 21.7673 82.6444 21.76C82.3432 21.7496 82.049 21.6663 81.7872 21.517C81.4797 21.355 81.1174 21.1735 80.7004 20.9725C80.2262 20.7515 79.7348 20.5694 79.2311 20.428C78.5854 20.2568 77.9192 20.175 77.2512 20.185C76.6838 20.1802 76.1187 20.2559 75.5727 20.41C75.113 20.5359 74.6816 20.7482 74.3014 21.0355C73.9676 21.2884 73.6947 21.6129 73.5027 21.985C73.3166 22.346 73.2209 22.7467 73.2237 23.1528C73.2075 23.6642 73.3906 24.162 73.7344 24.541C74.1188 24.9447 74.5771 25.2708 75.0844 25.5018C75.6974 25.794 76.3323 26.0377 76.9834 26.2308C77.6914 26.4468 78.4167 26.6785 79.1592 26.926C79.8989 27.1727 80.6251 27.4581 81.3349 27.781C82.0188 28.0897 82.657 28.491 83.2316 28.9735C83.7922 29.4477 84.2514 30.03 84.5816 30.6858C84.9396 31.4494 85.1138 32.2862 85.0901 33.1293C85.1008 34.1854 84.8964 35.2327 84.4894 36.2073C84.0905 37.1442 83.4897 37.9817 82.7299 38.6598C81.8913 39.393 80.91 39.9446 79.8477 40.2797C78.5723 40.6859 77.2394 40.882 75.9012 40.8603C75.1053 40.8604 74.3113 40.7851 73.5297 40.6353C72.7892 40.4938 72.0615 40.2922 71.3539 40.0323C70.6867 39.7876 70.0434 39.4818 69.4324 39.1188C68.8712 38.7851 68.3437 38.3978 67.8574 37.9623L69.0139 36.0633C69.1424 35.8438 69.3204 35.6573 69.5337 35.5188C69.7687 35.3814 70.0379 35.3136 70.3099 35.323C70.6542 35.3292 70.9887 35.4381 71.2707 35.6358C71.5857 35.8428 71.9457 36.0723 72.3822 36.3108C72.8723 36.5847 73.3877 36.8108 73.9212 36.9858C74.649 37.2125 75.4091 37.3181 76.1712 37.2985C76.8218 37.3113 77.4703 37.2209 78.0927 37.0308C78.5876 36.8821 79.0469 36.6341 79.4426 36.3018C79.7817 36.0151 80.051 35.655 80.2301 35.2488C80.4006 34.8507 80.4872 34.4218 80.4844 33.9888C80.5052 33.4485 80.3239 32.9198 79.9759 32.506C79.595 32.0897 79.1364 31.7519 78.6259 31.5115C78.0066 31.213 77.364 30.9654 76.7044 30.7713C75.9874 30.5553 75.2584 30.3235 74.5174 30.076C73.7741 29.8292 73.0441 29.5438 72.3304 29.221C71.6304 28.9083 70.9823 28.4902 70.4089 27.9813C69.8406 27.4693 69.3814 26.8479 69.0589 26.1543C68.6972 25.3266 68.5236 24.4291 68.5504 23.5263C68.5461 22.5924 68.7432 21.6686 69.1284 20.8178C69.5136 19.9671 70.0778 19.2094 70.7824 18.5965C71.5746 17.914 72.4915 17.3914 73.4824 17.0575C74.6797 16.6599 75.9358 16.4682 77.1972 16.4905C78.6753 16.4706 80.1439 16.7294 81.5261 17.2533C82.7338 17.7239 83.8314 18.4386 84.7504 19.3525L83.6389 21.1593Z" fill="#F0F0EE"/>
<path d="M94.3089 9.70039C94.3108 10.1108 94.2241 10.5168 94.0546 10.8906C93.8927 11.2615 93.6639 11.5994 93.3797 11.8874C93.0914 12.1766 92.7488 12.406 92.3717 12.5624C91.9909 12.7237 91.5814 12.8063 91.1679 12.8054C90.7623 12.8077 90.3606 12.7249 89.9889 12.5624C89.2443 12.2385 88.6517 11.642 88.3329 10.8951C88.1713 10.5192 88.0886 10.1141 88.0899 9.70488C88.087 9.28753 88.1697 8.874 88.3329 8.48988C88.6517 7.74304 89.2443 7.1465 89.9889 6.82263C90.3606 6.66013 90.7623 6.57735 91.1679 6.57964C91.5814 6.57871 91.9909 6.66136 92.3717 6.82263C92.7488 6.97906 93.0914 7.20845 93.3797 7.49763C93.6639 7.78567 93.8927 8.12355 94.0546 8.49439C94.2245 8.87364 94.3112 9.28485 94.3089 9.70039ZM93.4539 16.9679V40.4849H88.9404V16.9701L93.4539 16.9679Z" fill="#F0F0EE"/>
<path d="M118.543 6.3252V40.4847H115.812C115.538 40.5088 115.265 40.4299 115.047 40.2634C114.828 40.0969 114.68 39.8549 114.631 39.5847L114.237 36.8847C113.28 38.0349 112.124 39.0036 110.824 39.7444C109.472 40.4803 107.952 40.851 106.414 40.8199C105.155 40.8375 103.908 40.5682 102.769 40.0324C101.669 39.4989 100.713 38.7096 99.9809 37.7307C99.1526 36.6014 98.5471 35.3246 98.1966 33.9687C97.7571 32.2804 97.5482 30.5403 97.5756 28.7959C97.5619 27.1504 97.7955 25.5121 98.2686 23.9359C98.686 22.5255 99.367 21.2069 100.276 20.0502C101.14 18.9672 102.23 18.0864 103.471 17.4694C104.787 16.8283 106.236 16.5061 107.701 16.5289C108.883 16.4755 110.062 16.6867 111.152 17.1472C112.242 17.6077 113.215 18.3059 114.001 19.1907V6.3252H118.543ZM114.001 22.6624C113.261 21.6904 112.463 21.0117 111.607 20.6262C110.699 20.2323 109.718 20.0359 108.729 20.0502C106.66 20.0502 105.06 20.7942 103.927 22.2822C102.795 23.7702 102.227 25.9452 102.224 28.8072C102.203 30.0927 102.332 31.3763 102.607 32.6322C102.806 33.56 103.183 34.4404 103.718 35.2242C104.175 35.8702 104.796 36.3815 105.518 36.7047C106.278 37.0318 107.099 37.1937 107.926 37.1794C109.12 37.2108 110.298 36.906 111.328 36.2997C112.363 35.6419 113.272 34.8036 114.012 33.8247L114.001 22.6624Z" fill="#F0F0EE"/>
<path d="M142.821 37.1974C142.3 37.8268 141.682 38.3698 140.991 38.8061C140.276 39.2653 139.512 39.6426 138.712 39.9311C137.896 40.2255 137.056 40.4461 136.201 40.5904C135.352 40.7372 134.493 40.8125 133.632 40.8154C132.1 40.8314 130.58 40.5526 129.154 39.9941C127.811 39.4616 126.602 38.6396 125.613 37.5866C124.573 36.4545 123.78 35.1181 123.286 33.6626C122.703 31.934 122.422 30.1181 122.454 28.2941C122.441 26.7347 122.695 25.1845 123.205 23.7109C123.674 22.3483 124.41 21.093 125.37 20.0186C126.33 18.963 127.506 18.1265 128.819 17.5661C130.267 16.9509 131.827 16.6444 133.4 16.6661C134.733 16.6535 136.057 16.8932 137.301 17.3726C138.467 17.8206 139.523 18.5108 140.402 19.3976C141.307 20.3378 142.005 21.4578 142.449 22.6849C142.966 24.1124 143.217 25.6221 143.192 27.1399C143.192 27.7879 143.122 28.2199 142.983 28.4359C142.843 28.6609 142.582 28.7599 142.195 28.7599H126.526C126.543 30.0794 126.75 31.3895 127.14 32.6501C127.454 33.658 127.97 34.5913 128.657 35.3929C129.289 36.1139 130.081 36.6765 130.97 37.0354C131.929 37.4097 132.951 37.5946 133.98 37.5799C134.885 37.5983 135.786 37.4769 136.653 37.2199C137.317 37.0143 137.964 36.7555 138.586 36.4459C139.05 36.2114 139.5 35.9523 139.936 35.6696C140.209 35.4638 140.534 35.3397 140.874 35.3119C141.028 35.3046 141.182 35.3369 141.32 35.4059C141.457 35.4748 141.575 35.5781 141.662 35.7056L142.821 37.1974ZM139.488 26.2039C139.499 25.3123 139.362 24.4252 139.083 23.5781C138.834 22.8179 138.432 22.1166 137.902 21.5171C137.381 20.9332 136.737 20.4721 136.017 20.1671C135.216 19.8407 134.358 19.6799 133.494 19.6946C131.519 19.6946 129.957 20.2691 128.808 21.4181C127.659 22.5671 126.945 24.1601 126.666 26.1971L139.488 26.2039Z" fill="#F0F0EE"/>
<path d="M148.425 21.4835C149.445 20.1962 150.697 19.1123 152.118 18.2885C153.538 17.4796 155.148 17.0641 156.782 17.0847C157.925 17.0618 159.062 17.2668 160.125 17.6877C161.054 18.0616 161.876 18.6572 162.522 19.4225C163.177 20.2273 163.663 21.1564 163.95 22.154C164.288 23.3236 164.452 24.5366 164.436 25.754V40.4735H162.213V25.7652C162.213 23.6052 161.72 21.9117 160.733 20.6847C159.746 19.4577 158.241 18.8442 156.219 18.8442C154.744 18.841 153.295 19.2367 152.025 19.9895C150.663 20.8054 149.478 21.8874 148.542 23.171V40.496H146.319V17.456H147.548C147.63 17.4476 147.714 17.4562 147.793 17.481C147.873 17.5059 147.946 17.5466 148.009 17.6007C148.072 17.6547 148.124 17.721 148.16 17.7955C148.197 17.8701 148.218 17.9513 148.223 18.0342L148.425 21.4835Z" fill="#F0F0EE"/>
<path d="M175.297 40.8556C173.877 40.8556 172.766 40.4656 171.965 39.6856C171.164 38.9056 170.763 37.6516 170.761 35.9236V19.4693H167.197C166.902 19.4693 166.747 19.3523 166.747 19.1206V18.6998L170.752 18.5379L171.099 9.74258C171.116 9.64606 171.156 9.55506 171.216 9.47709C171.244 9.43597 171.282 9.40264 171.326 9.38021C171.371 9.35779 171.42 9.34699 171.47 9.34883H171.978V18.5423H179.525V19.4693H171.978V35.8786C171.963 36.4956 172.058 37.1104 172.257 37.6944C172.416 38.1544 172.668 38.5765 172.998 38.9341C173.301 39.2545 173.678 39.4962 174.096 39.6384C174.539 39.7906 175.004 39.8666 175.473 39.8634C176.01 39.8729 176.545 39.779 177.047 39.5866C177.456 39.4244 177.848 39.2224 178.218 38.9836C178.494 38.8032 178.756 38.6024 179.003 38.3829C179.203 38.1984 179.351 38.1039 179.453 38.1039C179.552 38.1159 179.643 38.1659 179.707 38.2434L180.008 38.6934C179.741 39.0225 179.433 39.3173 179.093 39.5709C178.736 39.8362 178.352 40.0624 177.947 40.2459C177.532 40.4385 177.097 40.5893 176.651 40.6959C176.208 40.8022 175.753 40.8558 175.297 40.8556Z" fill="#F0F0EE"/>
<path d="M191.04 9.2635C191.584 9.25699 192.124 9.35003 192.633 9.538C193.097 9.71016 193.517 9.98017 193.867 10.3296C194.216 10.6791 194.486 11.0998 194.658 11.563C194.855 12.0857 194.952 12.6405 194.944 13.1987C194.952 13.7614 194.855 14.3207 194.658 14.848C194.482 15.316 194.209 15.7416 193.857 16.0967C193.507 16.4441 193.087 16.7132 192.624 16.8865C192.115 17.0763 191.575 17.1702 191.031 17.1632C190.484 17.1703 189.94 17.0765 189.427 16.8865C188.962 16.7123 188.538 16.4433 188.183 16.0967C187.827 15.7437 187.551 15.3177 187.375 14.848C187.178 14.321 187.081 13.7615 187.089 13.1987C187.081 12.6404 187.178 12.0854 187.375 11.563C187.552 11.0976 187.827 10.6761 188.183 10.3278C188.539 9.98322 188.963 9.71656 189.427 9.54475C189.943 9.35312 190.49 9.25779 191.04 9.2635ZM191.04 15.4577C191.267 15.4745 191.494 15.4319 191.698 15.334C191.903 15.2361 192.079 15.0864 192.208 14.8997C192.456 14.5285 192.582 13.9637 192.582 13.2055C192.582 12.4472 192.456 11.8847 192.208 11.5158C192.078 11.3305 191.902 11.1822 191.697 11.0852C191.493 10.9882 191.266 10.9459 191.04 10.9622C190.811 10.9452 190.581 10.9872 190.372 11.084C190.164 11.1809 189.983 11.3295 189.848 11.5158C189.596 11.8847 189.47 12.4495 189.47 13.2055C189.47 13.9615 189.596 14.5285 189.848 14.8997C189.981 15.0881 190.161 15.2386 190.37 15.3364C190.579 15.4342 190.81 15.476 191.04 15.4577Z" fill="#F0F0EE"/>
<path d="M198.256 10.5643C198.462 10.1886 198.74 9.85742 199.075 9.59001C199.38 9.35502 199.755 9.22975 200.139 9.2345C200.44 9.21988 200.737 9.3062 200.983 9.47975L200.834 11.1628C200.824 11.2504 200.78 11.3307 200.713 11.3878C200.646 11.4293 200.567 11.4497 200.488 11.4463H200.333L200.132 11.4283L199.921 11.4058C199.851 11.4058 199.784 11.4058 199.725 11.4058C199.434 11.3905 199.147 11.4853 198.922 11.6713C198.702 11.878 198.528 12.1297 198.413 12.4093V17.06H196.116V9.41H197.475C197.571 9.40765 197.667 9.41748 197.761 9.43926C197.831 9.45564 197.897 9.48712 197.954 9.53151C198.007 9.57572 198.048 9.63316 198.071 9.698C198.104 9.77158 198.13 9.84757 198.15 9.92526L198.256 10.5643Z" fill="#F0F0EE"/>
<path d="M208.726 9.619V10.4537C208.729 10.5087 208.721 10.5636 208.702 10.6154C208.684 10.6672 208.655 10.7148 208.618 10.7552C208.514 10.8451 208.387 10.9043 208.251 10.9262L207.695 11.05C207.725 11.1594 207.749 11.2707 207.765 11.383C207.783 11.4999 207.792 11.618 207.792 11.7362C207.797 12.0957 207.715 12.4511 207.551 12.7712C207.39 13.0753 207.165 13.3409 206.892 13.5497C206.594 13.7724 206.259 13.9401 205.902 14.0448C205.505 14.1622 205.094 14.2206 204.68 14.218C204.561 14.218 204.455 14.218 204.331 14.2068C204.22 14.2003 204.108 14.1868 203.998 14.1663C203.93 14.1967 203.87 14.2448 203.826 14.3057C203.782 14.3665 203.754 14.4379 203.746 14.5128C203.746 14.5752 203.766 14.636 203.803 14.686C203.841 14.7359 203.893 14.7723 203.953 14.7895C204.13 14.8548 204.315 14.8949 204.502 14.9088C204.727 14.9313 204.986 14.9448 205.276 14.9515C205.567 14.9583 205.859 14.9763 206.161 15.0033C206.459 15.0305 206.755 15.0764 207.047 15.1405C207.321 15.1978 207.583 15.3029 207.821 15.451C208.048 15.5935 208.237 15.7898 208.37 16.0225C208.516 16.2994 208.588 16.6096 208.577 16.9225C208.574 17.2752 208.488 17.6222 208.325 17.935C208.145 18.2779 207.893 18.5773 207.585 18.8125C207.224 19.0868 206.817 19.2955 206.383 19.429C205.856 19.5894 205.306 19.6654 204.754 19.654C204.229 19.662 203.704 19.6046 203.193 19.483C202.809 19.3908 202.441 19.2389 202.104 19.033C201.842 18.8751 201.623 18.6558 201.465 18.394C201.329 18.166 201.257 17.9057 201.256 17.6403C201.245 17.3303 201.351 17.0276 201.553 16.792C201.781 16.5447 202.066 16.357 202.383 16.2453C202.185 16.1346 202.024 15.97 201.916 15.7709C201.808 15.5717 201.76 15.3461 201.775 15.1203C201.777 14.9988 201.797 14.8782 201.834 14.7625C201.878 14.6306 201.941 14.5062 202.023 14.3935C202.116 14.2671 202.224 14.1523 202.345 14.0515C202.481 13.936 202.633 13.8392 202.795 13.7635C202.413 13.568 202.086 13.2793 201.845 12.9242C201.609 12.5637 201.487 12.1402 201.496 11.7092C201.492 11.3493 201.576 10.9937 201.742 10.6742C201.905 10.3661 202.136 10.0985 202.417 9.89125C202.719 9.66768 203.059 9.50003 203.42 9.39624C203.827 9.27803 204.249 9.21967 204.673 9.22299C205.272 9.21064 205.865 9.33694 206.406 9.59199L208.726 9.619ZM206.476 17.3185C206.48 17.2355 206.458 17.1532 206.414 17.0825C206.371 17.0118 206.306 16.956 206.23 16.9225C206.029 16.831 205.814 16.7726 205.594 16.7493C205.333 16.7155 205.04 16.6953 204.716 16.6863C204.392 16.6773 204.07 16.6615 203.749 16.6323C203.615 16.7221 203.496 16.8331 203.398 16.9608C203.307 17.0777 203.258 17.2221 203.26 17.3703C203.259 17.4728 203.283 17.5742 203.33 17.665C203.39 17.7619 203.476 17.8399 203.578 17.89C203.729 17.9641 203.89 18.0149 204.057 18.0408C204.308 18.0815 204.561 18.1003 204.815 18.097C205.089 18.1015 205.362 18.0812 205.632 18.0363C205.808 18.0096 205.979 17.9549 206.138 17.8743C206.249 17.8207 206.341 17.7343 206.401 17.6268C206.45 17.5314 206.476 17.4257 206.476 17.3185ZM204.698 12.8073C204.84 12.8286 204.984 12.8175 205.121 12.7748C205.258 12.7321 205.383 12.659 205.487 12.5608C205.591 12.4626 205.672 12.342 205.723 12.2082C205.774 12.0743 205.793 11.9306 205.78 11.788C205.788 11.6556 205.769 11.5229 205.725 11.3978C205.681 11.2727 205.613 11.1575 205.524 11.059C205.283 10.8864 204.994 10.7936 204.698 10.7936C204.402 10.7936 204.113 10.8864 203.872 11.059C203.784 11.1575 203.715 11.2727 203.671 11.3978C203.627 11.5229 203.608 11.6556 203.616 11.788C203.614 11.9263 203.635 12.064 203.679 12.1952C203.72 12.3155 203.787 12.4253 203.875 12.517C203.97 12.6153 204.085 12.6921 204.212 12.742C204.366 12.7922 204.528 12.8143 204.689 12.8073H204.698Z" fill="#F0F0EE"/>
<path d="M51.2815 58.633H56.4566V64.7598C55.737 65.2915 54.9298 65.6928 54.0715 65.9455C53.2126 66.1947 52.3222 66.319 51.4278 66.3145C50.3113 66.3295 49.2015 66.1389 48.154 65.752C47.2173 65.4059 46.3585 64.8774 45.6273 64.1973C44.9272 63.5368 44.3751 62.7354 44.0073 61.846C43.6227 60.9098 43.4292 59.9061 43.438 58.894C43.4262 57.8742 43.6095 56.8615 43.978 55.9105C44.3246 55.0315 44.8529 54.2357 45.5283 53.575C46.2234 52.9009 47.0508 52.3784 47.9583 52.0405C48.9767 51.6631 50.0561 51.477 51.142 51.4915C51.7155 51.4892 52.2879 51.5397 52.852 51.6423C53.3545 51.7336 53.8477 51.8699 54.3258 52.0495C54.7573 52.2138 55.1711 52.4211 55.561 52.6683C55.9186 52.8947 56.2539 53.1546 56.5623 53.4445L55.5813 54.9295C55.5161 55.037 55.4299 55.1303 55.3278 55.2037C55.2258 55.2772 55.1099 55.3293 54.9873 55.357C54.7123 55.4039 54.43 55.34 54.2021 55.1793C53.9343 55.0195 53.6845 54.88 53.446 54.7653C53.2134 54.6495 52.971 54.5547 52.7215 54.4818C52.467 54.4065 52.2066 54.3531 51.943 54.322C51.6376 54.2869 51.3303 54.2704 51.0228 54.2725C50.4358 54.2628 49.8533 54.3762 49.3128 54.6055C48.8171 54.8202 48.3746 55.1413 48.0168 55.546C47.6486 55.9736 47.3687 56.4699 47.1933 57.0063C46.9926 57.6189 46.8945 58.2606 46.903 58.9053C46.891 59.6025 46.999 60.2967 47.2225 60.9573C47.4142 61.519 47.7207 62.0347 48.1225 62.4715C48.5142 62.8841 48.9921 63.2052 49.522 63.412C50.0961 63.6332 50.7069 63.7431 51.322 63.736C51.6944 63.7395 52.0659 63.6995 52.429 63.6168C52.758 63.5361 53.0801 63.4293 53.392 63.2973V61.0968H51.952C51.7696 61.1074 51.5902 61.046 51.4525 60.9258C51.3939 60.8714 51.3475 60.8052 51.3164 60.7314C51.2854 60.6577 51.2704 60.5782 51.2725 60.4983L51.2815 58.633Z" fill="#F0E967"/>
<path d="M61.4716 51.2417V66.1547H58.3711V51.2417H61.4716Z" fill="#F0E967"/>
<path d="M68.35 55.6651C69.0827 55.6561 69.8109 55.7812 70.4987 56.0341C71.1222 56.2639 71.6898 56.6236 72.1637 57.0893C72.6374 57.5635 73.0054 58.1324 73.2437 58.7588C73.5092 59.4631 73.6397 60.2112 73.6285 60.9638C73.6399 61.7238 73.5094 62.4792 73.2437 63.1913C73.0066 63.8223 72.6385 64.3959 72.1637 64.8743C71.6901 65.3433 71.1227 65.7067 70.4987 65.9408C69.8118 66.1974 69.0832 66.324 68.35 66.3143C67.6116 66.3244 66.8778 66.1977 66.1855 65.9408C65.5571 65.7061 64.9847 65.3429 64.5047 64.8743C64.0249 64.3981 63.6535 63.8241 63.4157 63.1913C63.1501 62.4792 63.0196 61.7238 63.031 60.9638C63.0197 60.2112 63.1502 59.4631 63.4157 58.7588C63.6547 58.1306 64.0261 57.5612 64.5047 57.0893C64.9852 56.6242 65.5578 56.2647 66.1855 56.0341C66.8786 55.7806 67.612 55.6556 68.35 55.6651ZM68.35 64.0238C69.0625 64.0238 69.5875 63.7726 69.925 63.2701C70.2625 62.7676 70.4305 62.0056 70.429 60.9841C70.429 59.9626 70.261 59.2021 69.925 58.7026C69.589 58.2031 69.064 57.9541 68.35 57.9556C67.6165 57.9556 67.081 58.2053 66.739 58.7026C66.397 59.1998 66.2305 59.9626 66.2305 60.9841C66.2305 62.0056 66.3992 62.7706 66.739 63.2701C67.0787 63.7696 67.6165 64.0238 68.35 64.0238Z" fill="#F0E967"/>
<path d="M78.2887 56.9207C78.6785 56.5547 79.1224 56.2511 79.6049 56.0207C80.1029 55.7864 80.6477 55.6686 81.198 55.6765C81.7452 55.6659 82.2872 55.7855 82.7793 56.0253C83.2714 56.265 83.6995 56.6182 84.0285 57.0557C84.3867 57.5359 84.653 58.0783 84.8137 58.6554C85.0041 59.3364 85.0965 60.0409 85.0882 60.7479C85.0974 61.5187 84.9897 62.2864 84.7687 63.0249C84.5806 63.6615 84.2754 64.2575 83.8687 64.7822C83.4924 65.2584 83.0162 65.6462 82.4737 65.9184C81.9136 66.192 81.297 66.33 80.6737 66.3212C80.3914 66.3249 80.1096 66.2947 79.8345 66.2312C79.5995 66.1758 79.3726 66.0903 79.1595 65.9769C78.9552 65.8703 78.7654 65.738 78.5947 65.5832C78.4197 65.4277 78.2544 65.2616 78.0997 65.0859L77.9894 65.6034C77.9637 65.7815 77.8702 65.9427 77.7284 66.0534C77.5843 66.1404 77.4173 66.1819 77.2492 66.1727H75.1904V51.2417H78.2887V56.9207ZM78.2887 63.3467C78.4975 63.582 78.7577 63.766 79.0492 63.8844C79.3135 63.9891 79.5951 64.0432 79.8794 64.0442C80.1579 64.0463 80.4338 63.9904 80.6895 63.8799C80.9453 63.7608 81.1645 63.5751 81.324 63.3422C81.5222 63.0415 81.6626 62.7066 81.738 62.3544C81.8481 61.859 81.8987 61.3521 81.8887 60.8447C81.8955 60.4024 81.8571 59.9606 81.774 59.5262C81.716 59.2124 81.6008 58.9119 81.4342 58.6397C81.2984 58.4236 81.1042 58.2504 80.874 58.1402C80.6332 58.0339 80.3721 57.9817 80.1089 57.9872C79.7627 57.9788 79.4206 58.0644 79.1189 58.2347C78.8049 58.4316 78.5246 58.6778 78.2887 58.9637V63.3467Z" fill="#F0E967"/>
<path d="M86.4471 57.2585C87.0564 56.7181 87.7647 56.3008 88.5329 56.03C89.3219 55.7557 90.1522 55.6187 90.9876 55.625C91.5666 55.6163 92.1419 55.7195 92.6819 55.9288C93.1642 56.117 93.6007 56.4062 93.9621 56.777C94.3171 57.1462 94.5914 57.5853 94.7676 58.0663C94.9585 58.5895 95.053 59.1429 95.0466 59.6998V66.155H93.6269C93.3955 66.1705 93.1639 66.1295 92.9519 66.0358C92.7714 65.9201 92.6381 65.7437 92.5761 65.5385L92.3511 64.9693C92.1112 65.1745 91.8612 65.3675 91.6019 65.5475C91.3672 65.7112 91.1179 65.8528 90.8571 65.9705C90.5943 66.0887 90.3187 66.1763 90.0359 66.2315C89.7183 66.29 89.3958 66.3179 89.0729 66.3148C88.6354 66.3206 88.1997 66.2583 87.7814 66.1303C87.4192 66.0204 87.0842 65.8357 86.7981 65.588C86.5223 65.3409 86.3081 65.0327 86.1726 64.688C86.0179 64.2964 85.9414 63.8783 85.9476 63.4573C85.9544 63.0657 86.0506 62.6809 86.2289 62.3323C86.456 61.9054 86.7902 61.5449 87.1986 61.286C87.7708 60.9224 88.3986 60.6549 89.0571 60.494C90.0228 60.259 91.0129 60.1389 92.0069 60.1363V59.6975C92.0069 59.0945 91.8831 58.6558 91.6311 58.388C91.4927 58.2488 91.3262 58.1408 91.1426 58.0714C90.959 58.0019 90.7627 57.9725 90.5668 57.9853C90.2624 57.9758 89.9584 58.0161 89.6669 58.1045C89.4519 58.1761 89.2434 58.2656 89.0436 58.3723C88.8591 58.4735 88.6814 58.5613 88.5081 58.6423C88.312 58.726 88.1003 58.7666 87.8871 58.7615C87.6947 58.7674 87.5054 58.7114 87.3471 58.6018C87.2045 58.4994 87.0824 58.3712 86.9871 58.2238L86.4471 57.2585ZM92.0271 61.952C91.5138 61.9668 91.0024 62.0202 90.4971 62.1118C90.1687 62.1677 89.8493 62.2676 89.5476 62.4088C89.3513 62.4975 89.1837 62.6393 89.0639 62.8183C88.9746 62.9687 88.928 63.1406 88.9289 63.3155C88.9136 63.4533 88.9318 63.5928 88.9819 63.7221C89.0321 63.8513 89.1127 63.9666 89.2169 64.058C89.4705 64.2177 89.7684 64.2925 90.0674 64.2718C90.4284 64.2792 90.7868 64.2086 91.1181 64.0648C91.4557 63.8948 91.7604 63.6662 92.0181 63.3898L92.0271 61.952Z" fill="#F0E967"/>
<path d="M100.127 51.2417V66.1547H97.0264V51.2417H100.127Z" fill="#F0E967"/>
<path d="M110.555 66.3144C110.11 66.3189 109.668 66.2427 109.25 66.0894C108.892 65.9593 108.567 65.7519 108.299 65.4819C108.038 65.2102 107.838 64.8857 107.714 64.5302C107.577 64.1299 107.51 63.7089 107.516 63.2859V57.9556H106.636C106.556 57.9599 106.477 57.9469 106.402 57.9175C106.328 57.8881 106.261 57.843 106.206 57.7853C106.151 57.7276 106.109 57.6587 106.083 57.5832C106.057 57.5077 106.048 57.4276 106.055 57.3481V56.1444L107.7 55.8249L108.31 53.3049C108.343 53.1555 108.43 53.0237 108.555 52.9351C108.68 52.8465 108.833 52.8075 108.985 52.8256H110.625V55.8451H113.195V57.9556H110.625V63.0879C110.617 63.2991 110.679 63.5071 110.801 63.6796C110.86 63.7551 110.937 63.8151 111.025 63.8542C111.113 63.8934 111.209 63.9107 111.305 63.9046C111.401 63.9069 111.497 63.8955 111.59 63.8709C111.659 63.8494 111.726 63.8223 111.791 63.7899L111.95 63.7111C112.005 63.6857 112.065 63.6733 112.126 63.6752C112.206 63.6717 112.285 63.6946 112.351 63.7404C112.421 63.7982 112.48 63.8674 112.526 63.9452L113.465 65.4099C113.058 65.712 112.601 65.9405 112.115 66.0849C111.609 66.2372 111.084 66.3146 110.555 66.3144Z" fill="#F0E967"/>
<path d="M117.623 56.7249C117.989 56.4107 118.398 56.1508 118.838 55.9532C119.336 55.7443 119.873 55.6438 120.413 55.6584C120.929 55.649 121.441 55.7495 121.916 55.9532C122.34 56.1406 122.718 56.4195 123.023 56.7699C123.33 57.1348 123.559 57.558 123.698 58.0142C123.854 58.5244 123.93 59.0557 123.923 59.5892V66.1547H120.822V59.5892C120.848 59.1674 120.724 58.7501 120.473 58.4102C120.346 58.2651 120.186 58.1515 120.008 58.0781C119.829 58.0048 119.636 57.9736 119.443 57.9872C119.113 57.9841 118.786 58.0573 118.489 58.2009C118.175 58.355 117.884 58.551 117.623 58.7837V66.1547H114.524V51.2417H117.623V56.7249Z" fill="#F0E967"/>
<path d="M129.413 52.9946C129.414 53.2339 129.362 53.4704 129.262 53.6876C129.162 53.8998 129.022 54.0908 128.85 54.2501C128.674 54.4155 128.469 54.5474 128.245 54.6394C128.012 54.7365 127.762 54.7854 127.509 54.7834C127.266 54.7855 127.024 54.7364 126.8 54.6394C126.584 54.546 126.385 54.4142 126.215 54.2501C126.046 54.0895 125.91 53.8968 125.815 53.6831C125.718 53.4651 125.669 53.2288 125.671 52.9901C125.669 52.7471 125.718 52.5064 125.815 52.2836C126.009 51.8494 126.363 51.5063 126.803 51.3251C127.027 51.2306 127.268 51.1831 127.511 51.1856C127.764 51.1832 128.014 51.2306 128.247 51.3251C128.472 51.4138 128.678 51.5452 128.852 51.7121C129.024 51.8776 129.163 52.0737 129.262 52.2904C129.362 52.5116 129.414 52.7518 129.413 52.9946ZM129.091 55.8251V66.1549H125.993V55.8251H129.091Z" fill="#F0E967"/>
<path d="M134.122 56.9502C134.319 56.7659 134.525 56.5931 134.741 56.4327C134.955 56.2733 135.185 56.1376 135.427 56.0277C135.681 55.9154 135.946 55.8287 136.217 55.769C136.521 55.7038 136.831 55.6721 137.142 55.6745C137.659 55.6648 138.172 55.7653 138.647 55.9692C139.071 56.1563 139.449 56.4353 139.752 56.786C140.059 57.1508 140.288 57.5741 140.427 58.0302C140.583 58.5404 140.659 59.0717 140.652 59.6052V66.1707H137.56V59.5895C137.586 59.1677 137.463 58.7503 137.212 58.4105C137.084 58.2654 136.925 58.1518 136.746 58.0784C136.567 58.005 136.374 57.9739 136.181 57.9875C135.851 57.9846 135.525 58.0578 135.227 58.2012C134.913 58.3552 134.622 58.5513 134.361 58.784V66.1549H131.263V55.8252H133.182C133.349 55.8114 133.515 55.8552 133.654 55.9494C133.792 56.0436 133.894 56.1824 133.942 56.3427L134.122 56.9502Z" fill="#F0E967"/>
<path d="M145.759 51.2417V59.6005H146.221C146.372 59.6093 146.523 59.5799 146.659 59.515C146.778 59.4419 146.881 59.3455 146.961 59.2315L148.921 56.3222C149.028 56.1576 149.177 56.0247 149.352 55.9372C149.528 55.8498 149.724 55.811 149.92 55.825H152.759L150.079 59.5015C149.832 59.827 149.527 60.1039 149.179 60.3182C149.335 60.432 149.476 60.5643 149.6 60.712C149.732 60.8702 149.853 61.0379 149.96 61.2137L152.885 66.1637H150.079C149.874 66.1692 149.67 66.1301 149.481 66.049C149.302 65.9622 149.155 65.8213 149.06 65.6462L147.1 61.99C147.037 61.8564 146.936 61.744 146.81 61.666C146.667 61.6086 146.514 61.5832 146.36 61.5917H145.759V66.1637H142.661V51.2417H145.759Z" fill="#F0E967"/>
<path d="M157.319 52.9946C157.32 53.2338 157.269 53.4703 157.168 53.6876C157.066 53.9003 156.924 54.0913 156.75 54.2501C156.573 54.4154 156.368 54.5473 156.145 54.6393C155.912 54.7364 155.661 54.7854 155.409 54.7833C155.165 54.7856 154.924 54.7365 154.7 54.6393C154.483 54.546 154.285 54.4141 154.115 54.2501C153.945 54.0894 153.809 53.8967 153.715 53.6831C153.617 53.4652 153.567 53.2289 153.568 52.9901C153.567 52.7469 153.617 52.5061 153.715 52.2836C153.907 51.8472 154.26 51.5015 154.7 51.3183C154.924 51.2236 155.166 51.1761 155.409 51.1788C155.661 51.1764 155.911 51.2238 156.145 51.3183C156.37 51.407 156.575 51.5384 156.75 51.7053C156.921 51.8707 157.06 52.0669 157.159 52.2836C157.264 52.5062 157.318 52.7488 157.319 52.9946ZM156.997 55.8251V66.1548H153.899V55.8251H156.997Z" fill="#F0E967"/>
<path d="M162.029 56.9502C162.224 56.7654 162.431 56.5925 162.647 56.4327C162.857 56.2739 163.084 56.1381 163.322 56.0277C163.863 55.7884 164.448 55.668 165.039 55.6744C165.555 55.665 166.068 55.7655 166.542 55.9692C166.967 56.1566 167.345 56.4355 167.649 56.7859C167.956 57.1508 168.186 57.574 168.324 58.0302C168.48 58.5404 168.556 59.0717 168.549 59.6052V66.1707H165.467V59.5894C165.492 59.1677 165.369 58.7503 165.118 58.4104C164.99 58.2654 164.831 58.1517 164.652 58.0784C164.473 58.005 164.28 57.9739 164.087 57.9874C163.757 57.9843 163.431 58.0575 163.133 58.2012C162.82 58.3552 162.528 58.5513 162.267 58.7839V66.1549H159.169V55.8252H161.088C161.255 55.8113 161.422 55.8552 161.56 55.9494C161.698 56.0436 161.8 56.1824 161.849 56.3427L162.029 56.9502Z" fill="#F0E967"/>
<path d="M179.975 56.1444V57.2694C179.979 57.3435 179.969 57.4177 179.944 57.4876C179.919 57.5576 179.881 57.6218 179.831 57.6767C179.691 57.7975 179.519 57.8755 179.336 57.9017L178.587 58.0704C178.626 58.2186 178.658 58.3688 178.681 58.5204C178.705 58.6783 178.717 58.8378 178.717 58.9974C178.724 59.4821 178.612 59.9611 178.391 60.3924C178.172 60.8048 177.865 61.1636 177.491 61.4432C177.09 61.7475 176.637 61.9763 176.154 62.1182C175.619 62.274 175.063 62.3498 174.505 62.3432C174.345 62.3432 174.188 62.3432 174.035 62.3274C173.884 62.3187 173.734 62.3007 173.585 62.2734C173.492 62.3146 173.412 62.3795 173.352 62.4617C173.292 62.5439 173.255 62.6404 173.245 62.7414C173.245 62.8255 173.272 62.9073 173.322 62.9746C173.373 63.0419 173.443 63.0911 173.524 63.1149C173.762 63.2032 174.011 63.2569 174.264 63.2747C174.573 63.3039 174.919 63.3242 175.311 63.3354C175.702 63.3467 176.098 63.3669 176.505 63.4029C176.907 63.4401 177.306 63.5017 177.7 63.5874C178.069 63.6669 178.422 63.8084 178.744 64.0059C179.051 64.1984 179.306 64.4644 179.484 64.7799C179.684 65.1576 179.78 65.5815 179.763 66.0084C179.761 66.4843 179.645 66.9527 179.424 67.3742C179.182 67.8384 178.841 68.2434 178.425 68.5599C177.937 68.9296 177.389 69.2114 176.805 69.3924C176.092 69.611 175.349 69.7165 174.604 69.7052C173.896 69.7185 173.189 69.6429 172.5 69.4802C171.982 69.3574 171.486 69.1539 171.031 68.8772C170.676 68.6655 170.378 68.3695 170.165 68.0154C169.983 67.708 169.887 67.3577 169.886 67.0007C169.871 66.5816 170.014 66.1722 170.286 65.8532C170.595 65.5196 170.982 65.267 171.411 65.1174C171.146 64.9677 170.929 64.7462 170.784 64.4783C170.639 64.2104 170.572 63.9071 170.592 63.6032C170.594 63.4387 170.621 63.2755 170.673 63.1194C170.73 62.9409 170.816 62.7729 170.928 62.6222C171.052 62.4501 171.198 62.2943 171.362 62.1587C171.551 62.0022 171.76 61.8713 171.983 61.7694C171.468 61.5078 171.028 61.1209 170.703 60.6444C170.384 60.1577 170.22 59.5859 170.232 59.0042C170.225 58.5175 170.339 58.0366 170.563 57.6047C170.78 57.19 171.088 56.8294 171.463 56.5494C171.869 56.2459 172.326 56.0173 172.813 55.8744C173.362 55.7177 173.932 55.6419 174.503 55.6494C175.311 55.6337 176.112 55.8047 176.843 56.1489L179.975 56.1444ZM176.917 66.5349C176.923 66.4229 176.894 66.3119 176.835 66.2166C176.776 66.1214 176.689 66.0464 176.586 66.0017C176.314 65.8797 176.024 65.8037 175.727 65.7767C175.333 65.7261 174.938 65.6976 174.541 65.6912C174.105 65.6822 173.67 65.6574 173.236 65.6169C173.055 65.7406 172.894 65.8925 172.761 66.0669C172.639 66.2253 172.574 66.4204 172.577 66.6204C172.575 66.7589 172.608 66.8957 172.671 67.0187C172.75 67.1525 172.867 67.2599 173.007 67.3269C173.21 67.4274 173.428 67.4964 173.652 67.5317C173.991 67.5865 174.333 67.6114 174.676 67.6059C175.044 67.6121 175.413 67.585 175.776 67.5249C176.012 67.4853 176.239 67.4094 176.451 67.2999C176.601 67.2271 176.724 67.1111 176.807 66.9669C176.879 66.8345 176.917 66.6859 176.917 66.5349ZM174.525 60.4464C175.038 60.4464 175.413 60.3189 175.65 60.0639C175.887 59.7888 176.01 59.4341 175.995 59.0717C176.005 58.8928 175.98 58.7137 175.921 58.5446C175.862 58.3755 175.77 58.2197 175.65 58.0862C175.418 57.8477 175.043 57.7284 174.525 57.7284C174.008 57.7284 173.633 57.8477 173.4 58.0862C173.281 58.2197 173.189 58.3755 173.13 58.5446C173.071 58.7137 173.046 58.8928 173.056 59.0717C173.054 59.2581 173.083 59.4436 173.142 59.6207C173.195 59.7834 173.286 59.9314 173.407 60.0527C173.534 60.1817 173.687 60.2809 173.857 60.3429C174.071 60.4186 174.298 60.4537 174.525 60.4464Z" fill="#F0E967"/>
<path d="M202.594 3.80741V3.58241C202.594 3.57116 202.594 3.55991 202.594 3.54866C202.604 3.42306 202.623 3.29829 202.65 3.17516C202.694 2.90329 202.775 2.63849 202.889 2.38767C203.182 1.73792 203.682 1.20326 204.311 0.866664C204.592 0.714455 204.896 0.606688 205.211 0.547169C205.344 0.520052 205.479 0.502006 205.616 0.493164H205.721H205.964C206.132 0.500062 206.299 0.520381 206.464 0.553918C207.186 0.698954 207.836 1.08732 208.307 1.65416C208.516 1.90422 208.685 2.18502 208.808 2.48667C208.981 2.90515 209.063 3.35543 209.05 3.80796C209.036 4.26049 208.927 4.70503 208.73 5.11241C208.59 5.40003 208.409 5.66541 208.192 5.89991C207.903 6.2113 207.556 6.46262 207.169 6.63946C206.783 6.8163 206.366 6.91517 205.942 6.93041C205.692 6.9392 205.442 6.91957 205.197 6.87191C204.872 6.80809 204.559 6.69344 204.27 6.53216C203.893 6.32402 203.562 6.04247 203.296 5.70416C203.052 5.39819 202.867 5.0495 202.751 4.67592C202.675 4.43333 202.627 4.18261 202.609 3.92892L202.594 3.80741ZM205.816 0.970169C205.276 0.969724 204.749 1.12934 204.3 1.42881C203.851 1.72829 203.501 2.15416 203.295 2.65255C203.088 3.15093 203.034 3.69943 203.139 4.22862C203.244 4.75782 203.504 5.24393 203.885 5.62544C204.267 6.00696 204.753 6.26672 205.282 6.37187C205.811 6.47702 206.36 6.42283 206.858 6.21615C207.357 6.00947 207.782 5.6596 208.082 5.2108C208.381 4.762 208.541 4.23445 208.541 3.69491C208.541 3.33701 208.471 2.98256 208.334 2.65184C208.197 2.32113 207.996 2.02065 207.743 1.76757C207.49 1.51449 207.19 1.3138 206.859 1.17697C206.528 1.04015 206.174 0.969873 205.816 0.970169Z" fill="#0C3E4D"/>
<path d="M206.434 4.05244L207.154 5.17745H206.682C206.675 5.17837 206.667 5.17716 206.661 5.17395C206.655 5.17075 206.649 5.16569 206.646 5.15945L205.971 4.1042C205.968 4.0985 205.964 4.09368 205.959 4.09045C205.954 4.08722 205.948 4.08573 205.941 4.08619H205.318V5.1752H204.823V2.20519H206.128C206.264 2.20103 206.399 2.2185 206.529 2.25694C206.659 2.29087 206.783 2.34803 206.893 2.42569C207.032 2.52157 207.131 2.66354 207.174 2.82619C207.193 2.9139 207.208 3.00252 207.217 3.09169C207.224 3.21062 207.212 3.32991 207.181 3.44495C207.164 3.52563 207.131 3.60211 207.084 3.66995C206.975 3.82355 206.816 3.93538 206.634 3.98719C206.569 4.00744 206.504 4.0232 206.439 4.0412L206.434 4.05244ZM205.309 3.67219H206.025C206.075 3.67338 206.124 3.66885 206.173 3.65869C206.252 3.64069 206.331 3.6137 206.398 3.5912C206.441 3.57969 206.481 3.55895 206.515 3.53044C206.593 3.47505 206.652 3.39623 206.682 3.30544C206.707 3.20495 206.707 3.09994 206.682 2.99944C206.677 2.95514 206.663 2.91229 206.641 2.87357C206.619 2.83486 206.589 2.80111 206.553 2.77444C206.502 2.74069 206.452 2.70694 206.398 2.67544C206.358 2.65155 206.314 2.63622 206.268 2.63044L206.164 2.61694C206.117 2.61694 206.07 2.60344 206.025 2.60344H205.287L205.309 3.67219Z" fill="#0C3E4D"/>
</svg>
