<svg width="394" height="131" viewBox="0 0 394 131" fill="none" xmlns="http://www.w3.org/2000/svg">
<path d="M12.669 37.2714C13.8834 35.0351 15.5326 33.0658 17.5192 31.4798C19.3101 30.0855 21.5208 29.3436 23.7879 29.376C25.8265 29.376 27.4871 29.8572 28.7697 30.8197L27.8948 40.8102C27.8248 41.3221 27.5674 41.7896 27.1728 42.1219C26.7609 42.3778 26.2807 42.5011 25.7967 42.4754C25.5632 42.4754 25.2574 42.4754 24.8794 42.4285C24.5014 42.3817 24.1064 42.3646 23.6987 42.3221L22.4543 42.19C22.0708 42.1461 21.6851 42.1233 21.2991 42.1219C19.3171 42.1219 17.7372 42.6485 16.5594 43.7018C15.2496 44.928 14.2208 46.4245 13.5439 48.0881V75.6879H0V30.2661H8.03972C8.61106 30.2524 9.18185 30.3111 9.73855 30.4407C10.1513 30.5382 10.5382 30.7242 10.8725 30.9858C11.1874 31.2488 11.4288 31.5892 11.5733 31.9737C11.7558 32.4579 11.8979 32.9565 11.998 33.4642L12.669 37.2714Z" fill="#363630"/>
<path d="M46.7987 34.9501C47.6325 34.1997 48.515 33.5055 49.4403 32.872C50.3633 32.2411 51.343 31.6979 52.3666 31.2495C53.4356 30.7879 54.5483 30.4355 55.6878 30.1976C56.9458 29.9429 58.2267 29.8188 59.5101 29.8271C61.746 29.787 63.965 30.2224 66.0209 31.1046C67.8601 31.9125 69.4945 33.1249 70.8031 34.652C72.1382 36.2447 73.1354 38.0937 73.7336 40.0859C74.4081 42.3296 74.7389 44.6629 74.7147 47.0061V75.7002H62.6997V46.9976C62.6997 44.485 62.1178 42.536 60.9541 41.1506C59.7904 39.7651 58.0718 39.071 55.7982 39.0681C54.1482 39.0593 52.5186 39.434 51.0372 40.1626C49.4677 40.9513 48.034 41.9864 46.7902 43.2288V75.6917H34.7412V10.374H46.7987V34.9501Z" fill="#363630"/>
<path d="M91.9191 54.5777C92.0395 56.6135 92.4515 58.6214 93.1422 60.5397C93.7024 62.085 94.5693 63.5004 95.6905 64.7003C96.7344 65.7918 98.0125 66.6307 99.4279 67.1532C100.96 67.7106 102.58 67.9861 104.21 67.9666C105.741 67.9984 107.267 67.7901 108.733 67.3491C109.876 66.991 110.987 66.538 112.054 65.9949C112.997 65.4966 113.83 65.0452 114.543 64.6364C115.169 64.2533 115.883 64.0418 116.616 64.0232C117.01 63.9981 117.404 64.0779 117.757 64.2544C118.111 64.4308 118.411 64.6978 118.629 65.0282L121.729 68.9716C120.572 70.34 119.218 71.5284 117.712 72.4977C116.247 73.4349 114.679 74.1993 113.04 74.776C111.439 75.3424 109.786 75.7461 108.105 75.9812C106.491 76.2102 104.863 76.3269 103.233 76.3304C100.264 76.3563 97.3165 75.8293 94.5395 74.776C91.9036 73.7706 89.518 72.2011 87.5488 70.1768C85.4881 68.0171 83.8973 65.4518 82.8771 62.6434C81.686 59.3061 81.1103 55.7794 81.1782 52.2355C81.1586 49.2869 81.662 46.3583 82.6647 43.5864C83.5968 40.975 85.0409 38.5771 86.9118 36.5342C88.8141 34.495 91.1198 32.8763 93.6816 31.7816C96.5348 30.5763 99.6067 29.9789 102.702 30.0271C105.373 30.0061 108.025 30.4722 110.53 31.4026C112.844 32.2626 114.945 33.6152 116.688 35.3673C118.463 37.1923 119.84 39.3677 120.731 41.7552C121.747 44.523 122.242 47.4555 122.192 50.4043C122.192 52.0439 122.018 53.1426 121.67 53.7132C121.322 54.2839 120.651 54.5649 119.661 54.5649L91.9191 54.5777ZM112.496 48.0493C112.503 46.7052 112.304 45.368 111.906 44.0846C111.536 42.8906 110.934 41.7819 110.135 40.8226C109.319 39.864 108.295 39.1064 107.141 38.6081C105.809 38.0433 104.373 37.7675 102.928 37.799C99.813 37.799 97.3582 38.689 95.5631 40.4691C93.768 42.2492 92.6255 44.7759 92.1357 48.0493H112.496Z" fill="#363630"/>
<path d="M157.273 39.1152C157.091 39.4692 156.82 39.7699 156.488 39.9882C156.155 40.1746 155.777 40.2659 155.396 40.2522C154.828 40.2326 154.272 40.0748 153.778 39.7923C153.198 39.4857 152.514 39.1422 151.727 38.7617C150.832 38.3434 149.904 37.9988 148.953 37.7312C147.734 37.4071 146.477 37.2523 145.216 37.2712C144.145 37.2621 143.078 37.4054 142.048 37.6971C141.18 37.9354 140.366 38.3372 139.648 38.881C139.018 39.3597 138.503 39.9737 138.14 40.6781C137.789 41.3613 137.608 42.1197 137.614 42.8883C137.583 43.8563 137.929 44.7985 138.578 45.5158C139.303 46.2798 140.168 46.897 141.126 47.3342C142.283 47.8873 143.482 48.3487 144.71 48.714C146.047 49.1228 147.416 49.5614 148.817 50.0299C150.214 50.4968 151.585 51.0369 152.924 51.6481C154.215 52.2324 155.42 52.9919 156.505 53.9051C157.563 54.8026 158.429 55.9048 159.053 57.1459C159.729 58.5912 160.057 60.1751 160.013 61.7707C160.033 63.7696 159.647 65.7518 158.879 67.5964C158.126 69.3698 156.992 70.9548 155.558 72.2382C153.975 73.626 152.122 74.67 150.117 75.3044C147.71 76.0731 145.194 76.4442 142.668 76.4031C141.165 76.4034 139.667 76.2608 138.191 75.9772C136.794 75.7096 135.42 75.3279 134.084 74.8359C132.825 74.3729 131.611 73.7941 130.457 73.107C129.398 72.4755 128.402 71.7425 127.484 70.9181L129.667 67.3238C129.91 66.9084 130.246 66.5555 130.648 66.2933C131.092 66.0334 131.6 65.9049 132.114 65.9228C132.764 65.9345 133.395 66.1407 133.927 66.5147C134.522 66.9065 135.201 67.3409 136.025 67.7923C136.95 68.3108 137.923 68.7386 138.93 69.0699C140.304 69.499 141.739 69.699 143.177 69.6618C144.405 69.686 145.63 69.515 146.804 69.155C147.738 68.8737 148.606 68.4042 149.353 67.7753C149.992 67.2326 150.501 66.5511 150.839 65.7823C151.161 65.0288 151.324 64.217 151.319 63.3975C151.358 62.3749 151.016 61.3743 150.359 60.5911C149.64 59.8031 148.775 59.1637 147.811 58.7088C146.642 58.1437 145.429 57.6752 144.184 57.3077C142.83 56.8989 141.454 56.4603 140.056 55.9918C138.653 55.5247 137.275 54.9845 135.928 54.3736C134.606 53.7818 133.383 52.9904 132.301 52.0271C131.228 51.0581 130.361 49.882 129.752 48.5692C129.07 47.0027 128.742 45.304 128.792 43.5952C128.784 41.8277 129.156 40.0791 129.883 38.4689C130.611 36.8587 131.675 35.4247 133.006 34.2647C134.501 32.973 136.232 31.9839 138.102 31.3519C140.362 30.5993 142.733 30.2364 145.114 30.2787C147.904 30.241 150.676 30.7308 153.285 31.7224C155.565 32.6132 157.637 33.9658 159.371 35.6956L157.273 39.1152Z" fill="#363630"/>
<path d="M177.413 17.4262C177.416 18.203 177.253 18.9715 176.933 19.679C176.627 20.3809 176.195 21.0204 175.659 21.5656C175.115 22.1129 174.468 22.547 173.756 22.8431C173.037 23.1484 172.265 23.3048 171.484 23.303C170.718 23.3074 169.96 23.1507 169.258 22.8431C167.853 22.2301 166.734 21.1011 166.133 19.6875C165.828 18.976 165.671 18.2092 165.674 17.4347C165.668 16.6448 165.824 15.8621 166.133 15.1351C166.734 13.7216 167.853 12.5925 169.258 11.9795C169.96 11.672 170.718 11.5153 171.484 11.5196C172.265 11.5179 173.037 11.6743 173.756 11.9795C174.468 12.2756 175.115 12.7098 175.659 13.2571C176.195 13.8023 176.627 14.4418 176.933 15.1437C177.254 15.8615 177.417 16.6397 177.413 17.4262V17.4262ZM175.799 31.1814V75.6918H167.279V31.1856L175.799 31.1814Z" fill="#363630"/>
<path d="M223.158 11.0381V75.6915H218.002C217.486 75.7371 216.971 75.5877 216.558 75.2726C216.146 74.9575 215.866 74.4994 215.772 73.988L215.029 68.8778C213.223 71.0547 211.04 72.8881 208.586 74.2904C206.035 75.6831 203.166 76.3847 200.262 76.326C197.886 76.3591 195.533 75.8494 193.382 74.8355C191.306 73.8257 189.502 72.3318 188.12 70.479C186.556 68.3416 185.413 65.9251 184.752 63.3587C183.922 60.1632 183.528 56.8698 183.58 53.5683C183.554 50.4537 183.995 47.3529 184.888 44.3698C185.676 41.7002 186.961 39.2046 188.676 37.0153C190.307 34.9655 192.366 33.2983 194.707 32.1307C197.192 30.9172 199.928 30.3073 202.692 30.3506C204.923 30.2494 207.148 30.6492 209.206 31.5208C211.263 32.3924 213.1 33.7138 214.583 35.3885V11.0381H223.158ZM214.583 41.9594C213.187 40.1197 211.681 38.8351 210.064 38.1055C208.351 37.3599 206.5 36.9883 204.632 37.0153C200.728 37.0153 197.707 38.4234 195.569 41.2397C193.431 44.0561 192.36 48.1727 192.354 53.5895C192.315 56.0226 192.557 58.452 193.076 60.8291C193.452 62.5852 194.164 64.2514 195.174 65.735C196.036 66.9576 197.209 67.9255 198.572 68.5371C200.006 69.1562 201.555 69.4625 203.116 69.4356C205.37 69.4951 207.595 68.9181 209.538 67.7705C211.493 66.5255 213.209 64.9389 214.605 63.0861L214.583 41.9594Z" fill="#363630"/>
<path d="M268.984 69.4698C268.001 70.6611 266.835 71.6888 265.531 72.5147C264.181 73.3836 262.738 74.0978 261.229 74.6439C259.69 75.201 258.103 75.6186 256.489 75.8917C254.887 76.1695 253.265 76.312 251.639 76.3175C248.749 76.3479 245.879 75.8202 243.188 74.7632C240.652 73.7552 238.37 72.1994 236.503 70.2065C234.54 68.0638 233.044 65.5344 232.111 62.7796C231.011 59.5078 230.48 56.0709 230.54 52.6187C230.515 49.6671 230.995 46.7331 231.958 43.944C232.843 41.3651 234.232 38.9892 236.044 36.9557C237.857 34.9577 240.077 33.3746 242.555 32.3139C245.288 31.1494 248.233 30.5693 251.202 30.6104C253.719 30.5866 256.217 31.0403 258.566 31.9476C260.766 32.7955 262.76 34.1019 264.419 35.7803C266.127 37.5598 267.444 39.6796 268.284 42.0021C269.258 44.7039 269.733 47.5613 269.685 50.434C269.685 51.6605 269.553 52.4781 269.29 52.887C269.027 53.3128 268.534 53.5002 267.804 53.5002H238.227C238.259 55.9976 238.65 58.4773 239.386 60.8632C239.979 62.7708 240.953 64.5372 242.249 66.0544C243.441 67.4191 244.937 68.484 246.615 69.1632C248.425 69.8717 250.355 70.2216 252.298 70.1937C254.004 70.2287 255.706 69.9989 257.343 69.5124C258.596 69.1233 259.817 68.6334 260.991 68.0474C261.866 67.6036 262.717 67.1132 263.54 66.5782C264.054 66.1886 264.668 65.9538 265.311 65.9011C265.601 65.8873 265.891 65.9485 266.151 66.079C266.411 66.2095 266.634 66.4049 266.797 66.6464L268.984 69.4698ZM262.694 48.6625C262.714 46.975 262.455 45.296 261.93 43.6927C261.459 42.2538 260.7 40.9264 259.7 39.7919C258.717 38.6867 257.501 37.814 256.141 37.2368C254.631 36.6189 253.011 36.3147 251.38 36.3425C247.651 36.3425 244.702 37.4298 242.533 39.6045C240.365 41.7792 239.017 44.7943 238.49 48.6497L262.694 48.6625Z" fill="#363630"/>
<path d="M279.564 39.7282C281.488 37.2917 283.852 35.2402 286.534 33.681C289.214 32.15 292.253 31.3636 295.338 31.4027C297.496 31.3593 299.642 31.7473 301.649 32.544C303.401 33.2515 304.954 34.3789 306.172 35.8273C307.41 37.3506 308.327 39.1091 308.869 40.9972C309.507 43.2109 309.816 45.5068 309.786 47.8109V75.6704H305.59V47.8322C305.59 43.744 304.659 40.5387 302.796 38.2164C300.933 35.894 298.093 34.7329 294.276 34.7329C291.49 34.7267 288.755 35.4756 286.359 36.9005C283.787 38.4448 281.551 40.4927 279.785 42.9221V75.7129H275.589V32.1053H277.908C278.064 32.0896 278.221 32.1057 278.371 32.1528C278.521 32.1998 278.659 32.2769 278.778 32.3792C278.898 32.4815 278.995 32.607 279.064 32.748C279.133 32.8891 279.173 33.0427 279.182 33.1998L279.564 39.7282Z" fill="#363630"/>
<path d="M330.286 76.3947C327.605 76.3947 325.508 75.6566 323.996 74.1803C322.484 72.704 321.727 70.3305 321.724 67.0599V35.9171H314.997C314.441 35.9171 314.147 35.6957 314.147 35.257V34.4607L321.707 34.1541L322.361 17.5073C322.394 17.3247 322.47 17.1524 322.582 17.0048C322.635 16.927 322.707 16.8639 322.791 16.8215C322.875 16.779 322.968 16.7586 323.062 16.7621H324.022V34.1626H338.266V35.9171H324.022V66.9748C323.993 68.1426 324.171 69.3062 324.548 70.4114C324.847 71.2821 325.323 72.0811 325.946 72.7579C326.519 73.3642 327.23 73.8217 328.018 74.0908C328.855 74.3789 329.733 74.5229 330.618 74.5167C331.633 74.5348 332.642 74.357 333.59 73.9929C334.362 73.6858 335.102 73.3035 335.799 72.8516C336.321 72.5101 336.816 72.13 337.281 71.7146C337.659 71.3654 337.939 71.1865 338.131 71.1865C338.318 71.2092 338.49 71.3038 338.61 71.4505L339.18 72.3022C338.674 72.9252 338.093 73.4831 337.451 73.9631C336.778 74.4652 336.053 74.8935 335.289 75.2407C334.504 75.6053 333.685 75.8906 332.843 76.0924C332.006 76.2936 331.147 76.3951 330.286 76.3947V76.3947Z" fill="#363630"/>
<path d="M360.004 16.6002C361.029 16.5879 362.048 16.764 363.011 17.1198C363.885 17.4456 364.679 17.9566 365.339 18.618C365.998 19.2795 366.508 20.0757 366.833 20.9524C367.204 21.9417 367.387 22.9917 367.372 24.0484C367.387 25.1134 367.204 26.1719 366.833 27.1699C366.501 28.0558 365.986 28.8612 365.321 29.5334C364.659 30.1908 363.866 30.7002 362.994 31.0282C362.032 31.3875 361.013 31.5651 359.987 31.552C358.954 31.5653 357.927 31.3878 356.959 31.0282C356.081 30.6984 355.281 30.1894 354.61 29.5334C353.937 28.8653 353.417 28.0589 353.085 27.1699C352.712 26.1724 352.529 25.1136 352.546 24.0484C352.53 22.9916 352.713 21.9412 353.085 20.9524C353.419 20.0716 353.939 19.2739 354.61 18.6145C355.282 17.9624 356.082 17.4577 356.959 17.1325C357.933 16.7698 358.965 16.5894 360.004 16.6002V16.6002ZM360.004 28.324C360.431 28.3558 360.859 28.2751 361.246 28.0898C361.633 27.9046 361.964 27.6212 362.208 27.2679C362.675 26.5652 362.913 25.4963 362.913 24.0612C362.913 22.6261 362.675 21.5614 362.208 20.863C361.962 20.5125 361.63 20.2318 361.244 20.0482C360.857 19.8646 360.43 19.7844 360.004 19.8154C359.571 19.7832 359.137 19.8626 358.743 20.0459C358.349 20.2293 358.008 20.5105 357.753 20.863C357.277 21.5614 357.039 22.6303 357.039 24.0612C357.039 25.4921 357.277 26.5652 357.753 27.2679C358.005 27.6244 358.344 27.9091 358.739 28.0943C359.134 28.2794 359.57 28.3586 360.004 28.324Z" fill="#363630"/>
<path d="M373.624 19.0618C374.013 18.3507 374.538 17.724 375.17 17.2179C375.745 16.7731 376.453 16.536 377.179 16.545C377.746 16.5173 378.307 16.6807 378.771 17.0092L378.491 20.1946C378.471 20.3604 378.389 20.5125 378.262 20.6205C378.134 20.6991 377.986 20.7377 377.837 20.7312H377.544L377.166 20.6971L376.767 20.6545C376.635 20.6545 376.508 20.6545 376.397 20.6545C375.847 20.6257 375.306 20.805 374.881 21.157C374.465 21.5483 374.138 22.0246 373.921 22.5538V31.3563H369.585V16.8772H372.15C372.332 16.8727 372.513 16.8913 372.69 16.9325C372.823 16.9636 372.947 17.0231 373.055 17.1071C373.155 17.1908 373.231 17.2995 373.276 17.4223C373.336 17.5615 373.386 17.7053 373.424 17.8524L373.624 19.0618Z" fill="#363630"/>
<path d="M393.385 17.2726V18.8525C393.391 18.9564 393.376 19.0605 393.341 19.1585C393.306 19.2565 393.251 19.3465 393.181 19.4231C392.985 19.5932 392.745 19.7052 392.489 19.7468L391.44 19.981C391.497 20.1881 391.541 20.3986 391.571 20.6113C391.606 20.8324 391.623 21.056 391.622 21.2799C391.633 21.9603 391.477 22.6328 391.168 23.2388C390.864 23.8143 390.44 24.317 389.924 24.7123C389.361 25.1337 388.728 25.451 388.055 25.6491C387.306 25.8715 386.529 25.982 385.749 25.9771C385.524 25.9771 385.324 25.9771 385.09 25.9558C384.879 25.9436 384.67 25.918 384.462 25.8791C384.332 25.9368 384.22 26.0278 384.136 26.1429C384.053 26.2581 384.001 26.3933 383.986 26.5349C383.985 26.653 384.023 26.7682 384.094 26.8628C384.164 26.9574 384.264 27.0262 384.377 27.0587C384.71 27.1823 385.059 27.2583 385.413 27.2844C385.838 27.327 386.326 27.3526 386.874 27.3654C387.422 27.3781 387.974 27.4122 388.543 27.4633C389.106 27.5149 389.665 27.6017 390.217 27.7231C390.734 27.8315 391.229 28.0304 391.678 28.3107C392.106 28.5804 392.462 28.9519 392.714 29.3924C392.99 29.9165 393.124 30.5036 393.105 31.0958C393.099 31.7633 392.936 32.4201 392.629 33.0122C392.289 33.6611 391.812 34.2279 391.232 34.673C390.55 35.1922 389.782 35.5871 388.964 35.8399C387.968 36.1435 386.93 36.2872 385.889 36.2657C384.897 36.2809 383.907 36.1722 382.941 35.9421C382.216 35.7675 381.522 35.4801 380.886 35.0904C380.392 34.7915 379.978 34.3764 379.68 33.881C379.423 33.4494 379.287 32.9567 379.285 32.4543C379.264 31.8676 379.464 31.2947 379.845 30.8489C380.275 30.3807 380.814 30.0254 381.412 29.814C381.04 29.6045 380.734 29.2931 380.531 28.9161C380.328 28.5392 380.236 28.1121 380.266 27.6848C380.269 27.4548 380.306 27.2267 380.376 27.0076C380.459 26.758 380.579 26.5225 380.733 26.3092C380.909 26.0701 381.113 25.8528 381.34 25.6619C381.598 25.4434 381.884 25.2601 382.19 25.1168C381.469 24.7467 380.852 24.2004 380.397 23.5284C379.951 22.846 379.722 22.0443 379.739 21.2288C379.73 20.5475 379.889 19.8745 380.202 19.2698C380.511 18.6865 380.946 18.1801 381.476 17.7878C382.047 17.3647 382.688 17.0474 383.37 16.851C384.139 16.6272 384.936 16.5168 385.736 16.523C386.865 16.4997 387.984 16.7387 389.006 17.2214L393.385 17.2726ZM389.138 31.8454C389.145 31.6882 389.105 31.5324 389.022 31.3987C388.94 31.2649 388.819 31.1593 388.675 31.0958C388.294 30.9227 387.889 30.812 387.473 30.7679C386.98 30.7041 386.428 30.6657 385.817 30.6487C385.205 30.6317 384.598 30.6019 383.99 30.5465C383.738 30.7166 383.514 30.9266 383.328 31.1683C383.156 31.3896 383.065 31.663 383.069 31.9433C383.065 32.1374 383.111 32.3292 383.2 32.5012C383.313 32.6845 383.475 32.8321 383.668 32.927C383.953 33.0673 384.258 33.1635 384.572 33.2124C385.045 33.2895 385.524 33.3251 386.004 33.3188C386.52 33.3274 387.036 33.2889 387.545 33.2038C387.878 33.1533 388.201 33.0498 388.501 32.8972C388.71 32.7959 388.884 32.6324 388.998 32.4288C389.09 32.2482 389.138 32.0482 389.138 31.8454ZM385.783 23.3069C386.05 23.3474 386.323 23.3264 386.581 23.2456C386.839 23.1648 387.075 23.0263 387.272 22.8404C387.469 22.6546 387.621 22.4264 387.717 22.173C387.813 21.9197 387.85 21.6477 387.826 21.3778C387.84 21.1271 387.804 20.8762 387.721 20.6393C387.638 20.4025 387.509 20.1845 387.341 19.998C386.887 19.6714 386.342 19.4958 385.783 19.4958C385.224 19.4958 384.678 19.6714 384.224 19.998C384.056 20.1845 383.927 20.4025 383.844 20.6393C383.761 20.8762 383.726 21.1271 383.74 21.3778C383.736 21.6396 383.776 21.9001 383.859 22.1486C383.936 22.3761 384.062 22.584 384.228 22.7576C384.408 22.9437 384.625 23.0889 384.865 23.1834C385.156 23.2784 385.461 23.3202 385.766 23.3069H385.783Z" fill="#363630"/>
<path d="M96.196 110.041H105.964V121.637C104.606 122.643 103.082 123.403 101.462 123.881C99.8409 124.353 98.1603 124.588 96.472 124.579C94.3645 124.608 92.2698 124.247 90.2925 123.515C88.5244 122.86 86.9033 121.859 85.5231 120.572C84.2016 119.322 83.1594 117.805 82.4652 116.122C81.7392 114.35 81.3739 112.45 81.3907 110.535C81.3683 108.604 81.7143 106.688 82.41 104.888C83.0641 103.224 84.0613 101.718 85.3362 100.467C86.6483 99.1915 88.2102 98.2025 89.9231 97.563C91.8454 96.8488 93.8828 96.4965 95.9327 96.5239C97.015 96.5197 98.0955 96.6152 99.1605 96.8093C100.109 96.9821 101.04 97.24 101.942 97.5801C102.757 97.8911 103.538 98.2834 104.274 98.7512C104.949 99.1797 105.582 99.6717 106.164 100.22L104.312 103.031C104.189 103.235 104.026 103.411 103.834 103.55C103.641 103.689 103.422 103.788 103.191 103.84C102.672 103.929 102.139 103.808 101.709 103.504C101.203 103.201 100.732 102.937 100.282 102.72C99.8425 102.501 99.3849 102.322 98.9141 102.184C98.4337 102.041 97.9421 101.94 97.4446 101.881C96.868 101.815 96.288 101.783 95.7076 101.788C94.5995 101.769 93.5 101.984 92.4798 102.418C91.5441 102.824 90.7089 103.432 90.0335 104.198C89.3385 105.007 88.8102 105.947 88.479 106.962C88.1001 108.121 87.915 109.336 87.9312 110.556C87.9084 111.876 88.1124 113.189 88.5342 114.44C88.896 115.503 89.4745 116.479 90.2331 117.306C90.9725 118.087 91.8744 118.694 92.8748 119.086C93.9583 119.504 95.1113 119.712 96.2724 119.699C96.9753 119.706 97.6766 119.63 98.362 119.473C98.983 119.321 99.5909 119.118 100.18 118.869V114.704H97.4616C97.1172 114.724 96.7786 114.608 96.5188 114.38C96.408 114.277 96.3204 114.152 96.2618 114.012C96.2032 113.873 96.175 113.722 96.179 113.571L96.196 110.041Z" fill="#164453"/>
<path d="M115.432 96.0508V124.276H109.579V96.0508H115.432Z" fill="#164453"/>
<path d="M128.414 104.423C129.798 104.406 131.172 104.643 132.47 105.121C133.647 105.556 134.719 106.237 135.613 107.118C136.507 108.016 137.202 109.093 137.652 110.278C138.153 111.611 138.399 113.027 138.378 114.452C138.4 115.89 138.153 117.32 137.652 118.668C137.204 119.862 136.509 120.948 135.613 121.853C134.719 122.741 133.648 123.429 132.47 123.872C131.174 124.357 129.798 124.597 128.414 124.579C127.021 124.598 125.636 124.358 124.329 123.872C123.143 123.428 122.062 122.74 121.156 121.853C120.251 120.952 119.549 119.865 119.101 118.668C118.599 117.32 118.353 115.89 118.374 114.452C118.353 113.027 118.599 111.611 119.101 110.278C119.552 109.089 120.253 108.012 121.156 107.118C122.063 106.238 123.144 105.558 124.329 105.121C125.637 104.642 127.022 104.405 128.414 104.423V104.423ZM128.414 120.243C129.759 120.243 130.75 119.768 131.387 118.817C132.024 117.866 132.342 116.423 132.339 114.49C132.339 112.557 132.022 111.117 131.387 110.172C130.753 109.226 129.762 108.755 128.414 108.758C127.03 108.758 126.019 109.231 125.374 110.172C124.728 111.113 124.414 112.557 124.414 114.49C124.414 116.423 124.732 117.871 125.374 118.817C126.015 119.762 127.03 120.243 128.414 120.243V120.243Z" fill="#164453"/>
<path d="M147.173 106.799C147.909 106.107 148.747 105.532 149.658 105.096C150.598 104.652 151.626 104.43 152.665 104.444C153.698 104.424 154.721 104.651 155.65 105.105C156.579 105.558 157.387 106.227 158.008 107.055C158.684 107.964 159.187 108.99 159.49 110.083C159.849 111.372 160.024 112.705 160.008 114.043C160.025 115.502 159.822 116.955 159.405 118.353C159.05 119.558 158.474 120.686 157.706 121.679C156.996 122.58 156.097 123.314 155.073 123.829C154.016 124.347 152.852 124.608 151.675 124.592C151.142 124.599 150.611 124.541 150.091 124.421C149.648 124.316 149.219 124.155 148.817 123.94C148.431 123.738 148.073 123.488 147.751 123.195C147.421 122.9 147.109 122.586 146.817 122.254L146.609 123.233C146.56 123.57 146.384 123.875 146.116 124.085C145.844 124.249 145.529 124.328 145.211 124.311H141.325V96.0508H147.173V106.799ZM147.173 118.962C147.568 119.407 148.059 119.755 148.609 119.98C149.108 120.178 149.639 120.28 150.176 120.282C150.702 120.286 151.223 120.18 151.705 119.971C152.188 119.746 152.602 119.394 152.903 118.953C153.277 118.384 153.542 117.75 153.684 117.084C153.892 116.146 153.988 115.187 153.969 114.226C153.982 113.389 153.909 112.553 153.752 111.731C153.643 111.137 153.425 110.568 153.111 110.053C152.855 109.644 152.488 109.316 152.053 109.107C151.599 108.906 151.106 108.807 150.609 108.818C149.956 108.802 149.31 108.964 148.741 109.286C148.148 109.659 147.619 110.125 147.173 110.666V118.962Z" fill="#164453"/>
<path d="M162.573 107.438C163.723 106.415 165.061 105.626 166.51 105.113C168 104.594 169.567 104.335 171.144 104.347C172.237 104.33 173.323 104.525 174.342 104.922C175.252 105.278 176.076 105.825 176.759 106.527C177.429 107.226 177.947 108.057 178.279 108.967C178.639 109.957 178.818 111.005 178.806 112.059V124.277H176.126C175.689 124.306 175.252 124.228 174.852 124.051C174.511 123.832 174.26 123.498 174.142 123.11L173.718 122.032C173.265 122.421 172.793 122.786 172.303 123.127C171.86 123.437 171.39 123.705 170.898 123.928C170.401 124.151 169.881 124.317 169.347 124.422C168.748 124.532 168.139 124.585 167.53 124.579C166.704 124.59 165.882 124.472 165.092 124.23C164.408 124.022 163.776 123.672 163.236 123.204C162.715 122.736 162.311 122.152 162.055 121.5C161.763 120.759 161.619 119.968 161.631 119.171C161.643 118.43 161.825 117.701 162.161 117.041C162.59 116.233 163.221 115.551 163.992 115.061C165.072 114.373 166.257 113.867 167.5 113.562C169.323 113.117 171.192 112.89 173.068 112.885V112.055C173.068 110.913 172.834 110.083 172.359 109.576C172.097 109.313 171.783 109.108 171.437 108.977C171.09 108.845 170.719 108.79 170.35 108.814C169.775 108.796 169.201 108.872 168.651 109.04C168.245 109.175 167.852 109.345 167.475 109.546C167.126 109.738 166.791 109.904 166.464 110.057C166.094 110.216 165.694 110.293 165.292 110.283C164.928 110.294 164.571 110.188 164.272 109.981C164.003 109.787 163.773 109.544 163.593 109.265L162.573 107.438ZM173.106 116.322C172.137 116.35 171.172 116.451 170.218 116.624C169.598 116.73 168.995 116.919 168.426 117.186C168.055 117.354 167.739 117.623 167.513 117.961C167.344 118.246 167.256 118.571 167.258 118.902C167.229 119.163 167.263 119.427 167.358 119.672C167.453 119.916 167.605 120.135 167.802 120.308C168.28 120.61 168.843 120.752 169.407 120.712C170.088 120.726 170.765 120.593 171.39 120.321C172.027 119.999 172.603 119.566 173.089 119.043L173.106 116.322Z" fill="#164453"/>
<path d="M188.395 96.0508V124.276H182.543V96.0508H188.395Z" fill="#164453"/>
<path d="M208.081 124.579C207.241 124.588 206.407 124.444 205.618 124.153C204.942 123.907 204.329 123.515 203.821 123.004C203.329 122.489 202.952 121.875 202.717 121.202C202.459 120.445 202.332 119.648 202.344 118.847V108.759H200.683C200.532 108.767 200.382 108.742 200.242 108.687C200.102 108.631 199.976 108.546 199.871 108.436C199.767 108.327 199.688 108.197 199.639 108.054C199.59 107.911 199.572 107.759 199.587 107.609V105.331L202.692 104.726L203.843 99.9563C203.905 99.6735 204.07 99.4241 204.305 99.2564C204.541 99.0888 204.83 99.0149 205.117 99.0492H208.213V104.764H213.063V108.759H208.213V118.473C208.197 118.872 208.314 119.266 208.544 119.593C208.657 119.735 208.802 119.849 208.968 119.923C209.133 119.997 209.314 120.03 209.496 120.018C209.677 120.023 209.859 120.001 210.035 119.955C210.165 119.914 210.291 119.863 210.413 119.801L210.715 119.652C210.818 119.604 210.932 119.581 211.046 119.584C211.197 119.578 211.346 119.621 211.47 119.708C211.602 119.817 211.714 119.948 211.802 120.095L213.573 122.867C212.804 123.439 211.942 123.872 211.025 124.145C210.07 124.433 209.078 124.58 208.081 124.579V124.579Z" fill="#164453"/>
<path d="M221.421 106.429C222.112 105.834 222.884 105.342 223.715 104.968C224.655 104.573 225.669 104.383 226.688 104.41C227.662 104.392 228.629 104.583 229.525 104.968C230.326 105.323 231.04 105.851 231.614 106.514C232.194 107.205 232.627 108.006 232.889 108.869C233.183 109.835 233.326 110.84 233.313 111.85V124.276H227.461V111.85C227.509 111.052 227.276 110.262 226.803 109.619C226.562 109.344 226.261 109.129 225.923 108.99C225.586 108.851 225.221 108.792 224.857 108.818C224.234 108.812 223.618 108.951 223.057 109.222C222.464 109.514 221.914 109.885 221.421 110.325V124.276H215.573V96.0508H221.421V106.429Z" fill="#164453"/>
<path d="M243.675 99.3684C243.677 99.8212 243.58 100.269 243.391 100.68C243.202 101.082 242.938 101.443 242.614 101.745C242.28 102.058 241.893 102.307 241.471 102.481C241.031 102.665 240.559 102.758 240.082 102.754C239.622 102.758 239.167 102.665 238.744 102.481C238.335 102.305 237.961 102.055 237.64 101.745C237.32 101.441 237.063 101.076 236.884 100.672C236.701 100.259 236.609 99.8116 236.612 99.3599C236.608 98.8999 236.701 98.4443 236.884 98.0227C237.251 97.2008 237.918 96.5513 238.749 96.2085C239.172 96.0296 239.627 95.9398 240.087 95.9445C240.562 95.9399 241.034 96.0296 241.475 96.2085C241.9 96.3764 242.288 96.6251 242.618 96.941C242.942 97.2541 243.204 97.6253 243.391 98.0355C243.58 98.4542 243.677 98.9088 243.675 99.3684V99.3684ZM243.068 104.726V124.277H237.22V104.726H243.068Z" fill="#164453"/>
<path d="M252.565 106.855C252.935 106.506 253.325 106.179 253.733 105.876C254.136 105.574 254.57 105.317 255.028 105.109C255.508 104.897 256.007 104.733 256.519 104.62C257.093 104.496 257.678 104.436 258.265 104.441C259.24 104.422 260.209 104.613 261.106 104.999C261.907 105.353 262.619 105.881 263.191 106.544C263.77 107.235 264.204 108.036 264.465 108.899C264.76 109.865 264.903 110.871 264.89 111.88V124.307H259.055V111.851C259.103 111.052 258.87 110.262 258.396 109.619C258.155 109.345 257.854 109.129 257.517 108.991C257.18 108.852 256.815 108.793 256.451 108.818C255.828 108.813 255.212 108.951 254.65 109.223C254.058 109.515 253.508 109.886 253.015 110.326V124.277H247.167V104.726H250.79C251.105 104.7 251.419 104.783 251.68 104.961C251.942 105.139 252.134 105.402 252.225 105.705L252.565 106.855Z" fill="#164453"/>
<path d="M274.531 96.0508V111.871H275.402C275.687 111.888 275.972 111.832 276.23 111.71C276.454 111.571 276.647 111.389 276.799 111.173L280.498 105.667C280.7 105.355 280.981 105.103 281.313 104.938C281.644 104.772 282.014 104.699 282.384 104.725H287.744L282.685 111.684C282.219 112.3 281.643 112.824 280.986 113.23C281.28 113.445 281.547 113.695 281.781 113.975C282.03 114.275 282.257 114.592 282.46 114.925L287.981 124.294H282.685C282.297 124.304 281.912 124.23 281.556 124.076C281.218 123.912 280.94 123.646 280.761 123.314L277.062 116.394C276.942 116.141 276.752 115.928 276.514 115.781C276.245 115.672 275.955 115.624 275.665 115.64H274.531V124.294H268.683V96.0508H274.531Z" fill="#164453"/>
<path d="M296.352 99.3685C296.354 99.8213 296.257 100.269 296.068 100.68C295.875 101.083 295.607 101.444 295.278 101.745C294.945 102.058 294.558 102.307 294.135 102.481C293.696 102.665 293.223 102.758 292.747 102.754C292.287 102.758 291.831 102.665 291.409 102.481C290.999 102.305 290.625 102.055 290.305 101.745C289.984 101.441 289.727 101.076 289.549 100.672C289.364 100.259 289.27 99.812 289.273 99.36C289.27 98.8997 289.364 98.4441 289.549 98.0228C289.912 97.1968 290.578 96.5426 291.409 96.1959C291.832 96.0166 292.287 95.9267 292.747 95.9318C293.222 95.9272 293.694 96.017 294.135 96.1959C294.56 96.3637 294.948 96.6124 295.278 96.9284C295.602 97.2414 295.864 97.6127 296.051 98.0228C296.248 98.4441 296.35 98.9033 296.352 99.3685ZM295.745 104.726V124.277H289.897V104.726H295.745Z" fill="#164453"/>
<path d="M305.242 106.855C305.611 106.505 306.001 106.178 306.41 105.876C306.806 105.575 307.233 105.318 307.684 105.109C308.704 104.656 309.809 104.428 310.924 104.441C311.899 104.423 312.866 104.613 313.761 104.998C314.563 105.353 315.277 105.881 315.851 106.544C316.43 107.235 316.864 108.036 317.125 108.899C317.42 109.865 317.563 110.871 317.55 111.88V124.307H311.731V111.85C311.78 111.052 311.547 110.262 311.073 109.619C310.832 109.344 310.531 109.129 310.194 108.991C309.856 108.852 309.492 108.793 309.128 108.818C308.505 108.813 307.888 108.951 307.327 109.223C306.735 109.514 306.185 109.886 305.692 110.326V124.277H299.844V104.726H303.467C303.781 104.7 304.096 104.783 304.357 104.961C304.618 105.139 304.811 105.402 304.902 105.705L305.242 106.855Z" fill="#164453"/>
<path d="M339.116 105.33V107.46C339.124 107.6 339.105 107.74 339.058 107.873C339.011 108.005 338.939 108.127 338.844 108.23C338.58 108.459 338.256 108.607 337.91 108.656L336.496 108.976C336.571 109.256 336.63 109.54 336.674 109.827C336.719 110.126 336.742 110.428 336.742 110.73C336.755 111.648 336.544 112.554 336.126 113.371C335.713 114.151 335.133 114.83 334.427 115.359C333.671 115.935 332.816 116.368 331.905 116.637C330.893 116.932 329.844 117.075 328.792 117.063C328.49 117.063 328.193 117.063 327.904 117.033C327.619 117.016 327.335 116.982 327.054 116.931C326.879 117.009 326.728 117.131 326.615 117.287C326.502 117.443 326.433 117.625 326.413 117.816C326.413 117.975 326.464 118.13 326.559 118.258C326.654 118.385 326.788 118.478 326.94 118.523C327.389 118.69 327.859 118.792 328.337 118.826C328.919 118.881 329.573 118.919 330.312 118.941C331.051 118.962 331.798 119 332.567 119.068C333.325 119.139 334.078 119.255 334.822 119.418C335.519 119.568 336.185 119.836 336.793 120.21C337.373 120.574 337.853 121.077 338.19 121.675C338.567 122.39 338.749 123.192 338.717 124C338.713 124.901 338.493 125.787 338.076 126.585C337.62 127.463 336.976 128.23 336.19 128.829C335.27 129.529 334.235 130.062 333.132 130.405C331.787 130.818 330.385 131.018 328.978 130.997C327.642 131.022 326.308 130.879 325.007 130.571C324.029 130.338 323.093 129.953 322.234 129.43C321.564 129.029 321.002 128.469 320.599 127.798C320.256 127.217 320.074 126.554 320.072 125.878C320.045 125.085 320.314 124.31 320.828 123.706C321.412 123.075 322.141 122.597 322.952 122.313C322.451 122.03 322.04 121.611 321.767 121.104C321.494 120.597 321.368 120.023 321.406 119.447C321.409 119.136 321.461 118.827 321.559 118.532C321.666 118.194 321.828 117.876 322.039 117.591C322.274 117.265 322.549 116.97 322.858 116.713C323.215 116.417 323.609 116.169 324.031 115.977C323.06 115.482 322.228 114.749 321.614 113.847C321.012 112.926 320.703 111.844 320.726 110.743C320.713 109.822 320.927 108.912 321.351 108.094C321.761 107.309 322.341 106.627 323.049 106.097C323.816 105.522 324.679 105.09 325.598 104.819C326.635 104.523 327.709 104.379 328.787 104.393C330.313 104.364 331.824 104.687 333.204 105.339L339.116 105.33ZM333.344 124.996C333.355 124.784 333.301 124.574 333.189 124.394C333.078 124.214 332.914 124.072 332.72 123.987C332.206 123.756 331.658 123.612 331.098 123.561C330.355 123.466 329.608 123.412 328.859 123.399C328.035 123.382 327.214 123.336 326.396 123.259C326.054 123.493 325.751 123.78 325.5 124.111C325.269 124.41 325.147 124.78 325.152 125.158C325.149 125.42 325.21 125.679 325.33 125.912C325.478 126.165 325.699 126.368 325.963 126.495C326.347 126.685 326.758 126.816 327.182 126.883C327.821 126.987 328.467 127.034 329.114 127.023C329.81 127.035 330.505 126.984 331.191 126.87C331.635 126.795 332.065 126.651 332.465 126.444C332.747 126.306 332.981 126.087 333.136 125.814C333.273 125.563 333.345 125.282 333.344 124.996V124.996ZM328.83 113.473C329.798 113.473 330.506 113.231 330.953 112.749C331.399 112.228 331.632 111.557 331.603 110.871C331.622 110.532 331.575 110.193 331.464 109.873C331.352 109.553 331.179 109.258 330.953 109.005C330.514 108.554 329.807 108.328 328.83 108.328C327.853 108.328 327.145 108.554 326.706 109.005C326.481 109.258 326.307 109.553 326.196 109.873C326.084 110.193 326.037 110.532 326.056 110.871C326.053 111.224 326.108 111.575 326.218 111.91C326.319 112.218 326.491 112.498 326.719 112.727C326.958 112.972 327.248 113.159 327.568 113.277C327.973 113.42 328.401 113.486 328.83 113.473Z" fill="#164453"/>
<path d="M381.811 6.27285V5.84699C381.811 5.8257 381.811 5.80441 381.811 5.78312C381.83 5.54539 381.866 5.30923 381.917 5.0762C382.001 4.56162 382.152 4.06043 382.367 3.5857C382.921 2.35595 383.865 1.344 385.051 0.706921C385.583 0.418836 386.156 0.214867 386.75 0.102214C387.002 0.0508904 387.258 0.0167351 387.514 0H387.714H388.173C388.49 0.0130557 388.805 0.0515136 389.116 0.114989C390.479 0.389497 391.706 1.12455 392.594 2.19741C392.989 2.6707 393.308 3.20217 393.541 3.77308C393.867 4.56514 394.022 5.41739 393.997 6.27389C393.971 7.13039 393.765 7.97176 393.392 8.7428C393.129 9.28718 392.787 9.78946 392.377 10.2333C391.832 10.8227 391.176 11.2983 390.448 11.633C389.719 11.9677 388.931 12.1549 388.13 12.1837C387.659 12.2003 387.187 12.1632 386.724 12.073C386.111 11.9522 385.521 11.7352 384.975 11.43C384.263 11.036 383.638 10.5031 383.136 9.8628C382.675 9.28371 382.327 8.62374 382.108 7.91666C381.964 7.45751 381.874 6.98297 381.84 6.50281L381.811 6.27285ZM387.892 0.902824C386.874 0.901981 385.878 1.20408 385.031 1.7709C384.184 2.33771 383.523 3.14375 383.133 4.08704C382.743 5.03033 382.641 6.06846 382.839 7.07007C383.038 8.07167 383.528 8.99173 384.248 9.71382C384.968 10.4359 385.886 10.9276 386.885 11.1266C387.884 11.3256 388.919 11.223 389.86 10.8318C390.801 10.4407 391.605 9.77846 392.17 8.92902C392.735 8.07959 393.036 7.0811 393.036 6.05992C393.036 5.38252 392.904 4.71166 392.645 4.08572C392.387 3.45977 392.008 2.89105 391.53 2.41206C391.053 1.93306 390.486 1.55321 389.861 1.29424C389.237 1.03527 388.568 0.902263 387.892 0.902824V0.902824Z" fill="#0C3E4D"/>
<path d="M389.06 6.73667L390.42 8.86596H389.528C389.514 8.86771 389.501 8.86541 389.488 8.85934C389.476 8.85327 389.466 8.84371 389.46 8.8319L388.186 6.83463C388.181 6.82384 388.173 6.81473 388.163 6.80861C388.154 6.80249 388.142 6.79967 388.13 6.80055H386.954V8.86171H386.02V3.2404H388.483C388.738 3.23252 388.994 3.26559 389.239 3.33835C389.485 3.40256 389.718 3.51075 389.927 3.65774C390.188 3.8392 390.376 4.1079 390.458 4.41576C390.493 4.58177 390.52 4.74949 390.538 4.91827C390.552 5.14335 390.529 5.36914 390.471 5.58687C390.438 5.73957 390.376 5.88434 390.288 6.01273C390.081 6.30344 389.781 6.5151 389.438 6.61317C389.315 6.6515 389.192 6.68132 389.069 6.71539L389.06 6.73667ZM386.937 6.01698H388.287C388.382 6.01923 388.476 6.01066 388.568 5.99143C388.716 5.95736 388.865 5.90626 388.993 5.86367C389.074 5.84189 389.149 5.80265 389.213 5.74868C389.361 5.64384 389.471 5.49467 389.528 5.32283C389.574 5.13262 389.574 4.93387 389.528 4.74367C389.519 4.65981 389.493 4.57871 389.451 4.50544C389.409 4.43216 389.353 4.36829 389.286 4.31781C389.188 4.25393 389.094 4.19005 388.993 4.13043C388.917 4.08522 388.833 4.05621 388.746 4.04526L388.551 4.01971C388.462 4.01971 388.372 3.99416 388.287 3.99416H386.894L386.937 6.01698Z" fill="#0C3E4D"/>
</svg>
