<svg width="151" height="50" viewBox="0 0 151 50" fill="none" xmlns="http://www.w3.org/2000/svg">
<path d="M4.85536 14.2252C5.32075 13.3717 5.95282 12.62 6.71418 12.0146C7.40053 11.4825 8.24777 11.1993 9.11663 11.2117C9.89792 11.2117 10.5343 11.3954 11.0259 11.7627L10.6906 15.5759C10.6637 15.7713 10.5651 15.9497 10.4139 16.0765C10.256 16.1742 10.072 16.2213 9.88652 16.2114C9.797 16.2114 9.6798 16.2114 9.53494 16.1936C9.39008 16.1757 9.2387 16.1692 9.08245 16.1529L8.60554 16.1025C8.45855 16.0858 8.31075 16.0771 8.16281 16.0765C7.40323 16.0765 6.79773 16.2775 6.34632 16.6796C5.84435 17.1476 5.45007 17.7188 5.19067 18.3537V28.888H0V11.5514H3.0812C3.30016 11.5462 3.51891 11.5686 3.73227 11.618C3.89047 11.6553 4.03872 11.7263 4.16686 11.8261C4.28753 11.9265 4.38006 12.0564 4.43543 12.2032C4.50537 12.388 4.55982 12.5783 4.59819 12.7721L4.85536 14.2252Z" fill="#0C3E4D"/>
<path d="M17.9354 13.3393C18.255 13.0529 18.5932 12.7879 18.9479 12.5461C19.3016 12.3053 19.677 12.098 20.0693 11.9268C20.479 11.7507 20.9055 11.6162 21.3422 11.5254C21.8243 11.4282 22.3152 11.3808 22.8071 11.384C23.664 11.3687 24.5144 11.5349 25.3023 11.8716C26.0072 12.1799 26.6336 12.6427 27.1351 13.2255C27.6468 13.8334 28.0289 14.5392 28.2582 15.2996C28.5167 16.1559 28.6435 17.0465 28.6342 17.9409V28.8928H24.0295V17.9376C24.0295 16.9786 23.8065 16.2347 23.3605 15.7059C22.9145 15.1771 22.2558 14.9122 21.3845 14.9111C20.7521 14.9077 20.1276 15.0507 19.5599 15.3288C18.9584 15.6299 18.4089 16.0249 17.9322 16.4991V28.8896H13.3145V3.95911H17.9354V13.3393Z" fill="#0C3E4D"/>
<path d="M35.2278 20.8309C35.274 21.6079 35.4319 22.3743 35.6966 23.1064C35.9113 23.6962 36.2435 24.2365 36.6732 24.6945C37.0733 25.1111 37.5631 25.4312 38.1056 25.6307C38.6928 25.8434 39.3137 25.9486 39.9383 25.9411C40.5249 25.9533 41.1098 25.8738 41.6718 25.7055C42.1098 25.5688 42.5355 25.3959 42.9447 25.1886C43.306 24.9984 43.625 24.8261 43.8985 24.6701C44.1381 24.5239 44.4121 24.4431 44.6928 24.436C44.8438 24.4265 44.9947 24.4569 45.1302 24.5243C45.2657 24.5916 45.3809 24.6935 45.4643 24.8196L46.6525 26.3247C46.2089 26.847 45.6899 27.3006 45.1127 27.6706C44.5514 28.0283 43.9506 28.3201 43.3223 28.5402C42.7088 28.7563 42.0752 28.9104 41.4309 29.0002C40.8124 29.0876 40.1886 29.1321 39.564 29.1334C38.4262 29.1433 37.2964 28.9422 36.2321 28.5402C35.2219 28.1564 34.3076 27.5574 33.553 26.7847C32.7632 25.9604 32.1535 24.9813 31.7625 23.9094C31.306 22.6356 31.0854 21.2895 31.1114 19.9369C31.1039 18.8115 31.2968 17.6937 31.6811 16.6357C32.0383 15.639 32.5918 14.7237 33.3088 13.944C34.0378 13.1657 34.9215 12.5479 35.9033 12.1301C36.9968 11.67 38.1741 11.442 39.3605 11.4604C40.3841 11.4523 41.4005 11.6302 42.3603 11.9854C43.2473 12.3136 44.0525 12.8299 44.7205 13.4986C45.4008 14.1952 45.9285 15.0255 46.27 15.9368C46.6592 16.9932 46.849 18.1125 46.8299 19.238C46.8299 19.8637 46.7632 20.2831 46.6297 20.5009C46.4963 20.7187 46.2391 20.826 45.8598 20.826L35.2278 20.8309ZM43.1139 18.3391C43.1166 17.8261 43.0403 17.3157 42.8877 16.8258C42.7461 16.3701 42.5154 15.9469 42.209 15.5808C41.8964 15.2149 41.5038 14.9258 41.0614 14.7356C40.5511 14.52 40.0008 14.4147 39.4468 14.4268C38.2532 14.4268 37.3124 14.7665 36.6244 15.4459C35.9364 16.1253 35.4986 17.0897 35.3109 18.3391H43.1139Z" fill="#0C3E4D"/>
<path d="M60.2749 14.929C60.205 15.0642 60.1013 15.1789 59.9738 15.2622C59.8462 15.3334 59.7015 15.3682 59.5555 15.363C59.3376 15.3555 59.1248 15.2953 58.9354 15.1875C58.7129 15.0705 58.4509 14.9393 58.1492 14.7941C57.8062 14.6345 57.4507 14.5029 57.0863 14.4008C56.6192 14.2771 56.1372 14.218 55.654 14.2252C55.2435 14.2217 54.8347 14.2765 54.4397 14.3878C54.1072 14.4787 53.7951 14.6321 53.5201 14.8396C53.2786 15.0224 53.0812 15.2567 52.9422 15.5256C52.8077 15.7863 52.7384 16.0758 52.7404 16.3691C52.7287 16.7386 52.8612 17.0982 53.1099 17.372C53.388 17.6636 53.7195 17.8992 54.0865 18.0661C54.5299 18.2772 54.9893 18.4533 55.4603 18.5927C55.9724 18.7487 56.4971 18.9162 57.0342 19.095C57.5694 19.2732 58.0947 19.4793 58.6082 19.7126C59.1029 19.9356 59.5646 20.2255 59.9803 20.5741C60.3859 20.9166 60.718 21.3373 60.9569 21.811C61.2159 22.3627 61.3419 22.9672 61.3248 23.5762C61.3325 24.3392 61.1847 25.0957 60.8902 25.7998C60.6016 26.4766 60.167 27.0816 59.6174 27.5715C59.0107 28.1011 58.3008 28.4996 57.5323 28.7417C56.6097 29.0351 55.6455 29.1768 54.6773 29.1611C54.1016 29.1612 53.5272 29.1068 52.9618 28.9986C52.4261 28.8964 51.8997 28.7507 51.3878 28.563C50.9051 28.3862 50.4398 28.1653 49.9978 27.903C49.5918 27.662 49.2102 27.3822 48.8584 27.0676L49.695 25.6957C49.788 25.5372 49.9167 25.4025 50.071 25.3024C50.2411 25.2032 50.4358 25.1542 50.6326 25.161C50.8816 25.1655 51.1236 25.2441 51.3276 25.3869C51.5555 25.5364 51.8159 25.7022 52.1317 25.8745C52.4862 26.0724 52.859 26.2357 53.245 26.3622C53.7715 26.526 54.3214 26.6023 54.8727 26.5881C55.3433 26.5973 55.8125 26.532 56.2627 26.3947C56.6207 26.2873 56.953 26.1081 57.2393 25.868C57.4846 25.6609 57.6794 25.4008 57.809 25.1073C57.9323 24.8198 57.9949 24.5099 57.9929 24.1971C58.008 23.8068 57.8769 23.4249 57.6251 23.126C57.3495 22.8252 57.0178 22.5812 56.6485 22.4075C56.2004 22.1919 55.7356 22.013 55.2584 21.8728C54.7397 21.7167 54.2124 21.5493 53.6763 21.3705C53.1386 21.1922 52.6105 20.986 52.0942 20.7529C51.5878 20.527 51.119 20.2249 50.7042 19.8573C50.2931 19.4874 49.9609 19.0385 49.7276 18.5374C49.4659 17.9396 49.3403 17.2912 49.3597 16.639C49.3566 15.9643 49.4992 15.297 49.7779 14.6824C50.0565 14.0678 50.4646 13.5204 50.9744 13.0777C51.5475 12.5847 52.2108 12.2071 52.9276 11.9659C53.7937 11.6787 54.7024 11.5402 55.6149 11.5563C56.6842 11.5419 57.7466 11.7289 58.7465 12.1073C59.6202 12.4473 60.4142 12.9636 61.079 13.6238L60.2749 14.929Z" fill="#0C3E4D"/>
<path d="M67.9931 6.65083C67.9945 6.94733 67.9317 7.24062 67.8092 7.51067C67.692 7.77857 67.5265 8.02265 67.3209 8.23073C67.1123 8.43963 66.8645 8.60534 66.5917 8.71835C66.3162 8.83485 66.02 8.89456 65.7209 8.89389C65.4274 8.89554 65.1368 8.83574 64.868 8.71835C64.3293 8.48439 63.9006 8.05345 63.67 7.51392C63.553 7.24235 63.4932 6.94969 63.4942 6.65408C63.4921 6.35258 63.5519 6.05385 63.67 5.77636C63.9006 5.23684 64.3293 4.8059 64.868 4.57194C65.1368 4.45455 65.4274 4.39475 65.7209 4.3964C66.02 4.39573 66.3162 4.45543 66.5917 4.57194C66.8645 4.68494 67.1123 4.85065 67.3209 5.05956C67.5265 5.26763 67.692 5.51172 67.8092 5.77962C67.932 6.05359 67.9947 6.35065 67.9931 6.65083ZM67.3746 11.9009V28.8896H64.1095V11.9025L67.3746 11.9009Z" fill="#0C3E4D"/>
<path d="M85.5245 4.21277V28.8897H83.5485C83.3506 28.9071 83.1533 28.8501 82.9952 28.7298C82.8372 28.6096 82.7297 28.4347 82.694 28.2395L82.4092 26.289C81.7168 27.1199 80.8804 27.8197 79.94 28.3549C78.9623 28.8865 77.8627 29.1543 76.7497 29.1319C75.839 29.1445 74.9372 28.95 74.1129 28.563C73.3173 28.1776 72.6258 27.6074 72.0962 26.9002C71.497 26.0844 71.059 25.1621 70.8055 24.1825C70.4875 22.9629 70.3363 21.7059 70.3562 20.4457C70.3463 19.2569 70.5153 18.0734 70.8576 16.9348C71.1595 15.9159 71.6521 14.9634 72.3094 14.1278C72.9345 13.3454 73.7234 12.7091 74.6207 12.2634C75.5732 11.8002 76.6215 11.5675 77.6808 11.584C78.5359 11.5454 79.3888 11.698 80.1773 12.0306C80.9658 12.3633 81.6699 12.8677 82.2383 13.5068V4.21277H85.5245ZM82.2383 16.0148C81.7033 15.3127 81.126 14.8223 80.5064 14.5439C79.8499 14.2593 79.1402 14.1174 78.4246 14.1278C76.9282 14.1278 75.7704 14.6652 74.9512 15.7402C74.1319 16.8151 73.7212 18.3863 73.719 20.4538C73.7039 21.3825 73.7967 22.3098 73.9957 23.217C74.1397 23.8873 74.4128 24.5233 74.7998 25.0895C75.1299 25.5562 75.5797 25.9256 76.1019 26.159C76.6515 26.3953 77.2452 26.5122 77.8435 26.502C78.7073 26.5247 79.5601 26.3044 80.3046 25.8664C81.0537 25.3912 81.7114 24.7857 82.2464 24.0785L82.2383 16.0148Z" fill="#0C3E4D"/>
<path d="M103.087 26.515C102.71 26.9697 102.264 27.3619 101.764 27.6772C101.246 28.0088 100.693 28.2814 100.115 28.4899C99.5249 28.7025 98.917 28.8619 98.2984 28.9661C97.6845 29.0722 97.0627 29.1265 96.4396 29.1287C95.3318 29.1402 94.2321 28.9388 93.2005 28.5354C92.229 28.1507 91.3542 27.5569 90.6386 26.7962C89.8864 25.9784 89.3132 25.0129 88.9556 23.9615C88.534 22.7127 88.3303 21.4009 88.3533 20.0833C88.3439 18.9567 88.5278 17.8369 88.897 16.7723C89.2359 15.788 89.7682 14.8812 90.4628 14.105C91.1575 13.3424 92.0086 12.7382 92.958 12.3333C94.0054 11.8889 95.1341 11.6674 96.272 11.6832C97.2366 11.6741 98.1942 11.8472 99.0944 12.1935C99.9373 12.5172 100.702 13.0158 101.337 13.6564C101.992 14.3356 102.497 15.1447 102.819 16.0311C103.192 17.0623 103.374 18.153 103.356 19.2494C103.356 19.7175 103.305 20.0296 103.204 20.1857C103.103 20.3482 102.915 20.4197 102.635 20.4197H91.2994C91.3118 21.3729 91.4615 22.3194 91.7438 23.2301C91.9708 23.9581 92.344 24.6323 92.8408 25.2114C93.2979 25.7323 93.871 26.1387 94.5141 26.398C95.2078 26.6684 95.9473 26.802 96.6919 26.7913C97.346 26.8047 97.9983 26.7169 98.6256 26.5313C99.106 26.3828 99.5736 26.1958 100.024 25.9721C100.359 25.8027 100.685 25.6155 101 25.4114C101.198 25.2627 101.433 25.173 101.679 25.1529C101.791 25.1476 101.901 25.171 102.001 25.2208C102.101 25.2706 102.186 25.3452 102.249 25.4374L103.087 26.515ZM100.676 18.5733C100.684 17.9292 100.585 17.2883 100.383 16.6764C100.203 16.1272 99.9123 15.6206 99.529 15.1875C99.1521 14.7657 98.6863 14.4326 98.165 14.2123C97.5861 13.9765 96.9654 13.8603 96.3403 13.8709C94.9112 13.8709 93.7811 14.286 92.9499 15.116C92.1187 15.9461 91.6022 17.0968 91.4003 18.5684L100.676 18.5733Z" fill="#0C3E4D"/>
<path d="M107.142 15.163C107.879 14.2331 108.785 13.4501 109.813 12.855C110.84 12.2706 112.005 11.9705 113.187 11.9854C114.014 11.9688 114.836 12.1169 115.606 12.421C116.277 12.6911 116.872 13.1213 117.339 13.6742C117.813 14.2556 118.165 14.9268 118.373 15.6474C118.617 16.4923 118.736 17.3686 118.724 18.2481V28.8815H117.116V18.2562C117.116 16.6958 116.759 15.4724 116.045 14.586C115.331 13.6996 114.243 13.2565 112.78 13.2565C111.712 13.2541 110.664 13.5399 109.746 14.0838C108.76 14.6732 107.903 15.4549 107.226 16.3821V28.8977H105.618V12.2536H106.507C106.567 12.2475 106.627 12.2537 106.684 12.2717C106.742 12.2896 106.795 12.319 106.841 12.3581C106.886 12.3971 106.923 12.445 106.95 12.4989C106.977 12.5527 106.992 12.6114 106.995 12.6713L107.142 15.163Z" fill="#0C3E4D"/>
<path d="M126.582 29.1578C125.554 29.1578 124.751 28.8761 124.171 28.3126C123.592 27.7492 123.301 26.8433 123.3 25.5949V13.7083H120.722C120.509 13.7083 120.396 13.6238 120.396 13.4564V13.1524L123.294 13.0354L123.544 6.68169C123.557 6.61196 123.586 6.54622 123.629 6.48989C123.649 6.46019 123.677 6.43611 123.709 6.41991C123.741 6.40371 123.777 6.39591 123.813 6.39724H124.181V13.0387H129.64V13.7083H124.181V25.5624C124.17 26.0082 124.238 26.4523 124.383 26.8741C124.497 27.2064 124.68 27.5114 124.918 27.7697C125.138 28.0011 125.41 28.1758 125.712 28.2785C126.033 28.3884 126.37 28.4434 126.709 28.441C127.098 28.4479 127.485 28.3801 127.848 28.2411C128.144 28.1239 128.427 27.978 128.694 27.8055C128.894 27.6752 129.084 27.5301 129.262 27.3715C129.407 27.2382 129.515 27.17 129.588 27.17C129.66 27.1786 129.726 27.2147 129.772 27.2707L129.99 27.5958C129.796 27.8336 129.574 28.0465 129.328 28.2297C129.07 28.4214 128.792 28.5848 128.499 28.7174C128.198 28.8565 127.884 28.9654 127.561 29.0424C127.241 29.1193 126.912 29.158 126.582 29.1578Z" fill="#0C3E4D"/>
<path d="M137.97 6.33544C138.363 6.33073 138.754 6.39794 139.122 6.53374C139.457 6.6581 139.762 6.85316 140.015 7.1056C140.267 7.35805 140.463 7.66195 140.587 7.9966C140.729 8.37419 140.799 8.77496 140.794 9.17827C140.8 9.58477 140.729 9.98876 140.587 10.3697C140.46 10.7078 140.262 11.0152 140.008 11.2718C139.754 11.5227 139.45 11.7171 139.116 11.8423C138.747 11.9795 138.357 12.0472 137.963 12.0422C137.568 12.0473 137.174 11.9796 136.803 11.8423C136.467 11.7165 136.16 11.5222 135.903 11.2718C135.645 11.0168 135.446 10.709 135.318 10.3697C135.176 9.98896 135.105 9.58483 135.112 9.17827C135.105 8.77489 135.176 8.37397 135.318 7.9966C135.446 7.66039 135.646 7.35592 135.903 7.10426C136.16 6.85537 136.467 6.66273 136.803 6.53861C137.176 6.40018 137.572 6.33131 137.97 6.33544ZM137.97 10.8102C138.134 10.8223 138.298 10.7915 138.446 10.7208C138.594 10.6501 138.721 10.5419 138.815 10.4071C138.994 10.1389 139.085 9.73091 139.085 9.18315C139.085 8.63539 138.994 8.22904 138.815 7.96247C138.72 7.82867 138.593 7.72153 138.445 7.65146C138.297 7.58139 138.133 7.55078 137.97 7.56262C137.804 7.55033 137.638 7.58061 137.487 7.65059C137.336 7.72057 137.205 7.82793 137.107 7.96247C136.925 8.22904 136.834 8.63701 136.834 9.18315C136.834 9.72928 136.925 10.1389 137.107 10.4071C137.204 10.5431 137.334 10.6518 137.485 10.7225C137.636 10.7932 137.803 10.8234 137.97 10.8102Z" fill="#206379"/>
<path d="M143.191 7.275C143.339 7.00359 143.541 6.76438 143.783 6.5712C144.003 6.40145 144.275 6.31095 144.553 6.31438C144.77 6.30382 144.985 6.36618 145.163 6.49155L145.056 7.70736C145.048 7.77065 145.017 7.82868 144.968 7.8699C144.919 7.89993 144.862 7.91465 144.805 7.91216H144.693L144.548 7.89916L144.395 7.8829C144.345 7.8829 144.296 7.8829 144.253 7.8829C144.042 7.8719 143.835 7.94035 143.672 8.0747C143.513 8.22403 143.387 8.40585 143.304 8.60784V11.9676H141.643V6.44117H142.626C142.695 6.43947 142.765 6.44657 142.832 6.4623C142.883 6.47413 142.931 6.49687 142.972 6.52894C143.011 6.56088 143.04 6.60238 143.057 6.64922C143.08 6.70237 143.099 6.75726 143.114 6.81339L143.191 7.275Z" fill="#206379"/>
<path d="M150.764 6.59233V7.19536C150.766 7.23504 150.76 7.27475 150.747 7.31216C150.733 7.34957 150.713 7.38391 150.686 7.41317C150.61 7.47808 150.519 7.52084 150.42 7.5367L150.018 7.62609C150.04 7.70516 150.057 7.7855 150.069 7.86666C150.082 7.95107 150.089 8.0364 150.088 8.12184C150.092 8.38154 150.033 8.63825 149.914 8.86953C149.798 9.08921 149.635 9.28108 149.437 9.43192C149.222 9.59278 148.979 9.71388 148.721 9.78951C148.434 9.87438 148.136 9.91656 147.837 9.91467C147.751 9.91467 147.674 9.91468 147.585 9.90655C147.504 9.9019 147.424 9.89213 147.344 9.87729C147.294 9.8993 147.251 9.93404 147.219 9.97799C147.187 10.0219 147.167 10.0736 147.162 10.1276C147.161 10.1727 147.176 10.2166 147.203 10.2527C147.23 10.2888 147.268 10.3151 147.312 10.3275C147.439 10.3747 147.573 10.4037 147.709 10.4137C147.871 10.4299 148.059 10.4397 148.269 10.4446C148.479 10.4494 148.69 10.4624 148.908 10.4819C149.124 10.5016 149.338 10.5348 149.55 10.5811C149.748 10.6225 149.937 10.6984 150.11 10.8054C150.274 10.9083 150.41 11.0501 150.507 11.2182C150.612 11.4183 150.664 11.6424 150.656 11.8684C150.654 12.1232 150.592 12.3738 150.474 12.5998C150.344 12.8475 150.161 13.0639 149.939 13.2338C149.677 13.4319 149.383 13.5827 149.069 13.6791C148.688 13.795 148.29 13.8499 147.891 13.8417C147.511 13.8475 147.131 13.806 146.761 13.7181C146.483 13.6515 146.218 13.5418 145.974 13.393C145.784 13.279 145.626 13.1205 145.511 12.9314C145.413 12.7667 145.361 12.5787 145.36 12.3869C145.352 12.163 145.429 11.9443 145.575 11.7741C145.74 11.5955 145.946 11.4599 146.175 11.3792C146.033 11.2992 145.915 11.1803 145.838 11.0365C145.76 10.8926 145.725 10.7296 145.736 10.5665C145.737 10.4787 145.751 10.3916 145.778 10.308C145.81 10.2127 145.856 10.1229 145.915 10.0415C145.982 9.95017 146.061 9.86723 146.148 9.79439C146.247 9.71099 146.356 9.64103 146.473 9.58634C146.197 9.44509 145.961 9.23657 145.786 8.98006C145.615 8.71962 145.528 8.41363 145.534 8.10234C145.531 7.84231 145.592 7.58545 145.711 7.35465C145.83 7.13201 145.997 6.93872 146.2 6.78901C146.418 6.6275 146.664 6.50639 146.926 6.43142C147.22 6.34602 147.526 6.30386 147.832 6.30626C148.265 6.29734 148.694 6.38857 149.086 6.57283L150.764 6.59233ZM149.136 12.1545C149.139 12.0945 149.124 12.035 149.092 11.984C149.06 11.9329 149.014 11.8926 148.959 11.8684C148.813 11.8023 148.657 11.7601 148.498 11.7433C148.309 11.7189 148.098 11.7042 147.863 11.6977C147.629 11.6912 147.396 11.6799 147.163 11.6587C147.066 11.7237 146.981 11.8038 146.909 11.8961C146.844 11.9805 146.809 12.0849 146.81 12.1919C146.809 12.266 146.826 12.3392 146.861 12.4048C146.904 12.4748 146.966 12.5311 147.04 12.5673C147.149 12.6209 147.266 12.6576 147.386 12.6762C147.568 12.7057 147.751 12.7193 147.935 12.7169C148.133 12.7202 148.331 12.7055 148.526 12.673C148.653 12.6537 148.777 12.6142 148.892 12.556C148.972 12.5173 149.039 12.4549 149.082 12.3772C149.118 12.3082 149.136 12.2319 149.136 12.1545ZM147.85 8.89554C147.953 8.91098 148.057 8.90298 148.156 8.87213C148.255 8.84129 148.346 8.78841 148.421 8.71749C148.496 8.64657 148.555 8.55946 148.591 8.46275C148.628 8.36604 148.642 8.26225 148.633 8.15923C148.639 8.06356 148.625 7.96775 148.593 7.87736C148.561 7.78697 148.512 7.70377 148.448 7.6326C148.273 7.50794 148.065 7.4409 147.85 7.4409C147.636 7.4409 147.427 7.50794 147.253 7.6326C147.189 7.70377 147.139 7.78697 147.107 7.87736C147.075 7.96775 147.062 8.06356 147.067 8.15923C147.066 8.25915 147.081 8.35859 147.113 8.45343C147.143 8.54027 147.191 8.61959 147.255 8.68586C147.323 8.75689 147.407 8.81232 147.499 8.8484C147.61 8.88463 147.727 8.9006 147.844 8.89554H147.85Z" fill="#206379"/>
<path d="M36.8669 42.0003H40.6105V46.4263C40.09 46.8104 39.506 47.1003 38.8852 47.2829C38.2638 47.4629 37.6197 47.5526 36.9727 47.5494C36.165 47.5603 35.3622 47.4225 34.6044 47.1431C33.9268 46.893 33.3055 46.5113 32.7765 46.0199C32.2701 45.5428 31.8706 44.9639 31.6046 44.3214C31.3264 43.6451 31.1864 42.92 31.1928 42.1889C31.1842 41.4521 31.3168 40.7206 31.5834 40.0336C31.8341 39.3986 32.2163 38.8237 32.7049 38.3464C33.2077 37.8594 33.8063 37.4819 34.4628 37.2379C35.1995 36.9653 35.9803 36.8308 36.766 36.8413C37.1808 36.8396 37.5949 36.8761 38.003 36.9502C38.3665 37.0161 38.7233 37.1146 39.0691 37.2444C39.3812 37.3631 39.6806 37.5128 39.9627 37.6913C40.2214 37.8549 40.4639 38.0427 40.687 38.2521L39.9774 39.3249C39.9302 39.4025 39.8678 39.4699 39.794 39.523C39.7202 39.576 39.6364 39.6137 39.5477 39.6337C39.3488 39.6676 39.1445 39.6214 38.9796 39.5053C38.7859 39.3899 38.6052 39.2891 38.4327 39.2062C38.2644 39.1226 38.089 39.0541 37.9086 39.0014C37.7245 38.9471 37.5361 38.9085 37.3454 38.886C37.1244 38.8607 36.9021 38.8487 36.6797 38.8503C36.255 38.8432 35.8336 38.9252 35.4426 39.0908C35.084 39.246 34.764 39.4779 34.5051 39.7702C34.2388 40.0792 34.0363 40.4377 33.9094 40.8251C33.7642 41.2677 33.6932 41.7313 33.6994 42.197C33.6907 42.7007 33.7689 43.2021 33.9305 43.6793C34.0692 44.0852 34.2909 44.4577 34.5816 44.7732C34.865 45.0713 35.2106 45.3032 35.594 45.4527C36.0093 45.6124 36.4512 45.6919 36.8962 45.6867C37.1656 45.6892 37.4343 45.6603 37.697 45.6006C37.935 45.5423 38.1679 45.4651 38.3936 45.3698V43.7801H37.3519C37.2199 43.7878 37.0902 43.7435 36.9906 43.6566C36.9481 43.6173 36.9146 43.5695 36.8921 43.5162C36.8696 43.4629 36.8588 43.4055 36.8604 43.3478L36.8669 42.0003Z" fill="#0C3E4D"/>
<path d="M44.239 36.6609V47.4341H41.9961V36.6609H44.239Z" fill="#0C3E4D"/>
<path d="M49.2145 39.8563C49.7446 39.8499 50.2714 39.9402 50.769 40.1229C51.22 40.2889 51.6306 40.5487 51.9735 40.8852C52.3161 41.2277 52.5823 41.6387 52.7547 42.0913C52.9468 42.6001 53.0412 43.1405 53.0331 43.6842C53.0413 44.2332 52.9469 44.7789 52.7547 45.2933C52.5832 45.7491 52.3169 46.1635 51.9735 46.5091C51.6309 46.8479 51.2204 47.1104 50.769 47.2796C50.272 47.4649 49.7449 47.5564 49.2145 47.5494C48.6804 47.5566 48.1495 47.4652 47.6487 47.2796C47.1942 47.11 46.78 46.8476 46.4328 46.5091C46.0858 46.1651 45.817 45.7504 45.645 45.2933C45.4529 44.7789 45.3585 44.2332 45.3667 43.6842C45.3585 43.1405 45.453 42.6001 45.645 42.0913C45.8179 41.6374 46.0866 41.2261 46.4328 40.8852C46.7805 40.5492 47.1946 40.2895 47.6487 40.1229C48.1501 39.9398 48.6807 39.8495 49.2145 39.8563ZM49.2145 45.8947C49.73 45.8947 50.1098 45.7132 50.3539 45.3502C50.5981 44.9872 50.7196 44.4367 50.7185 43.6988C50.7185 42.9608 50.597 42.4115 50.3539 42.0506C50.1108 41.6898 49.7311 41.5099 49.2145 41.511C48.6839 41.511 48.2965 41.6914 48.0491 42.0506C47.8017 42.4098 47.6813 42.9608 47.6813 43.6988C47.6813 44.4367 47.8033 44.9894 48.0491 45.3502C48.2949 45.711 48.6839 45.8947 49.2145 45.8947Z" fill="#0C3E4D"/>
<path d="M56.4034 40.7634C56.6854 40.499 57.0066 40.2797 57.3556 40.1133C57.7158 39.944 58.11 39.8589 58.508 39.8646C58.9039 39.857 59.296 39.9433 59.652 40.1165C60.008 40.2898 60.3177 40.5449 60.5556 40.8609C60.8148 41.2078 61.0074 41.5997 61.1237 42.0166C61.2615 42.5085 61.3283 43.0175 61.3223 43.5282C61.3289 44.085 61.251 44.6397 61.0912 45.1731C60.955 45.633 60.7343 46.0635 60.4401 46.4426C60.1678 46.7866 59.8234 47.0668 59.4309 47.2634C59.0257 47.461 58.5797 47.5607 58.1288 47.5544C57.9245 47.557 57.7207 47.5352 57.5217 47.4893C57.3517 47.4493 57.1875 47.3876 57.0333 47.3057C56.8856 47.2287 56.7483 47.1331 56.6248 47.0212C56.4982 46.9089 56.3786 46.7889 56.2667 46.662L56.1869 47.0359C56.1683 47.1645 56.1007 47.281 55.9981 47.3609C55.8938 47.4237 55.773 47.4537 55.6514 47.4471H54.1621V36.6609H56.4034V40.7634ZM56.4034 45.4056C56.5545 45.5756 56.7427 45.7085 56.9536 45.794C57.1448 45.8696 57.3485 45.9088 57.5542 45.9095C57.7557 45.911 57.9552 45.8706 58.1402 45.7908C58.3253 45.7047 58.4838 45.5705 58.5992 45.4023C58.7426 45.1851 58.8441 44.9432 58.8987 44.6888C58.9783 44.3308 59.0149 43.9647 59.0077 43.5981C59.0127 43.2786 58.9849 42.9595 58.9247 42.6456C58.8828 42.4189 58.7994 42.2019 58.6789 42.0052C58.5807 41.8491 58.4402 41.724 58.2736 41.6444C58.0995 41.5676 57.9106 41.5299 57.7202 41.5339C57.4697 41.5278 57.2222 41.5896 57.004 41.7127C56.7769 41.8549 56.5741 42.0327 56.4034 42.2393V45.4056Z" fill="#0C3E4D"/>
<path d="M62.3059 41.0072C62.7467 40.6168 63.2591 40.3154 63.8148 40.1197C64.3856 39.9215 64.9863 39.8226 65.5906 39.8271C66.0095 39.8209 66.4256 39.8954 66.8162 40.0466C67.1652 40.1826 67.4809 40.3915 67.7424 40.6594C67.9992 40.9261 68.1976 41.2433 68.3251 41.5907C68.4632 41.9687 68.5316 42.3685 68.5269 42.7708V47.4341H67.4999C67.3325 47.4452 67.1649 47.4157 67.0116 47.3479C66.881 47.2643 66.7846 47.137 66.7397 46.9887L66.577 46.5775C66.4034 46.7257 66.2225 46.8652 66.0349 46.9952C65.8652 47.1134 65.6848 47.2157 65.4962 47.3008C65.306 47.3862 65.1067 47.4494 64.9021 47.4893C64.6723 47.5316 64.439 47.5517 64.2054 47.5495C63.889 47.5537 63.5738 47.5087 63.2711 47.4162C63.0092 47.3368 62.7668 47.2034 62.5598 47.0245C62.3603 46.8459 62.2054 46.6233 62.1074 46.3743C61.9954 46.0914 61.9401 45.7894 61.9446 45.4852C61.9495 45.2024 62.0191 44.9244 62.148 44.6725C62.3124 44.3641 62.5541 44.1037 62.8496 43.9167C63.2635 43.654 63.7176 43.4608 64.194 43.3445C64.8927 43.1748 65.6089 43.088 66.3279 43.0861V42.7692C66.3279 42.3335 66.2384 42.0166 66.0561 41.8232C65.956 41.7226 65.8355 41.6446 65.7027 41.5944C65.5699 41.5442 65.4279 41.523 65.2862 41.5322C65.0659 41.5254 64.846 41.5545 64.6351 41.6184C64.4797 41.67 64.3288 41.7347 64.1843 41.8118C64.0508 41.8849 63.9222 41.9483 63.7969 42.0068C63.655 42.0673 63.5018 42.0966 63.3476 42.093C63.2084 42.0972 63.0715 42.0568 62.957 41.9776C62.8538 41.9036 62.7655 41.811 62.6966 41.7045L62.3059 41.0072ZM66.3426 44.3978C65.9713 44.4085 65.6013 44.4471 65.2357 44.5132C64.9982 44.5536 64.7671 44.6257 64.5489 44.7278C64.4069 44.7918 64.2856 44.8943 64.1989 45.0236C64.1344 45.1323 64.1006 45.2564 64.1013 45.3828C64.0902 45.4824 64.1034 45.5831 64.1397 45.6765C64.1759 45.7699 64.2342 45.8531 64.3096 45.9192C64.4931 46.0345 64.7086 46.0886 64.9249 46.0736C65.1861 46.079 65.4453 46.028 65.685 45.9241C65.9292 45.8013 66.1496 45.6362 66.3361 45.4365L66.3426 44.3978Z" fill="#0C3E4D"/>
<path d="M72.2019 36.6609V47.4341H69.959V36.6609H72.2019Z" fill="#0C3E4D"/>
<path d="M79.7466 47.5494C79.4246 47.5527 79.1048 47.4976 78.8025 47.3869C78.5435 47.2929 78.3084 47.1431 78.114 46.948C77.9252 46.7518 77.7809 46.5173 77.6908 46.2605C77.5917 45.9713 77.5433 45.6673 77.5476 45.3616V41.5111H76.9112C76.8535 41.5142 76.7959 41.5048 76.7422 41.4835C76.6885 41.4623 76.6401 41.4297 76.6002 41.388C76.5603 41.3463 76.5299 41.2965 76.5111 41.242C76.4923 41.1875 76.4855 41.1296 76.4912 41.0722V40.2026L77.6811 39.9718L78.1222 38.1513C78.146 38.0434 78.2092 37.9482 78.2995 37.8842C78.3897 37.8202 78.5006 37.792 78.6105 37.8051H79.797V39.9864H81.6558V41.5111H79.797V45.2186C79.791 45.3712 79.8356 45.5215 79.924 45.6461C79.9671 45.7006 80.0227 45.7439 80.0862 45.7722C80.1497 45.8005 80.2192 45.813 80.2886 45.8086C80.3583 45.8102 80.4279 45.802 80.4953 45.7843C80.5451 45.7687 80.5936 45.7492 80.6402 45.7257L80.7557 45.6688C80.7955 45.6504 80.8389 45.6415 80.8827 45.6428C80.9406 45.6404 80.9978 45.6569 81.0455 45.69C81.0959 45.7317 81.1388 45.7817 81.1724 45.8379L81.8512 46.896C81.5566 47.1143 81.2261 47.2793 80.8746 47.3836C80.5087 47.4937 80.1287 47.5496 79.7466 47.5494Z" fill="#0C3E4D"/>
<path d="M84.8595 40.622C85.1241 40.395 85.4202 40.2072 85.7384 40.0645C86.0988 39.9136 86.4872 39.841 86.8778 39.8516C87.2513 39.8447 87.6219 39.9173 87.9651 40.0645C88.2723 40.1998 88.5458 40.4013 88.7659 40.6545C88.9879 40.9181 89.154 41.2238 89.2542 41.5534C89.3671 41.9219 89.422 42.3058 89.417 42.6911V47.4341H87.174V42.6911C87.1927 42.3865 87.1033 42.085 86.9218 41.8394C86.8294 41.7346 86.7141 41.6526 86.5848 41.5996C86.4555 41.5466 86.3157 41.5241 86.1763 41.5339C85.9374 41.5316 85.7012 41.5845 85.4861 41.6883C85.2591 41.7995 85.0483 41.9412 84.8595 42.1093V47.4341H82.6182V36.6609H84.8595V40.622Z" fill="#0C3E4D"/>
<path d="M93.3876 37.927C93.3882 38.0998 93.351 38.2707 93.2785 38.4276C93.2062 38.5809 93.1051 38.7189 92.9806 38.834C92.853 38.9534 92.7046 39.0487 92.5428 39.1152C92.3742 39.1853 92.1932 39.2207 92.0105 39.2192C91.8342 39.2207 91.6596 39.1853 91.4978 39.1152C91.3409 39.0477 91.1975 38.9525 91.0746 38.834C90.9519 38.7179 90.8534 38.5787 90.7849 38.4244C90.7147 38.2669 90.6792 38.0962 90.6807 37.9238C90.6791 37.7482 90.7146 37.5743 90.7849 37.4134C90.9254 37.0997 91.1812 36.8518 91.4995 36.721C91.6617 36.6527 91.8362 36.6184 92.0122 36.6202C92.1945 36.6184 92.3754 36.6527 92.5444 36.721C92.7071 36.785 92.8558 36.8799 92.9823 37.0005C93.1063 37.12 93.2068 37.2617 93.2785 37.4183C93.351 37.5781 93.3882 37.7516 93.3876 37.927ZM93.1548 39.9718V47.434H90.9135V39.9718H93.1548Z" fill="#0C3E4D"/>
<path d="M96.7944 40.7845C96.9362 40.6514 97.0857 40.5265 97.242 40.4106C97.3964 40.2955 97.5629 40.1974 97.7384 40.1181C97.9221 40.0369 98.1135 39.9743 98.3097 39.9311C98.5296 39.8841 98.7539 39.8612 98.9787 39.8629C99.3527 39.8559 99.7239 39.9285 100.068 40.0758C100.374 40.211 100.647 40.4125 100.867 40.6658C101.089 40.9294 101.255 41.2352 101.355 41.5647C101.468 41.9333 101.523 42.3171 101.518 42.7025V47.4454H99.2815V42.6911C99.3001 42.3864 99.2108 42.0849 99.0292 41.8394C98.9368 41.7346 98.8215 41.6525 98.6922 41.5995C98.5629 41.5465 98.4231 41.524 98.2837 41.5338C98.0448 41.5317 97.8087 41.5846 97.5936 41.6882C97.3665 41.7995 97.1557 41.9411 96.9669 42.1092V47.434H94.7256V39.9718H96.114C96.2347 39.9618 96.3552 39.9935 96.4553 40.0615C96.5554 40.1295 96.6292 40.2298 96.6642 40.3456L96.7944 40.7845Z" fill="#0C3E4D"/>
<path d="M105.213 36.6609V42.6993H105.547C105.656 42.7057 105.765 42.6844 105.864 42.6375C105.95 42.5848 106.024 42.5151 106.082 42.4327L107.5 40.3311C107.577 40.2122 107.685 40.1161 107.812 40.0529C107.939 39.9898 108.081 39.9618 108.223 39.9718H110.277L108.338 42.6278C108.159 42.8629 107.939 43.063 107.687 43.2178C107.8 43.3 107.902 43.3955 107.991 43.5022C108.087 43.6165 108.174 43.7377 108.252 43.8647L110.368 47.4406H108.338C108.19 47.4446 108.042 47.4163 107.905 47.3577C107.776 47.2951 107.669 47.1933 107.601 47.0668L106.183 44.4255C106.137 44.329 106.064 44.2478 105.973 44.1914C105.87 44.15 105.759 44.1316 105.648 44.1378H105.213V47.4406H102.972V36.6609H105.213Z" fill="#0C3E4D"/>
<path d="M113.577 37.927C113.577 38.0998 113.54 38.2707 113.468 38.4276C113.394 38.5813 113.291 38.7193 113.165 38.834C113.037 38.9534 112.889 39.0487 112.727 39.1152C112.558 39.1853 112.377 39.2207 112.195 39.2192C112.018 39.2208 111.844 39.1854 111.682 39.1152C111.525 39.0477 111.382 38.9525 111.259 38.834C111.136 38.7179 111.038 38.5787 110.969 38.4244C110.898 38.267 110.862 38.0963 110.863 37.9238C110.862 37.7481 110.898 37.5742 110.969 37.4134C111.108 37.0981 111.364 36.8484 111.682 36.7161C111.844 36.6477 112.019 36.6134 112.195 36.6153C112.377 36.6136 112.558 36.6478 112.727 36.7161C112.89 36.7801 113.038 36.8751 113.165 36.9957C113.289 37.1152 113.389 37.2569 113.461 37.4134C113.536 37.5742 113.576 37.7495 113.577 37.927ZM113.344 39.9718V47.434H111.103V39.9718H113.344Z" fill="#0C3E4D"/>
<path d="M116.983 40.7845C117.124 40.651 117.274 40.5261 117.43 40.4106C117.582 40.2959 117.746 40.1978 117.919 40.1181C118.31 39.9452 118.733 39.8582 119.161 39.8629C119.534 39.856 119.905 39.9286 120.248 40.0758C120.555 40.2111 120.829 40.4126 121.049 40.6658C121.271 40.9294 121.437 41.2351 121.537 41.5647C121.65 41.9332 121.705 42.3171 121.7 42.7024V47.4454H119.47V42.6911C119.489 42.3864 119.399 42.0849 119.218 41.8394C119.125 41.7346 119.01 41.6525 118.881 41.5995C118.751 41.5465 118.612 41.524 118.472 41.5338C118.233 41.5315 117.997 41.5844 117.782 41.6882C117.555 41.7995 117.344 41.9411 117.155 42.1092V47.434H114.914V39.9718H116.302C116.423 39.9618 116.544 39.9934 116.644 40.0615C116.744 40.1295 116.818 40.2298 116.853 40.3456L116.983 40.7845Z" fill="#0C3E4D"/>
<path d="M129.965 40.2025V41.0152C129.968 41.0687 129.961 41.1223 129.943 41.1729C129.925 41.2234 129.897 41.2698 129.861 41.3094C129.76 41.3967 129.635 41.4531 129.503 41.472L128.961 41.5939C128.99 41.7009 129.013 41.8094 129.029 41.919C129.046 42.033 129.055 42.1482 129.055 42.2636C129.061 42.6137 128.979 42.9598 128.819 43.2713C128.661 43.5692 128.439 43.8284 128.168 44.0304C127.878 44.2502 127.551 44.4155 127.201 44.518C126.814 44.6306 126.412 44.6853 126.008 44.6805C125.893 44.6805 125.779 44.6805 125.668 44.6692C125.559 44.6629 125.45 44.6498 125.343 44.6302C125.275 44.6599 125.217 44.7068 125.174 44.7662C125.131 44.8255 125.104 44.8953 125.097 44.9682C125.097 45.0289 125.116 45.088 125.153 45.1367C125.189 45.1853 125.24 45.2209 125.299 45.2381C125.471 45.3018 125.651 45.3407 125.834 45.3535C126.057 45.3746 126.308 45.3892 126.591 45.3973C126.874 45.4055 127.161 45.4201 127.455 45.4461C127.746 45.473 128.035 45.5175 128.32 45.5794C128.587 45.6368 128.842 45.739 129.075 45.8817C129.297 46.0207 129.481 46.2129 129.61 46.4409C129.755 46.7137 129.825 47.0199 129.812 47.3283C129.811 47.6721 129.726 48.0105 129.567 48.315C129.392 48.6503 129.145 48.9429 128.844 49.1715C128.491 49.4386 128.095 49.6421 127.672 49.7729C127.156 49.9308 126.619 50.0071 126.08 49.9989C125.568 50.0085 125.057 49.9539 124.558 49.8363C124.183 49.7476 123.824 49.6006 123.495 49.4007C123.238 49.2478 123.023 49.034 122.869 48.7782C122.737 48.5561 122.668 48.3031 122.667 48.0451C122.656 47.7424 122.76 47.4467 122.956 47.2162C123.18 46.9752 123.46 46.7927 123.77 46.6847C123.578 46.5765 123.421 46.4165 123.316 46.223C123.211 46.0294 123.163 45.8103 123.178 45.5908C123.179 45.472 123.199 45.3541 123.236 45.2413C123.278 45.1123 123.34 44.991 123.42 44.8821C123.511 44.7577 123.616 44.6452 123.735 44.5473C123.871 44.4342 124.022 44.3396 124.184 44.2661C123.812 44.0771 123.493 43.7976 123.258 43.4534C123.027 43.1017 122.908 42.6886 122.917 42.2684C122.912 41.9169 122.994 41.5695 123.157 41.2574C123.314 40.9579 123.536 40.6974 123.808 40.4951C124.102 40.2758 124.432 40.1107 124.784 40.0075C125.182 39.8943 125.594 39.8395 126.007 39.845C126.591 39.8336 127.171 39.9571 127.7 40.2058L129.965 40.2025ZM127.753 47.7087C127.757 47.6278 127.737 47.5476 127.694 47.4788C127.651 47.4099 127.588 47.3557 127.514 47.3235C127.317 47.2354 127.107 47.1804 126.892 47.1609C126.608 47.1244 126.321 47.1038 126.034 47.0991C125.719 47.0926 125.404 47.0748 125.09 47.0455C124.959 47.1348 124.843 47.2446 124.747 47.3706C124.659 47.485 124.611 47.6259 124.613 47.7704C124.612 47.8705 124.636 47.9693 124.682 48.0581C124.739 48.1548 124.823 48.2324 124.924 48.2808C125.072 48.3534 125.229 48.4033 125.391 48.4287C125.636 48.4684 125.884 48.4863 126.132 48.4824C126.399 48.4869 126.665 48.4673 126.928 48.4239C127.098 48.3952 127.263 48.3404 127.416 48.2613C127.524 48.2087 127.614 48.1249 127.674 48.0208C127.726 47.9251 127.753 47.8177 127.753 47.7087ZM126.023 43.3103C126.394 43.3103 126.665 43.2182 126.837 43.034C127.008 42.8352 127.097 42.579 127.086 42.3172C127.093 42.188 127.075 42.0586 127.032 41.9365C126.99 41.8143 126.923 41.7017 126.837 41.6053C126.669 41.433 126.397 41.3468 126.023 41.3468C125.649 41.3468 125.377 41.433 125.209 41.6053C125.123 41.7017 125.056 41.8143 125.014 41.9365C124.971 42.0586 124.953 42.188 124.96 42.3172C124.959 42.4519 124.98 42.5859 125.022 42.7138C125.061 42.8314 125.127 42.9382 125.214 43.0259C125.306 43.1191 125.417 43.1907 125.54 43.2356C125.695 43.2902 125.859 43.3155 126.023 43.3103Z" fill="#0C3E4D"/>
<path d="M146.329 2.39422V2.23168C146.329 2.22355 146.329 2.21543 146.329 2.2073C146.337 2.11656 146.35 2.02643 146.37 1.93748C146.402 1.74108 146.46 1.54979 146.542 1.36859C146.755 0.899218 147.116 0.512977 147.571 0.269818C147.775 0.159861 147.994 0.0820103 148.222 0.0390131C148.319 0.0194238 148.417 0.00638745 148.515 0H148.592H148.767C148.889 0.00498311 149.01 0.0196617 149.129 0.0438891C149.651 0.148663 150.122 0.429219 150.462 0.838709C150.613 1.01935 150.735 1.2222 150.825 1.44011C150.95 1.74242 151.009 2.06771 150.999 2.39462C150.99 2.72153 150.911 3.04266 150.768 3.33695C150.667 3.54473 150.536 3.73644 150.379 3.90585C150.17 4.1308 149.919 4.31235 149.639 4.4401C149.36 4.56785 149.058 4.63927 148.751 4.65028C148.57 4.65663 148.39 4.64245 148.212 4.60802C147.977 4.56192 147.751 4.47909 147.542 4.36259C147.269 4.21222 147.029 4.00883 146.837 3.76444C146.661 3.54341 146.527 3.29151 146.443 3.02163C146.388 2.84638 146.353 2.66526 146.34 2.482L146.329 2.39422ZM148.66 0.34459C148.27 0.344268 147.888 0.459574 147.563 0.675916C147.239 0.892258 146.986 1.19991 146.836 1.55994C146.687 1.91998 146.647 2.31621 146.723 2.6985C146.799 3.0808 146.987 3.43197 147.263 3.70757C147.539 3.98318 147.891 4.17084 148.274 4.2468C148.657 4.32276 149.053 4.28361 149.414 4.1343C149.775 3.98499 150.083 3.73224 150.299 3.40803C150.516 3.08382 150.631 2.70272 150.631 2.31295C150.631 2.0544 150.58 1.79835 150.481 1.55944C150.382 1.32053 150.237 1.10346 150.054 0.920634C149.871 0.737812 149.654 0.592829 149.415 0.493985C149.175 0.395142 148.919 0.344376 148.66 0.34459Z" fill="#206379"/>
<path d="M149.108 2.57134L149.629 3.38405H149.287C149.282 3.38472 149.276 3.38384 149.272 3.38152C149.267 3.37921 149.263 3.37556 149.261 3.37105L148.772 2.60873C148.771 2.60461 148.768 2.60114 148.764 2.5988C148.76 2.59646 148.756 2.59539 148.751 2.59572H148.3V3.38243H147.942V1.23688H148.886C148.984 1.23388 149.082 1.2465 149.176 1.27427C149.271 1.29878 149.36 1.34007 149.44 1.39618C149.54 1.46543 149.612 1.56799 149.643 1.6855C149.657 1.74886 149.667 1.81288 149.674 1.8773C149.679 1.9632 149.671 2.04938 149.648 2.13249C149.636 2.19077 149.612 2.24602 149.578 2.29503C149.499 2.40599 149.384 2.48678 149.253 2.52421C149.205 2.53883 149.158 2.55022 149.111 2.56322L149.108 2.57134ZM148.294 2.29665H148.812C148.848 2.29751 148.884 2.29424 148.919 2.2869C148.976 2.27389 149.033 2.25439 149.082 2.23814C149.113 2.22982 149.142 2.21484 149.166 2.19425C149.223 2.15423 149.265 2.0973 149.287 2.03171C149.305 1.95911 149.305 1.88325 149.287 1.81065C149.283 1.77865 149.273 1.74769 149.257 1.71973C149.241 1.69176 149.22 1.66738 149.194 1.64811C149.157 1.62373 149.121 1.59935 149.082 1.57659C149.053 1.55934 149.021 1.54826 148.987 1.54408L148.912 1.53433C148.878 1.53433 148.844 1.52458 148.812 1.52458H148.278L148.294 2.29665Z" fill="#206379"/>
</svg>
