<svg width="21" height="11" viewBox="0 0 21 11" fill="none" xmlns="http://www.w3.org/2000/svg">
<path d="M20.7085 1.83122C20.7093 2.04908 20.6612 2.26435 20.5678 2.46119C20.4744 2.65804 20.3381 2.83146 20.169 2.96872L11.419 10.0125C11.158 10.227 10.8307 10.3442 10.4929 10.3442C10.1551 10.3442 9.82781 10.227 9.56687 10.0125L0.816865 2.7208C0.519049 2.47327 0.331763 2.11756 0.29621 1.73194C0.260656 1.34632 0.379746 0.962367 0.627282 0.664552C0.874817 0.366735 1.23052 0.17945 1.61614 0.143896C2.00176 0.108343 2.38572 0.227432 2.68353 0.474968L10.5002 6.99372L18.3169 0.693718C18.5309 0.515389 18.7916 0.402109 19.068 0.367285C19.3444 0.332461 19.6251 0.377547 19.8767 0.497213C20.1283 0.616878 20.3403 0.80611 20.4878 1.04252C20.6352 1.27893 20.7118 1.55263 20.7085 1.83122Z" fill="#F0E967"/>
</svg>
